<?xml version="1.0" standalone="no"?>
<!DOCTYPE svg PUBLIC "-//W3C//DTD SVG 1.1//EN" "http://www.w3.org/Graphics/SVG/1.1/DTD/svg11.dtd" >
<svg xmlns="http://www.w3.org/2000/svg" xmlns:xlink="http://www.w3.org/1999/xlink" version="1.1">
<metadata>
Created by FontForge 20160402 at Wed Oct 12 16:38:06 2016
 By ip
Copyright (c) 2016 by Hubert Jocham.
</metadata>
<defs>
<font id="innogyWEB-Medium" horiz-adv-x="1176" >
  <font-face 
    font-family="innogyWEB Medium"
    font-weight="500"
    font-stretch="normal"
    units-per-em="2048"
    panose-1="2 11 6 3 4 0 0 2 0 3"
    ascent="1638"
    descent="-410"
    x-height="916"
    cap-height="1332"
    bbox="-827 -470 2024 1795"
    underline-thickness="102"
    underline-position="-205"
    unicode-range="U+0020-FB02"
  />
<missing-glyph horiz-adv-x="979" 
d="M182 1489h621v-1959h-621v1959zM653 1156v65h-129v73h129v64h-323v-64h127v-73h-129v-65h325zM653 901v68h-129v136h-196v-204h325zM391 1038h66v-69h-66v69zM524 647v137h129v64h-325v-64h129v-73h-129v-64h196zM653 535v196h-65v-129h-260v-67h325zM653 270v222h-196
v-109h67v45h64v-92h-197v156h-63v-222h325zM653 -69v223h-325v-223h325zM391 88h197v-92h-197v92zM653 -335v65h-200l137 92h63v64h-325v-64h137l-137 -92v-65h325z" />
    <glyph glyph-name="uniFB01" unicode="fi" horiz-adv-x="1136" 
d="M190 56v712h-106q-20 0 -34 15t-14 48v24q0 31 14 46t34 15h106v25q0 185 104 288t299 103h69q47 0 47 -60v-43q0 -31 -13 -45.5t-34 -14.5h-37q-117 0 -173.5 -54.5t-56.5 -174.5v-24h235q20 0 33.5 -15t13.5 -46v-25q0 -32 -13.5 -47t-33.5 -15h-235v-712
q0 -56 -81 -56h-41q-83 0 -83 56zM839 1129q-32 31 -32 84q0 51 32 82.5t84 31.5q51 0 83 -31.5t32 -82.5q0 -53 -32 -84t-83 -31q-52 0 -84 31zM820 56v805q0 55 80 55h42q44 0 63 -15.5t19 -39.5v-805q0 -56 -82 -56h-42q-80 0 -80 56z" />
    <glyph glyph-name="uniFB02" unicode="fl" horiz-adv-x="1136" 
d="M190 56v712h-106q-20 0 -34 15t-14 48v24q0 31 14 46t34 15h106v25q0 185 104 288t299 103h69q47 0 47 -60v-43q0 -31 -13 -45.5t-34 -14.5h-37q-117 0 -173.5 -54.5t-56.5 -174.5v-24h235q20 0 33.5 -15t13.5 -46v-25q0 -32 -13.5 -47t-33.5 -15h-235v-712
q0 -56 -81 -56h-41q-83 0 -83 56zM820 56v1222q0 54 80 54h42q82 0 82 -54v-1222q0 -56 -82 -56h-42q-80 0 -80 56z" />
    <glyph glyph-name=".notdef" horiz-adv-x="979" 
d="M182 1489h621v-1959h-621v1959zM653 1156v65h-129v73h129v64h-323v-64h127v-73h-129v-65h325zM653 901v68h-129v136h-196v-204h325zM391 1038h66v-69h-66v69zM524 647v137h129v64h-325v-64h129v-73h-129v-64h196zM653 535v196h-65v-129h-260v-67h325zM653 270v222h-196
v-109h67v45h64v-92h-197v156h-63v-222h325zM653 -69v223h-325v-223h325zM391 88h197v-92h-197v92zM653 -335v65h-200l137 92h63v64h-325v-64h137l-137 -92v-65h325z" />
    <glyph glyph-name="space" unicode=" " horiz-adv-x="465" 
 />
    <glyph glyph-name="A" unicode="A" horiz-adv-x="1342" 
d="M70 46q0 9 3 19l402 1135q26 82 67 117t121 35h26q72 0 115 -36t69 -115l396 -1136q3 -9 3 -18q0 -21 -18.5 -34t-59.5 -13h-59q-90 0 -109 65l-104 322h-516l-105 -322q-19 -65 -111 -65h-42q-78 0 -78 46zM874 546l-187 589q-5 16 -19 16q-11 0 -16 -16l-195 -589h417z
" />
    <glyph glyph-name="B" unicode="B" horiz-adv-x="1218" 
d="M121 149v1035q0 72 45.5 110t144.5 38h370q203 0 300 -83.5t97 -254.5q0 -113 -50 -189t-146 -112q239 -66 239 -320q0 -180 -105 -276.5t-316 -96.5h-389q-190 0 -190 149zM613 754q135 0 193.5 53.5t58.5 160.5q0 72 -22.5 115.5t-74.5 64t-142 20.5h-241
q-44 0 -44 -33v-381h272zM644 162q134 0 191.5 55t57.5 169q0 112 -62.5 168t-203.5 56h-286v-414q0 -17 10 -25.5t34 -8.5h259z" />
    <glyph glyph-name="C" unicode="C" horiz-adv-x="1241" 
d="M379.5 57q-136.5 77 -207.5 226.5t-71 363.5v39q0 214 71 363t207.5 226t330.5 77q159 0 320 -56l89 -33q19 -7 27 -17t8 -25q0 -14 -4 -27l-16 -55q-6 -24 -14.5 -34.5t-22.5 -10.5q-10 0 -21 4l-79 27q-123 43 -246 43q-202 0 -306.5 -120t-104.5 -362v-39
q0 -243 104.5 -363.5t306.5 -120.5q63 0 122.5 11t123.5 33l79 27q11 4 21 4q14 0 22.5 -10.5t14.5 -34.5l16 -54q4 -13 4 -27q0 -16 -8 -25.5t-27 -15.5l-89 -34q-164 -57 -320 -57q-194 0 -330.5 77z" />
    <glyph glyph-name="D" unicode="D" horiz-adv-x="1301" 
d="M121 149v1035q0 72 45.5 110t144.5 38h290q599 0 599 -646v-39q0 -314 -152 -480.5t-448 -166.5h-289q-190 0 -190 149zM580 173q204 0 298 117t94 357v39q0 242 -94 357.5t-301 115.5h-190q-43 0 -43 -33v-918q0 -35 43 -35h193z" />
    <glyph glyph-name="E" unicode="E" horiz-adv-x="1091" 
d="M121 149v1035q0 72 45.5 110t144.5 38h632q24 0 39 -16.5t15 -54.5v-30q0 -37 -15 -53.5t-39 -16.5h-551q-45 0 -45 -33v-368h501q23 0 38 -16t15 -51v-29q0 -36 -15 -52t-38 -16h-501v-390q0 -35 45 -35h551q24 0 39 -17t15 -55v-29q0 -36 -15.5 -53t-38.5 -17h-632
q-190 0 -190 149z" />
    <glyph glyph-name="F" unicode="F" horiz-adv-x="1068" 
d="M121 61v1123q0 72 45.5 110t144.5 38h629q55 0 55 -71v-30q0 -70 -55 -70h-551q-43 0 -43 -33v-390h499q23 0 38.5 -16.5t15.5 -52.5v-31q0 -35 -15.5 -51t-38.5 -16h-499v-510q0 -61 -92 -61h-41q-92 0 -92 61z" />
    <glyph glyph-name="G" unicode="G" horiz-adv-x="1327" 
d="M262.5 151q-162.5 169 -162.5 496v39q0 213 73 362.5t214 226.5t341 77q176 0 335 -56l88 -33q20 -7 28 -16.5t8 -26.5q0 -11 -3 -26l-17 -55q-6 -26 -14 -37t-22 -11q-8 0 -21 5l-80 27q-126 45 -259 45q-211 0 -321 -121t-110 -361v-39q0 -250 108 -366.5t322 -116.5
q66 0 118 12t84 26t32 16v465q0 57 87 57h38q48 0 67 -15t19 -42v-470q0 -48 -16 -81t-54 -55q-78 -41 -178 -68t-240 -27q-302 0 -464.5 169z" />
    <glyph glyph-name="H" unicode="H" horiz-adv-x="1289" 
d="M121 61v1208q0 29 20.5 45.5t71.5 16.5h42q51 0 71.5 -16.5t20.5 -45.5v-502h596v502q0 29 21 45.5t72 16.5h41q94 0 94 -62v-1208q0 -61 -94 -61h-41q-93 0 -93 61v541h-596v-541q0 -61 -92 -61h-42q-92 0 -92 61z" />
    <glyph glyph-name="I" unicode="I" horiz-adv-x="468" 
d="M121 61v1209q0 29 20.5 45.5t71.5 16.5h44q50 0 70 -16.5t20 -45.5v-1209q0 -61 -90 -61h-44q-92 0 -92 61z" />
    <glyph glyph-name="J" unicode="J" horiz-adv-x="693" 
d="M101.5 7.5q-40.5 27.5 -40.5 77.5v15q0 27 17.5 39t52.5 12q105 0 159.5 50t54.5 164v905q0 29 20.5 45.5t70.5 16.5h46q91 0 91 -62v-913q0 -124 -44.5 -208.5t-124.5 -126.5t-186 -42q-76 0 -116.5 27.5z" />
    <glyph glyph-name="K" unicode="K" horiz-adv-x="1231" 
d="M121 61v1209q0 29 20.5 45.5t71.5 16.5h42q51 0 71.5 -16.5t20.5 -45.5v-1209q0 -61 -92 -61h-42q-92 0 -92 61zM905.5 17q-34.5 17 -49.5 45l-432 557q-14 22 -14 42q0 21 14 43l434 565q14 29 48 46t84 17h86q61 0 61 -28q0 -12 -14 -35l-495 -603l497 -604
q15 -22 15 -35q0 -27 -61 -27h-89q-50 0 -84.5 17z" />
    <glyph glyph-name="L" unicode="L" horiz-adv-x="1038" 
d="M121 149v1121q0 29 20.5 45.5t71.5 16.5h42q51 0 71.5 -16.5t20.5 -45.5v-1065q0 -36 45 -36h526q54 0 54 -71v-26q0 -38 -15 -55t-39 -17h-607q-190 0 -190 149z" />
    <glyph glyph-name="M" unicode="M" horiz-adv-x="1600" 
d="M103.5 16.5q-19.5 16.5 -17.5 42.5l71 1111q5 81 52 124t128 43h25q83 0 132 -35.5t66 -122.5l241 -1004l243 1009q14 77 65 115t132 38h27q81 0 126 -42.5t50 -124.5l71 -1111q2 -26 -18 -42.5t-66 -16.5h-35q-47 0 -64 15.5t-19 43.5l-69 1071q0 9 -3 12t-10 3
q-18 0 -21 -15l-256 -1001q-14 -67 -51.5 -98t-98.5 -31h-15q-61 0 -98.5 30.5t-52.5 98.5l-258 1001q-5 15 -21 15q-14 0 -14 -15l-68 -1071q-3 -28 -20 -43.5t-62 -15.5h-28q-44 0 -63.5 16.5z" />
    <glyph glyph-name="N" unicode="N" horiz-adv-x="1313" 
d="M121 59v1109q0 78 49.5 121t132.5 43h41q75 0 120.5 -35t78.5 -120l428 -973q7 -14 21 -14q6 0 9 3t3 11v1069q0 59 81 59h28q81 0 81 -59v-1108q0 -78 -48.5 -121.5t-130.5 -43.5h-43q-76 0 -121.5 35.5t-78.5 121.5l-428 971q-8 17 -23 17q-11 0 -11 -17v-1069
q0 -59 -82 -59h-28q-79 0 -79 59z" />
    <glyph glyph-name="O" unicode="O" horiz-adv-x="1424" 
d="M251.5 145.5q-150.5 165.5 -150.5 501.5v39q0 334 151.5 500t458.5 166t459.5 -166.5t152.5 -499.5v-39q0 -335 -151 -501t-461 -166q-309 0 -459.5 165.5zM927.5 206.5q81.5 50.5 119 158t37.5 282.5v39q0 174 -37.5 282t-119.5 159t-216 51t-215.5 -51t-118.5 -159
t-37 -282v-39q0 -175 37 -282.5t118 -158t216 -50.5t216.5 50.5z" />
    <glyph glyph-name="P" unicode="P" horiz-adv-x="1190" 
d="M121 61v1123q0 148 192 148h357q229 0 332 -92.5t103 -286.5q0 -192 -108 -295.5t-325 -103.5h-325v-493q0 -61 -92 -61h-42q-92 0 -92 61zM638 719q134 0 192 55.5t58 173.5q0 78 -24 124.5t-79 68.5t-152 22h-242q-44 0 -44 -35v-409h291z" />
    <glyph glyph-name="Q" unicode="Q" horiz-adv-x="1421" 
d="M1510.5 -326q-79.5 24 -149 59t-171.5 94q-101 58 -169 92t-145 57.5t-155 23.5h-10q-309 0 -459.5 163t-150.5 494v39q0 330 151.5 493t458.5 163t459.5 -163.5t152.5 -492.5v-39q0 -220 -66.5 -365.5t-202.5 -216.5q60 -21 111.5 -45t137.5 -67q91 -46 152.5 -73.5
t132.5 -45.5t147 -18h30q23 0 38 -16.5t15 -54.5v-35q0 -70 -53 -70h-94q-81 0 -160.5 24zM927.5 224q81.5 50 119 155.5t37.5 277.5v39q0 172 -37.5 278t-119.5 156.5t-216 50.5t-215.5 -50.5t-118.5 -156.5t-37 -278v-39q0 -172 37 -277.5t118.5 -155.5t215.5 -50
q135 0 216.5 50z" />
    <glyph glyph-name="R" unicode="R" horiz-adv-x="1223" 
d="M121 61v1123q0 148 192 148h364q156 0 251.5 -40t140 -122t44.5 -211q0 -322 -326 -366q60 -37 101 -112l234 -422q7 -16 7 -24q0 -35 -69 -35h-66q-93 0 -120 59l-203 393q-31 59 -64.5 87t-95.5 31h-164v-509q0 -28 -21 -44.5t-74 -16.5h-39q-92 0 -92 61zM646 720
q134 0 192.5 55.5t58.5 171.5q0 79 -24 126.5t-79.5 69.5t-152.5 22h-252q-42 0 -42 -33v-412h299z" />
    <glyph glyph-name="S" unicode="S" horiz-adv-x="1232" 
d="M250 40l-105 36q-18 8 -26.5 18.5t-8.5 26.5q0 13 4 26l18 59q7 23 16.5 33t25.5 10q12 0 25 -4l88 -30q71 -25 152 -40t161 -15q142 0 213 49t71 142q0 50 -22.5 81.5t-67.5 54t-132 52.5l-183 58q-115 37 -189.5 80.5t-115.5 112t-41 170.5q0 117 55.5 205.5
t162.5 137.5t256 49q173 0 331 -55l90 -34q19 -7 27.5 -17t8.5 -26q0 -11 -3 -23l-18 -61q-7 -22 -15.5 -31.5t-21.5 -9.5q-8 0 -25 5l-78 26q-143 50 -278 50q-136 0 -203 -50.5t-67 -141.5q0 -56 23.5 -90.5t67 -56.5t125.5 -49l183 -60q127 -39 202.5 -83t113.5 -109.5
t38 -165.5q0 -121 -58 -208.5t-169.5 -134.5t-269.5 -47q-186 0 -361 60z" />
    <glyph glyph-name="T" unicode="T" horiz-adv-x="1203" 
d="M488 61v1100h-373q-24 0 -39 16.5t-15 53.5v30q0 38 15 54.5t39 16.5h973q54 0 54 -71v-30q0 -37 -15 -53.5t-39 -16.5h-374v-1100q0 -61 -92 -61h-42q-92 0 -92 61z" />
    <glyph glyph-name="U" unicode="U" horiz-adv-x="1257" 
d="M234.5 109q-123.5 129 -123.5 381v780q0 29 20.5 45.5t71.5 16.5h42q51 0 71.5 -16.5t20.5 -45.5v-781q0 -165 68 -243t225 -78q106 0 169 33t91.5 103t28.5 185v781q0 29 20.5 45.5t70.5 16.5h44q51 0 72 -16.5t21 -45.5v-780q0 -253 -126.5 -381.5t-396.5 -128.5
q-266 0 -389.5 129z" />
    <glyph glyph-name="V" unicode="V" horiz-adv-x="1335" 
d="M533 36.5q-44 36.5 -67 113.5l-377 1118q-3 9 -3 19q0 45 79 45h57q92 0 110 -64l321 -1057q2 -15 17 -15q7 0 11 3t6 12l331 1057q7 29 34.5 46.5t77.5 17.5h42q78 0 78 -45q0 -8 -3 -19l-382 -1117q-26 -81 -68 -116t-123 -35h-24q-73 0 -117 36.5z" />
    <glyph glyph-name="W" unicode="W" horiz-adv-x="1817" 
d="M340 131l-247 1137q-2 14 -2 19q0 21 17.5 33t59.5 12h54q51 0 79.5 -18t30.5 -46l193 -1053q2 -15 18 -15q6 0 9 3t5 12l245 1053q11 64 104 64h33q89 0 101 -64l248 -1053q3 -15 16 -15q15 0 17 15l192 1053q9 64 101 64h39q75 0 75 -46q0 -6 -2 -18l-250 -1137
q-26 -131 -154 -131h-31q-67 0 -106.5 34.5t-50.5 96.5l-221 891l-216 -891q-27 -131 -165 -131h-29q-134 0 -163 131z" />
    <glyph glyph-name="X" unicode="X" horiz-adv-x="1284" 
d="M112.5 11q-19.5 11 -19.5 30q0 10 6 22l382 604l-380 601q-6 12 -6 22q0 19 19.5 30.5t57.5 11.5h87q47 0 68.5 -15t36.5 -44l289 -487l289 487q13 29 35.5 44t70.5 15h58q39 0 59.5 -11.5t20.5 -30.5q0 -8 -7 -22l-380 -596l387 -609q6 -10 6 -21q0 -19 -20 -30.5
t-60 -11.5h-80q-48 0 -70.5 15.5t-36.5 45.5l-297 496l-292 -496q-13 -29 -36.5 -45t-71.5 -16h-56q-40 0 -59.5 11z" />
    <glyph glyph-name="Y" unicode="Y" horiz-adv-x="1291" 
d="M536 61v494l-446 713q-7 14 -7 23q0 18 20 29.5t58 11.5h79q48 0 70 -15t36 -44l314 -536l310 536q13 29 35.5 44t70.5 15h54q38 0 58 -11.5t20 -29.5q0 -9 -7 -23l-437 -706v-501q0 -61 -93 -61h-43q-92 0 -92 61z" />
    <glyph glyph-name="Z" unicode="Z" horiz-adv-x="1160" 
d="M110.5 30.5q-32.5 30.5 -32.5 87.5q0 38 12.5 68.5t42.5 71.5l660 875q8 11 8 18q0 6 -6 10t-16 4h-637q-23 0 -38.5 16.5t-15.5 53.5v29q0 36 15.5 52t38.5 16h792q60 0 93.5 -30t33.5 -88q0 -40 -11 -69t-42 -71l-657 -874q-8 -9 -8 -18q0 -13 19 -13h668
q23 0 38 -17.5t15 -54.5v-29q0 -36 -14.5 -52t-38.5 -16h-832q-55 0 -87.5 30.5z" />
    <glyph glyph-name="a" unicode="a" horiz-adv-x="985" 
d="M182 49.5q-98 69.5 -98 205.5v18q0 135 97 201t300 76l210 12v33q0 90 -47 133t-146 43q-60 0 -128.5 -14t-125.5 -35l-53 -21q-12 -3 -21 -3q-14 0 -22.5 9t-13.5 29l-13 57q-3 12 -3 21q0 13 6.5 21.5t22.5 15.5l64 25q140 59 304 59q195 0 284.5 -80.5t89.5 -236.5
v-341q0 -151 -96.5 -224t-304.5 -73t-306 69.5zM644 152q47 40 47 125v157l-175 -10q-121 -7 -175.5 -40.5t-54.5 -107.5v-18q0 -75 45 -110.5t157 -35.5q109 0 156 40z" />
    <glyph glyph-name="b" unicode="b" horiz-adv-x="1058" 
d="M207.5 92q-104.5 112 -104.5 346v840q0 54 80 54h50q41 0 57.5 -13.5t16.5 -40.5v-435q87 92 261 92q204 0 305.5 -112.5t101.5 -345.5v-39q0 -236 -107 -347t-333 -111q-223 0 -327.5 112zM675 161.5q51 29.5 74.5 96t23.5 180.5v40q0 114 -23.5 180t-74 95t-137.5 29
q-85 0 -135 -29.5t-73 -95.5t-23 -179v-39q0 -115 22 -181.5t72 -96t137 -29.5q86 0 137 29.5z" />
    <glyph glyph-name="c" unicode="c" horiz-adv-x="929" 
d="M197 88.5q-113 108.5 -113 351.5v36q0 243 113 351t320 108q140 0 250 -46l55 -22q30 -10 30 -38q0 -11 -3 -23l-16 -55q-8 -40 -32 -40q-5 0 -17 4l-50 19q-87 29 -180 29q-128 0 -193.5 -66t-65.5 -221v-36q0 -156 65.5 -221.5t193.5 -65.5q103 0 180 30l50 18
q9 3 16 3q13 0 20.5 -9.5t12.5 -29.5l16 -56q3 -12 3 -22q0 -27 -30 -38l-55 -22q-113 -47 -250 -47q-207 0 -320 108.5z" />
    <glyph glyph-name="d" unicode="d" horiz-adv-x="1063" 
d="M191.5 91q-107.5 111 -107.5 347v39q0 233 101.5 345.5t309.5 112.5q171 0 259 -91v434q0 57 86 57h39q80 0 80 -57v-840q0 -234 -105 -346t-326 -112q-229 0 -336.5 111zM660.5 161.5q49.5 29.5 71.5 96t22 181.5v39q0 114 -22 180t-71.5 95t-135.5 29q-87 0 -137.5 -29
t-73 -94.5t-22.5 -180.5v-40q0 -114 22.5 -180.5t73 -96t137.5 -29.5q86 0 135.5 29.5z" />
    <glyph glyph-name="e" unicode="e" horiz-adv-x="995" 
d="M208.5 94q-124.5 114 -124.5 347v35q0 148 53.5 251t152.5 155.5t235 52.5q123 0 210 -35t132 -100t45 -154q0 -99 -45 -156.5t-133 -83.5t-229 -30l-218 -7q19 -115 98.5 -169.5t197.5 -54.5q47 0 98.5 9t94.5 23l49 19q11 3 17 3q11 0 18.5 -8t12.5 -27l18 -58
q3 -12 3 -20q0 -26 -28 -36l-59 -25q-53 -22 -121 -33.5t-141 -11.5q-212 0 -336.5 114zM461 499q97 2 150.5 10.5t86 36.5t32.5 87q0 69 -48.5 109.5t-153.5 40.5q-123 0 -185.5 -69t-63.5 -221z" />
    <glyph glyph-name="f" unicode="f" horiz-adv-x="709" 
d="M190 56v712h-106q-20 0 -34 15t-14 48v24q0 31 14 46t34 15h106v25q0 185 104 288t299 103h69q47 0 47 -60v-43q0 -31 -13 -45.5t-34 -14.5h-37q-117 0 -173.5 -54.5t-56.5 -174.5v-24h235q20 0 33.5 -15t13.5 -46v-25q0 -32 -13.5 -47t-33.5 -15h-235v-712
q0 -56 -81 -56h-41q-83 0 -83 56z" />
    <glyph glyph-name="g" unicode="g" horiz-adv-x="1063" 
d="M192.5 -300.5q-123.5 71.5 -123.5 209.5q0 79 47.5 127.5t126.5 61.5q-71 47 -71 125q0 45 24.5 81t71.5 57q-91 31 -132 95t-41 166q0 145 95.5 219.5t308.5 74.5h466q20 0 33 -14.5t13 -46.5v-23q0 -33 -13 -47t-33 -14h-112q42 -63 42 -149q0 -98 -39 -161.5
t-127 -95.5t-234 -32h-96q-33 0 -53 -18.5t-20 -45.5q0 -31 24 -47t77 -20l207 -11q191 -12 274 -76t83 -189q0 -90 -53.5 -157.5t-156 -104t-246.5 -36.5q-219 0 -342.5 71.5zM620.5 469q44.5 17 62.5 53t18 96q0 61 -18 97.5t-62.5 54t-124.5 17.5q-78 0 -122.5 -18
t-63.5 -54.5t-19 -95.5q0 -62 18.5 -97.5t62.5 -52.5t124 -17t124.5 17zM731.5 -195q60.5 38 60.5 107q0 40 -17 64.5t-63 39.5t-134 23l-194 18q-69 0 -105.5 -34.5t-36.5 -90.5q0 -165 302 -165q127 0 187.5 38z" />
    <glyph glyph-name="h" unicode="h" horiz-adv-x="1035" 
d="M111 56v1222q0 54 81 54h41q82 0 82 -54v-411q89 68 242 68q195 0 285 -91.5t90 -274.5v-513q0 -56 -82 -56h-42q-80 0 -80 56v509q0 111 -46 160.5t-154 49.5q-111 0 -162 -50.5t-51 -159.5v-509q0 -26 -18.5 -41t-63.5 -15h-41q-81 0 -81 56z" />
    <glyph glyph-name="i" unicode="i" horiz-adv-x="427" 
d="M129.5 1129q-32.5 31 -32.5 84q0 51 32.5 82.5t84.5 31.5q51 0 83 -31.5t32 -82.5q0 -53 -32 -84t-83 -31q-52 0 -84.5 31zM111 56v805q0 55 81 55h41q82 0 82 -55v-805q0 -26 -18.5 -41t-63.5 -15h-41q-81 0 -81 56z" />
    <glyph glyph-name="j" unicode="j" horiz-adv-x="435" 
d="M131.5 1129q-32.5 31 -32.5 84q0 51 32.5 82.5t84.5 31.5q51 0 83 -31.5t32 -82.5q0 -53 -32 -84t-83 -31q-52 0 -84.5 31zM-73 -346q-35 26 -35 71v15q0 22 16 32t48 10q77 0 116 42t39 132v905q0 55 81 55h41q82 0 82 -55v-911q0 -103 -36 -175.5t-101 -109.5t-149 -37
q-67 0 -102 26z" />
    <glyph glyph-name="k" unicode="k" horiz-adv-x="992" 
d="M111 56v1222q0 54 81 54h41q82 0 82 -54v-1222q0 -26 -18.5 -41t-63.5 -15h-41q-81 0 -81 56zM670 56l-289 365q-14 19 -14 39q0 19 14 36l292 364q39 56 122 56h76q57 0 57 -27q0 -11 -14 -29l-352 -396l352 -408q14 -19 14 -30q0 -26 -57 -26h-80q-83 0 -121 56z" />
    <glyph glyph-name="l" unicode="l" horiz-adv-x="427" 
d="M111 56v1222q0 54 81 54h41q82 0 82 -54v-1222q0 -26 -18.5 -41t-63.5 -15h-41q-81 0 -81 56z" />
    <glyph glyph-name="m" unicode="m" horiz-adv-x="1569" 
d="M103 56v513q0 181 97.5 273.5t293.5 92.5q188 0 292 -99q99 99 290 99q389 0 389 -366v-513q0 -26 -17 -41t-61 -15h-48q-43 0 -60 15t-17 41v509q0 110 -45 159.5t-145 49.5q-70 0 -110 -21.5t-57 -67t-17 -120.5v-509q0 -56 -78 -56h-50q-42 0 -60.5 15.5t-18.5 40.5
v509q0 75 -17 120.5t-57.5 67t-110.5 21.5q-100 0 -144.5 -49.5t-44.5 -159.5v-509q0 -26 -17.5 -41t-62.5 -15h-46q-78 0 -78 56z" />
    <glyph glyph-name="n" unicode="n" horiz-adv-x="1034" 
d="M103 56v515q0 179 103 271.5t311 92.5t311 -92.5t103 -271.5v-515q0 -56 -82 -56h-41q-82 0 -82 56v511q0 110 -48.5 159t-160.5 49q-113 0 -161.5 -49t-48.5 -159v-511q0 -56 -81 -56h-41q-82 0 -82 56z" />
    <glyph glyph-name="o" unicode="o" horiz-adv-x="1059" 
d="M193 92.5q-109 112.5 -109 345.5v40q0 232 109 344.5t334 112.5q227 0 338 -111.5t111 -346.5v-39q0 -235 -111 -346.5t-338 -111.5q-225 0 -334 112.5zM668 161.5q52 29.5 76.5 96t24.5 180.5v40q0 113 -24.5 179.5t-76.5 95.5t-138 29q-88 0 -139.5 -29t-75 -95
t-23.5 -180v-39q0 -114 23.5 -181t75.5 -96.5t139 -29.5q86 0 138 29.5z" />
    <glyph glyph-name="p" unicode="p" horiz-adv-x="1060" 
d="M103 -299v777q0 234 105 345.5t328 111.5q225 0 332.5 -111t107.5 -347v-39q0 -232 -101 -345t-307 -113q-170 0 -261 94v-373q0 -53 -81 -53h-41q-82 0 -82 53zM676 161.5q51 29.5 74 96t23 180.5v40q0 114 -23 180t-73.5 95t-137.5 29t-137 -29t-72.5 -95t-22.5 -180
v-39q0 -114 23 -181t73.5 -96.5t135.5 -29.5q86 0 137 29.5z" />
    <glyph glyph-name="q" unicode="q" horiz-adv-x="1058" 
d="M750 -299v373q-89 -94 -259 -94q-205 0 -306 113t-101 345v39q0 236 106.5 347t331.5 111q224 0 328 -111.5t104 -345.5v-777q0 -55 -80 -55h-41q-83 0 -83 55zM655.5 163q49.5 29 72 95t22.5 181v39q0 114 -22.5 179t-72 94t-134.5 29q-87 0 -137.5 -28.5t-73.5 -94
t-23 -179.5v-40q0 -114 23 -180t74 -95t137 -29q85 0 134.5 29z" />
    <glyph glyph-name="r" unicode="r" horiz-adv-x="699" 
d="M103 56v494q0 366 412 366h53q21 0 34 -14.5t13 -46.5v-41q0 -60 -47 -60h-53q-114 0 -162 -47.5t-48 -158.5v-492q0 -56 -81 -56h-39q-82 0 -82 56z" />
    <glyph glyph-name="s" unicode="s" horiz-adv-x="920" 
d="M176 39l-63 26q-17 6 -24 14.5t-7 21.5q0 5 2 19l15 54q5 19 13 28t21 9q7 0 22 -5l54 -22q60 -22 127.5 -36t127.5 -14q166 0 166 109q0 33 -17 53.5t-43.5 33t-73.5 27.5l-142 45q-73 22 -125 50t-85.5 79.5t-33.5 130.5q0 80 40.5 142t120 96.5t192.5 34.5
q73 0 140.5 -12t120.5 -34l57 -22q17 -5 23.5 -14t6.5 -23q0 -5 -2 -19l-14 -57q-6 -19 -13.5 -27t-20.5 -8q-8 0 -19 3l-51 20q-41 16 -95 25.5t-111 9.5q-90 0 -129 -28t-39 -81q0 -38 17 -61t44 -34.5t72 -24.5l137 -45q78 -22 130.5 -48.5t86.5 -76t34 -127.5
q0 -83 -41.5 -144t-121.5 -94t-193 -33q-153 0 -306 59z" />
    <glyph glyph-name="t" unicode="t" horiz-adv-x="755" 
d="M274 79.5q-84 79.5 -84 232.5v456h-106q-20 0 -34 15t-14 48v24q0 31 14 46t34 15h106v208q0 55 83 55h41q81 0 81 -55v-208h264q21 0 34 -14.5t13 -46.5v-25q0 -32 -13 -47t-34 -15h-264v-421q0 -103 42 -147t132 -44h90q21 0 34 -14.5t13 -46.5v-35q0 -31 -13 -45.5
t-34 -14.5h-140q-161 0 -245 79.5z" />
    <glyph glyph-name="u" unicode="u" horiz-adv-x="1013" 
d="M204 73.5q-101 93.5 -101 272.5v515q0 24 19.5 39.5t62.5 15.5h41q81 0 81 -55v-513q0 -109 47.5 -158.5t152.5 -49.5q108 0 153 49t45 159v513q0 24 19.5 39.5t62.5 15.5h42q43 0 62 -15.5t19 -39.5v-515q0 -181 -98.5 -273.5t-304.5 -92.5q-202 0 -303 93.5z" />
    <glyph glyph-name="v" unicode="v" horiz-adv-x="1009" 
d="M382 23.5q-40 32.5 -61 102.5l-242 731q-3 9 -3 16q0 20 17 31.5t55 11.5h50q47 0 71 -16.5t30 -42.5l193 -675q3 -8 6.5 -10.5t10.5 -2.5q12 0 16 13l201 675q15 59 99 59h36q73 0 73 -42q0 -8 -3 -17l-244 -730q-22 -71 -60 -103.5t-104 -32.5h-34q-67 0 -107 32.5z
" />
    <glyph glyph-name="w" unicode="w" horiz-adv-x="1467" 
d="M276 108l-199 753q-2 10 -2 15q0 40 67 40h54q86 0 96 -51l142 -676q2 -14 19 -14q5 0 7.5 2.5t5.5 11.5l176 672q11 55 94 55h28q79 0 90 -55l168 -672q1 -9 4.5 -11.5t10.5 -2.5q15 0 16 14l141 676q4 24 27.5 37.5t67.5 13.5h33q67 0 67 -41q0 -4 -2 -14l-200 -753
q-12 -56 -45 -86.5t-89 -30.5h-29q-58 0 -93 31t-46 87l-142 559l-159 -559q-26 -118 -139 -118h-28q-112 0 -141 117z" />
    <glyph glyph-name="x" unicode="x" horiz-adv-x="991" 
d="M89.5 10.5q-18.5 10.5 -18.5 27.5q0 10 6 20l270 402l-267 398q-6 11 -6 20q0 17 18.5 27.5t53.5 10.5h74q43 0 64 -14.5t34 -40.5l183 -293l183 293q14 26 35 40.5t64 14.5h54q35 0 54 -11t19 -27q0 -8 -7 -20l-265 -394l272 -406q7 -12 7 -21q0 -16 -19 -26.5
t-54 -10.5h-72q-44 0 -64.5 14.5t-32.5 41.5l-188 296l-192 -296q-11 -26 -32 -41t-65 -15h-54q-36 0 -54.5 10.5z" />
    <glyph glyph-name="y" unicode="y" horiz-adv-x="973" 
d="M61 -293v26q0 33 12.5 47.5t32.5 14.5h41q85 0 146 52.5t101 156.5l11 36l-330 821q-4 12 -4 17q0 38 70 38h57q79 0 98 -55l218 -595l203 595q7 24 30.5 39.5t67.5 15.5h35q36 0 52.5 -10t16.5 -27q0 -10 -4 -18l-328 -867q-65 -172 -163.5 -259t-242.5 -87h-75
q-45 0 -45 59z" />
    <glyph glyph-name="z" unicode="z" horiz-adv-x="903" 
d="M98.5 27.5q-29.5 27.5 -29.5 77.5q0 39 10 66t38 57l453 512q7 8 7 16q0 12 -18 12h-433q-20 0 -34 15t-14 48v24q0 31 14 46t34 15h588q50 0 79 -27.5t29 -78.5q0 -37 -10.5 -64.5t-38.5 -58.5l-451 -511q-8 -8 -8 -16q0 -14 19 -14h461q20 0 33 -14t13 -45v-27
q0 -32 -13 -46t-33 -14h-617q-49 0 -78.5 27.5z" />
    <glyph glyph-name="comma" unicode="," horiz-adv-x="411" 
d="M37 -206q0 8 3 19l94 341q13 52 81 52h52q33 0 50 -12t17 -34q0 -10 -5 -25l-109 -334q-9 -28 -30 -41t-59 -13h-26q-68 0 -68 47z" />
    <glyph glyph-name="period" unicode="." horiz-adv-x="411" 
d="M122.5 19q-31.5 31 -31.5 82q0 52 31.5 82.5t82.5 30.5q52 0 83.5 -30.5t31.5 -82.5t-31.5 -82.5t-83.5 -30.5q-51 0 -82.5 31z" />
    <glyph glyph-name="zero" unicode="0" 
d="M302 56.5q-106 76.5 -151.5 225.5t-45.5 381q0 234 47.5 385t154 227.5t283.5 76.5q180 0 285.5 -76.5t150 -226t44.5 -383.5t-46.5 -384.5t-152.5 -226t-283 -75.5q-180 0 -286 76.5zM755.5 207q58.5 51 81.5 159.5t23 297.5q0 191 -22.5 300t-81 161t-168.5 52
t-169 -52t-81.5 -161t-22.5 -300t22.5 -298.5t81 -158.5t169.5 -51q109 0 167.5 51z" />
    <glyph glyph-name="one" unicode="1" horiz-adv-x="769" 
d="M428 60v1056l-251 -134q-14 -7 -27 -7q-35 0 -51 44l-10 23q-11 30 -11 45q0 14 6 22.5t19 14.5l295 175q35 19 64 26t69 7h49q69 0 69 -53v-1219q0 -28 -20 -44t-69 -16h-43q-89 0 -89 60z" />
    <glyph glyph-name="two" unicode="2" horiz-adv-x="1189" 
d="M139.5 38.5q-38.5 38.5 -38.5 111.5q0 102 36 173t106.5 124.5t193.5 117.5l197 104q81 43 126.5 76.5t70.5 81t25 118.5q0 117 -69 176t-202 59q-158 0 -313 -55l-87 -31q-10 -3 -20 -3q-14 0 -23 11t-17 36l-19 45q-5 14 -5 28q0 16 9.5 26.5t30.5 17.5l94 37
q176 60 361 60q148 0 255 -46.5t163.5 -135.5t56.5 -213q0 -116 -41.5 -197t-112.5 -136t-180 -109l-198 -105q-88 -47 -132.5 -79.5t-65.5 -69.5t-22 -92h715q23 0 38 -16.5t15 -54.5v-28q0 -70 -53 -70h-788q-68 0 -106.5 38.5z" />
    <glyph glyph-name="three" unicode="3" horiz-adv-x="1174" 
d="M211 46l-100 36q-22 8 -32 19t-10 28q0 10 5 28l20 53q10 28 19 39.5t24 11.5q10 0 22 -4l93 -36q84 -31 162 -50t160 -19q91 0 154.5 30t95.5 82.5t32 121.5q0 106 -72 159.5t-213 53.5h-124q-49 0 -49 65v30q0 64 49 64h119q134 0 203.5 59t69.5 161q0 96 -62.5 149
t-190.5 53q-140 0 -311 -64l-86 -32q-11 -4 -21 -4q-15 0 -23.5 11t-16.5 37l-18 53q-5 18 -5 28q0 32 38 44l95 37q175 62 360 62q144 0 245.5 -44t153 -124t51.5 -186q0 -108 -55.5 -188.5t-152.5 -120.5q111 -34 172.5 -111.5t61.5 -198.5q0 -117 -60 -207.5t-171.5 -141
t-260.5 -50.5q-191 0 -371 66z" />
    <glyph glyph-name="four" unicode="4" horiz-adv-x="1189" 
d="M710 61v251h-504q-58 0 -93 33t-35 96q0 38 11.5 68.5t42.5 84.5l411 636q40 61 88 91.5t120 30.5q74 0 119 -39.5t45 -109.5v-722h147q51 0 51 -67v-34q0 -68 -51 -68h-147v-251q0 -61 -82 -61h-39q-84 0 -84 61zM710 481v611q0 9 -4 14t-9 5q-9 0 -15 -12l-378 -588
q-6 -9 -6 -16q0 -14 19 -14h393z" />
    <glyph glyph-name="five" unicode="5" horiz-adv-x="1164" 
d="M208 46l-100 36q-40 15 -40 45q0 14 6 30l18 53q10 28 19 39.5t24 11.5q10 0 21 -4l92 -36q86 -32 163 -50.5t159 -18.5q83 0 146 32.5t97 89.5t34 128q0 94 -54 163.5t-167.5 120t-297.5 87.5q-59 10 -90.5 39t-31.5 74q0 23 9 50l102 284q16 54 55.5 83t100.5 29h517
q23 0 38 -17t15 -54v-31q0 -70 -53 -70h-498l-84 -231q239 -47 383.5 -120t208.5 -172t64 -228q0 -123 -59.5 -220.5t-169 -153t-254.5 -55.5q-193 0 -373 66z" />
    <glyph glyph-name="six" unicode="6" horiz-adv-x="1154" 
d="M230.5 118q-129.5 138 -129.5 430v88q0 224 66 384.5t193.5 246t308.5 85.5q69 0 136 -11t117 -30l50 -19q29 -13 29 -38q0 -6 -4 -22l-21 -61q-5 -20 -13 -29t-20 -9q-9 0 -15 2l-43 16q-81 29 -200 29q-113 0 -195.5 -56t-127.5 -163.5t-47 -259.5q96 149 341 149
q187 0 292 -97.5t105 -297.5v-39q0 -143 -58 -241t-160.5 -146.5t-236.5 -48.5q-238 0 -367.5 138zM780.5 207q64.5 61 64.5 201v39q0 135 -63 187.5t-178 52.5q-100 0 -161 -25t-90 -78.5t-29 -141.5v-32q0 -143 75.5 -203.5t195.5 -60.5q121 0 185.5 61z" />
    <glyph glyph-name="seven" unicode="7" horiz-adv-x="1107" 
d="M343.5 17q-21.5 17 -21.5 48l1 11q22 145 83.5 329t158.5 374.5t219 347.5q8 10 8 17t-6 11.5t-17 4.5h-648q-23 0 -37.5 16t-14.5 54v31q0 37 14.5 54t37.5 17h798q60 0 90 -31t30 -90q0 -37 -12.5 -70t-43.5 -71q-130 -165 -222 -349.5t-143.5 -352t-71.5 -302.5
q-10 -66 -87 -66h-55q-39 0 -60.5 17z" />
    <glyph glyph-name="eight" unicode="8" horiz-adv-x="1201" 
d="M234 68.5q-133 88.5 -133 263.5v24q0 135 72 213.5t183 112.5q-92 32 -150 104.5t-58 188.5v19q0 114 55 194.5t157.5 122t242.5 41.5q214 0 333 -87t119 -260v-23q0 -116 -58 -188.5t-153 -109.5q111 -28 183.5 -103.5t72.5 -212.5v-27q0 -118 -61.5 -199t-174 -121.5
t-264.5 -40.5q-233 0 -366 88.5zM779.5 809q66.5 52 66.5 158v21q0 95 -63 145t-180 50q-116 0 -181.5 -52.5t-65.5 -144.5v-21q0 -107 66 -156.5t180 -51.5q111 0 177.5 52zM812 204q75 54 75 151v22q0 114 -79.5 163.5t-211.5 49.5q-127 0 -205 -53.5t-78 -164.5v-22
q0 -99 74.5 -149.5t212.5 -50.5q137 0 212 54z" />
    <glyph glyph-name="nine" unicode="9" horiz-adv-x="1154" 
d="M347.5 -7q-66.5 11 -116.5 30l-49 20q-15 6 -22 15t-7 22q0 6 4 22l21 62q7 37 31 37q7 0 16 -3l42 -15q85 -29 199 -29q115 0 198 55t128 162t47 262q-47 -73 -132.5 -113t-208.5 -40q-186 0 -291.5 99.5t-105.5 299.5v39q0 143 59.5 241t164 146.5t237.5 48.5
q237 0 364 -138t127 -430v-88q0 -224 -66.5 -385t-194.5 -246t-310 -85q-68 0 -134.5 11zM762 698.5q67 61.5 67 193.5v33q0 142 -72.5 202.5t-191.5 60.5q-123 0 -190 -61.5t-67 -201.5v-39q0 -136 64.5 -192.5t177.5 -56.5q145 0 212 61.5z" />
    <glyph glyph-name="bracketleft" unicode="[" horiz-adv-x="633" 
d="M124 -72v1384q0 59 60 59h326q62 0 62 -65v-20q0 -65 -62 -65h-187v-1199h187q30 0 46 -17t16 -49v-22q0 -65 -62 -65h-326q-60 0 -60 59z" />
    <glyph glyph-name="backslash" unicode="\" horiz-adv-x="810" 
d="M594.5 -29.5q-18.5 12.5 -25.5 35.5l-504 1299q-5 11 -5 26q0 20 14 31.5t40 11.5h59q52 0 69 -48l505 -1299q5 -15 5 -25q0 -20 -14.5 -32t-41.5 -12h-57q-26 0 -44.5 12.5z" />
    <glyph glyph-name="bracketright" unicode="]" horiz-adv-x="633" 
d="M61 -66v22q0 32 15.5 49t44.5 17h188v1199h-188q-30 0 -45 15.5t-15 49.5v20q0 65 60 65h327q29 0 45 -15t16 -44v-1384q0 -29 -16 -44t-45 -15h-327q-60 0 -60 65z" />
    <glyph glyph-name="colon" unicode=":" horiz-adv-x="411" 
d="M122.5 727q-31.5 31 -31.5 83q0 51 31 81t83 30t83.5 -30t31.5 -81q0 -52 -31.5 -83t-83.5 -31q-51 0 -82.5 31zM122.5 19q-31.5 31 -31.5 82q0 52 31.5 82.5t82.5 30.5q52 0 83.5 -30.5t31.5 -82.5t-31.5 -82.5t-83.5 -30.5q-51 0 -82.5 31z" />
    <glyph glyph-name="semicolon" unicode=";" horiz-adv-x="411" 
d="M137.5 727q-30.5 31 -30.5 83q0 51 30.5 81t81.5 30q52 0 83.5 -30t31.5 -81q0 -52 -32 -83t-83 -31t-81.5 31zM31 -209q0 11 4 22l91 341q14 52 82 52h52q33 0 49.5 -12t16.5 -34q0 -13 -4 -25l-110 -334q-10 -29 -29.5 -41.5t-58.5 -12.5h-26q-67 0 -67 44z" />
    <glyph glyph-name="less" unicode="&#x3c;" 
d="M186 456q-26 9 -37 25.5t-11 43.5v67q0 27 11 43.5t37 26.5l782 311q15 6 27 6q19 0 31 -14.5t12 -38.5v-41q0 -27 -11.5 -43.5t-36.5 -26.5l-657 -256l657 -252q25 -10 36.5 -26.5t11.5 -43.5v-43q0 -25 -11 -38.5t-31 -13.5q-13 0 -28 6z" />
    <glyph glyph-name="equal" unicode="=" 
d="M154 659q-16 16 -16 44v38q0 29 15.5 45.5t44.5 16.5h779q29 0 45 -16.5t16 -45.5v-37q0 -29 -16 -45t-45 -16h-779q-28 0 -44 16zM154 327q-16 15 -16 43v38q0 29 15.5 45t44.5 16h779q29 0 45 -16t16 -45v-37q0 -29 -16 -44t-45 -15h-779q-28 0 -44 15z" />
    <glyph glyph-name="greater" unicode="&#x3e;" 
d="M181 142q-20 0 -31.5 14t-11.5 38v43q0 27 11 43.5t37 26.5l657 252l-657 256q-26 10 -37 26.5t-11 43.5v41q0 24 12 38.5t32 14.5q12 0 27 -6l781 -311q25 -10 36.5 -26.5t11.5 -43.5v-67q0 -27 -11.5 -43.5t-36.5 -25.5l-781 -308q-15 -6 -28 -6z" />
    <glyph glyph-name="at" unicode="@" horiz-adv-x="1831" 
d="M523.5 -126.5q-188.5 90.5 -296.5 265.5t-108 419t109.5 424t298 275t419.5 95q239 0 412.5 -95.5t263.5 -252.5t90 -338q0 -154 -54 -272.5t-147.5 -183.5t-210.5 -65q-82 0 -130.5 36.5t-61.5 99.5q-52 -68 -133.5 -107t-172.5 -39q-126 0 -192.5 61t-66.5 162
q0 130 94.5 200.5t290.5 82.5l175 11v29q0 84 -42.5 123t-136.5 39q-54 0 -117 -12t-116 -30l-52 -21q-14 -4 -18 -4q-23 0 -29 33l-13 52q-2 12 -2 18q0 24 25 33l60 24q123 53 274 53q176 0 256.5 -73t80.5 -213v-364q0 -35 15 -48.5t53 -13.5q61 0 107.5 42t73 124
t26.5 198q0 156 -72.5 286t-209.5 206t-324 76q-177 0 -321.5 -77t-228.5 -222.5t-84 -343.5q0 -219 86.5 -360t233.5 -205.5t334 -64.5q109 0 229.5 21t207.5 55l56 23q9 4 20 4q24 0 34 -36l15 -55q3 -11 3 -19q0 -26 -31 -37l-64 -25q-214 -84 -482 -84
q-238 0 -426.5 90.5zM963.5 296q60.5 23 100 70t39.5 115v57l-151 -9q-115 -7 -171 -47t-56 -107q0 -51 30.5 -76.5t86.5 -25.5q61 0 121.5 23z" />
    <glyph glyph-name="parenleft" unicode="(" horiz-adv-x="633" 
d="M416 -126.5q-18 6.5 -33 22.5q-83 79 -148.5 190.5t-103.5 248t-38 283.5q0 149 38 286t103.5 248.5t148.5 190.5q15 16 32.5 22t42.5 6h36q24 0 36.5 -8.5t12.5 -22.5q0 -18 -17 -38q-93 -119 -154.5 -295t-61.5 -389q0 -212 61.5 -387.5t154.5 -292.5q17 -21 17 -39
q0 -15 -12.5 -23.5t-36.5 -8.5h-36q-24 0 -42 6.5z" />
    <glyph glyph-name="parenright" unicode=")" horiz-adv-x="633" 
d="M97.5 -124.5q-12.5 8.5 -12.5 22.5q0 17 18 40q92 118 153 293.5t61 386.5q0 213 -61 389t-153 295q-18 23 -18 39q0 14 12.5 22t36.5 8h37q24 0 41 -6t34 -22q82 -79 147.5 -190.5t103.5 -248.5t38 -286q0 -147 -38 -283.5t-103.5 -248t-147.5 -190.5
q-17 -16 -34.5 -22.5t-40.5 -6.5h-37q-24 0 -36.5 8.5z" />
    <glyph glyph-name="fraction" unicode="&#x2044;" horiz-adv-x="40" 
d="M-346 9.5q-12 9.5 -12 26.5q0 13 10 35l600 1216q26 45 75 45h18q25 0 38.5 -10.5t13.5 -28.5q0 -16 -8 -32l-602 -1216q-23 -45 -73 -45h-26q-22 0 -34 9.5z" />
    <glyph glyph-name="braceleft" unicode="{" horiz-adv-x="633" 
d="M247.5 -104q-64.5 27 -101 78.5t-36.5 122.5q0 54 19 95t55 92q31 44 46.5 75t15.5 69q0 105 -97 115q-61 13 -61 65v24q0 28 15 43.5t46 20.5q97 16 97 114q0 39 -15 70.5t-47 76.5q-36 51 -55 92t-19 95q0 71 36.5 122t101 78t146.5 27h116q29 0 45.5 -16t16.5 -49v-20
q0 -65 -57 -65h-68q-73 0 -104 -34t-31 -85q0 -34 13 -61.5t39 -66.5q31 -46 46.5 -81.5t15.5 -84.5q0 -71 -35.5 -115t-97.5 -72q60 -26 96.5 -72.5t36.5 -114.5q0 -47 -15 -81.5t-45 -79.5q-27 -40 -40.5 -69t-13.5 -67q0 -48 32 -80.5t105 -32.5h67q56 0 56 -68v-22
q0 -65 -62 -65h-116q-82 0 -146.5 27z" />
    <glyph glyph-name="bar" unicode="|" horiz-adv-x="519" 
d="M195.5 -336.5q-16.5 15.5 -16.5 44.5v1837q0 30 16.5 46t45.5 16h38q60 0 60 -62v-1837q0 -60 -60 -60h-38q-29 0 -45.5 15.5z" />
    <glyph glyph-name="braceright" unicode="}" horiz-adv-x="633" 
d="M60 -66v22q0 68 55 68h66q74 0 106 33t32 80q0 37 -13 66t-40 70q-30 45 -45 79.5t-15 81.5q0 68 36.5 114.5t95.5 72.5q-61 28 -96.5 72t-35.5 115q0 49 15.5 84.5t46.5 81.5q26 40 38.5 67.5t12.5 60.5q0 51 -31 85t-104 34h-68q-56 0 -55 65v20q0 65 60 65h115
q82 0 147 -27t102 -78t37 -122q0 -54 -19 -95t-55 -92q-32 -45 -47 -76.5t-15 -70.5q0 -99 98 -114q30 -5 44.5 -20.5t14.5 -43.5v-24q0 -53 -59 -65q-98 -10 -98 -115q0 -38 15.5 -69t46.5 -75q36 -51 55 -92t19 -95q0 -71 -37 -122.5t-102 -78.5t-147 -27h-116
q-60 0 -60 65z" />
    <glyph glyph-name="slash" unicode="/" horiz-adv-x="810" 
d="M74 -30.5q-14 11.5 -14 31.5q0 15 5 26l504 1299q15 48 70 48h57q27 0 41.5 -12t14.5 -33q0 -9 -5 -24l-505 -1299q-16 -48 -69 -48h-59q-26 0 -40 11.5z" />
    <glyph glyph-name="exclam" unicode="!" horiz-adv-x="429" 
d="M139.5 445.5q-17.5 15.5 -17.5 40.5l-11 792q0 54 77 54h51q42 0 60 -15t17 -39l-10 -792q0 -56 -77 -56h-31q-41 0 -58.5 15.5zM132 11q-32 31 -32 81q0 52 31.5 82.5t82.5 30.5t83 -30.5t32 -82.5q0 -51 -32 -81.5t-83 -30.5q-50 0 -82 31z" />
    <glyph glyph-name="question" unicode="?" horiz-adv-x="702" 
d="M182 484l-2 64q-2 52 14.5 94t41 73.5t67.5 75.5q42 42 67 73.5t42 73.5t17 94q0 77 -37.5 113t-112.5 36q-33 0 -61 -5t-60 -17l-44 -14q-9 -3 -17 -3q-13 0 -20.5 9t-10.5 28l-14 58q-2 7 -2 20q0 14 6 23t21 14l54 22q85 36 191 36q147 0 230 -77.5t83 -227.5
q0 -74 -21.5 -130.5t-52.5 -95.5t-81 -88q-55 -55 -82.5 -96t-30.5 -95l-2 -58q-2 -55 -76 -55h-30q-77 0 -77 55zM190 18.5q-31 30.5 -31 82.5t31 82.5t83 30.5q51 0 82.5 -30.5t31.5 -82.5q0 -51 -31.5 -82t-82.5 -31q-52 0 -83 30.5z" />
    <glyph glyph-name="plus" unicode="+" 
d="M525.5 124q-15.5 16 -15.5 43v312h-312q-28 0 -44 15t-16 43v39q0 29 15.5 45.5t44.5 16.5h312v309q0 28 15.5 44.5t43.5 16.5h36q30 0 46 -16t16 -45v-309h310q29 0 45 -16.5t16 -45.5v-38q0 -29 -16 -44t-45 -15h-310v-312q0 -29 -16 -44t-46 -15h-36q-28 0 -43.5 16z
" />
    <glyph glyph-name="hyphen" unicode="-" horiz-adv-x="690" 
d="M93 492q-15 16 -15 52v28q0 36 15 52.5t38 16.5h429q51 0 51 -69v-28q0 -68 -51 -68h-429q-23 0 -38 16z" />
    <glyph glyph-name="Lslash" unicode="&#x141;" horiz-adv-x="1038" 
d="M972 98v-26q0 -38 -15 -55t-39 -17h-607q-190 0 -190 149v366l-39 -19q-19 -10 -37 -10q-21 0 -33 14t-12 38v34q0 58 51 80l70 34v584q0 29 20.5 45.5t71.5 16.5h42q51 0 71.5 -16.5t20.5 -45.5v-473l314 154q20 10 38 10q19 0 31 -13.5t12 -38.5v-35q0 -51 -52 -79
l-343 -169v-421q0 -36 45 -36h526q54 0 54 -71z" />
    <glyph glyph-name="lslash" unicode="&#x142;" horiz-adv-x="427" 
d="M111 56v547l-38 -23q-25 -15 -44 -15q-17 0 -27 12.5t-10 34.5v44q0 27 11.5 46t35.5 36l72 44v496q0 54 81 54h41q82 0 82 -54v-378l37 24q26 14 44 14t28.5 -12t10.5 -34v-46q0 -52 -49 -80l-71 -43v-667q0 -26 -18.5 -41t-63.5 -15h-41q-81 0 -81 56z" />
    <glyph glyph-name="quotedbl" unicode="&#x22;" horiz-adv-x="728" 
d="M130 937l-19 352q-3 63 70 63h41q73 0 70 -63l-21 -352q-3 -50 -59 -50h-24q-55 0 -58 50zM453 937l-20 352q-2 30 16 46.5t56 16.5h41q38 0 56 -16.5t16 -46.5l-21 -352q-3 -50 -58 -50h-29q-54 0 -57 50z" />
    <glyph glyph-name="numbersign" unicode="#" 
d="M240 10.5q-9 10.5 -9 31.5l1 16l50 357h-137q-23 0 -38.5 14.5t-15.5 44.5v25q0 30 15.5 44.5t38.5 14.5h158l31 223h-189q-23 0 -38.5 15t-15.5 46v23q0 31 15.5 45.5t38.5 14.5h209l50 359q5 48 61 48h53q45 0 45 -43q0 -11 -1 -17l-49 -347h220l51 359q4 48 62 48h51
q46 0 46 -45q0 -10 -1 -15l-49 -347h142q23 0 37 -14.5t14 -45.5v-24q0 -31 -14 -45.5t-37 -14.5h-162l-31 -223h193q23 0 37 -14.5t14 -44.5v-26q0 -30 -14 -44t-37 -14h-212l-52 -370q-9 -45 -57 -45h-61q-23 0 -33 9.5t-10 29.5q0 5 2 19l51 357h-219l-52 -370
q-3 -22 -18 -33.5t-39 -11.5h-62q-24 0 -33 10.5zM682 558l32 223h-220l-32 -223h220z" />
    <glyph glyph-name="dollar" unicode="$" 
d="M507 -210v213q-153 12 -275 56l-100 34q-36 14 -36 43q0 12 4 25l19 57q7 22 15.5 32t22.5 10q9 0 24 -5l88 -29q151 -52 307 -52q137 0 206.5 47.5t69.5 136.5q0 50 -22 80.5t-65.5 52t-128.5 49.5l-180 57q-111 36 -183.5 79t-112.5 110t-40 167q0 102 45 182.5
t132 130t210 61.5v214q0 43 62 43h32q61 0 61 -43v-214q117 -8 245 -51l87 -29q18 -7 26.5 -17.5t8.5 -26.5q0 -9 -3 -23l-19 -57q-6 -21 -14 -31t-21 -10q-10 0 -25 6l-75 23q-142 48 -272 48q-133 0 -196.5 -48t-63.5 -137q0 -54 22 -87.5t64 -55t122 -48.5l180 -57
q123 -39 196.5 -81.5t110.5 -106t37 -159.5q0 -163 -106 -261t-304 -114v-214q0 -42 -61 -42h-32q-62 0 -62 42z" />
    <glyph glyph-name="percent" unicode="%" horiz-adv-x="1253" 
d="M114.5 736.5q-63.5 89.5 -63.5 264.5q0 178 64 264.5t202 86.5q139 0 200 -85.5t61 -262.5q0 -178 -64.5 -267.5t-200.5 -89.5q-135 0 -198.5 89.5zM260 10q-13 10 -13 27q0 14 11 34l600 1216q23 45 73 45h19q25 0 38 -10t13 -28q0 -17 -8 -33l-601 -1216
q-25 -45 -73 -45h-24q-22 0 -35 10zM410 815q29 57 29 189q0 87 -12.5 139t-39.5 75.5t-72 23.5t-72 -23.5t-39 -75.5t-12 -139q0 -132 28.5 -189t94.5 -57t95 57zM737.5 70q-63.5 90 -63.5 265q0 178 64 264.5t202 86.5q139 0 200.5 -85.5t61.5 -262.5q0 -358 -265 -358
q-136 0 -199.5 90zM1032.5 149.5q28.5 56.5 28.5 189.5q0 87 -12 138.5t-38.5 75t-71.5 23.5t-72 -23.5t-39 -75t-12 -138.5q0 -90 12 -143.5t39 -78t72 -24.5q65 0 93.5 56.5z" />
    <glyph glyph-name="ampersand" unicode="&#x26;" horiz-adv-x="1443" 
d="M301.5 22.5q-93.5 42.5 -146 122t-52.5 188.5q0 99 40 170.5t104.5 119.5t155.5 92q-56 67 -85.5 134t-29.5 140q0 101 45.5 180t129 123.5t193.5 44.5q102 0 175 -36t110.5 -101t37.5 -151q0 -93 -41 -159.5t-105.5 -110.5t-159.5 -88l311 -320q60 82 92 182.5t32 203.5
v68q0 49 63 49h41q64 0 64 -49v-94q0 -129 -44.5 -255t-128.5 -227l177 -182q20 -22 20 -38t-17 -26t-48 -10h-84q-33 0 -52.5 6.5t-36.5 24.5l-94 100q-93 -69 -207 -106.5t-246 -37.5q-120 0 -213.5 42.5zM745.5 901q58.5 57 58.5 142q0 68 -39.5 106t-111.5 38
q-77 0 -123.5 -51t-46.5 -131q0 -58 23.5 -108.5t70.5 -104.5q110 52 168.5 109zM853 242l-352 366q-90 -49 -139 -107.5t-49 -146.5q0 -99 65 -156.5t173 -57.5q165 0 302 102z" />
    <glyph glyph-name="quotesingle" unicode="'" horiz-adv-x="411" 
d="M143 900q-13 13 -15 41l-17 340q-2 37 14.5 54t53.5 17h50q37 0 54 -17.5t15 -53.5l-22 -340q-2 -28 -15 -41t-41 -13h-35q-29 0 -42 13z" />
    <glyph glyph-name="asterisk" unicode="*" horiz-adv-x="979" 
d="M262 713q-26 18 -26 43q0 22 19 42l139 152l-203 44q-22 4 -34.5 17.5t-12.5 33.5q0 12 4 23l16 45q10 42 48 42q14 0 30 -6l190 -91l-25 211l-1 11q0 25 16 38.5t43 13.5h48q27 0 42.5 -13.5t15.5 -38.5l-1 -11l-26 -213l194 93q17 6 30 6q36 0 49 -42l16 -45
q3 -12 3 -22q0 -43 -47 -52l-204 -44l139 -152q19 -19 19 -40q0 -26 -28 -46l-37 -28q-18 -12 -35 -12q-29 0 -49 32l-105 180l-104 -180q-16 -33 -47 -33q-18 0 -37 13z" />
    <glyph glyph-name="asciicircum" unicode="^" 
d="M182.5 130q-13.5 11 -13.5 31q0 13 6 28l311 773q10 24 27 35.5t43 11.5h68q52 0 71 -48l306 -772q6 -15 6 -28q0 -20 -13.5 -31t-38.5 -11h-47q-51 0 -70 46l-249 648l-252 -648q-10 -23 -27 -34.5t-44 -11.5h-45q-25 0 -38.5 11z" />
    <glyph glyph-name="underscore" unicode="_" horiz-adv-x="979" 
d="M-4 -124h987v-148h-987v148z" />
    <glyph glyph-name="asciitilde" unicode="~" 
d="M145.5 431.5q-20.5 28.5 -20.5 75.5q0 54 26.5 102t81 77.5t134.5 29.5q81 0 141.5 -21t138.5 -61q58 -30 94.5 -43.5t75.5 -13.5q35 0 55.5 11.5t29.5 28t18 42.5q11 30 21.5 43.5t35.5 13.5q31 0 52 -28t21 -75q0 -55 -26.5 -103t-80.5 -77.5t-133 -29.5
q-74 0 -130.5 19.5t-130.5 57.5q-61 32 -103 47t-91 15q-34 0 -54 -11.5t-29 -27.5t-18 -42q-10 -29 -21.5 -43.5t-36.5 -14.5q-30 0 -50.5 28.5z" />
    <glyph glyph-name="quotesinglbase" unicode="&#x201a;" horiz-adv-x="411" 
d="M37 -206q0 8 3 19l94 341q13 52 81 52h52q33 0 50 -12t17 -34q0 -10 -5 -25l-109 -334q-9 -28 -30 -41t-59 -13h-26q-68 0 -68 47z" />
    <glyph glyph-name="florin" unicode="&#x192;" 
d="M69 -345.5q-34 26.5 -30 70.5l1 15q2 23 18 32.5t51 9.5q77 0 123 42t60 132l113 812h-130q-21 0 -34 15t-13 48v24q0 32 13 46.5t34 14.5h150l4 25q26 197 144 304t313 107h61q19 0 32 -14.5t13 -45.5v-41q0 -32 -12.5 -46t-32.5 -14h-47q-117 0 -182 -58.5t-85 -193.5
l-3 -23h190q21 0 33.5 -14.5t12.5 -46.5v-25q0 -32 -12.5 -47t-33.5 -15h-210l-116 -818q-21 -155 -110.5 -238.5t-222.5 -83.5q-58 0 -92 26.5z" />
    <glyph glyph-name="quotedblbase" unicode="&#x201e;" horiz-adv-x="734" 
d="M37 -206q0 8 3 19l94 341q13 52 81 52h52q33 0 50 -12t17 -34q0 -10 -5 -25l-109 -334q-9 -28 -30 -41t-59 -13h-26q-68 0 -68 47zM386 -241q-17 12 -17 34q0 9 3 20l93 341q14 52 82 52h52q33 0 49.5 -11.5t16.5 -33.5q0 -11 -5 -26l-109 -334q-9 -28 -29.5 -41
t-58.5 -13h-27q-33 0 -50 12z" />
    <glyph glyph-name="ellipsis" unicode="&#x2026;" horiz-adv-x="1233" 
d="M122.5 19q-31.5 31 -31.5 82q0 52 31.5 82.5t82.5 30.5q52 0 83.5 -30.5t31.5 -82.5t-31.5 -82.5t-83.5 -30.5q-51 0 -82.5 31zM533.5 19q-31.5 31 -31.5 82q0 52 31.5 82.5t82.5 30.5t82.5 -30.5t31.5 -82.5q0 -51 -31.5 -82t-82.5 -31t-82.5 31zM944 18.5
q-31 30.5 -31 82.5t31 82.5t84 30.5q50 0 82.5 -30.5t32.5 -82.5q0 -51 -32.5 -82t-82.5 -31q-53 0 -84 30.5z" />
    <glyph glyph-name="dagger" unicode="&#x2020;" 
d="M507 -339.5q-15 15.5 -13 44.5l30 1034l-356 -32q-29 -3 -46 12t-17 44v76q0 30 17 45t46 12l356 -32l-34 405q-3 30 11.5 46.5t44.5 16.5h83q30 0 45.5 -16.5t12.5 -46.5l-37 -405l357 32q29 3 46 -12t17 -45v-76q0 -29 -16.5 -44t-46.5 -12l-357 32l33 -1034
q1 -29 -14.5 -44.5t-45.5 -15.5h-72q-29 0 -44 15.5z" />
    <glyph glyph-name="daggerdbl" unicode="&#x2021;" 
d="M502 -335.5q-15 16.5 -12 46.5l34 370l-356 -36q-29 -3 -46 12.5t-17 45.5v76q0 29 17 44.5t46 13.5l355 -34l-27 280l27 285l-355 -33q-29 -2 -46 13.5t-17 44.5v78q0 28 17 42.5t46 11.5l356 -34l-34 378q-3 31 12 47t46 16h81q30 0 45.5 -16.5t12.5 -46.5l-37 -378
l357 34q29 3 46 -11.5t17 -42.5v-78q0 -29 -17 -44.5t-46 -13.5l-357 33l29 -285l-29 -280l357 34q30 2 46.5 -13t16.5 -45v-76q0 -31 -17 -46t-46 -12l-357 36l37 -370q3 -30 -12.5 -46.5t-45.5 -16.5h-81q-31 0 -46 16.5z" />
    <glyph glyph-name="perthousand" unicode="&#x2030;" horiz-adv-x="1845" 
d="M114.5 736.5q-63.5 89.5 -63.5 264.5q0 178 64 264.5t202 86.5q139 0 200 -85.5t61 -262.5q0 -178 -64.5 -267.5t-200.5 -89.5q-135 0 -198.5 89.5zM260 10q-13 10 -13 27q0 14 11 34l600 1216q23 45 73 45h19q25 0 38 -10t13 -28q0 -17 -8 -33l-601 -1216
q-25 -45 -73 -45h-24q-22 0 -35 10zM410 815q29 57 29 189q0 87 -12.5 139t-39.5 75.5t-72 23.5t-72 -23.5t-39 -75.5t-12 -139q0 -132 28.5 -189t94.5 -57t95 57zM737.5 70q-63.5 90 -63.5 265q0 178 64 264.5t202 86.5q139 0 200.5 -85.5t61.5 -262.5q0 -358 -265 -358
q-136 0 -199.5 90zM1331 70q-63 90 -63 265q0 178 63 264.5t200 86.5q141 0 202 -85t61 -263q0 -358 -264 -358q-136 0 -199 90zM1032.5 149.5q28.5 56.5 28.5 189.5q0 87 -12 138.5t-38.5 75t-71.5 23.5t-72 -23.5t-39 -75t-12 -138.5q0 -90 12 -143.5t39 -78t72 -24.5
q65 0 93.5 56.5zM1602 117.5q27 24.5 39.5 78t12.5 143.5q0 87 -12 138.5t-38.5 75t-72.5 23.5q-44 0 -70.5 -23.5t-38.5 -75t-12 -138.5q0 -90 11.5 -143.5t38 -78t70.5 -24.5q45 0 72 24.5z" />
    <glyph glyph-name="guilsinglleft" unicode="&#x2039;" horiz-adv-x="639" 
d="M375.5 113.5q-16.5 7.5 -25.5 21.5l-229 388q-11 19 -11 36q0 15 11 35l234 385q8 16 24.5 23t36.5 7h68q21 0 32.5 -9t11.5 -26q0 -11 -6 -26l-188 -391l188 -390q6 -15 6 -26q0 -17 -11.5 -26t-32.5 -9h-73q-19 0 -35.5 7.5z" />
    <glyph glyph-name="OE" unicode="&#x152;" horiz-adv-x="2028" 
d="M247 146q-146 166 -146 501v39q0 334 145.5 500t446.5 166q150 0 237.5 -45t131.5 -100q8 64 53.5 94.5t134.5 30.5h632q24 0 39.5 -16.5t15.5 -54.5v-30q0 -37 -15.5 -53.5t-39.5 -16.5h-558q-45 0 -45 -33v-368h509q23 0 37 -15.5t14 -51.5v-28q0 -36 -14 -51.5
t-37 -15.5h-509v-392q0 -35 45 -35h558q24 0 39.5 -17t15.5 -55v-29q0 -36 -15.5 -53t-39.5 -17h-632q-95 0 -139 34t-49 104q-46 -60 -134 -109t-235 -49q-300 0 -446 166zM945 207.5q79 52.5 115 121.5v670q-38 70 -117.5 125t-221.5 55q-137 0 -220.5 -51t-122 -158.5
t-38.5 -283.5v-39q0 -178 38.5 -285t121.5 -157t221 -50q145 0 224 52.5z" />
    <glyph glyph-name="quoteleft" unicode="&#x2018;" horiz-adv-x="411" 
d="M70 884q-17 12 -17 34q0 12 4 24l110 333q8 29 29.5 43t59.5 14h21q67 0 67 -47q0 -10 -3 -22l-92 -339q-12 -52 -82 -52h-47q-33 0 -50 12z" />
    <glyph glyph-name="quoteright" unicode="&#x2019;" horiz-adv-x="411" 
d="M52 922q0 9 3 21l93 339q6 27 25.5 40t56.5 13h49q31 0 48 -13.5t17 -35.5q0 -6 -4 -22l-111 -334q-17 -56 -88 -56h-23q-66 0 -66 48z" />
    <glyph glyph-name="quotedblleft" unicode="&#x201c;" horiz-adv-x="747" 
d="M70 884q-17 12 -17 34q0 12 4 24l110 333q8 29 29.5 43t59.5 14h21q67 0 67 -47q0 -10 -3 -22l-92 -339q-12 -52 -82 -52h-47q-33 0 -50 12zM409.5 884.5q-17.5 12.5 -17.5 33.5q0 9 5 24l110 333q8 28 29 42.5t59 14.5h22q67 0 67 -47q0 -10 -3 -22l-92 -339
q-14 -52 -82 -52h-48q-32 0 -49.5 12.5z" />
    <glyph glyph-name="quotedblright" unicode="&#x201d;" horiz-adv-x="747" 
d="M52 922q0 9 3 21l93 339q6 27 25.5 40t56.5 13h49q31 0 48 -13.5t17 -35.5q0 -6 -4 -22l-111 -334q-17 -56 -88 -56h-23q-66 0 -66 48zM392 922q0 9 3 21l93 339q6 27 25.5 40t56.5 13h49q31 0 48 -13.5t17 -35.5q0 -6 -4 -22l-112 -334q-16 -56 -86 -56h-24
q-66 0 -66 48z" />
    <glyph glyph-name="bullet" unicode="&#x2022;" horiz-adv-x="685" 
d="M233 366.5q-50 26.5 -78.5 76t-28.5 115.5t28 116t77.5 77.5t110.5 27.5q100 0 159 -58.5t59 -157.5q0 -65 -27 -115.5t-76 -79t-111 -28.5q-63 0 -113 26.5z" />
    <glyph glyph-name="endash" unicode="&#x2013;" 
d="M128 493q-14 16 -14 52v27q0 36 14 52t36 16h847q23 0 37 -16t14 -52v-28q0 -67 -51 -67h-847q-22 0 -36 16z" />
    <glyph glyph-name="emdash" unicode="&#x2014;" horiz-adv-x="1656" 
d="M128 493q-14 16 -14 52v27q0 36 14 52t36 16h1328q22 0 36 -16t14 -52v-28q0 -36 -14 -51.5t-36 -15.5h-1328q-22 0 -36 16z" />
    <glyph glyph-name="trademark" unicode="&#x2122;" horiz-adv-x="1629" 
d="M348 641q-14 14 -14 40v538h-163q-25 0 -38.5 14t-13.5 39v7q0 25 13.5 39t38.5 14h485q26 0 39.5 -13.5t13.5 -39.5v-7q0 -25 -13.5 -39t-39.5 -14h-166v-538q0 -26 -14.5 -40t-40.5 -14h-47q-26 0 -40 14zM805.5 641q-13.5 14 -13.5 40v598q0 26 13.5 39.5t39.5 13.5
h101q24 0 38 -10.5t19 -34.5l135 -450l136 450q10 45 58 45h101q25 0 38.5 -13.5t13.5 -39.5v-598q0 -26 -13.5 -40t-38.5 -14h-38q-25 0 -39 14.5t-14 39.5v456l-141 -465q-12 -45 -59 -45h-26q-48 0 -58 45l-142 463v-454q0 -26 -13.5 -40t-40.5 -14h-17q-26 0 -39.5 14z
" />
    <glyph glyph-name="guilsinglright" unicode="&#x203a;" horiz-adv-x="638" 
d="M122 115.5q-12 9.5 -12 26.5q0 12 6 25l189 390l-189 391q-6 15 -6 26q0 16 12 25.5t33 9.5h67q46 0 62 -30l232 -385q11 -18 11 -36t-11 -35l-227 -388q-9 -14 -26 -21.5t-35 -7.5h-73q-21 0 -33 9.5z" />
    <glyph glyph-name="oe" unicode="&#x153;" horiz-adv-x="1688" 
d="M195 93q-111 113 -111 345v40q0 232 111 344.5t336 112.5q250 0 351 -152q55 75 140.5 113.5t194.5 38.5q124 0 211 -35t132 -100t45 -154q0 -99 -45 -156.5t-133 -83.5t-229 -30l-218 -7q19 -113 98.5 -167t197.5 -54q48 0 99.5 8.5t92.5 23.5l49 18q9 4 19 4
q11 0 18 -8t12 -27l18 -61q3 -10 3 -20q0 -13 -6.5 -21.5t-21.5 -14.5l-58 -25q-115 -45 -263 -45q-114 0 -205.5 38.5t-148.5 115.5q-102 -154 -353 -154q-225 0 -336 113zM1154 499q98 2 151.5 10.5t86 36.5t32.5 87q0 68 -48.5 109t-153.5 41q-124 0 -186.5 -69
t-63.5 -221zM671 161.5q52 29.5 76.5 96t24.5 180.5v40q0 114 -24.5 179.5t-76.5 94t-140 28.5q-87 0 -138 -29t-74.5 -94.5t-23.5 -178.5v-39q0 -114 23.5 -181t75 -96.5t137.5 -29.5q88 0 140 29.5z" />
    <glyph glyph-name="Ydieresis" unicode="&#x178;" horiz-adv-x="1291" 
d="M427 1481q-31 30 -31 80q0 48 31 78t80 30q48 0 79 -30t31 -78q0 -50 -30.5 -80t-79.5 -30t-80 30zM735.5 1480.5q-30.5 29.5 -30.5 80.5q0 49 30.5 78.5t80.5 29.5q48 0 78.5 -30t30.5 -78q0 -50 -30 -80t-79 -30q-50 0 -80.5 29.5zM536 61v494l-446 713q-7 14 -7 23
q0 18 20 29.5t58 11.5h79q48 0 70 -15t36 -44l314 -536l310 536q13 29 35.5 44t70.5 15h54q38 0 58 -11.5t20 -29.5q0 -9 -7 -23l-437 -706v-501q0 -61 -93 -61h-43q-92 0 -92 61z" />
    <glyph glyph-name="exclamdown" unicode="&#xa1;" horiz-adv-x="429" 
d="M132 804.5q-32 31.5 -32 82.5t32 81.5t83 30.5q50 0 82 -31t32 -81q0 -51 -32 -82.5t-82 -31.5q-51 0 -83 31.5zM113 -299l9 794q4 55 78 55h30q76 0 76 -55l11 -794q0 -25 -17 -39t-60 -14h-50q-79 0 -77 53z" />
    <glyph glyph-name="cent" unicode="&#xa2;" 
d="M548 11.5q-13 11.5 -13 32.5v148q-169 21 -260.5 130t-91.5 324v36q0 410 352 453v155q0 20 13 31t48 11h33q61 0 61 -42v-151q110 -11 192 -44l57 -23q30 -11 30 -40q0 -6 -2 -20l-17 -60q-5 -20 -13 -29.5t-21 -9.5q-8 0 -17 3l-50 17q-85 31 -182 31q-130 0 -197 -65
t-67 -217v-36q0 -153 67 -218.5t197 -65.5q98 0 182 32l50 16q9 3 17 3q13 0 21 -9.5t13 -29.5l17 -59q2 -14 2 -20q0 -15 -7 -25t-23 -15l-57 -23q-82 -33 -192 -44v-144q0 -21 -13.5 -32.5t-47.5 -11.5h-33q-35 0 -48 11.5z" />
    <glyph glyph-name="sterling" unicode="&#xa3;" horiz-adv-x="1199" 
d="M706 -5.5q-54 16.5 -132 49.5q-71 31 -118.5 45.5t-102.5 14.5q-62 0 -128 -27q-21 -8 -34 -8q-31 0 -31 40v32q0 25 11.5 40.5t36.5 26.5q56 24 97.5 73.5t41.5 135.5q0 59 -22 112h-210q-35 0 -35 52v28q0 27 9.5 39.5t25.5 12.5h145q-38 69 -58.5 133t-20.5 146
q0 119 53.5 212t157.5 146.5t251 53.5q256 0 403 -177l39 -47q11 -14 11 -26q0 -17 -20 -37l-52 -43q-25 -18 -36 -18q-12 0 -23 14l-36 39q-53 58 -121.5 90.5t-145.5 32.5q-133 0 -200.5 -69t-67.5 -185q0 -56 9.5 -101.5t22 -77.5t37.5 -86h359q37 0 37 -52v-28
q0 -28 -9.5 -40t-27.5 -12h-314q11 -41 11 -91q0 -100 -53 -179q54 -6 97.5 -20.5t103.5 -40.5q59 -25 95 -36t77 -11q131 0 131 115v35q0 38 44 38h60q42 0 42 -39v-41q0 -80 -33.5 -144t-99 -100.5t-157.5 -36.5q-66 0 -120 16.5z" />
    <glyph glyph-name="yen" unicode="&#xa5;" 
d="M497 17q-22 17 -22 44v391h-371q-37 0 -37 51v28q0 52 37 52h365l-69 123h-296q-37 0 -37 52v27q0 53 37 53h221l-247 430q-5 10 -5 22q0 19 19.5 30.5t58.5 11.5h64q47 0 71 -15.5t36 -43.5l275 -547l269 547q12 29 35 44t71 15h51q40 0 59.5 -11.5t19.5 -30.5
q0 -10 -6 -22l-248 -430h224q37 0 37 -53v-27q0 -52 -37 -52h-297l-71 -123h368q37 0 37 -52v-28q0 -51 -37 -51h-371v-391q0 -61 -92 -61h-40q-50 0 -72 17z" />
    <glyph glyph-name="brokenbar" unicode="&#xa6;" horiz-adv-x="519" 
d="M195.5 774.5q-16.5 16.5 -16.5 45.5v725q0 30 16.5 46t45.5 16h33q65 0 65 -62v-725q0 -62 -65 -62h-33q-29 0 -45.5 16.5zM195.5 -336.5q-16.5 15.5 -16.5 44.5v747q0 30 16 45.5t46 15.5h33q65 0 65 -61v-747q0 -60 -65 -60h-33q-29 0 -45.5 15.5z" />
    <glyph glyph-name="section" unicode="&#xa7;" 
d="M364 -360q-63 12 -112 33l-52 22q-15 5 -21 14t-6 23q0 6 2 20l12 56q9 39 33 39q7 0 16 -3l49 -20q96 -35 191 -35q86 0 132.5 45.5t46.5 118.5q0 65 -33.5 122.5t-83 105t-135.5 119.5q-103 85 -166 148t-107.5 147.5t-44.5 185.5q0 77 31 140t84.5 105t120.5 61
q20 122 113 193.5t249 71.5q66 0 128 -12t113 -33l52 -21q16 -7 22.5 -16t6.5 -23q0 -13 -2 -21l-14 -54q-8 -38 -32 -38q-8 0 -18 3l-49 18q-82 35 -189 35q-87 0 -132 -44.5t-45 -117.5q0 -65 33.5 -122.5t83 -105t135.5 -118.5q103 -85 166 -148t107 -147.5t44 -186.5
q0 -116 -66.5 -196.5t-169.5 -110.5q-21 -122 -114 -193.5t-249 -71.5q-67 0 -130 12zM915.5 84.5q21.5 40.5 21.5 94.5q0 74 -39 138t-96.5 116t-155.5 127q-98 76 -158 129t-107 121.5t-61 148.5q-36 -22 -57.5 -62.5t-21.5 -95.5q0 -74 39 -138.5t96 -116t155 -127.5
q97 -74 157 -127.5t107.5 -122.5t61.5 -149q37 24 58.5 64.5z" />
    <glyph glyph-name="copyright" unicode="&#xa9;" horiz-adv-x="1806" 
d="M499 -52q-182 93 -286.5 262.5t-104.5 390.5q0 222 102 392.5t282 264.5t406 94q228 0 410.5 -93.5t286 -262t103.5 -384.5q0 -223 -102.5 -395.5t-283 -267t-407.5 -94.5q-224 0 -406 93zM1235.5 64.5q142.5 78.5 223.5 219.5t81 323q0 198 -87 336.5t-234 207.5
t-327 69t-323 -77.5t-223.5 -217.5t-80.5 -321q0 -201 86.5 -340.5t233.5 -208.5t328 -69q180 0 322.5 78.5zM507 591v32q0 216 109.5 312.5t309.5 96.5q134 0 243 -41l52 -19q28 -10 28 -34q0 -9 -3 -20l-18 -67q-7 -34 -30 -34q-8 0 -17 3l-49 15q-77 28 -172 28
q-126 0 -190.5 -55t-64.5 -185v-32q0 -129 64.5 -182.5t190.5 -53.5q100 0 172 25l49 16q9 3 17 3q22 0 30 -34l18 -69q3 -10 3 -20q0 -25 -28 -33l-52 -21q-118 -41 -243 -41q-419 0 -419 410z" />
    <glyph glyph-name="logicalnot" unicode="&#xac;" 
d="M895 314q-16 16 -16 46v283h-681q-29 0 -44.5 16t-15.5 45v40q0 29 15.5 44t44.5 15h779q29 0 45 -16.5t16 -45.5v-381q0 -62 -59 -62h-40q-28 0 -44 16z" />
    <glyph glyph-name="minus" unicode="&#x2212;" 
d="M154 492.5q-16 14.5 -16 43.5v40q0 29 15.5 45.5t44.5 16.5h779q29 0 45 -16.5t16 -45.5v-39q0 -29 -16 -44t-45 -15h-779q-28 0 -44 14.5z" />
    <glyph glyph-name="registered" unicode="&#xae;" horiz-adv-x="1806" 
d="M498.5 -52q-181.5 93 -286 262t-104.5 390q0 222 102 393t282 265t406 94q228 0 410.5 -93.5t286 -262t103.5 -384.5q0 -224 -102.5 -396t-283 -266.5t-407.5 -94.5q-225 0 -406.5 93zM1235.5 64q142.5 78 223.5 219t81 323q0 198 -87 336.5t-234 208t-327 69.5t-323 -78
t-223.5 -218t-80.5 -321q0 -201 86.5 -340t233.5 -208t328 -69q180 0 322.5 78zM619 209.5q-16 12.5 -16 32.5v709q0 31 19 47t67 16h329q126 0 185.5 -62t59.5 -163q0 -92 -51.5 -155.5t-148.5 -77.5q3 -2 26.5 -21.5t45.5 -59.5l127 -237q5 -10 5 -18q0 -23 -50 -23h-46
q-69 0 -85 41l-107 212q-28 46 -52.5 67t-68.5 22h-89v-297q0 -45 -68 -45h-30q-36 0 -52 12.5zM970 651q67 0 98.5 35t31.5 94q0 60 -30 90t-101 30h-200v-249h201z" />
    <glyph glyph-name="degree" unicode="&#xb0;" horiz-adv-x="955" 
d="M317 781q-73 38 -114.5 106t-41.5 156q0 91 41.5 161t114.5 109t165 39t162.5 -39t110 -109t39.5 -161q0 -88 -39.5 -156t-110.5 -106t-162 -38q-92 0 -165 38zM599 924.5q45 45.5 45 120.5q0 77 -45 124.5t-117 47.5q-74 0 -121 -47.5t-47 -124.5q0 -74 47 -120t121 -46
q72 0 117 45.5z" />
    <glyph glyph-name="plusminus" unicode="&#xb1;" 
d="M525.5 287.5q-15.5 16.5 -15.5 44.5v242h-312q-28 0 -44 15t-16 44v33q0 29 15.5 45t44.5 16h312v243q0 28 15.5 44.5t43.5 16.5h36q30 0 46 -16t16 -45v-243h310q29 0 45 -16t16 -45v-33q0 -29 -16 -44t-45 -15h-310v-242q0 -29 -16 -45t-46 -16h-36q-28 0 -43.5 16.5z
M154 15q-16 15 -16 43v33q0 30 15.5 46t44.5 16h779q29 0 45 -16t16 -46v-33q0 -28 -16 -43t-45 -15h-779q-28 0 -44 15z" />
    <glyph glyph-name="paragraph" unicode="&#xb6;" horiz-adv-x="1231" 
d="M659 16q-16 16 -16 45v481h-101q-126 0 -221 48.5t-147.5 137.5t-52.5 208q0 117 52.5 207t147 139.5t218.5 49.5h484q29 0 45 -16t16 -45v-1210q0 -29 -16 -45t-45 -16h-39q-29 0 -45 16t-16 45v1127h-118v-1127q0 -29 -16.5 -45t-45.5 -16h-39q-29 0 -45 16zM643 687
v501h-80q-115 0 -179.5 -66t-64.5 -182q0 -118 64.5 -185.5t178.5 -67.5h81z" />
    <glyph glyph-name="periodcentered" unicode="&#xb7;" horiz-adv-x="452" 
d="M143.5 478q-30.5 31 -30.5 82t31 81.5t82 30.5q50 0 82 -31t32 -81q0 -51 -31.5 -82t-82.5 -31q-52 0 -82.5 31z" />
    <glyph glyph-name="questiondown" unicode="&#xbf;" horiz-adv-x="702" 
d="M346.5 796q-31.5 31 -31.5 82q0 52 31.5 83t82.5 31t82.5 -31t31.5 -83q0 -51 -31.5 -82t-82.5 -31t-82.5 31zM150 -294q-84 78 -84 226q0 75 22 131.5t52.5 95t80.5 88.5q39 40 60 64.5t36.5 57t16.5 70.5l2 56q2 26 18.5 41t58.5 15h30q42 0 59.5 -15t17.5 -41l2 -62
q2 -53 -14.5 -95.5t-41.5 -74t-67 -74.5t-67 -74.5t-42 -73t-17 -92.5q0 -77 38 -113.5t113 -36.5q57 0 120 21l45 15q9 3 17 3q22 0 30 -36l15 -60q2 -14 2 -19q0 -26 -28 -37l-54 -23q-90 -35 -190 -35q-147 0 -231 78z" />
    <glyph glyph-name="AE" unicode="&#xc6;" horiz-adv-x="1905" 
d="M67 33q0 9 5 22l506 1127q31 80 74.5 115t123.5 35h975q23 0 38 -16.5t15 -54.5v-30q0 -37 -15 -53.5t-38 -16.5h-603v-401h508q23 0 37.5 -15.5t14.5 -51.5v-28q0 -36 -14.5 -51.5t-37.5 -15.5h-508v-392q0 -35 44 -35h559q23 0 38 -17t15 -55v-29q0 -36 -15 -53
t-38 -17h-632q-192 0 -192 149v240h-482l-145 -334q-9 -29 -37 -46.5t-78 -17.5h-42q-76 0 -76 42zM927 546v613h-141q-8 0 -12.5 -3t-8.5 -12l-256 -598h418z" />
    <glyph glyph-name="multiply" unicode="&#xd7;" 
d="M588 447l-245 -244q-19 -19 -42 -19q-24 0 -45 20l-24 24q-19 20 -19 42q0 23 20 43l244 246l-244 243q-21 21 -21 44q0 21 19 41l25 25q23 21 45 21t42 -21l245 -244l245 245q20 20 43 20q22 0 41 -19l25 -26q21 -21 21 -43q0 -21 -20 -43l-245 -243l245 -245
q20 -20 20 -43t-21 -44l-24 -25q-20 -19 -42 -19q-21 0 -43 20z" />
    <glyph glyph-name="Thorn" unicode="&#xde;" horiz-adv-x="1190" 
d="M121 58v1216q0 58 87 58h51q88 0 88 -58v-203h327q154 0 249.5 -41t140 -123.5t44.5 -210.5q0 -193 -107.5 -293.5t-326.5 -100.5h-327v-244q0 -58 -88 -58h-51q-87 0 -87 58zM639 461q135 0 193.5 56t58.5 175q0 78 -24.5 125t-80 69t-152.5 22h-287v-447h292z" />
    <glyph glyph-name="germandbls" unicode="&#xdf;" horiz-adv-x="1022" 
d="M128.5 15q-17.5 15 -17.5 41v822q0 135 64.5 243t181.5 169.5t270 61.5q103 0 175 -34.5t108 -96.5t36 -144q0 -70 -26 -124.5t-62.5 -91t-93.5 -81.5q-56 -45 -82.5 -75.5t-26.5 -67.5q0 -33 25.5 -54.5t80.5 -50.5q58 -31 94.5 -57.5t63.5 -73.5t27 -116
q0 -88 -42 -152.5t-116 -98.5t-167 -34h-125q-45 0 -45 60v28q0 60 45 60h52q98 0 148.5 29t50.5 103q0 42 -19 71.5t-46.5 49t-73.5 43.5q-48 25 -77 45.5t-49 52.5t-20 78q0 44 18.5 80.5t45.5 63.5t74 66t76 68t48.5 67.5t19.5 86.5q0 67 -36.5 102.5t-105.5 35.5
q-80 0 -145.5 -38t-103.5 -110t-38 -170v-816q0 -26 -18.5 -41t-63.5 -15h-42q-45 0 -62.5 15z" />
    <glyph glyph-name="ae" unicode="&#xe6;" horiz-adv-x="1606" 
d="M182 49.5q-98 69.5 -98 205.5v18q0 135 97 201t300 76l214 12v33q0 90 -48.5 133t-151.5 43q-58 0 -125.5 -13.5t-125.5 -34.5l-53 -22q-16 -4 -22 -4q-14 0 -22 9t-13 30l-13 57q-3 12 -3 21q0 13 6.5 21.5t22.5 15.5l64 25q140 59 304 59q219 0 310 -113
q54 56 133.5 84.5t177.5 28.5q123 0 209.5 -35t131 -100t44.5 -154q0 -99 -44.5 -156.5t-132 -83.5t-227.5 -30l-219 -7q20 -114 98.5 -167.5t196.5 -53.5q47 0 99 9t93 23l51 18q9 4 18 4q10 0 17 -8.5t12 -26.5l18 -61q3 -12 3 -21q0 -13 -7 -21.5t-22 -13.5l-57 -25
q-113 -45 -262 -45q-210 0 -328 112q-46 -56 -130 -84t-210 -28q-208 0 -306 69.5zM1070 499q98 2 152 10.5t86.5 36.5t32.5 87q0 68 -48.5 109t-152.5 41q-123 0 -185 -69t-64 -221zM647 152.5q48 39.5 48 124.5v158l-179 -10q-121 -6 -175.5 -40t-54.5 -109v-18
q0 -75 45 -110t157 -35q111 0 159 39.5z" />
    <glyph glyph-name="eth" unicode="&#xf0;" horiz-adv-x="1039" 
d="M190.5 91q-106.5 111 -106.5 347v39q0 233 101 345.5t306 112.5q104 0 175 -34q-31 71 -87 159l-160 -63q-18 -7 -34 -7q-21 0 -32.5 13t-11.5 36v12q0 57 55 79l99 40q-42 50 -93 96q-18 17 -18 34q0 14 10.5 23t27.5 9h97q31 0 55 -10.5t48 -34.5q8 -7 49 -53l194 75
q21 8 35 8q20 0 32 -13t12 -35v-14q0 -56 -55 -78l-134 -53q85 -124 142 -282t57 -341v-63q0 -235 -104 -346.5t-328 -111.5q-225 0 -331.5 111zM658.5 163q50.5 29 73 95t22.5 181v27q0 119 -22 186.5t-72.5 97.5t-138.5 30q-87 0 -137 -28.5t-72.5 -93.5t-22.5 -180v-40
q0 -114 22.5 -180t73 -95t136.5 -29q87 0 137.5 29z" />
    <glyph glyph-name="divide" unicode="&#xf7;" 
d="M509 837.5q-31 30.5 -31 79.5q0 47 31 76.5t80 29.5q48 0 79 -29.5t31 -76.5q0 -49 -31 -79.5t-79 -30.5q-49 0 -80 30.5zM153.5 494.5q-15.5 15.5 -15.5 44.5v35q0 29 15.5 45t44.5 16h779q29 0 45 -16t16 -45v-35q0 -29 -16 -44.5t-45 -15.5h-779q-29 0 -44.5 15.5z
M508.5 119.5q-30.5 29.5 -30.5 79.5q0 48 31 78t80 30q48 0 79 -30t31 -78q0 -50 -30.5 -79.5t-79.5 -29.5q-50 0 -80.5 29.5z" />
    <glyph glyph-name="thorn" unicode="&#xfe;" horiz-adv-x="1058" 
d="M103 -299v1577q0 24 19.5 39t62.5 15h41q81 0 81 -54v-435q87 92 261 92q204 0 305.5 -112.5t101.5 -345.5v-39q0 -232 -101.5 -345t-305.5 -113q-172 0 -261 94v-373q0 -53 -81 -53h-41q-82 0 -82 53zM677 161.5q51 29.5 73.5 96t22.5 180.5v40q0 115 -22.5 180.5
t-73.5 94.5t-138 29q-85 0 -135.5 -29.5t-73.5 -95.5t-23 -179v-39q0 -114 23 -181t73.5 -96.5t135.5 -29.5q87 0 138 29.5z" />
    <glyph glyph-name="Zcaron" unicode="&#x17d;" horiz-adv-x="1160" 
d="M489.5 1446q-19.5 9 -38.5 30l-127 131q-23 23 -23 45q0 18 15 28.5t42 10.5h23q32 0 52 -7.5t37.5 -23t52.5 -52.5l68 -71l66 71q34 36 53 52t40 23.5t53 7.5h24q26 0 40 -10t14 -27q0 -21 -24 -47l-127 -131q-17 -20 -37 -29.5t-48 -9.5h-110q-26 0 -45.5 9z
M110.5 30.5q-32.5 30.5 -32.5 87.5q0 38 12.5 68.5t42.5 71.5l660 875q8 11 8 18q0 6 -6 10t-16 4h-637q-23 0 -38.5 16.5t-15.5 53.5v29q0 36 15.5 52t38.5 16h792q60 0 93.5 -30t33.5 -88q0 -40 -11 -69t-42 -71l-657 -874q-8 -9 -8 -18q0 -13 19 -13h668q23 0 38 -17.5
t15 -54.5v-29q0 -36 -14.5 -52t-38.5 -16h-832q-55 0 -87.5 30.5z" />
    <glyph glyph-name="zcaron" unicode="&#x17e;" horiz-adv-x="903" 
d="M360.5 1088q-19.5 9 -38.5 30l-126 131q-24 24 -24 46q0 17 15 27t42 10h21q33 0 53 -7t38 -22.5t53 -52.5l68 -71l67 71q33 36 52 52t39.5 23t53.5 7h24q26 0 39.5 -9.5t13.5 -25.5q0 -21 -25 -48l-125 -131q-17 -21 -37.5 -30t-47.5 -9h-110q-26 0 -45.5 9zM98.5 27.5
q-29.5 27.5 -29.5 77.5q0 39 10 66t38 57l453 512q7 8 7 16q0 12 -18 12h-433q-20 0 -34 15t-14 48v24q0 31 14 46t34 15h588q50 0 79 -27.5t29 -78.5q0 -37 -10.5 -64.5t-38.5 -58.5l-451 -511q-8 -8 -8 -16q0 -14 19 -14h461q20 0 33 -14t13 -45v-27q0 -32 -13 -46
t-33 -14h-617q-49 0 -78.5 27.5z" />
    <glyph glyph-name="Scaron" unicode="&#x160;" horiz-adv-x="1232" 
d="M502 1476l-128 131q-24 24 -24 46q0 17 15.5 27.5t41.5 10.5h23q32 0 52 -7.5t37.5 -22.5t53.5 -53l67 -71l68 71q32 36 51 52t40.5 23.5t53.5 7.5h25q25 0 38.5 -10t13.5 -26q0 -22 -24 -48l-125 -131q-19 -20 -39 -29.5t-46 -9.5h-111q-50 0 -83 39zM250 40l-105 36
q-18 8 -26.5 18.5t-8.5 26.5q0 13 4 26l18 59q7 23 16.5 33t25.5 10q12 0 25 -4l88 -30q71 -25 152 -40t161 -15q142 0 213 49t71 142q0 50 -22.5 81.5t-67.5 54t-132 52.5l-183 58q-115 37 -189.5 80.5t-115.5 112t-41 170.5q0 117 55.5 205.5t162.5 137.5t256 49
q173 0 331 -55l90 -34q19 -7 27.5 -17t8.5 -26q0 -11 -3 -23l-18 -61q-7 -22 -15.5 -31.5t-21.5 -9.5q-8 0 -25 5l-78 26q-143 50 -278 50q-136 0 -203 -50.5t-67 -141.5q0 -56 23.5 -90.5t67 -56.5t125.5 -49l183 -60q127 -39 202.5 -83t113.5 -109.5t38 -165.5
q0 -121 -58 -208.5t-169.5 -134.5t-269.5 -47q-186 0 -361 60z" />
    <glyph glyph-name="scaron" unicode="&#x161;" horiz-adv-x="920" 
d="M382 1088q-20 9 -37 30l-128 131q-23 23 -23 45q0 17 15 27.5t42 10.5h22q32 0 52.5 -7t38 -22.5t52.5 -52.5l67 -71l68 71q34 36 52.5 52t40 23t54.5 7h23q25 0 38.5 -10t13.5 -26q0 -21 -24 -47l-125 -131q-18 -21 -38 -30t-47 -9h-111q-26 0 -46 9zM176 39l-63 26
q-17 6 -24 14.5t-7 21.5q0 5 2 19l15 54q5 19 13 28t21 9q7 0 22 -5l54 -22q60 -22 127.5 -36t127.5 -14q166 0 166 109q0 33 -17 53.5t-43.5 33t-73.5 27.5l-142 45q-73 22 -125 50t-85.5 79.5t-33.5 130.5q0 80 40.5 142t120 96.5t192.5 34.5q73 0 140.5 -12t120.5 -34
l57 -22q17 -5 23.5 -14t6.5 -23q0 -5 -2 -19l-14 -57q-6 -19 -13.5 -27t-20.5 -8q-8 0 -19 3l-51 20q-41 16 -95 25.5t-111 9.5q-90 0 -129 -28t-39 -81q0 -38 17 -61t44 -34.5t72 -24.5l137 -45q78 -22 130.5 -48.5t86.5 -76t34 -127.5q0 -83 -41.5 -144t-121.5 -94
t-193 -33q-153 0 -306 59z" />
    <glyph glyph-name="Agrave" unicode="&#xc0;" horiz-adv-x="1342" 
d="M628.5 1451q-29.5 15 -68.5 51l-112 104q-23 22 -23 43q0 18 16 30t44 12h66q25 0 43.5 -9.5t40.5 -31.5l122 -132q23 -24 23 -47q0 -16 -12 -25.5t-33 -9.5h-44q-33 0 -62.5 15zM70 46q0 9 3 19l402 1135q26 82 67 117t121 35h26q72 0 115 -36t69 -115l396 -1136
q3 -9 3 -18q0 -21 -18.5 -34t-59.5 -13h-59q-90 0 -109 65l-104 322h-516l-105 -322q-19 -65 -111 -65h-42q-78 0 -78 46zM874 546l-187 589q-5 16 -19 16q-11 0 -16 -16l-195 -589h417z" />
    <glyph glyph-name="Aacute" unicode="&#xc1;" horiz-adv-x="1342" 
d="M578.5 1446q-12.5 10 -12.5 26q0 22 23 46l123 132q18 20 38 30.5t46 10.5h65q27 0 43.5 -12t16.5 -30q0 -21 -23 -43l-111 -104q-39 -36 -68 -51t-62 -15h-45q-21 0 -33.5 10zM70 46q0 9 3 19l402 1135q26 82 67 117t121 35h26q72 0 115 -36t69 -115l396 -1136
q3 -9 3 -18q0 -21 -18.5 -34t-59.5 -13h-59q-90 0 -109 65l-104 322h-516l-105 -322q-19 -65 -111 -65h-42q-78 0 -78 46zM874 546l-187 589q-5 16 -19 16q-11 0 -16 -16l-195 -589h417z" />
    <glyph glyph-name="Acircumflex" unicode="&#xc2;" horiz-adv-x="1342" 
d="M398 1447.5q-15 10.5 -15 28.5q0 22 23 45l128 130q19 21 38.5 30.5t45.5 9.5h111q26 0 46 -9.5t39 -30.5l125 -130q24 -25 24 -48q0 -16 -13.5 -26t-38.5 -10h-25q-32 0 -53 7t-40 23t-52 51l-67 71l-67 -71q-36 -36 -54 -51.5t-38 -22.5t-52 -7h-23q-27 0 -42 10.5z
M70 46q0 9 3 19l402 1135q26 82 67 117t121 35h26q72 0 115 -36t69 -115l396 -1136q3 -9 3 -18q0 -21 -18.5 -34t-59.5 -13h-59q-90 0 -109 65l-104 322h-516l-105 -322q-19 -65 -111 -65h-42q-78 0 -78 46zM874 546l-187 589q-5 16 -19 16q-11 0 -16 -16l-195 -589h417z
" />
    <glyph glyph-name="Atilde" unicode="&#xc3;" horiz-adv-x="1342" 
d="M353 1480q-16 22 -16 59q0 42 22.5 79.5t67.5 60.5t108 23q57 0 97 -16t83 -45q34 -21 56 -31t49 -10q37 0 52.5 15t26.5 43q10 23 20 33.5t32 10.5q26 0 42 -21t16 -59q0 -42 -22 -79.5t-66.5 -61t-107.5 -23.5q-53 0 -88 15t-78 43q-35 24 -60.5 35t-58.5 11
q-38 0 -54 -15t-28 -44q-10 -23 -20 -34t-32 -11q-25 0 -41 22zM70 46q0 9 3 19l402 1135q26 82 67 117t121 35h26q72 0 115 -36t69 -115l396 -1136q3 -9 3 -18q0 -21 -18.5 -34t-59.5 -13h-59q-90 0 -109 65l-104 322h-516l-105 -322q-19 -65 -111 -65h-42q-78 0 -78 46z
M874 546l-187 589q-5 16 -19 16q-11 0 -16 -16l-195 -589h417z" />
    <glyph glyph-name="Adieresis" unicode="&#xc4;" horiz-adv-x="1342" 
d="M441.5 1481q-30.5 30 -30.5 80q0 49 30.5 78.5t79.5 29.5q48 0 78.5 -30t30.5 -78q0 -50 -30 -80t-79 -30t-79.5 30zM749 1481q-31 30 -31 80q0 48 31 78t80 30t79.5 -29.5t30.5 -78.5q0 -50 -30.5 -80t-79.5 -30t-80 30zM70 46q0 9 3 19l402 1135q26 82 67 117t121 35
h26q72 0 115 -36t69 -115l396 -1136q3 -9 3 -18q0 -21 -18.5 -34t-59.5 -13h-59q-90 0 -109 65l-104 322h-516l-105 -322q-19 -65 -111 -65h-42q-78 0 -78 46zM874 546l-187 589q-5 16 -19 16q-11 0 -16 -16l-195 -589h417z" />
    <glyph glyph-name="Aring" unicode="&#xc5;" horiz-adv-x="1342" 
d="M560.5 1425q-48.5 26 -75.5 71t-27 101t27 101t75.5 71t111.5 26q65 0 114.5 -25.5t76.5 -71t27 -101.5t-27 -101.5t-76.5 -71t-114.5 -25.5q-63 0 -111.5 26zM749.5 1524.5q29.5 28.5 29.5 72.5q0 43 -29.5 72t-73.5 29q-46 0 -74 -28.5t-28 -72.5q0 -45 28 -73t74 -28
q44 0 73.5 28.5zM70 46q0 9 3 19l402 1135q26 82 67 117t121 35h26q72 0 115 -36t69 -115l396 -1136q3 -9 3 -18q0 -21 -18.5 -34t-59.5 -13h-59q-90 0 -109 65l-104 322h-516l-105 -322q-19 -65 -111 -65h-42q-78 0 -78 46zM874 546l-187 589q-5 16 -19 16q-11 0 -16 -16
l-195 -589h417z" />
    <glyph glyph-name="Ccedilla" unicode="&#xc7;" horiz-adv-x="1241" 
d="M569 -376q-50 18 -80 45.5t-30 55.5q0 37 34 37q17 0 48 -17q33 -16 60 -24.5t67 -8.5q97 0 97 57q0 25 -18.5 37t-55.5 23q-42 13 -63.5 27.5t-21.5 47.5q0 16 4.5 28t14.5 27l15 25q-173 13 -293.5 94t-183 225t-62.5 344v39q0 214 71 363t207.5 226t330.5 77
q159 0 320 -56l89 -33q19 -7 27 -17t8 -25q0 -14 -4 -27l-16 -55q-6 -24 -14.5 -34.5t-22.5 -10.5q-10 0 -21 4l-79 27q-123 43 -246 43q-202 0 -306.5 -120t-104.5 -362v-39q0 -243 104.5 -363.5t306.5 -120.5q63 0 122.5 11t123.5 33l79 27q11 4 21 4q14 0 22.5 -10.5
t14.5 -34.5l16 -54q4 -13 4 -27q0 -16 -8 -25.5t-27 -15.5l-89 -34q-134 -48 -280 -55l-9 -18q-4 -8 -7.5 -16t-3.5 -16q0 -18 15 -26.5t47 -16.5q37 -10 61 -22t41.5 -37.5t17.5 -69.5q0 -73 -60.5 -113.5t-174.5 -40.5q-58 0 -108 18z" />
    <glyph glyph-name="Egrave" unicode="&#xc8;" horiz-adv-x="1091" 
d="M523 1451q-29 15 -69 51l-111 104q-24 23 -24 44q0 18 16.5 29.5t43.5 11.5h66q25 0 44 -10t39 -31l122 -132q24 -25 24 -48q0 -15 -11.5 -24.5t-32.5 -9.5h-45q-33 0 -62 15zM121 149v1035q0 72 45.5 110t144.5 38h632q24 0 39 -16.5t15 -54.5v-30q0 -37 -15 -53.5
t-39 -16.5h-551q-45 0 -45 -33v-368h501q23 0 38 -16t15 -51v-29q0 -36 -15 -52t-38 -16h-501v-390q0 -35 45 -35h551q24 0 39 -17t15 -55v-29q0 -36 -15.5 -53t-38.5 -17h-632q-190 0 -190 149z" />
    <glyph glyph-name="Eacute" unicode="&#xc9;" horiz-adv-x="1091" 
d="M472.5 1445.5q-12.5 9.5 -12.5 25.5q0 22 24 47l123 132q18 20 38 30.5t45 10.5h66q27 0 43 -11.5t16 -29.5q0 -22 -23 -44l-111 -104q-40 -37 -68 -51.5t-61 -14.5h-47q-20 0 -32.5 9.5zM121 149v1035q0 72 45.5 110t144.5 38h632q24 0 39 -16.5t15 -54.5v-30
q0 -37 -15 -53.5t-39 -16.5h-551q-45 0 -45 -33v-368h501q23 0 38 -16t15 -51v-29q0 -36 -15 -52t-38 -16h-501v-390q0 -35 45 -35h551q24 0 39 -17t15 -55v-29q0 -36 -15.5 -53t-38.5 -17h-632q-190 0 -190 149z" />
    <glyph glyph-name="Ecircumflex" unicode="&#xca;" horiz-adv-x="1091" 
d="M293 1447.5q-15 10.5 -15 27.5q0 22 24 46l126 130q36 40 84 40h111q26 0 46.5 -9.5t38.5 -30.5l125 -130q25 -27 25 -48q0 -16 -13.5 -26t-39.5 -10h-24q-33 0 -54 7t-39.5 22.5t-52.5 51.5l-66 71l-69 -71q-36 -37 -53 -52t-37 -22t-53 -7h-22q-27 0 -42 10.5zM121 149
v1035q0 72 45.5 110t144.5 38h632q24 0 39 -16.5t15 -54.5v-30q0 -37 -15 -53.5t-39 -16.5h-551q-45 0 -45 -33v-368h501q23 0 38 -16t15 -51v-29q0 -36 -15 -52t-38 -16h-501v-390q0 -35 45 -35h551q24 0 39 -17t15 -55v-29q0 -36 -15.5 -53t-38.5 -17h-632
q-190 0 -190 149z" />
    <glyph glyph-name="Edieresis" unicode="&#xcb;" horiz-adv-x="1091" 
d="M335 1481q-31 30 -31 80q0 48 31 78t80 30q48 0 79 -30t31 -78q0 -50 -30.5 -80t-79.5 -30t-80 30zM644 1481q-31 30 -31 80q0 48 31 78t80 30q48 0 78.5 -30t30.5 -78q0 -50 -30 -80t-79 -30t-80 30zM121 149v1035q0 72 45.5 110t144.5 38h632q24 0 39 -16.5t15 -54.5
v-30q0 -37 -15 -53.5t-39 -16.5h-551q-45 0 -45 -33v-368h501q23 0 38 -16t15 -51v-29q0 -36 -15 -52t-38 -16h-501v-390q0 -35 45 -35h551q24 0 39 -17t15 -55v-29q0 -36 -15.5 -53t-38.5 -17h-632q-190 0 -190 149z" />
    <glyph glyph-name="Igrave" unicode="&#xcc;" horiz-adv-x="468" 
d="M192.5 1451q-29.5 15 -68.5 51l-111 104q-24 23 -24 44q0 18 16.5 29.5t43.5 11.5h66q25 0 44 -10t39 -31l122 -132q24 -25 24 -48q0 -15 -11.5 -24.5t-32.5 -9.5h-45q-33 0 -62.5 15zM121 61v1209q0 29 20.5 45.5t71.5 16.5h44q50 0 70 -16.5t20 -45.5v-1209
q0 -61 -90 -61h-44q-92 0 -92 61z" />
    <glyph glyph-name="Iacute" unicode="&#xcd;" horiz-adv-x="468" 
d="M142.5 1445.5q-12.5 9.5 -12.5 25.5q0 22 24 47l122 132q18 20 38 30.5t46 10.5h66q27 0 43 -11.5t16 -29.5q0 -22 -23 -44l-111 -104q-40 -37 -68 -51.5t-61 -14.5h-47q-20 0 -32.5 9.5zM121 61v1209q0 29 20.5 45.5t71.5 16.5h44q50 0 70 -16.5t20 -45.5v-1209
q0 -61 -90 -61h-44q-92 0 -92 61z" />
    <glyph glyph-name="Icircumflex" unicode="&#xce;" horiz-adv-x="468" 
d="M-37 1447.5q-15 10.5 -15 27.5q0 22 24 46l127 130q18 21 37.5 30.5t45.5 9.5h111q26 0 46.5 -9.5t38.5 -30.5l125 -130q24 -25 24 -48q0 -16 -13.5 -26t-39.5 -10h-23q-33 0 -54 7t-39.5 22.5t-52.5 51.5l-68 71l-67 -71q-36 -37 -53 -52t-37.5 -22t-53.5 -7h-21
q-27 0 -42 10.5zM121 61v1209q0 29 20.5 45.5t71.5 16.5h44q50 0 70 -16.5t20 -45.5v-1209q0 -61 -90 -61h-44q-92 0 -92 61z" />
    <glyph glyph-name="Idieresis" unicode="&#xcf;" horiz-adv-x="468" 
d="M5 1481q-31 30 -31 80q0 48 31.5 78t80.5 30q48 0 78.5 -30t30.5 -78q0 -50 -30.5 -80t-78.5 -30q-50 0 -81 30zM313.5 1480.5q-30.5 29.5 -30.5 80.5q0 49 30.5 78.5t80.5 29.5q48 0 78.5 -30t30.5 -78q0 -50 -30 -80t-79 -30q-50 0 -80.5 29.5zM121 61v1209
q0 29 20.5 45.5t71.5 16.5h44q50 0 70 -16.5t20 -45.5v-1209q0 -61 -90 -61h-44q-92 0 -92 61z" />
    <glyph glyph-name="Eth" unicode="&#xd0;" horiz-adv-x="1301" 
d="M121 149v450h-70q-23 0 -37 15.5t-14 50.5v27q0 65 51 65h70v427q0 72 45.5 110t144.5 38h290q599 0 599 -646v-39q0 -314 -152 -480.5t-448 -166.5h-289q-190 0 -190 149zM580 173q204 0 298 117t94 357v39q0 242 -94 357.5t-301 115.5h-190q-43 0 -43 -33v-369h325
q50 0 50 -65v-27q0 -66 -50 -66h-325v-391q0 -35 43 -35h193z" />
    <glyph glyph-name="Ntilde" unicode="&#xd1;" horiz-adv-x="1313" 
d="M361.5 1480q-16.5 22 -16.5 59q0 42 22.5 79.5t67.5 60.5t108 23q56 0 94.5 -15.5t84.5 -44.5q33 -21 55.5 -31.5t49.5 -10.5q37 0 52.5 15t27.5 43q9 22 19 33t32 11q27 0 43 -21t16 -59q0 -42 -22.5 -79.5t-67 -61t-107.5 -23.5q-52 0 -87 15t-78 43q-35 24 -60.5 35
t-59.5 11q-38 0 -54 -15.5t-27 -43.5q-10 -23 -20 -34t-31 -11q-25 0 -41.5 22zM121 59v1109q0 78 49.5 121t132.5 43h41q75 0 120.5 -35t78.5 -120l428 -973q7 -14 21 -14q6 0 9 3t3 11v1069q0 59 81 59h28q81 0 81 -59v-1108q0 -78 -48.5 -121.5t-130.5 -43.5h-43
q-76 0 -121.5 35.5t-78.5 121.5l-428 971q-8 17 -23 17q-11 0 -11 -17v-1069q0 -59 -82 -59h-28q-79 0 -79 59z" />
    <glyph glyph-name="Ograve" unicode="&#xd2;" horiz-adv-x="1424" 
d="M666.5 1451q-29.5 15 -68.5 51l-111 104q-24 23 -24 44q0 18 16.5 29.5t43.5 11.5h66q25 0 43.5 -10t39.5 -31l123 -132q23 -24 23 -47q0 -16 -12 -25.5t-32 -9.5h-45q-33 0 -62.5 15zM251.5 145.5q-150.5 165.5 -150.5 501.5v39q0 334 151.5 500t458.5 166t459.5 -166.5
t152.5 -499.5v-39q0 -335 -151 -501t-461 -166q-309 0 -459.5 165.5zM927.5 206.5q81.5 50.5 119 158t37.5 282.5v39q0 174 -37.5 282t-119.5 159t-216 51t-215.5 -51t-118.5 -159t-37 -282v-39q0 -175 37 -282.5t118 -158t216 -50.5t216.5 50.5z" />
    <glyph glyph-name="Ocircumflex" unicode="&#xd4;" horiz-adv-x="1424" 
d="M437.5 1447.5q-15.5 10.5 -15.5 28.5q0 22 23 45l127 130q19 21 38.5 30.5t45.5 9.5h111q26 0 46 -9.5t39 -30.5l125 -130q25 -27 25 -48q0 -16 -13.5 -26t-39.5 -10h-24q-33 0 -54 7t-39.5 22.5t-53.5 51.5l-67 71l-67 -71q-36 -37 -53 -52t-37 -22t-53 -7h-21
q-27 0 -42.5 10.5zM251.5 145.5q-150.5 165.5 -150.5 501.5v39q0 334 151.5 500t458.5 166t459.5 -166.5t152.5 -499.5v-39q0 -335 -151 -501t-461 -166q-309 0 -459.5 165.5zM927.5 206.5q81.5 50.5 119 158t37.5 282.5v39q0 174 -37.5 282t-119.5 159t-216 51t-215.5 -51
t-118.5 -159t-37 -282v-39q0 -175 37 -282.5t118 -158t216 -50.5t216.5 50.5z" />
    <glyph glyph-name="Otilde" unicode="&#xd5;" horiz-adv-x="1424" 
d="M391.5 1480q-16.5 22 -16.5 59q0 42 23 79.5t67.5 60.5t106.5 23q58 0 97 -16t84 -45q35 -22 56.5 -31.5t48.5 -9.5q37 0 53 15t27 43q9 22 19 33t32 11q26 0 42.5 -21.5t16.5 -58.5q0 -42 -22.5 -79.5t-67 -61t-107.5 -23.5q-52 0 -88 15t-77 43q-37 24 -62 35t-59 11
q-37 0 -53 -15.5t-27 -43.5q-10 -23 -20 -34t-31 -11q-26 0 -42.5 22zM251.5 145.5q-150.5 165.5 -150.5 501.5v39q0 334 151.5 500t458.5 166t459.5 -166.5t152.5 -499.5v-39q0 -335 -151 -501t-461 -166q-309 0 -459.5 165.5zM927.5 206.5q81.5 50.5 119 158t37.5 282.5
v39q0 174 -37.5 282t-119.5 159t-216 51t-215.5 -51t-118.5 -159t-37 -282v-39q0 -175 37 -282.5t118 -158t216 -50.5t216.5 50.5z" />
    <glyph glyph-name="Odieresis" unicode="&#xd6;" horiz-adv-x="1424" 
d="M479 1481q-31 30 -31 80q0 48 31 78t80 30q48 0 78.5 -30t30.5 -78q0 -50 -30 -80t-79 -30t-80 30zM787.5 1480.5q-30.5 29.5 -30.5 80.5q0 49 30.5 78.5t80.5 29.5q48 0 78.5 -30t30.5 -78q0 -50 -30 -80t-79 -30q-50 0 -80.5 29.5zM251.5 145.5
q-150.5 165.5 -150.5 501.5v39q0 334 151.5 500t458.5 166t459.5 -166.5t152.5 -499.5v-39q0 -335 -151 -501t-461 -166q-309 0 -459.5 165.5zM927.5 206.5q81.5 50.5 119 158t37.5 282.5v39q0 174 -37.5 282t-119.5 159t-216 51t-215.5 -51t-118.5 -159t-37 -282v-39
q0 -175 37 -282.5t118 -158t216 -50.5t216.5 50.5z" />
    <glyph glyph-name="Oslash" unicode="&#xd8;" horiz-adv-x="1424" 
d="M307 -110.5q-14 11.5 -14 31.5q0 16 9 36l50 107q-251 151 -251 583v39q0 334 151.5 500t458.5 166q134 0 236 -31l38 80q21 50 82 50h13q29 0 44.5 -12t15.5 -33q0 -15 -9 -35l-52 -109q244 -154 244 -576v-39q0 -335 -151 -501t-461 -166q-125 0 -224 28l-38 -80
q-12 -27 -31.5 -38.5t-49.5 -11.5h-23q-24 0 -38 11.5zM869 1155q-65 23 -158 23q-134 0 -215.5 -51t-118.5 -159t-37 -282v-39q0 -142 25 -237.5t80 -153.5zM927.5 206.5q81.5 50.5 119 158t37.5 282.5v39q0 136 -23 229t-74 151l-421 -891q60 -19 145 -19
q135 0 216.5 50.5z" />
    <glyph glyph-name="Ugrave" unicode="&#xd9;" horiz-adv-x="1257" 
d="M582.5 1451q-29.5 15 -68.5 51l-113 104q-22 22 -22 43q0 18 16 30t44 12h66q25 0 43.5 -9.5t40.5 -31.5l122 -132q23 -24 23 -47q0 -16 -12 -25.5t-33 -9.5h-44q-33 0 -62.5 15zM234.5 109q-123.5 129 -123.5 381v780q0 29 20.5 45.5t71.5 16.5h42q51 0 71.5 -16.5
t20.5 -45.5v-781q0 -165 68 -243t225 -78q106 0 169 33t91.5 103t28.5 185v781q0 29 20.5 45.5t70.5 16.5h44q51 0 72 -16.5t21 -45.5v-780q0 -253 -126.5 -381.5t-396.5 -128.5q-266 0 -389.5 129z" />
    <glyph glyph-name="Uacute" unicode="&#xda;" horiz-adv-x="1257" 
d="M533 1445.5q-12 9.5 -12 25.5q0 23 23 47l122 132q18 20 38 30.5t46 10.5h65q27 0 43.5 -12t16.5 -30q0 -20 -23 -43l-111 -104q-39 -36 -68 -51t-62 -15h-46q-20 0 -32 9.5zM234.5 109q-123.5 129 -123.5 381v780q0 29 20.5 45.5t71.5 16.5h42q51 0 71.5 -16.5
t20.5 -45.5v-781q0 -165 68 -243t225 -78q106 0 169 33t91.5 103t28.5 185v781q0 29 20.5 45.5t70.5 16.5h44q51 0 72 -16.5t21 -45.5v-780q0 -253 -126.5 -381.5t-396.5 -128.5q-266 0 -389.5 129z" />
    <glyph glyph-name="Ucircumflex" unicode="&#xdb;" horiz-adv-x="1257" 
d="M352.5 1447.5q-15.5 10.5 -15.5 28.5q0 22 23 45l128 130q19 21 38.5 30.5t45.5 9.5h111q26 0 46 -9.5t39 -30.5l125 -130q24 -25 24 -48q0 -16 -13.5 -26t-38.5 -10h-24q-33 0 -54 7t-39.5 22.5t-53.5 51.5l-67 71l-67 -71q-35 -36 -53 -51.5t-38 -22.5t-52 -7h-21
q-28 0 -43.5 10.5zM234.5 109q-123.5 129 -123.5 381v780q0 29 20.5 45.5t71.5 16.5h42q51 0 71.5 -16.5t20.5 -45.5v-781q0 -165 68 -243t225 -78q106 0 169 33t91.5 103t28.5 185v781q0 29 20.5 45.5t70.5 16.5h44q51 0 72 -16.5t21 -45.5v-780q0 -253 -126.5 -381.5
t-396.5 -128.5q-266 0 -389.5 129z" />
    <glyph glyph-name="Udieresis" unicode="&#xdc;" horiz-adv-x="1257" 
d="M394.5 1480.5q-30.5 29.5 -30.5 80.5q0 49 30.5 78.5t80.5 29.5q48 0 78.5 -30t30.5 -78q0 -50 -30 -80t-79 -30q-50 0 -80.5 29.5zM703 1481q-31 30 -31 80q0 49 31 78.5t81 29.5q48 0 78.5 -30t30.5 -78q0 -50 -30 -80t-79 -30q-50 0 -81 30zM234.5 109
q-123.5 129 -123.5 381v780q0 29 20.5 45.5t71.5 16.5h42q51 0 71.5 -16.5t20.5 -45.5v-781q0 -165 68 -243t225 -78q106 0 169 33t91.5 103t28.5 185v781q0 29 20.5 45.5t70.5 16.5h44q51 0 72 -16.5t21 -45.5v-780q0 -253 -126.5 -381.5t-396.5 -128.5q-266 0 -389.5 129z
" />
    <glyph glyph-name="Yacute" unicode="&#xdd;" horiz-adv-x="1291" 
d="M565 1445.5q-12 9.5 -12 25.5q0 23 23 47l123 132q18 20 38 30.5t45 10.5h66q27 0 43.5 -11.5t16.5 -29.5q0 -21 -24 -44l-111 -104q-39 -36 -67.5 -51t-62.5 -15h-46q-20 0 -32 9.5zM536 61v494l-446 713q-7 14 -7 23q0 18 20 29.5t58 11.5h79q48 0 70 -15t36 -44
l314 -536l310 536q13 29 35.5 44t70.5 15h54q38 0 58 -11.5t20 -29.5q0 -9 -7 -23l-437 -706v-501q0 -61 -93 -61h-43q-92 0 -92 61z" />
    <glyph glyph-name="agrave" unicode="&#xe0;" horiz-adv-x="985" 
d="M467 1093q-29 15 -69 51l-111 104q-23 22 -23 43q0 18 16 29.5t44 11.5h65q25 0 44.5 -10t38.5 -30l123 -132q24 -24 24 -48q0 -15 -12 -24.5t-32 -9.5h-45q-34 0 -63 15zM182 49.5q-98 69.5 -98 205.5v18q0 135 97 201t300 76l210 12v33q0 90 -47 133t-146 43
q-60 0 -128.5 -14t-125.5 -35l-53 -21q-12 -3 -21 -3q-14 0 -22.5 9t-13.5 29l-13 57q-3 12 -3 21q0 13 6.5 21.5t22.5 15.5l64 25q140 59 304 59q195 0 284.5 -80.5t89.5 -236.5v-341q0 -151 -96.5 -224t-304.5 -73t-306 69.5zM644 152q47 40 47 125v157l-175 -10
q-121 -7 -175.5 -40.5t-54.5 -107.5v-18q0 -75 45 -110.5t157 -35.5q109 0 156 40z" />
    <glyph glyph-name="aacute" unicode="&#xe1;" horiz-adv-x="985" 
d="M417 1087.5q-12 9.5 -12 25.5q0 23 24 47l122 132q19 20 38.5 30t45.5 10h65q27 0 43.5 -11t16.5 -29q0 -21 -24 -44l-111 -104q-39 -36 -67.5 -51t-61.5 -15h-46q-21 0 -33 9.5zM182 49.5q-98 69.5 -98 205.5v18q0 135 97 201t300 76l210 12v33q0 90 -47 133t-146 43
q-60 0 -128.5 -14t-125.5 -35l-53 -21q-12 -3 -21 -3q-14 0 -22.5 9t-13.5 29l-13 57q-3 12 -3 21q0 13 6.5 21.5t22.5 15.5l64 25q140 59 304 59q195 0 284.5 -80.5t89.5 -236.5v-341q0 -151 -96.5 -224t-304.5 -73t-306 69.5zM644 152q47 40 47 125v157l-175 -10
q-121 -7 -175.5 -40.5t-54.5 -107.5v-18q0 -75 45 -110.5t157 -35.5q109 0 156 40z" />
    <glyph glyph-name="acircumflex" unicode="&#xe2;" horiz-adv-x="985" 
d="M238 1089.5q-15 10.5 -15 27.5q0 23 23 46l127 130q20 21 39 30t44 9h111q52 0 85 -39l125 -130q25 -25 25 -48q0 -16 -13.5 -26t-39.5 -10h-23q-33 0 -54 7t-39.5 22.5t-53.5 51.5l-66 71l-69 -71q-35 -37 -52.5 -52t-37.5 -22t-53 -7h-21q-27 0 -42 10.5zM182 49.5
q-98 69.5 -98 205.5v18q0 135 97 201t300 76l210 12v33q0 90 -47 133t-146 43q-60 0 -128.5 -14t-125.5 -35l-53 -21q-12 -3 -21 -3q-14 0 -22.5 9t-13.5 29l-13 57q-3 12 -3 21q0 13 6.5 21.5t22.5 15.5l64 25q140 59 304 59q195 0 284.5 -80.5t89.5 -236.5v-341
q0 -151 -96.5 -224t-304.5 -73t-306 69.5zM644 152q47 40 47 125v157l-175 -10q-121 -7 -175.5 -40.5t-54.5 -107.5v-18q0 -75 45 -110.5t157 -35.5q109 0 156 40z" />
    <glyph glyph-name="atilde" unicode="&#xe3;" horiz-adv-x="985" 
d="M192.5 1122q-16.5 22 -16.5 58q0 43 22.5 80.5t67.5 60.5t108 23q57 0 96.5 -16t82.5 -45q35 -21 56.5 -31t48.5 -10q37 0 53 15t28 43q9 22 19 33t32 11q26 0 42 -21t16 -59q0 -42 -22.5 -79.5t-67 -61t-106.5 -23.5q-53 0 -88 15t-78 43q-35 23 -60.5 34.5t-59.5 11.5
q-26 0 -42 -8.5t-23.5 -19.5t-15.5 -31q-10 -24 -19.5 -34.5t-31.5 -10.5q-25 0 -41.5 22zM182 49.5q-98 69.5 -98 205.5v18q0 135 97 201t300 76l210 12v33q0 90 -47 133t-146 43q-60 0 -128.5 -14t-125.5 -35l-53 -21q-12 -3 -21 -3q-14 0 -22.5 9t-13.5 29l-13 57
q-3 12 -3 21q0 13 6.5 21.5t22.5 15.5l64 25q140 59 304 59q195 0 284.5 -80.5t89.5 -236.5v-341q0 -151 -96.5 -224t-304.5 -73t-306 69.5zM644 152q47 40 47 125v157l-175 -10q-121 -7 -175.5 -40.5t-54.5 -107.5v-18q0 -75 45 -110.5t157 -35.5q109 0 156 40z" />
    <glyph glyph-name="adieresis" unicode="&#xe4;" horiz-adv-x="985" 
d="M280 1123q-31 30 -31 80q0 48 31 78t80 30q48 0 78.5 -30t30.5 -78q0 -50 -30 -80t-79 -30t-80 30zM588 1123q-31 30 -31 80q0 48 31.5 78t80.5 30q48 0 78.5 -30t30.5 -78q0 -50 -30 -80t-79 -30q-50 0 -81 30zM182 49.5q-98 69.5 -98 205.5v18q0 135 97 201t300 76
l210 12v33q0 90 -47 133t-146 43q-60 0 -128.5 -14t-125.5 -35l-53 -21q-12 -3 -21 -3q-14 0 -22.5 9t-13.5 29l-13 57q-3 12 -3 21q0 13 6.5 21.5t22.5 15.5l64 25q140 59 304 59q195 0 284.5 -80.5t89.5 -236.5v-341q0 -151 -96.5 -224t-304.5 -73t-306 69.5zM644 152
q47 40 47 125v157l-175 -10q-121 -7 -175.5 -40.5t-54.5 -107.5v-18q0 -75 45 -110.5t157 -35.5q109 0 156 40z" />
    <glyph glyph-name="aring" unicode="&#xe5;" horiz-adv-x="985" 
d="M400 1066.5q-49 25.5 -75.5 71t-26.5 101.5t26.5 101t75.5 71t112 26q65 0 114.5 -26t76 -71t26.5 -101t-26.5 -101.5t-76 -71t-114.5 -25.5q-63 0 -112 25.5zM588 1166.5q29 28.5 29 72.5q0 43 -29 72t-72 29q-46 0 -74 -28.5t-28 -72.5q0 -45 28 -73t74 -28
q43 0 72 28.5zM182 49.5q-98 69.5 -98 205.5v18q0 135 97 201t300 76l210 12v33q0 90 -47 133t-146 43q-60 0 -128.5 -14t-125.5 -35l-53 -21q-12 -3 -21 -3q-14 0 -22.5 9t-13.5 29l-13 57q-3 12 -3 21q0 13 6.5 21.5t22.5 15.5l64 25q140 59 304 59q195 0 284.5 -80.5
t89.5 -236.5v-341q0 -151 -96.5 -224t-304.5 -73t-306 69.5zM644 152q47 40 47 125v157l-175 -10q-121 -7 -175.5 -40.5t-54.5 -107.5v-18q0 -75 45 -110.5t157 -35.5q109 0 156 40z" />
    <glyph glyph-name="idieresis" unicode="&#xef;" horiz-adv-x="427" 
d="M-11 1123q-31 30 -31 80q0 48 31 78t80 30t79 -29.5t30 -78.5q0 -51 -30 -80.5t-79 -29.5t-80 30zM297 1123q-31 30 -31 80q0 48 31 78t80 30q48 0 78.5 -30t30.5 -78q0 -50 -30 -80t-79 -30t-80 30zM111 56v805q0 55 81 55h41q82 0 82 -55v-805q0 -26 -18.5 -41
t-63.5 -15h-41q-81 0 -81 56z" />
    <glyph glyph-name="ccedilla" unicode="&#xe7;" horiz-adv-x="929" 
d="M393 -376q-50 18 -80 45.5t-30 55.5q0 18 9 27.5t26 9.5t48 -17q31 -15 58.5 -24t66.5 -9q50 0 74.5 15t24.5 42q0 25 -18.5 37t-56.5 23q-42 13 -63.5 28t-21.5 47q0 15 4.5 27t14.5 28l15 23q-182 13 -281 122t-99 336v36q0 243 113 351t320 108q140 0 250 -46l55 -22
q30 -10 30 -38q0 -11 -3 -23l-16 -55q-8 -40 -32 -40q-5 0 -17 4l-50 19q-87 29 -180 29q-128 0 -193.5 -66t-65.5 -221v-36q0 -156 65.5 -221.5t193.5 -65.5q103 0 180 30l50 18q9 3 16 3q13 0 20.5 -9.5t12.5 -29.5l16 -56q3 -12 3 -22q0 -27 -30 -38l-55 -22
q-80 -34 -190 -45l-12 -18q-10 -18 -10 -32q0 -18 15 -26.5t47 -16.5q37 -11 60.5 -22.5t41 -37t17.5 -69.5q0 -73 -60.5 -113.5t-174.5 -40.5q-58 0 -108 18z" />
    <glyph glyph-name="egrave" unicode="&#xe8;" horiz-adv-x="995" 
d="M481 1093q-29 15 -69 51l-111 104q-24 23 -24 44q0 18 16.5 29t43.5 11h66q25 0 44 -9.5t39 -30.5l123 -132q24 -24 24 -48q0 -15 -12 -24.5t-32 -9.5h-46q-33 0 -62 15zM208.5 94q-124.5 114 -124.5 347v35q0 148 53.5 251t152.5 155.5t235 52.5q123 0 210 -35t132 -100
t45 -154q0 -99 -45 -156.5t-133 -83.5t-229 -30l-218 -7q19 -115 98.5 -169.5t197.5 -54.5q47 0 98.5 9t94.5 23l49 19q11 3 17 3q11 0 18.5 -8t12.5 -27l18 -58q3 -12 3 -20q0 -26 -28 -36l-59 -25q-53 -22 -121 -33.5t-141 -11.5q-212 0 -336.5 114zM461 499
q97 2 150.5 10.5t86 36.5t32.5 87q0 69 -48.5 109.5t-153.5 40.5q-123 0 -185.5 -69t-63.5 -221z" />
    <glyph glyph-name="eacute" unicode="&#xe9;" horiz-adv-x="995" 
d="M430.5 1087.5q-12.5 9.5 -12.5 25.5q0 22 24 47l123 132q34 40 83 40h66q27 0 43 -11.5t16 -29.5q0 -21 -23 -43l-111 -104q-40 -37 -68 -51.5t-61 -14.5h-47q-20 0 -32.5 9.5zM208.5 94q-124.5 114 -124.5 347v35q0 148 53.5 251t152.5 155.5t235 52.5q123 0 210 -35
t132 -100t45 -154q0 -99 -45 -156.5t-133 -83.5t-229 -30l-218 -7q19 -115 98.5 -169.5t197.5 -54.5q47 0 98.5 9t94.5 23l49 19q11 3 17 3q11 0 18.5 -8t12.5 -27l18 -58q3 -12 3 -20q0 -26 -28 -36l-59 -25q-53 -22 -121 -33.5t-141 -11.5q-212 0 -336.5 114zM461 499
q97 2 150.5 10.5t86 36.5t32.5 87q0 69 -48.5 109.5t-153.5 40.5q-123 0 -185.5 -69t-63.5 -221z" />
    <glyph glyph-name="ecircumflex" unicode="&#xea;" horiz-adv-x="995" 
d="M251 1089.5q-15 10.5 -15 27.5q0 22 24 46l127 130q18 20 38 29.5t45 9.5h111q26 0 46 -9.5t39 -29.5l125 -130q25 -27 25 -48q0 -16 -13.5 -26t-39.5 -10h-23q-33 0 -54.5 7t-40 22.5t-52.5 51.5l-68 71l-67 -71q-36 -37 -53 -52t-37 -22t-53 -7h-22q-27 0 -42 10.5z
M208.5 94q-124.5 114 -124.5 347v35q0 148 53.5 251t152.5 155.5t235 52.5q123 0 210 -35t132 -100t45 -154q0 -99 -45 -156.5t-133 -83.5t-229 -30l-218 -7q19 -115 98.5 -169.5t197.5 -54.5q47 0 98.5 9t94.5 23l49 19q11 3 17 3q11 0 18.5 -8t12.5 -27l18 -58
q3 -12 3 -20q0 -26 -28 -36l-59 -25q-53 -22 -121 -33.5t-141 -11.5q-212 0 -336.5 114zM461 499q97 2 150.5 10.5t86 36.5t32.5 87q0 69 -48.5 109.5t-153.5 40.5q-123 0 -185.5 -69t-63.5 -221z" />
    <glyph glyph-name="edieresis" unicode="&#xeb;" horiz-adv-x="995" 
d="M293 1123q-31 30 -31 80q0 48 31 78t80 30q48 0 79 -30t31 -78q0 -50 -30.5 -80t-79.5 -30t-80 30zM601.5 1122.5q-30.5 29.5 -30.5 80.5q0 49 30.5 78.5t80.5 29.5q48 0 79 -30t31 -78q0 -50 -30.5 -80t-79.5 -30q-50 0 -80.5 29.5zM208.5 94q-124.5 114 -124.5 347v35
q0 148 53.5 251t152.5 155.5t235 52.5q123 0 210 -35t132 -100t45 -154q0 -99 -45 -156.5t-133 -83.5t-229 -30l-218 -7q19 -115 98.5 -169.5t197.5 -54.5q47 0 98.5 9t94.5 23l49 19q11 3 17 3q11 0 18.5 -8t12.5 -27l18 -58q3 -12 3 -20q0 -26 -28 -36l-59 -25
q-53 -22 -121 -33.5t-141 -11.5q-212 0 -336.5 114zM461 499q97 2 150.5 10.5t86 36.5t32.5 87q0 69 -48.5 109.5t-153.5 40.5q-123 0 -185.5 -69t-63.5 -221z" />
    <glyph glyph-name="igrave" unicode="&#xec;" horiz-adv-x="427" 
d="M175.5 1093q-29.5 15 -68.5 51l-111 104q-23 22 -23 43q0 18 16.5 29.5t43.5 11.5h65q25 0 44.5 -10t38.5 -30l123 -132q24 -24 24 -47q0 -16 -12 -25.5t-33 -9.5h-44q-34 0 -63.5 15zM111 56v805q0 55 81 55h41q82 0 82 -55v-805q0 -26 -18.5 -41t-63.5 -15h-41
q-81 0 -81 56z" />
    <glyph glyph-name="iacute" unicode="&#xed;" horiz-adv-x="427" 
d="M126 1087.5q-12 9.5 -12 25.5q0 23 23 47l123 132q19 20 38.5 30t44.5 10h66q27 0 43.5 -11t16.5 -29q0 -21 -24 -44l-111 -104q-39 -36 -67.5 -51t-61.5 -15h-47q-20 0 -32 9.5zM111 56v805q0 55 81 55h41q82 0 82 -55v-805q0 -26 -18.5 -41t-63.5 -15h-41q-81 0 -81 56
z" />
    <glyph glyph-name="icircumflex" unicode="&#xee;" horiz-adv-x="427" 
d="M-53 1089.5q-15 10.5 -15 28.5q0 22 23 45l127 130q19 21 38.5 30t44.5 9h111q52 0 85 -39l126 -130q25 -25 25 -48q0 -16 -14 -26t-40 -10h-23q-33 0 -54 7t-40 23t-53 51l-66 71l-69 -71q-34 -36 -51.5 -51.5t-38 -22.5t-53.5 -7h-21q-27 0 -42 10.5zM111 56v805
q0 55 81 55h41q82 0 82 -55v-805q0 -26 -18.5 -41t-63.5 -15h-41q-81 0 -81 56z" />
    <glyph glyph-name="ntilde" unicode="&#xf1;" horiz-adv-x="1034" 
d="M185.5 1122q-16.5 22 -16.5 58q0 42 23 80t67.5 61t107.5 23q57 0 96.5 -16t82.5 -45q35 -21 56.5 -31t48.5 -10q37 0 53 15t28 43q9 22 19 33t32 11q26 0 42 -21t16 -59q0 -42 -22.5 -79.5t-66.5 -61t-106 -23.5q-53 0 -89 15t-77 43q-37 24 -62 35t-59 11
q-26 0 -42 -8.5t-23.5 -19.5t-15.5 -31q-10 -24 -19.5 -34.5t-31.5 -10.5q-25 0 -41.5 22zM103 56v515q0 179 103 271.5t311 92.5t311 -92.5t103 -271.5v-515q0 -56 -82 -56h-41q-82 0 -82 56v511q0 110 -48.5 159t-160.5 49q-113 0 -161.5 -49t-48.5 -159v-511
q0 -56 -81 -56h-41q-82 0 -82 56z" />
    <glyph glyph-name="ograve" unicode="&#xf2;" horiz-adv-x="1059" 
d="M488.5 1093q-29.5 15 -68.5 51l-112 104q-24 23 -24 43q0 18 16.5 29.5t43.5 11.5h66q26 0 44.5 -9.5t38.5 -30.5l123 -132q24 -25 24 -47q0 -16 -12.5 -25.5t-32.5 -9.5h-44q-33 0 -62.5 15zM193 92.5q-109 112.5 -109 345.5v40q0 232 109 344.5t334 112.5
q227 0 338 -111.5t111 -346.5v-39q0 -235 -111 -346.5t-338 -111.5q-225 0 -334 112.5zM668 161.5q52 29.5 76.5 96t24.5 180.5v40q0 113 -24.5 179.5t-76.5 95.5t-138 29q-88 0 -139.5 -29t-75 -95t-23.5 -180v-39q0 -114 23.5 -181t75.5 -96.5t139 -29.5q86 0 138 29.5z
" />
    <glyph glyph-name="oacute" unicode="&#xf3;" horiz-adv-x="1059" 
d="M438 1087.5q-12 9.5 -12 25.5q0 23 23 47l123 132q18 20 37.5 30t45.5 10h66q27 0 43 -11.5t16 -29.5q0 -21 -23 -43l-112 -104q-38 -36 -66.5 -51t-60.5 -15h-47q-21 0 -33 9.5zM193 92.5q-109 112.5 -109 345.5v40q0 232 109 344.5t334 112.5q227 0 338 -111.5
t111 -346.5v-39q0 -235 -111 -346.5t-338 -111.5q-225 0 -334 112.5zM668 161.5q52 29.5 76.5 96t24.5 180.5v40q0 113 -24.5 179.5t-76.5 95.5t-138 29q-88 0 -139.5 -29t-75 -95t-23.5 -180v-39q0 -114 23.5 -181t75.5 -96.5t139 -29.5q86 0 138 29.5z" />
    <glyph glyph-name="ocircumflex" unicode="&#xf4;" horiz-adv-x="1059" 
d="M258 1089.5q-15 10.5 -15 28.5q0 22 23 45l128 130q18 21 37.5 30t46.5 9h111q26 0 46 -9.5t38 -29.5l125 -130q25 -25 25 -47q0 -17 -14 -27t-39 -10h-24q-33 0 -54 7t-40 23t-51 51l-68 71l-67 -71q-36 -37 -53.5 -52t-37.5 -22t-53 -7h-22q-27 0 -42 10.5zM193 92.5
q-109 112.5 -109 345.5v40q0 232 109 344.5t334 112.5q227 0 338 -111.5t111 -346.5v-39q0 -235 -111 -346.5t-338 -111.5q-225 0 -334 112.5zM668 161.5q52 29.5 76.5 96t24.5 180.5v40q0 113 -24.5 179.5t-76.5 95.5t-138 29q-88 0 -139.5 -29t-75 -95t-23.5 -180v-39
q0 -114 23.5 -181t75.5 -96.5t139 -29.5q86 0 138 29.5z" />
    <glyph glyph-name="otilde" unicode="&#xf5;" horiz-adv-x="1059" 
d="M213 1122q-16 22 -16 58q0 43 22.5 80.5t67 60.5t107.5 23q57 0 95.5 -15.5t84.5 -44.5q35 -22 57 -32t49 -10q36 0 51.5 15t26.5 42q10 23 20 34t33 11q26 0 42 -21t16 -59q0 -42 -22.5 -79.5t-67 -61t-107.5 -23.5q-53 0 -88 15t-78 43q-35 23 -60.5 34.5t-59.5 11.5
q-36 0 -51.5 -15t-28.5 -43q-9 -23 -19.5 -34.5t-32.5 -11.5q-25 0 -41 22zM193 92.5q-109 112.5 -109 345.5v40q0 232 109 344.5t334 112.5q227 0 338 -111.5t111 -346.5v-39q0 -235 -111 -346.5t-338 -111.5q-225 0 -334 112.5zM668 161.5q52 29.5 76.5 96t24.5 180.5v40
q0 113 -24.5 179.5t-76.5 95.5t-138 29q-88 0 -139.5 -29t-75 -95t-23.5 -180v-39q0 -114 23.5 -181t75.5 -96.5t139 -29.5q86 0 138 29.5z" />
    <glyph glyph-name="odieresis" unicode="&#xf6;" horiz-adv-x="1059" 
d="M300 1123q-31 30 -31 80q0 48 31.5 78t80.5 30q48 0 78.5 -30t30.5 -78q0 -50 -30 -80t-79 -30q-50 0 -81 30zM608 1123q-31 30 -31 80q0 48 31 78t80 30t80 -30t31 -78q0 -50 -31 -80t-80 -30t-80 30zM193 92.5q-109 112.5 -109 345.5v40q0 232 109 344.5t334 112.5
q227 0 338 -111.5t111 -346.5v-39q0 -235 -111 -346.5t-338 -111.5q-225 0 -334 112.5zM668 161.5q52 29.5 76.5 96t24.5 180.5v40q0 113 -24.5 179.5t-76.5 95.5t-138 29q-88 0 -139.5 -29t-75 -95t-23.5 -180v-39q0 -114 23.5 -181t75.5 -96.5t139 -29.5q86 0 138 29.5z
" />
    <glyph glyph-name="oslash" unicode="&#xf8;" horiz-adv-x="1059" 
d="M244.5 -110.5q-11.5 10.5 -11.5 28.5q0 16 9 35l37 78q-195 98 -195 407v40q0 232 109 344.5t334 112.5q86 0 168 -18l41 88q10 25 28 35.5t45 10.5h5q26 0 40 -11t14 -30q0 -17 -8 -33l-52 -109q168 -105 168 -391v-39q0 -235 -111 -346.5t-338 -111.5q-66 0 -129 11
l-29 -65q-12 -25 -29.5 -36t-44.5 -11h-17q-22 0 -33.5 10.5zM626 770q-37 12 -96 12q-88 0 -139.5 -29t-75 -95t-23.5 -180v-39q0 -91 15 -150t49 -92zM668 161.5q52 29.5 76.5 96t24.5 180.5v40q0 142 -44 212l-258 -553q33 -5 63 -5q86 0 138 29.5z" />
    <glyph glyph-name="ugrave" unicode="&#xf9;" horiz-adv-x="1013" 
d="M468 1093q-29 15 -69 51l-111 104q-23 22 -23 43q0 18 16 29.5t44 11.5h65q26 0 45 -9.5t39 -30.5l122 -132q24 -24 24 -48q0 -15 -12 -24.5t-32 -9.5h-45q-34 0 -63 15zM204 73.5q-101 93.5 -101 272.5v515q0 24 19.5 39.5t62.5 15.5h41q81 0 81 -55v-513
q0 -109 47.5 -158.5t152.5 -49.5q108 0 153 49t45 159v513q0 24 19.5 39.5t62.5 15.5h42q43 0 62 -15.5t19 -39.5v-515q0 -181 -98.5 -273.5t-304.5 -92.5q-202 0 -303 93.5z" />
    <glyph glyph-name="uacute" unicode="&#xfa;" horiz-adv-x="1013" 
d="M418 1087.5q-12 9.5 -12 25.5q0 23 24 47l122 132q19 20 38.5 30t45.5 10h65q27 0 43.5 -11t16.5 -29q0 -21 -24 -44l-110 -104q-40 -36 -68.5 -51t-61.5 -15h-46q-21 0 -33 9.5zM204 73.5q-101 93.5 -101 272.5v515q0 24 19.5 39.5t62.5 15.5h41q81 0 81 -55v-513
q0 -109 47.5 -158.5t152.5 -49.5q108 0 153 49t45 159v513q0 24 19.5 39.5t62.5 15.5h42q43 0 62 -15.5t19 -39.5v-515q0 -181 -98.5 -273.5t-304.5 -92.5q-202 0 -303 93.5z" />
    <glyph glyph-name="ucircumflex" unicode="&#xfb;" horiz-adv-x="1013" 
d="M239 1089.5q-15 10.5 -15 27.5q0 23 23 46l127 130q18 20 38 29.5t46 9.5h111q26 0 46.5 -9.5t38.5 -29.5l125 -130q25 -27 25 -48q0 -16 -13.5 -26t-39.5 -10h-24q-33 0 -54 7t-39.5 22.5t-53.5 51.5l-65 71l-70 -71q-35 -37 -52.5 -52t-37.5 -22t-53 -7h-21
q-27 0 -42 10.5zM204 73.5q-101 93.5 -101 272.5v515q0 24 19.5 39.5t62.5 15.5h41q81 0 81 -55v-513q0 -109 47.5 -158.5t152.5 -49.5q108 0 153 49t45 159v513q0 24 19.5 39.5t62.5 15.5h42q43 0 62 -15.5t19 -39.5v-515q0 -181 -98.5 -273.5t-304.5 -92.5
q-202 0 -303 93.5z" />
    <glyph glyph-name="udieresis" unicode="&#xfc;" horiz-adv-x="1013" 
d="M281 1123q-31 30 -31 80q0 48 31 78t80 30q48 0 78.5 -30t30.5 -78q0 -50 -30 -80t-79 -30t-80 30zM589.5 1122.5q-30.5 29.5 -30.5 80.5q0 49 30.5 78.5t80.5 29.5q48 0 78.5 -30t30.5 -78q0 -50 -30 -80t-79 -30q-50 0 -80.5 29.5zM204 73.5q-101 93.5 -101 272.5v515
q0 24 19.5 39.5t62.5 15.5h41q81 0 81 -55v-513q0 -109 47.5 -158.5t152.5 -49.5q108 0 153 49t45 159v513q0 24 19.5 39.5t62.5 15.5h42q43 0 62 -15.5t19 -39.5v-515q0 -181 -98.5 -273.5t-304.5 -92.5q-202 0 -303 93.5z" />
    <glyph glyph-name="yacute" unicode="&#xfd;" horiz-adv-x="973" 
d="M407 1087.5q-12 9.5 -12 25.5q0 23 23 47l123 132q18 20 38 30t45 10h66q27 0 43.5 -11t16.5 -29q0 -21 -24 -44l-111 -104q-39 -36 -67.5 -51t-61.5 -15h-46q-21 0 -33 9.5zM61 -293v26q0 33 12.5 47.5t32.5 14.5h41q85 0 146 52.5t101 156.5l11 36l-330 821
q-4 12 -4 17q0 38 70 38h57q79 0 98 -55l218 -595l203 595q7 24 30.5 39.5t67.5 15.5h35q36 0 52.5 -10t16.5 -27q0 -10 -4 -18l-328 -867q-65 -172 -163.5 -259t-242.5 -87h-75q-45 0 -45 59z" />
    <glyph glyph-name="ydieresis" unicode="&#xff;" horiz-adv-x="973" 
d="M269.5 1123q-30.5 30 -30.5 80q0 48 31 78t79 30t79 -30t31 -78q0 -50 -30.5 -80t-79.5 -30t-79.5 30zM578 1123q-31 30 -31 80q0 48 31 78t80 30q48 0 79 -30t31 -78q0 -50 -30.5 -80t-79.5 -30t-80 30zM61 -293v26q0 33 12.5 47.5t32.5 14.5h41q85 0 146 52.5
t101 156.5l11 36l-330 821q-4 12 -4 17q0 38 70 38h57q79 0 98 -55l218 -595l203 595q7 24 30.5 39.5t67.5 15.5h35q36 0 52.5 -10t16.5 -27q0 -10 -4 -18l-328 -867q-65 -172 -163.5 -259t-242.5 -87h-75q-45 0 -45 59z" />
    <glyph glyph-name="Cacute" unicode="&#x106;" horiz-adv-x="1241" 
d="M609 1445.5q-12 9.5 -12 25.5q0 23 23 47l123 132q19 21 38.5 31t44.5 10h66q27 0 43.5 -11.5t16.5 -29.5q0 -21 -24 -44l-111 -104q-40 -36 -67.5 -51t-61.5 -15h-46q-21 0 -33 9.5zM379.5 57q-136.5 77 -207.5 226.5t-71 363.5v39q0 214 71 363t207.5 226t330.5 77
q159 0 320 -56l89 -33q19 -7 27 -17t8 -25q0 -14 -4 -27l-16 -55q-6 -24 -14.5 -34.5t-22.5 -10.5q-10 0 -21 4l-79 27q-123 43 -246 43q-202 0 -306.5 -120t-104.5 -362v-39q0 -243 104.5 -363.5t306.5 -120.5q63 0 122.5 11t123.5 33l79 27q11 4 21 4q14 0 22.5 -10.5
t14.5 -34.5l16 -54q4 -13 4 -27q0 -16 -8 -25.5t-27 -15.5l-89 -34q-164 -57 -320 -57q-194 0 -330.5 77z" />
    <glyph glyph-name="cacute" unicode="&#x107;" horiz-adv-x="929" 
d="M416 1087.5q-12 9.5 -12 25.5q0 23 23 47l122 132q19 20 38.5 30t44.5 10h66q28 0 44 -11t16 -29q0 -21 -24 -44l-111 -104q-40 -36 -67.5 -51t-60.5 -15h-47q-20 0 -32 9.5zM197 88.5q-113 108.5 -113 351.5v36q0 243 113 351t320 108q140 0 250 -46l55 -22
q30 -10 30 -38q0 -11 -3 -23l-16 -55q-8 -40 -32 -40q-5 0 -17 4l-50 19q-87 29 -180 29q-128 0 -193.5 -66t-65.5 -221v-36q0 -156 65.5 -221.5t193.5 -65.5q103 0 180 30l50 18q9 3 16 3q13 0 20.5 -9.5t12.5 -29.5l16 -56q3 -12 3 -22q0 -27 -30 -38l-55 -22
q-113 -47 -250 -47q-207 0 -320 108.5z" />
    <glyph glyph-name="Nacute" unicode="&#x143;" horiz-adv-x="1313" 
d="M585 1445.5q-12 9.5 -12 24.5q0 23 24 48l122 132q20 21 39 31t44 10h66q28 0 44 -11.5t16 -29.5q0 -23 -24 -44l-111 -104q-40 -36 -67.5 -51t-61.5 -15h-46q-21 0 -33 9.5zM121 59v1109q0 78 49.5 121t132.5 43h41q75 0 120.5 -35t78.5 -120l428 -973q7 -14 21 -14
q6 0 9 3t3 11v1069q0 59 81 59h28q81 0 81 -59v-1108q0 -78 -48.5 -121.5t-130.5 -43.5h-43q-76 0 -121.5 35.5t-78.5 121.5l-428 971q-8 17 -23 17q-11 0 -11 -17v-1069q0 -59 -82 -59h-28q-79 0 -79 59z" />
    <glyph glyph-name="nacute" unicode="&#x144;" horiz-adv-x="1034" 
d="M410 1087.5q-12 9.5 -12 25.5q0 23 23 47l123 132q19 20 38.5 30t44.5 10h66q27 0 43.5 -11t16.5 -29q0 -21 -24 -44l-111 -104q-39 -36 -67.5 -51t-61.5 -15h-46q-21 0 -33 9.5zM103 56v515q0 179 103 271.5t311 92.5t311 -92.5t103 -271.5v-515q0 -56 -82 -56h-41
q-82 0 -82 56v511q0 110 -48.5 159t-160.5 49q-113 0 -161.5 -49t-48.5 -159v-511q0 -56 -81 -56h-41q-82 0 -82 56z" />
    <glyph glyph-name="Oacute" unicode="&#xd3;" horiz-adv-x="1424" 
d="M617 1445.5q-12 9.5 -12 25.5q0 23 23 47l122 132q36 41 84 41h65q27 0 43.5 -12t16.5 -30q0 -20 -23 -43l-111 -104q-39 -36 -68 -51t-62 -15h-46q-20 0 -32 9.5zM251.5 145.5q-150.5 165.5 -150.5 501.5v39q0 334 151.5 500t458.5 166t459.5 -166.5t152.5 -499.5v-39
q0 -335 -151 -501t-461 -166q-309 0 -459.5 165.5zM927.5 206.5q81.5 50.5 119 158t37.5 282.5v39q0 174 -37.5 282t-119.5 159t-216 51t-215.5 -51t-118.5 -159t-37 -282v-39q0 -175 37 -282.5t118 -158t216 -50.5t216.5 50.5z" />
    <glyph glyph-name="Sacute" unicode="&#x15a;" horiz-adv-x="1232" 
d="M544.5 1446q-12.5 10 -12.5 26q0 22 23 46l125 132q35 41 83 41h66q27 0 43 -11.5t16 -29.5q0 -22 -23 -44l-113 -104q-38 -36 -66.5 -51t-60.5 -15h-47q-21 0 -33.5 10zM250 40l-105 36q-18 8 -26.5 18.5t-8.5 26.5q0 13 4 26l18 59q7 23 16.5 33t25.5 10q12 0 25 -4
l88 -30q71 -25 152 -40t161 -15q142 0 213 49t71 142q0 50 -22.5 81.5t-67.5 54t-132 52.5l-183 58q-115 37 -189.5 80.5t-115.5 112t-41 170.5q0 117 55.5 205.5t162.5 137.5t256 49q173 0 331 -55l90 -34q19 -7 27.5 -17t8.5 -26q0 -11 -3 -23l-18 -61q-7 -22 -15.5 -31.5
t-21.5 -9.5q-8 0 -25 5l-78 26q-143 50 -278 50q-136 0 -203 -50.5t-67 -141.5q0 -56 23.5 -90.5t67 -56.5t125.5 -49l183 -60q127 -39 202.5 -83t113.5 -109.5t38 -165.5q0 -121 -58 -208.5t-169.5 -134.5t-269.5 -47q-186 0 -361 60z" />
    <glyph glyph-name="sacute" unicode="&#x15b;" horiz-adv-x="920" 
d="M388 1087.5q-12 9.5 -12 25.5q0 23 23 47l124 132q34 40 83 40h66q27 0 43 -11.5t16 -29.5q0 -21 -23 -43l-111 -104q-40 -37 -68 -51.5t-61 -14.5h-47q-21 0 -33 9.5zM176 39l-63 26q-17 6 -24 14.5t-7 21.5q0 5 2 19l15 54q5 19 13 28t21 9q7 0 22 -5l54 -22
q60 -22 127.5 -36t127.5 -14q166 0 166 109q0 33 -17 53.5t-43.5 33t-73.5 27.5l-142 45q-73 22 -125 50t-85.5 79.5t-33.5 130.5q0 80 40.5 142t120 96.5t192.5 34.5q73 0 140.5 -12t120.5 -34l57 -22q17 -5 23.5 -14t6.5 -23q0 -5 -2 -19l-14 -57q-6 -19 -13.5 -27
t-20.5 -8q-8 0 -19 3l-51 20q-41 16 -95 25.5t-111 9.5q-90 0 -129 -28t-39 -81q0 -38 17 -61t44 -34.5t72 -24.5l137 -45q78 -22 130.5 -48.5t86.5 -76t34 -127.5q0 -83 -41.5 -144t-121.5 -94t-193 -33q-153 0 -306 59z" />
    <glyph glyph-name="Zacute" unicode="&#x179;" horiz-adv-x="1160" 
d="M495.5 1446q-12.5 10 -12.5 26q0 22 23 46l122 132q20 21 39.5 31t44.5 10h66q28 0 44 -12t16 -30q0 -21 -22 -43l-113 -104q-39 -36 -67.5 -51t-61.5 -15h-45q-21 0 -33.5 10zM110.5 30.5q-32.5 30.5 -32.5 87.5q0 38 12.5 68.5t42.5 71.5l660 875q8 11 8 18q0 6 -6 10
t-16 4h-637q-23 0 -38.5 16.5t-15.5 53.5v29q0 36 15.5 52t38.5 16h792q60 0 93.5 -30t33.5 -88q0 -40 -11 -69t-42 -71l-657 -874q-8 -9 -8 -18q0 -13 19 -13h668q23 0 38 -17.5t15 -54.5v-29q0 -36 -14.5 -52t-38.5 -16h-832q-55 0 -87.5 30.5z" />
    <glyph glyph-name="zacute" unicode="&#x17a;" horiz-adv-x="903" 
d="M366 1087.5q-12 9.5 -12 25.5q0 23 23 47l123 132q19 20 38.5 30t44.5 10h66q28 0 44 -11t16 -29q0 -21 -24 -44l-111 -104q-40 -36 -67.5 -51t-61.5 -15h-46q-21 0 -33 9.5zM98.5 27.5q-29.5 27.5 -29.5 77.5q0 39 10 66t38 57l453 512q7 8 7 16q0 12 -18 12h-433
q-20 0 -34 15t-14 48v24q0 31 14 46t34 15h588q50 0 79 -27.5t29 -78.5q0 -37 -10.5 -64.5t-38.5 -58.5l-451 -511q-8 -8 -8 -16q0 -14 19 -14h461q20 0 33 -14t13 -45v-27q0 -32 -13 -46t-33 -14h-617q-49 0 -78.5 27.5z" />
    <glyph glyph-name="Aogonek" unicode="&#x104;" horiz-adv-x="1342" 
d="M990 -292.5q-49 37.5 -49 106.5q0 64 49 115t117 75q-66 9 -81 61l-104 322h-516l-105 -322q-19 -65 -111 -65h-42q-78 0 -78 46q0 9 3 19l402 1135q26 82 67 117t121 35h26q72 0 115 -36t69 -115l396 -1136q3 -9 3 -18q0 -31 -35 -42q-63 -23 -105 -63.5t-42 -89.5
q0 -61 72 -61q29 0 52 7t48 19q13 6 25.5 10.5t21.5 4.5q16 0 25 -10t9 -28q0 -31 -30.5 -59.5t-81.5 -46.5t-109 -18q-83 0 -132 37.5zM874 546l-187 589q-5 16 -19 16q-11 0 -16 -16l-195 -589h417z" />
    <glyph glyph-name="aogonek" unicode="&#x105;" horiz-adv-x="985" 
d="M488.5 -276.5q-49.5 37.5 -49.5 105.5q0 45 26 84t68 68h-45q-208 0 -306 69t-98 205v18q0 135 97 201t300 76l210 12v33q0 90 -47 133t-146 43q-60 0 -128.5 -14t-125.5 -35l-53 -21q-12 -3 -21 -3q-14 0 -22.5 9t-13.5 29l-13 57q-3 12 -3 21q0 13 6.5 21.5t22.5 15.5
l64 25q140 59 304 59q195 0 284.5 -80.5t89.5 -236.5v-341q0 -199 -164 -261q-59 -27 -97.5 -65t-38.5 -83q0 -61 72 -61q29 0 51 7t49 19q34 15 49 15q16 0 24.5 -10.5t8.5 -27.5q0 -31 -31 -59.5t-82 -46.5t-108 -18q-84 0 -133.5 37.5zM644 152q47 40 47 125v157
l-175 -10q-121 -7 -175.5 -40.5t-54.5 -107.5v-18q0 -75 45 -110.5t157 -35.5q109 0 156 40z" />
    <glyph glyph-name="Eogonek" unicode="&#x118;" horiz-adv-x="1091" 
d="M703.5 -297q-48.5 37 -48.5 105q0 66 51 117t120 75h-515q-190 0 -190 149v1035q0 72 45.5 110t144.5 38h632q24 0 39 -16.5t15 -54.5v-30q0 -37 -15 -53.5t-39 -16.5h-551q-45 0 -45 -33v-368h501q23 0 38 -16t15 -51v-29q0 -36 -15 -52t-38 -16h-501v-390q0 -35 45 -35
h551q24 0 39 -17t15 -55v-29q0 -60 -41 -69q-64 -22 -108 -63.5t-44 -91.5q0 -61 71 -61q29 0 51 7t50 20q13 6 25.5 10.5t22.5 4.5q16 0 24.5 -10t8.5 -27q0 -32 -30.5 -60.5t-81.5 -46t-109 -17.5q-84 0 -132.5 37z" />
    <glyph glyph-name="eogonek" unicode="&#x119;" horiz-adv-x="995" 
d="M574 -265.5q-50 37.5 -50 104.5q0 42 22.5 78t60.5 65q-21 -2 -62 -2q-212 0 -336.5 114t-124.5 347v35q0 148 53.5 251t152.5 155.5t235 52.5q123 0 210 -35t132 -100t45 -154q0 -99 -45 -156.5t-133 -83.5t-229 -30l-218 -7q19 -115 98.5 -169.5t197.5 -54.5
q47 0 98.5 9t94.5 23l49 19q11 3 17 3q11 0 18.5 -8t12.5 -27l18 -58q3 -12 3 -20q0 -26 -28 -36l-37 -16q-71 -29 -112.5 -66t-41.5 -90q0 -31 17 -45t54 -14q29 0 50.5 6.5t50.5 18.5q13 6 25.5 10.5t22.5 4.5q15 0 23.5 -10.5t8.5 -27.5q0 -32 -30.5 -60.5t-81 -46
t-108.5 -17.5q-83 0 -133 37.5zM461 499q97 2 150.5 10.5t86 36.5t32.5 87q0 69 -48.5 109.5t-153.5 40.5q-123 0 -185.5 -69t-63.5 -221z" />
    <glyph glyph-name="Zdotaccent" unicode="&#x17b;" horiz-adv-x="1160" 
d="M505.5 1483q-33.5 32 -33.5 87q0 53 33.5 85t86.5 32t86 -32t33 -85q0 -55 -33 -87t-86 -32t-86.5 32zM110.5 30.5q-32.5 30.5 -32.5 87.5q0 38 12.5 68.5t42.5 71.5l660 875q8 11 8 18q0 6 -6 10t-16 4h-637q-23 0 -38.5 16.5t-15.5 53.5v29q0 36 15.5 52t38.5 16h792
q60 0 93.5 -30t33.5 -88q0 -40 -11 -69t-42 -71l-657 -874q-8 -9 -8 -18q0 -13 19 -13h668q23 0 38 -17.5t15 -54.5v-29q0 -36 -14.5 -52t-38.5 -16h-832q-55 0 -87.5 30.5z" />
    <glyph glyph-name="zdotaccent" unicode="&#x17c;" horiz-adv-x="903" 
d="M376 1125q-33 32 -33 87q0 54 33 85.5t87 31.5q53 0 86 -32t33 -85q0 -55 -33 -87t-86 -32q-54 0 -87 32zM98.5 27.5q-29.5 27.5 -29.5 77.5q0 39 10 66t38 57l453 512q7 8 7 16q0 12 -18 12h-433q-20 0 -34 15t-14 48v24q0 31 14 46t34 15h588q50 0 79 -27.5t29 -78.5
q0 -37 -10.5 -64.5t-38.5 -58.5l-451 -511q-8 -8 -8 -16q0 -14 19 -14h461q20 0 33 -14t13 -45v-27q0 -32 -13 -46t-33 -14h-617q-49 0 -78.5 27.5z" />
    <glyph glyph-name="Abreve" unicode="&#x102;" horiz-adv-x="1342" 
d="M506.5 1450q-68.5 33 -102.5 90t-34 127q0 37 13 57.5t34 20.5q19 0 30 -13.5t27 -44.5q18 -38 37.5 -63.5t59 -44t103.5 -18.5t103.5 19t59 44.5t37.5 63.5q15 31 26.5 44t30.5 13q22 0 35 -20t13 -58q0 -70 -34 -127t-103 -90t-168 -33t-167.5 33zM70 46q0 9 3 19
l402 1135q26 82 67 117t121 35h26q72 0 115 -36t69 -115l396 -1136q3 -9 3 -18q0 -21 -18.5 -34t-59.5 -13h-59q-90 0 -109 65l-104 322h-516l-105 -322q-19 -65 -111 -65h-42q-78 0 -78 46zM874 546l-187 589q-5 16 -19 16q-11 0 -16 -16l-195 -589h417z" />
    <glyph glyph-name="Amacron" unicode="&#x100;" horiz-adv-x="1342" 
d="M390.5 1522.5q-13.5 14.5 -13.5 47.5v24q0 33 13.5 47t33.5 14h500q47 0 47 -61v-25q0 -32 -13 -46.5t-34 -14.5h-500q-20 0 -33.5 14.5zM70 46q0 9 3 19l402 1135q26 82 67 117t121 35h26q72 0 115 -36t69 -115l396 -1136q3 -9 3 -18q0 -21 -18.5 -34t-59.5 -13h-59
q-90 0 -109 65l-104 322h-516l-105 -322q-19 -65 -111 -65h-42q-78 0 -78 46zM874 546l-187 589q-5 16 -19 16q-11 0 -16 -16l-195 -589h417z" />
    <glyph glyph-name="Ccaron" unicode="&#x10c;" horiz-adv-x="1241" 
d="M603.5 1446q-19.5 9 -38.5 30l-127 131q-23 23 -23 46q0 17 15 27.5t42 10.5h21q33 0 53 -7.5t37.5 -22.5t53.5 -53l68 -71l67 71q33 36 52 52t40 23.5t54 7.5h23q26 0 39.5 -10t13.5 -26q0 -23 -25 -48l-124 -131q-35 -39 -86 -39h-110q-26 0 -45.5 9zM379.5 57
q-136.5 77 -207.5 226.5t-71 363.5v39q0 214 71 363t207.5 226t330.5 77q159 0 320 -56l89 -33q19 -7 27 -17t8 -25q0 -14 -4 -27l-16 -55q-6 -24 -14.5 -34.5t-22.5 -10.5q-10 0 -21 4l-79 27q-123 43 -246 43q-202 0 -306.5 -120t-104.5 -362v-39q0 -243 104.5 -363.5
t306.5 -120.5q63 0 122.5 11t123.5 33l79 27q11 4 21 4q14 0 22.5 -10.5t14.5 -34.5l16 -54q4 -13 4 -27q0 -16 -8 -25.5t-27 -15.5l-89 -34q-164 -57 -320 -57q-194 0 -330.5 77z" />
    <glyph glyph-name="Cdotaccent" unicode="&#x10a;" horiz-adv-x="1241" 
d="M619 1483q-33 32 -33 87q0 54 33 85.5t87 31.5q53 0 86 -32t33 -85q0 -55 -33 -87t-86 -32q-54 0 -87 32zM379.5 57q-136.5 77 -207.5 226.5t-71 363.5v39q0 214 71 363t207.5 226t330.5 77q159 0 320 -56l89 -33q19 -7 27 -17t8 -25q0 -14 -4 -27l-16 -55
q-6 -24 -14.5 -34.5t-22.5 -10.5q-10 0 -21 4l-79 27q-123 43 -246 43q-202 0 -306.5 -120t-104.5 -362v-39q0 -243 104.5 -363.5t306.5 -120.5q63 0 122.5 11t123.5 33l79 27q11 4 21 4q14 0 22.5 -10.5t14.5 -34.5l16 -54q4 -13 4 -27q0 -16 -8 -25.5t-27 -15.5l-89 -34
q-164 -57 -320 -57q-194 0 -330.5 77z" />
    <glyph glyph-name="Dcaron" unicode="&#x10e;" horiz-adv-x="1301" 
d="M523.5 1446q-19.5 9 -38.5 30l-127 131q-23 23 -23 45q0 18 15.5 28.5t42.5 10.5h20q33 0 53.5 -7.5t37 -22t53.5 -53.5l68 -71l67 71q35 37 53 53t39 23t54 7h24q25 0 38.5 -9.5t13.5 -25.5q0 -24 -25 -49l-125 -131q-18 -20 -38 -29.5t-46 -9.5h-112q-25 0 -44.5 9z
M121 149v1035q0 72 45.5 110t144.5 38h290q599 0 599 -646v-39q0 -314 -152 -480.5t-448 -166.5h-289q-190 0 -190 149zM580 173q204 0 298 117t94 357v39q0 242 -94 357.5t-301 115.5h-190q-43 0 -43 -33v-918q0 -35 43 -35h193z" />
    <glyph glyph-name="Dcroat" unicode="&#x110;" horiz-adv-x="1301" 
d="M121 149v450h-70q-23 0 -37 15.5t-14 50.5v27q0 65 51 65h70v427q0 72 45.5 110t144.5 38h290q599 0 599 -646v-39q0 -314 -152 -480.5t-448 -166.5h-289q-190 0 -190 149zM580 173q204 0 298 117t94 357v39q0 242 -94 357.5t-301 115.5h-190q-43 0 -43 -33v-369h325
q50 0 50 -65v-27q0 -66 -50 -66h-325v-391q0 -35 43 -35h193z" />
    <glyph glyph-name="Ecaron" unicode="&#x11a;" horiz-adv-x="1091" 
d="M466 1446.5q-20 9.5 -38 29.5l-126 131q-24 24 -24 46q0 17 15 27.5t42 10.5h22q32 0 52.5 -7.5t37 -22t53.5 -53.5l69 -71l66 71q34 37 52.5 53t39.5 23t54 7h24q26 0 39.5 -10t13.5 -26q0 -21 -25 -48l-125 -131q-18 -20 -38.5 -29.5t-46.5 -9.5h-111q-26 0 -46 9.5z
M121 149v1035q0 72 45.5 110t144.5 38h632q24 0 39 -16.5t15 -54.5v-30q0 -37 -15 -53.5t-39 -16.5h-551q-45 0 -45 -33v-368h501q23 0 38 -16t15 -51v-29q0 -36 -15 -52t-38 -16h-501v-390q0 -35 45 -35h551q24 0 39 -17t15 -55v-29q0 -36 -15.5 -53t-38.5 -17h-632
q-190 0 -190 149z" />
    <glyph glyph-name="Edotaccent" unicode="&#x116;" horiz-adv-x="1091" 
d="M482 1483q-33 32 -33 87q0 53 33 85t86 32q54 0 87 -31.5t33 -85.5q0 -55 -33 -87t-87 -32q-53 0 -86 32zM121 149v1035q0 72 45.5 110t144.5 38h632q24 0 39 -16.5t15 -54.5v-30q0 -37 -15 -53.5t-39 -16.5h-551q-45 0 -45 -33v-368h501q23 0 38 -16t15 -51v-29
q0 -36 -15 -52t-38 -16h-501v-390q0 -35 45 -35h551q24 0 39 -17t15 -55v-29q0 -36 -15.5 -53t-38.5 -17h-632q-190 0 -190 149z" />
    <glyph glyph-name="Emacron" unicode="&#x112;" horiz-adv-x="1091" 
d="M285 1522.5q-14 14.5 -14 47.5v24q0 33 13.5 47t34.5 14h500q47 0 47 -61v-25q0 -32 -13 -46.5t-34 -14.5h-500q-20 0 -34 14.5zM121 149v1035q0 72 45.5 110t144.5 38h632q24 0 39 -16.5t15 -54.5v-30q0 -37 -15 -53.5t-39 -16.5h-551q-45 0 -45 -33v-368h501
q23 0 38 -16t15 -51v-29q0 -36 -15 -52t-38 -16h-501v-390q0 -35 45 -35h551q24 0 39 -17t15 -55v-29q0 -36 -15.5 -53t-38.5 -17h-632q-190 0 -190 149z" />
    <glyph glyph-name="Gbreve" unicode="&#x11e;" horiz-adv-x="1327" 
d="M554.5 1450q-68.5 33 -102.5 90t-34 127q0 37 13 57.5t35 20.5q20 0 31 -13.5t25 -43.5q18 -38 37.5 -63.5t59 -44.5t103.5 -19q65 0 104.5 19t58 44t37.5 64q14 30 25 43.5t31 13.5q23 0 36 -20t13 -58q0 -70 -34 -127t-103 -90t-168 -33t-167.5 33zM262.5 151
q-162.5 169 -162.5 496v39q0 213 73 362.5t214 226.5t341 77q176 0 335 -56l88 -33q20 -7 28 -16.5t8 -26.5q0 -11 -3 -26l-17 -55q-6 -26 -14 -37t-22 -11q-8 0 -21 5l-80 27q-126 45 -259 45q-211 0 -321 -121t-110 -361v-39q0 -250 108 -366.5t322 -116.5q66 0 118 12
t84 26t32 16v465q0 57 87 57h38q48 0 67 -15t19 -42v-470q0 -48 -16 -81t-54 -55q-78 -41 -178 -68t-240 -27q-302 0 -464.5 169z" />
    <glyph glyph-name="Gcommaaccent" unicode="&#x122;" horiz-adv-x="1327" 
d="M262.5 151q-162.5 169 -162.5 496v39q0 213 73 362.5t214 226.5t341 77q176 0 335 -56l88 -33q20 -7 28 -16.5t8 -26.5q0 -11 -3 -26l-17 -55q-6 -26 -14 -37t-22 -11q-8 0 -21 5l-80 27q-126 45 -259 45q-211 0 -321 -121t-110 -361v-39q0 -250 108 -366.5t322 -116.5
q66 0 118 12t84 26t32 16v465q0 57 87 57h38q48 0 67 -15t19 -42v-470q0 -48 -16 -81t-54 -55q-78 -41 -178 -68t-240 -27q-302 0 -464.5 169zM575 -401.5q-13 12.5 -13 35.5q0 11 5 28l51 183q8 28 28 43.5t49 15.5h55q29 0 45 -13t16 -36q0 -11 -5 -28l-55 -153
q-17 -45 -36 -66.5t-49 -21.5h-56q-22 0 -35 12.5z" />
    <glyph glyph-name="Gdotaccent" unicode="&#x120;" horiz-adv-x="1327" 
d="M635.5 1483q-33.5 32 -33.5 87q0 53 33.5 85t86.5 32t86.5 -32t33.5 -85q0 -55 -33.5 -87t-86.5 -32t-86.5 32zM262.5 151q-162.5 169 -162.5 496v39q0 213 73 362.5t214 226.5t341 77q176 0 335 -56l88 -33q20 -7 28 -16.5t8 -26.5q0 -11 -3 -26l-17 -55q-6 -26 -14 -37
t-22 -11q-8 0 -21 5l-80 27q-126 45 -259 45q-211 0 -321 -121t-110 -361v-39q0 -250 108 -366.5t322 -116.5q66 0 118 12t84 26t32 16v465q0 57 87 57h38q48 0 67 -15t19 -42v-470q0 -48 -16 -81t-54 -55q-78 -41 -178 -68t-240 -27q-302 0 -464.5 169z" />
    <glyph glyph-name="Hbar" unicode="&#x126;" horiz-adv-x="1289" 
d="M121 61v919h-64q-29 0 -45 16.5t-16 45.5v12q0 29 16 45t45 16h64v155q0 29 20.5 45.5t71.5 16.5h42q51 0 71.5 -16.5t20.5 -45.5v-155h596v155q0 29 21 45.5t72 16.5h41q94 0 94 -62v-155h64q29 0 44.5 -16t15.5 -45v-12q0 -29 -15.5 -45.5t-44.5 -16.5h-64v-919
q0 -61 -94 -61h-41q-93 0 -93 61v541h-596v-541q0 -61 -92 -61h-42q-92 0 -92 61zM943 767v213h-596v-213h596z" />
    <glyph glyph-name="IJ" unicode="&#x132;" horiz-adv-x="1162" 
d="M121 61v1209q0 29 20.5 45.5t71.5 16.5h44q50 0 70 -16.5t20 -45.5v-1209q0 -61 -90 -61h-44q-92 0 -92 61zM569.5 7.5q-40.5 27.5 -40.5 77.5v15q0 51 70 51q106 0 160 50t54 164v905q0 62 92 62h45q92 0 92 -62v-913q0 -124 -44.5 -208.5t-125 -126.5t-186.5 -42
q-76 0 -116.5 27.5z" />
    <glyph glyph-name="Idotaccent" unicode="&#x130;" horiz-adv-x="468" 
d="M152 1483q-33 32 -33 87q0 53 33 85t86 32t86.5 -32t33.5 -85q0 -55 -33.5 -87t-86.5 -32t-86 32zM121 61v1209q0 29 20.5 45.5t71.5 16.5h44q50 0 70 -16.5t20 -45.5v-1209q0 -61 -90 -61h-44q-92 0 -92 61z" />
    <glyph glyph-name="Imacron" unicode="&#x12a;" horiz-adv-x="468" 
d="M-45 1522.5q-14 14.5 -14 47.5v24q0 33 13.5 47t34.5 14h500q46 0 46 -61v-25q0 -32 -12.5 -46.5t-33.5 -14.5h-500q-20 0 -34 14.5zM121 61v1209q0 29 20.5 45.5t71.5 16.5h44q50 0 70 -16.5t20 -45.5v-1209q0 -61 -90 -61h-44q-92 0 -92 61z" />
    <glyph glyph-name="Iogonek" unicode="&#x12e;" horiz-adv-x="468" 
d="M51.5 -292.5q-49.5 37.5 -49.5 105.5q0 67 53.5 119t122.5 75q-32 5 -44.5 19t-12.5 35v1209q0 29 20.5 45.5t71.5 16.5h44q50 0 70 -16.5t20 -45.5v-1209q0 -44 -49 -57q-62 -23 -103.5 -63.5t-41.5 -88.5q0 -31 17 -46t54 -15q28 0 49 6.5t50 18.5q34 15 49 15
q16 0 24.5 -10t8.5 -28q0 -31 -30.5 -59.5t-81.5 -46t-109 -17.5q-83 0 -132.5 37.5z" />
    <glyph glyph-name="Kcommaaccent" unicode="&#x136;" horiz-adv-x="1229" 
d="M121 0zM121 61v1209q0 29 20.5 45.5t71.5 16.5h42q51 0 71.5 -16.5t20.5 -45.5v-1209q0 -61 -92 -61h-42q-92 0 -92 61zM905.5 17q-34.5 17 -49.5 45l-432 557q-14 22 -14 42q0 21 14 43l434 565q14 29 48 46t84 17h86q61 0 61 -28q0 -12 -14 -35l-495 -603l497 -604
q15 -22 15 -35q0 -27 -61 -27h-89q-50 0 -84.5 17zM446.5 -402q-12.5 12 -12.5 34q0 12 5 30l51 183q7 28 27 43.5t49 15.5h55q29 0 45.5 -13t16.5 -36q0 -13 -6 -28l-55 -153q-16 -44 -35.5 -66t-48.5 -22h-57q-22 0 -34.5 12z" />
    <glyph glyph-name="Lacute" unicode="&#x139;" horiz-adv-x="1038" 
d="M202.5 1446q-12.5 10 -12.5 26q0 22 23 46l123 132q18 20 38 30.5t46 10.5h65q27 0 43.5 -12t16.5 -30q0 -21 -23 -43l-112 -104q-38 -36 -67 -51t-62 -15h-45q-21 0 -33.5 10zM121 149v1121q0 29 20.5 45.5t71.5 16.5h42q51 0 71.5 -16.5t20.5 -45.5v-1065q0 -36 45 -36
h526q54 0 54 -71v-26q0 -38 -15 -55t-39 -17h-607q-190 0 -190 149z" />
    <glyph glyph-name="Lcaron" unicode="&#x13d;" horiz-adv-x="1038" 
d="M121 149v1121q0 29 20.5 45.5t71.5 16.5h42q51 0 71.5 -16.5t20.5 -45.5v-1065q0 -36 45 -36h526q54 0 54 -71v-26q0 -38 -15 -55t-39 -17h-607q-190 0 -190 149zM527 909q-14 13 -14 38q0 10 1 16l50 315q4 27 21 40.5t45 13.5h54q27 0 40.5 -12t13.5 -35q0 -13 -2 -20
l-65 -316q-10 -53 -67 -53h-36q-27 0 -41 13z" />
    <glyph glyph-name="Lcommaaccent" unicode="&#x13b;" horiz-adv-x="1038" 
d="M121 149v1121q0 29 20.5 45.5t71.5 16.5h42q51 0 71.5 -16.5t20.5 -45.5v-1065q0 -36 45 -36h526q54 0 54 -71v-26q0 -38 -15 -55t-39 -17h-607q-190 0 -190 149zM387 -401.5q-13 12.5 -13 34.5q0 11 5 29l51 183q8 28 27.5 43.5t48.5 15.5h55q29 0 45.5 -12.5
t16.5 -35.5q0 -13 -6 -29l-55 -153q-15 -44 -35 -66t-49 -22h-56q-22 0 -35 12.5z" />
    <glyph glyph-name="Ldot" unicode="&#x13f;" horiz-adv-x="1038" 
d="M121 149v1121q0 29 20.5 45.5t71.5 16.5h42q51 0 71.5 -16.5t20.5 -45.5v-1065q0 -36 45 -36h526q54 0 54 -71v-26q0 -38 -15 -55t-39 -17h-607q-190 0 -190 149zM582 507q-31 30 -31 80q0 48 31 77t81 29q48 0 79 -29t31 -77q0 -50 -30.5 -80t-79.5 -30q-50 0 -81 30z
" />
    <glyph glyph-name="Ncaron" unicode="&#x147;" horiz-adv-x="1313" 
d="M579.5 1446q-19.5 9 -38.5 30l-126 131q-24 24 -24 46q0 17 15 27.5t42 10.5h21q33 0 53.5 -7.5t37 -22t53.5 -53.5l69 -71l66 71q34 37 52.5 53t39.5 23t54 7h24q25 0 38.5 -9.5t13.5 -25.5q0 -24 -25 -49l-125 -131q-32 -39 -84 -39h-111q-26 0 -45.5 9zM121 59v1109
q0 78 49.5 121t132.5 43h41q75 0 120.5 -35t78.5 -120l428 -973q7 -14 21 -14q6 0 9 3t3 11v1069q0 59 81 59h28q81 0 81 -59v-1108q0 -78 -48.5 -121.5t-130.5 -43.5h-43q-76 0 -121.5 35.5t-78.5 121.5l-428 971q-8 17 -23 17q-11 0 -11 -17v-1069q0 -59 -82 -59h-28
q-79 0 -79 59z" />
    <glyph glyph-name="Ncommaaccent" unicode="&#x145;" horiz-adv-x="1313" 
d="M121 59v1109q0 78 49.5 121t132.5 43h41q75 0 120.5 -35t78.5 -120l428 -973q7 -14 21 -14q6 0 9 3t3 11v1069q0 59 81 59h28q81 0 81 -59v-1108q0 -78 -48.5 -121.5t-130.5 -43.5h-43q-76 0 -121.5 35.5t-78.5 121.5l-428 971q-8 17 -23 17q-11 0 -11 -17v-1069
q0 -59 -82 -59h-28q-79 0 -79 59zM488.5 -402q-12.5 12 -12.5 34q0 12 5 30l52 183q6 28 26.5 43.5t49.5 15.5h55q29 0 45 -13t16 -36q0 -11 -5 -28l-55 -153q-16 -44 -35.5 -66t-48.5 -22h-58q-22 0 -34.5 12z" />
    <glyph glyph-name="Eng" unicode="&#x14a;" horiz-adv-x="1313" 
d="M816 -346q-33 26 -33 71v15q0 22 16 32t48 10q76 0 117 45.5t41 136.5v33h-33q-76 0 -121.5 36t-78.5 122l-428 973q-8 17 -23 17q-11 0 -11 -17v-1069q0 -59 -82 -59h-28q-79 0 -79 59v1109q0 78 49.5 121t132.5 43h41q75 0 120.5 -35t78.5 -120l428 -976q8 -15 21 -15
q12 0 12 15v1072q0 59 81 59h28q81 0 81 -59v-1315q0 -103 -35.5 -177.5t-99.5 -113.5t-147 -39q-63 0 -96 26z" />
    <glyph glyph-name="Ohungarumlaut" unicode="&#x150;" horiz-adv-x="1424" 
d="M518 1457q0 22 25 56l106 133q17 23 36 34t47 11h45q28 0 44.5 -12t16.5 -30q0 -22 -20 -42l-86 -90q-43 -46 -76 -65.5t-68 -19.5h-37q-33 0 -33 25zM812 1438q-7 6 -7 16q0 24 32 61l122 135q19 22 38.5 31.5t45.5 9.5h49q27 0 43 -11.5t16 -29.5q0 -23 -24 -44
l-109 -96q-45 -42 -79.5 -60t-67.5 -18h-39q-13 0 -20 6zM251.5 145.5q-150.5 165.5 -150.5 501.5v39q0 334 151.5 500t458.5 166t459.5 -166.5t152.5 -499.5v-39q0 -335 -151 -501t-461 -166q-309 0 -459.5 165.5zM927.5 206.5q81.5 50.5 119 158t37.5 282.5v39
q0 174 -37.5 282t-119.5 159t-216 51t-215.5 -51t-118.5 -159t-37 -282v-39q0 -175 37 -282.5t118 -158t216 -50.5t216.5 50.5z" />
    <glyph glyph-name="Omacron" unicode="&#x14c;" horiz-adv-x="1424" 
d="M428.5 1523q-13.5 15 -13.5 47v24q0 32 13.5 46.5t33.5 14.5h501q20 0 33 -14t13 -47v-25q0 -32 -13 -46.5t-33 -14.5h-501q-20 0 -33.5 15zM251.5 145.5q-150.5 165.5 -150.5 501.5v39q0 334 151.5 500t458.5 166t459.5 -166.5t152.5 -499.5v-39q0 -335 -151 -501
t-461 -166q-309 0 -459.5 165.5zM927.5 206.5q81.5 50.5 119 158t37.5 282.5v39q0 174 -37.5 282t-119.5 159t-216 51t-215.5 -51t-118.5 -159t-37 -282v-39q0 -175 37 -282.5t118 -158t216 -50.5t216.5 50.5z" />
    <glyph glyph-name="Racute" unicode="&#x154;" horiz-adv-x="1223" 
d="M488 1445.5q-12 9.5 -12 25.5q0 23 23 47l122 132q19 21 38.5 31t44.5 10h66q28 0 44 -11.5t16 -29.5q0 -22 -23 -44l-112 -104q-39 -36 -67.5 -51t-61.5 -15h-45q-21 0 -33 9.5zM121 61v1123q0 148 192 148h364q156 0 251.5 -40t140 -122t44.5 -211q0 -322 -326 -366
q60 -37 101 -112l234 -422q7 -16 7 -24q0 -35 -69 -35h-66q-93 0 -120 59l-203 393q-31 59 -64.5 87t-95.5 31h-164v-509q0 -28 -21 -44.5t-74 -16.5h-39q-92 0 -92 61zM646 720q134 0 192.5 55.5t58.5 171.5q0 79 -24 126.5t-79.5 69.5t-152.5 22h-252q-42 0 -42 -33v-412
h299z" />
    <glyph glyph-name="Rcaron" unicode="&#x158;" horiz-adv-x="1223" 
d="M481.5 1446q-19.5 9 -38.5 30l-127 131q-23 23 -23 45q0 18 15 28.5t42 10.5h22q33 0 53 -7.5t37.5 -22.5t52.5 -53l68 -71l66 71q34 36 53 52t40.5 23.5t53.5 7.5h24q25 0 39 -10t14 -26q0 -23 -25 -48l-126 -131q-17 -20 -37.5 -29.5t-46.5 -9.5h-112q-25 0 -44.5 9z
M121 61v1123q0 148 192 148h364q156 0 251.5 -40t140 -122t44.5 -211q0 -322 -326 -366q60 -37 101 -112l234 -422q7 -16 7 -24q0 -35 -69 -35h-66q-93 0 -120 59l-203 393q-31 59 -64.5 87t-95.5 31h-164v-509q0 -28 -21 -44.5t-74 -16.5h-39q-92 0 -92 61zM646 720
q134 0 192.5 55.5t58.5 171.5q0 79 -24 126.5t-79.5 69.5t-152.5 22h-252q-42 0 -42 -33v-412h299z" />
    <glyph glyph-name="Rcommaaccent" unicode="&#x156;" horiz-adv-x="1223" 
d="M121 61v1123q0 148 192 148h364q156 0 251.5 -40t140 -122t44.5 -211q0 -322 -326 -366q60 -37 101 -112l234 -422q7 -16 7 -24q0 -35 -69 -35h-66q-93 0 -120 59l-203 393q-31 59 -64.5 87t-95.5 31h-164v-509q0 -28 -21 -44.5t-74 -16.5h-39q-92 0 -92 61zM646 720
q134 0 192.5 55.5t58.5 171.5q0 79 -24 126.5t-79.5 69.5t-152.5 22h-252q-42 0 -42 -33v-412h299zM457 -401.5q-13 12.5 -13 34.5q0 15 5 29l51 183q8 28 27.5 43.5t48.5 15.5h56q29 0 45 -13t16 -35q0 -13 -6 -29l-55 -153q-15 -44 -35 -66t-49 -22h-56q-22 0 -35 12.5z
" />
    <glyph glyph-name="Scedilla" unicode="&#x15e;" horiz-adv-x="1232" 
d="M489 -376q-50 18 -80 45.5t-30 55.5q0 18 9 27.5t25 9.5q11 0 23.5 -5t25.5 -12q33 -16 60 -24.5t66 -8.5q97 0 97 57q0 25 -18.5 37t-55.5 23q-42 13 -63.5 27.5t-21.5 47.5q0 16 5 28.5t16 26.5l13 23q-164 7 -310 58l-105 36q-18 8 -26.5 18.5t-8.5 26.5q0 13 4 26
l18 59q7 23 16.5 33t25.5 10q12 0 25 -4l88 -30q71 -25 152 -40t161 -15q142 0 213 49t71 142q0 50 -22.5 81.5t-67.5 54t-132 52.5l-183 58q-115 37 -189.5 80.5t-115.5 112t-41 170.5q0 117 55.5 205.5t162.5 137.5t256 49q173 0 331 -55l90 -34q19 -7 27.5 -17t8.5 -26
q0 -11 -3 -23l-18 -61q-7 -22 -15.5 -31.5t-21.5 -9.5q-8 0 -25 5l-78 26q-143 50 -278 50q-136 0 -203 -50.5t-67 -141.5q0 -56 23.5 -90.5t67 -56.5t125.5 -49l183 -60q127 -39 202.5 -83t113.5 -109.5t38 -165.5q0 -171 -112.5 -273t-323.5 -115l-11 -18q-4 -8 -7.5 -16
t-3.5 -16q0 -18 15 -26.5t47 -16.5q37 -10 61 -22t41.5 -37.5t17.5 -69.5q0 -73 -60.5 -113.5t-174.5 -40.5q-58 0 -108 18z" />
    <glyph glyph-name="Scommaaccent" unicode="&#x218;" horiz-adv-x="1232" 
d="M250 40l-105 36q-18 8 -26.5 18.5t-8.5 26.5q0 13 4 26l18 59q7 23 16.5 33t25.5 10q12 0 25 -4l88 -30q71 -25 152 -40t161 -15q142 0 213 49t71 142q0 50 -22.5 81.5t-67.5 54t-132 52.5l-183 58q-115 37 -189.5 80.5t-115.5 112t-41 170.5q0 117 55.5 205.5
t162.5 137.5t256 49q173 0 331 -55l90 -34q19 -7 27.5 -17t8.5 -26q0 -11 -3 -23l-18 -61q-7 -22 -15.5 -31.5t-21.5 -9.5q-8 0 -25 5l-78 26q-143 50 -278 50q-136 0 -203 -50.5t-67 -141.5q0 -56 23.5 -90.5t67 -56.5t125.5 -49l183 -60q127 -39 202.5 -83t113.5 -109.5
t38 -165.5q0 -121 -58 -208.5t-169.5 -134.5t-269.5 -47q-186 0 -361 60zM475.5 -401.5q-12.5 12.5 -12.5 35.5q0 15 4 28l52 183q8 28 28 43.5t49 15.5h55q28 0 44 -12.5t16 -34.5q0 -14 -6 -30l-53 -153q-16 -44 -35.5 -66t-48.5 -22h-57q-23 0 -35.5 12.5z" />
    <glyph glyph-name="Tbar" unicode="&#x166;" horiz-adv-x="1203" 
d="M488 61v537h-210q-29 0 -45 17t-16 49v31q0 65 61 65h210v401h-373q-24 0 -39 16.5t-15 53.5v30q0 38 15 54.5t39 16.5h973q54 0 54 -71v-30q0 -37 -15 -53.5t-39 -16.5h-374v-401h223q58 0 58 -65v-31q0 -32 -15 -49t-43 -17h-223v-537q0 -61 -92 -61h-42q-92 0 -92 61z
" />
    <glyph glyph-name="Tcaron" unicode="&#x164;" horiz-adv-x="1203" 
d="M500 1446q-19 9 -38 30l-127 131q-23 23 -23 46q0 17 15 27.5t42 10.5h20q33 0 53.5 -7.5t38 -22.5t52.5 -53l69 -71l66 71q34 37 52.5 53t39.5 23t54 7h24q26 0 39.5 -10t13.5 -26q0 -23 -25 -48l-125 -131q-33 -39 -85 -39h-111q-26 0 -45 9zM488 61v1100h-373
q-24 0 -39 16.5t-15 53.5v30q0 38 15 54.5t39 16.5h973q54 0 54 -71v-30q0 -37 -15 -53.5t-39 -16.5h-374v-1100q0 -61 -92 -61h-42q-92 0 -92 61z" />
    <glyph glyph-name="Tcommaaccent" unicode="&#x162;" horiz-adv-x="1203" 
d="M458.5 -376.5q-50.5 17.5 -80 45.5t-29.5 56q0 18 9 27.5t25 9.5q11 0 22 -4t28 -13q30 -16 57.5 -24.5t66.5 -8.5q98 0 98 57q0 25 -18.5 37t-55.5 23q-42 13 -63.5 27.5t-21.5 47.5q0 16 5 28.5t15 26.5l27 45q-55 13 -55 57v1100h-373q-24 0 -39 16.5t-15 53.5v30
q0 38 15 54.5t39 16.5h973q54 0 54 -71v-30q0 -37 -15 -53.5t-39 -16.5h-374v-1100q0 -47 -60 -57l-23 -40q-4 -8 -7.5 -16t-3.5 -16q0 -18 15 -26.5t47 -16.5q37 -10 61 -22t41.5 -37.5t17.5 -69.5q0 -73 -60.5 -113.5t-174.5 -40.5q-58 0 -108.5 17.5z" />
    <glyph glyph-name="uni021A" unicode="&#x21a;" horiz-adv-x="1203" 
d="M488 61v1100h-373q-24 0 -39 16.5t-15 53.5v30q0 38 15 54.5t39 16.5h973q54 0 54 -71v-30q0 -37 -15 -53.5t-39 -16.5h-374v-1100q0 -61 -92 -61h-42q-92 0 -92 61zM445.5 -402q-12.5 12 -12.5 34q0 12 5 30l52 183q6 28 26.5 43.5t49.5 15.5h55q29 0 45 -13t16 -36
q0 -11 -5 -28l-55 -153q-16 -44 -35.5 -66t-48.5 -22h-58q-22 0 -34.5 12z" />
    <glyph glyph-name="Uhungarumlaut" unicode="&#x170;" horiz-adv-x="1257" 
d="M442.5 1439q-8.5 7 -8.5 19q0 23 25 55l104 133q18 23 37 34t47 11h46q28 0 44.5 -12t16.5 -30q0 -22 -20 -42l-86 -90q-43 -46 -76 -65.5t-68 -19.5h-37q-16 0 -24.5 7zM727 1438q-7 6 -7 16q0 25 33 61l122 135q34 41 83 41h49q28 0 44 -11.5t16 -29.5q0 -21 -24 -44
l-109 -96q-46 -42 -80.5 -60t-67.5 -18h-38q-14 0 -21 6zM234.5 109q-123.5 129 -123.5 381v780q0 29 20.5 45.5t71.5 16.5h42q51 0 71.5 -16.5t20.5 -45.5v-781q0 -165 68 -243t225 -78q106 0 169 33t91.5 103t28.5 185v781q0 29 20.5 45.5t70.5 16.5h44q51 0 72 -16.5
t21 -45.5v-780q0 -253 -126.5 -381.5t-396.5 -128.5q-266 0 -389.5 129z" />
    <glyph glyph-name="Umacron" unicode="&#x16a;" horiz-adv-x="1257" 
d="M344.5 1522.5q-13.5 14.5 -13.5 47.5v24q0 33 13.5 47t33.5 14h501q20 0 33 -14t13 -47v-25q0 -32 -13 -46.5t-33 -14.5h-501q-20 0 -33.5 14.5zM234.5 109q-123.5 129 -123.5 381v780q0 29 20.5 45.5t71.5 16.5h42q51 0 71.5 -16.5t20.5 -45.5v-781q0 -165 68 -243
t225 -78q106 0 169 33t91.5 103t28.5 185v781q0 29 20.5 45.5t70.5 16.5h44q51 0 72 -16.5t21 -45.5v-780q0 -253 -126.5 -381.5t-396.5 -128.5q-266 0 -389.5 129z" />
    <glyph glyph-name="Uogonek" unicode="&#x172;" horiz-adv-x="1257" 
d="M558 -299.5q-49 36.5 -49 104.5q0 56 38 101t94 74h-17q-266 0 -389.5 129t-123.5 381v780q0 29 20.5 45.5t71.5 16.5h42q51 0 71.5 -16.5t20.5 -45.5v-781q0 -165 68 -243t225 -78q106 0 169 33t91.5 103t28.5 185v781q0 29 20.5 45.5t70.5 16.5h44q51 0 72 -16.5
t21 -45.5v-780q0 -204 -81.5 -326.5t-252.5 -163.5q-65 -23 -110 -64.5t-45 -91.5q0 -31 18 -45.5t55 -14.5q28 0 50 6.5t49 19.5q34 15 49 15t24 -10.5t9 -27.5q0 -32 -30.5 -60t-81.5 -45.5t-109 -17.5q-84 0 -133 36.5z" />
    <glyph glyph-name="Uring" unicode="&#x16e;" horiz-adv-x="1257" 
d="M514.5 1425q-48.5 26 -75.5 71t-27 101t27 101t75.5 71t111.5 26q65 0 114.5 -25.5t76.5 -71t27 -101.5t-27 -101.5t-76.5 -71t-114.5 -25.5q-63 0 -111.5 26zM703.5 1524.5q29.5 28.5 29.5 72.5q0 43 -29.5 72t-73.5 29q-46 0 -74 -28.5t-28 -72.5q0 -45 28 -73t74 -28
q44 0 73.5 28.5zM234.5 109q-123.5 129 -123.5 381v780q0 29 20.5 45.5t71.5 16.5h42q51 0 71.5 -16.5t20.5 -45.5v-781q0 -165 68 -243t225 -78q106 0 169 33t91.5 103t28.5 185v781q0 29 20.5 45.5t70.5 16.5h44q51 0 72 -16.5t21 -45.5v-780q0 -253 -126.5 -381.5
t-396.5 -128.5q-266 0 -389.5 129z" />
    <glyph glyph-name="Wacute" unicode="&#x1e82;" horiz-adv-x="1817" 
d="M833.5 1445.5q-12.5 9.5 -12.5 25.5q0 22 24 47l122 132q18 20 38 30.5t46 10.5h66q27 0 43 -11.5t16 -29.5q0 -22 -23 -44l-111 -104q-40 -37 -68 -51.5t-61 -14.5h-47q-20 0 -32.5 9.5zM340 131l-247 1137q-2 14 -2 19q0 21 17.5 33t59.5 12h54q51 0 79.5 -18t30.5 -46
l193 -1053q2 -15 18 -15q6 0 9 3t5 12l245 1053q11 64 104 64h33q89 0 101 -64l248 -1053q3 -15 16 -15q15 0 17 15l192 1053q9 64 101 64h39q75 0 75 -46q0 -6 -2 -18l-250 -1137q-26 -131 -154 -131h-31q-67 0 -106.5 34.5t-50.5 96.5l-221 891l-216 -891
q-27 -131 -165 -131h-29q-134 0 -163 131z" />
    <glyph glyph-name="Wcircumflex" unicode="&#x174;" horiz-adv-x="1817" 
d="M654 1447.5q-15 10.5 -15 27.5q0 22 24 46l127 130q18 21 37.5 30.5t45.5 9.5h111q26 0 46.5 -9.5t38.5 -30.5l125 -130q25 -27 25 -48q0 -16 -13.5 -26t-39.5 -10h-24q-33 0 -54 7t-39.5 22.5t-52.5 51.5l-68 71l-67 -71q-36 -37 -53 -52t-37.5 -22t-53.5 -7h-21
q-27 0 -42 10.5zM340 131l-247 1137q-2 14 -2 19q0 21 17.5 33t59.5 12h54q51 0 79.5 -18t30.5 -46l193 -1053q2 -15 18 -15q6 0 9 3t5 12l245 1053q11 64 104 64h33q89 0 101 -64l248 -1053q3 -15 16 -15q15 0 17 15l192 1053q9 64 101 64h39q75 0 75 -46q0 -6 -2 -18
l-250 -1137q-26 -131 -154 -131h-31q-67 0 -106.5 34.5t-50.5 96.5l-221 891l-216 -891q-27 -131 -165 -131h-29q-134 0 -163 131z" />
    <glyph glyph-name="Wdieresis" unicode="&#x1e84;" horiz-adv-x="1817" 
d="M696 1481q-31 30 -31 80q0 48 31.5 78t80.5 30q48 0 78.5 -30t30.5 -78q0 -50 -30 -80t-79 -30q-50 0 -81 30zM1005 1481q-31 30 -31 80q0 48 31 78t80 30q48 0 78.5 -30t30.5 -78q0 -50 -30 -80t-79 -30t-80 30zM340 131l-247 1137q-2 14 -2 19q0 21 17.5 33t59.5 12h54
q51 0 79.5 -18t30.5 -46l193 -1053q2 -15 18 -15q6 0 9 3t5 12l245 1053q11 64 104 64h33q89 0 101 -64l248 -1053q3 -15 16 -15q15 0 17 15l192 1053q9 64 101 64h39q75 0 75 -46q0 -6 -2 -18l-250 -1137q-26 -131 -154 -131h-31q-67 0 -106.5 34.5t-50.5 96.5l-221 891
l-216 -891q-27 -131 -165 -131h-29q-134 0 -163 131z" />
    <glyph glyph-name="Wgrave" unicode="&#x1e80;" horiz-adv-x="1817" 
d="M883.5 1451q-29.5 15 -68.5 51l-111 104q-24 23 -24 44q0 18 16.5 29.5t43.5 11.5h66q25 0 44 -10t39 -31l123 -132q24 -25 24 -48q0 -15 -12 -24.5t-33 -9.5h-45q-33 0 -62.5 15zM340 131l-247 1137q-2 14 -2 19q0 21 17.5 33t59.5 12h54q51 0 79.5 -18t30.5 -46
l193 -1053q2 -15 18 -15q6 0 9 3t5 12l245 1053q11 64 104 64h33q89 0 101 -64l248 -1053q3 -15 16 -15q15 0 17 15l192 1053q9 64 101 64h39q75 0 75 -46q0 -6 -2 -18l-250 -1137q-26 -131 -154 -131h-31q-67 0 -106.5 34.5t-50.5 96.5l-221 891l-216 -891
q-27 -131 -165 -131h-29q-134 0 -163 131z" />
    <glyph glyph-name="Ycircumflex" unicode="&#x176;" horiz-adv-x="1291" 
d="M385.5 1447.5q-15.5 10.5 -15.5 28.5q0 22 23 45l127 130q19 21 38.5 30.5t45.5 9.5h111q26 0 46.5 -9.5t38.5 -30.5l125 -130q25 -27 25 -48q0 -16 -13.5 -26t-39.5 -10h-24q-33 0 -54 7t-39.5 22.5t-52.5 51.5l-66 71l-69 -71q-36 -37 -53 -52t-37 -22t-53 -7h-21
q-27 0 -42.5 10.5zM536 61v494l-446 713q-7 14 -7 23q0 18 20 29.5t58 11.5h79q48 0 70 -15t36 -44l314 -536l310 536q13 29 35.5 44t70.5 15h54q38 0 58 -11.5t20 -29.5q0 -9 -7 -23l-437 -706v-501q0 -61 -93 -61h-43q-92 0 -92 61z" />
    <glyph glyph-name="Ygrave" unicode="&#x1ef2;" horiz-adv-x="1291" 
d="M614.5 1451q-29.5 15 -68.5 51l-111 104q-24 23 -24 44q0 18 16.5 29.5t43.5 11.5h66q25 0 43.5 -9.5t40.5 -31.5l122 -132q24 -27 24 -48q0 -15 -12 -24.5t-32 -9.5h-46q-33 0 -62.5 15zM536 61v494l-446 713q-7 14 -7 23q0 18 20 29.5t58 11.5h79q48 0 70 -15t36 -44
l314 -536l310 536q13 29 35.5 44t70.5 15h54q38 0 58 -11.5t20 -29.5q0 -9 -7 -23l-437 -706v-501q0 -61 -93 -61h-43q-92 0 -92 61z" />
    <glyph glyph-name="C.ss01" horiz-adv-x="1241" 
d="M379.5 57q-136.5 77 -207.5 226.5t-71 363.5v39q0 214 71 363t207.5 226t330.5 77q159 0 320 -56l89 -33q19 -7 26.5 -16.5t7.5 -25.5q0 -12 -3 -27l-16 -58q-5 -25 -13.5 -36t-22.5 -11q-9 0 -22 5l-79 27q-63 21 -122.5 32t-123.5 11q-203 0 -308.5 -119t-105.5 -359
v-39q0 -240 105.5 -359.5t308.5 -119.5q62 0 120 11t126 31l79 30q16 4 20 4q15 0 23.5 -11t14.5 -36l16 -58q3 -15 3 -27q0 -16 -7.5 -25.5t-26.5 -15.5l-89 -34q-164 -57 -320 -57q-194 0 -330.5 77z" />
    <glyph glyph-name="K.ss01" horiz-adv-x="1231" 
d="M121 61v1209q0 29 20.5 45.5t71.5 16.5h42q51 0 71.5 -16.5t20.5 -45.5v-635l502 638q39 59 132 59h81q62 0 62 -27q0 -11 -14 -32l-421 -482l440 -732q8 -14 8 -25q0 -34 -70 -34h-77q-51 0 -79 15.5t-42 43.5l-330 554l-192 -222v-330q0 -61 -92 -61h-42q-92 0 -92 61z
" />
    <glyph glyph-name="Kcommaaccent.ss01" horiz-adv-x="1231" 
d="M121 61v1209q0 29 20.5 45.5t71.5 16.5h42q51 0 71.5 -16.5t20.5 -45.5v-635l502 638q39 59 132 59h81q62 0 62 -27q0 -11 -14 -32l-421 -482l440 -732q8 -14 8 -25q0 -34 -70 -34h-77q-51 0 -79 15.5t-42 43.5l-330 554l-192 -222v-330q0 -61 -92 -61h-42q-92 0 -92 61z
M461.5 -401.5q-13.5 12.5 -13.5 35.5q0 11 5 28l51 183q8 28 28 43.5t49 15.5h55q29 0 45.5 -13t16.5 -36q0 -13 -6 -28l-55 -153q-16 -44 -35.5 -66t-48.5 -22h-56q-22 0 -35.5 12.5z" />
    <glyph glyph-name="C.ss02" horiz-adv-x="1241" 
d="M377.5 57.5q-135.5 77.5 -206 227t-70.5 362.5v39q0 213 70.5 362t206 226.5t327.5 77.5q131 0 229.5 -27t164.5 -67q40 -26 40 -58v-94q0 -36 -25 -36q-10 0 -22 6q-74 38 -157.5 63t-183.5 25q-203 0 -308.5 -119t-105.5 -359v-39q0 -240 105.5 -359.5t308.5 -119.5
q100 0 183.5 25t157.5 63q16 7 23 7q11 0 17.5 -9.5t6.5 -25.5v-95q0 -32 -40 -59q-66 -40 -164.5 -67t-229.5 -27q-192 0 -327.5 77.5z" />
    <glyph glyph-name="abreve" unicode="&#x103;" horiz-adv-x="985" 
d="M345.5 1092q-68.5 33 -102.5 89.5t-34 127.5q0 38 13 58.5t34 20.5q20 0 31 -13.5t27 -44.5q18 -38 37.5 -63.5t59 -44.5t103.5 -19t103.5 19t59 44.5t37.5 63.5q14 31 25 44.5t31 13.5q21 0 34 -20.5t13 -58.5q0 -71 -33.5 -127.5t-102 -89.5t-167.5 -33
q-100 0 -168.5 33zM182 49.5q-98 69.5 -98 205.5v18q0 135 97 201t300 76l210 12v33q0 90 -47 133t-146 43q-60 0 -128.5 -14t-125.5 -35l-53 -21q-12 -3 -21 -3q-14 0 -22.5 9t-13.5 29l-13 57q-3 12 -3 21q0 13 6.5 21.5t22.5 15.5l64 25q140 59 304 59q195 0 284.5 -80.5
t89.5 -236.5v-341q0 -151 -96.5 -224t-304.5 -73t-306 69.5zM644 152q47 40 47 125v157l-175 -10q-121 -7 -175.5 -40.5t-54.5 -107.5v-18q0 -75 45 -110.5t157 -35.5q109 0 156 40z" />
    <glyph glyph-name="amacron" unicode="&#x101;" horiz-adv-x="985" 
d="M229.5 1164.5q-13.5 14.5 -13.5 47.5v24q0 59 47 59h500q48 0 48 -59v-25q0 -32 -13.5 -46.5t-34.5 -14.5h-500q-20 0 -33.5 14.5zM182 49.5q-98 69.5 -98 205.5v18q0 135 97 201t300 76l210 12v33q0 90 -47 133t-146 43q-60 0 -128.5 -14t-125.5 -35l-53 -21
q-12 -3 -21 -3q-14 0 -22.5 9t-13.5 29l-13 57q-3 12 -3 21q0 13 6.5 21.5t22.5 15.5l64 25q140 59 304 59q195 0 284.5 -80.5t89.5 -236.5v-341q0 -151 -96.5 -224t-304.5 -73t-306 69.5zM644 152q47 40 47 125v157l-175 -10q-121 -7 -175.5 -40.5t-54.5 -107.5v-18
q0 -75 45 -110.5t157 -35.5q109 0 156 40z" />
    <glyph glyph-name="ccaron" unicode="&#x10d;" horiz-adv-x="929" 
d="M409.5 1088q-19.5 9 -38.5 30l-126 131q-23 23 -23 45q0 18 14.5 28t41.5 10h21q33 0 53.5 -7t38 -22.5t52.5 -52.5l69 -71l66 71q33 35 52 51.5t40 23.5t54 7h24q26 0 39.5 -10t13.5 -26q0 -21 -24 -47l-127 -131q-31 -39 -84 -39h-111q-26 0 -45.5 9zM197 88.5
q-113 108.5 -113 351.5v36q0 243 113 351t320 108q140 0 250 -46l55 -22q30 -10 30 -38q0 -11 -3 -23l-16 -55q-8 -40 -32 -40q-5 0 -17 4l-50 19q-87 29 -180 29q-128 0 -193.5 -66t-65.5 -221v-36q0 -156 65.5 -221.5t193.5 -65.5q103 0 180 30l50 18q9 3 16 3
q13 0 20.5 -9.5t12.5 -29.5l16 -56q3 -12 3 -22q0 -27 -30 -38l-55 -22q-113 -47 -250 -47q-207 0 -320 108.5z" />
    <glyph glyph-name="cdotaccent" unicode="&#x10b;" horiz-adv-x="929" 
d="M425.5 1125q-33.5 32 -33.5 87q0 53 33.5 85t87.5 32q53 0 86 -32t33 -85q0 -55 -33 -87t-86 -32q-54 0 -87.5 32zM197 88.5q-113 108.5 -113 351.5v36q0 243 113 351t320 108q140 0 250 -46l55 -22q30 -10 30 -38q0 -11 -3 -23l-16 -55q-8 -40 -32 -40q-5 0 -17 4
l-50 19q-87 29 -180 29q-128 0 -193.5 -66t-65.5 -221v-36q0 -156 65.5 -221.5t193.5 -65.5q103 0 180 30l50 18q9 3 16 3q13 0 20.5 -9.5t12.5 -29.5l16 -56q3 -12 3 -22q0 -27 -30 -38l-55 -22q-113 -47 -250 -47q-207 0 -320 108.5z" />
    <glyph glyph-name="dcaron" unicode="&#x10f;" horiz-adv-x="1316" 
d="M191.5 91q-107.5 111 -107.5 347v39q0 233 101.5 345.5t309.5 112.5q171 0 259 -91v434q0 57 86 57h39q80 0 80 -57v-840q0 -234 -105 -346t-326 -112q-229 0 -336.5 111zM1070 946q0 11 1 17l51 315q4 27 21 40.5t45 13.5h53q55 0 55 -51q0 -10 -1 -16l-67 -316
q-10 -53 -66 -53h-36q-56 0 -56 50zM660.5 161.5q49.5 29.5 71.5 96t22 181.5v39q0 114 -22 180t-71.5 95t-135.5 29q-87 0 -137.5 -29t-73 -94.5t-22.5 -180.5v-40q0 -114 22.5 -180.5t73 -96t137.5 -29.5q86 0 135.5 29.5z" />
    <glyph glyph-name="dcroat" unicode="&#x111;" horiz-adv-x="1063" 
d="M191.5 91q-107.5 111 -107.5 347v39q0 233 101.5 345.5t309.5 112.5q171 0 259 -91v189h-225q-28 0 -43.5 15.5t-15.5 42.5v18q0 28 15.5 43t43.5 15h225v111q0 57 86 57h39q80 0 80 -57v-111h30q29 0 44.5 -15t15.5 -43v-18q0 -27 -16 -42.5t-44 -15.5h-30v-595
q0 -234 -105 -346t-326 -112q-229 0 -336.5 111zM660.5 161.5q49.5 29.5 71.5 96t22 181.5v39q0 114 -22 180t-71.5 95t-135.5 29q-87 0 -137.5 -29t-73 -94.5t-22.5 -180.5v-40q0 -114 22.5 -180.5t73 -96t137.5 -29.5q86 0 135.5 29.5z" />
    <glyph glyph-name="ecaron" unicode="&#x11b;" horiz-adv-x="995" 
d="M424.5 1088q-19.5 9 -37.5 30l-127 131q-24 24 -24 46q0 17 15 27t42 10h22q33 0 53 -7t37 -22t53 -53l67 -71l68 71q34 36 52.5 52t40 23t54.5 7h23q26 0 39.5 -9.5t13.5 -25.5q0 -21 -25 -48l-125 -131q-19 -21 -39 -30t-46 -9h-111q-26 0 -45.5 9zM208.5 94
q-124.5 114 -124.5 347v35q0 148 53.5 251t152.5 155.5t235 52.5q123 0 210 -35t132 -100t45 -154q0 -99 -45 -156.5t-133 -83.5t-229 -30l-218 -7q19 -115 98.5 -169.5t197.5 -54.5q47 0 98.5 9t94.5 23l49 19q11 3 17 3q11 0 18.5 -8t12.5 -27l18 -58q3 -12 3 -20
q0 -26 -28 -36l-59 -25q-53 -22 -121 -33.5t-141 -11.5q-212 0 -336.5 114zM461 499q97 2 150.5 10.5t86 36.5t32.5 87q0 69 -48.5 109.5t-153.5 40.5q-123 0 -185.5 -69t-63.5 -221z" />
    <glyph glyph-name="edotaccent" unicode="&#x117;" horiz-adv-x="995" 
d="M440.5 1125q-32.5 32 -32.5 87q0 54 32.5 85.5t85.5 31.5t86.5 -32t33.5 -85q0 -55 -33.5 -87t-86.5 -32t-85.5 32zM208.5 94q-124.5 114 -124.5 347v35q0 148 53.5 251t152.5 155.5t235 52.5q123 0 210 -35t132 -100t45 -154q0 -99 -45 -156.5t-133 -83.5t-229 -30
l-218 -7q19 -115 98.5 -169.5t197.5 -54.5q47 0 98.5 9t94.5 23l49 19q11 3 17 3q11 0 18.5 -8t12.5 -27l18 -58q3 -12 3 -20q0 -26 -28 -36l-59 -25q-53 -22 -121 -33.5t-141 -11.5q-212 0 -336.5 114zM461 499q97 2 150.5 10.5t86 36.5t32.5 87q0 69 -48.5 109.5
t-153.5 40.5q-123 0 -185.5 -69t-63.5 -221z" />
    <glyph glyph-name="emacron" unicode="&#x113;" horiz-adv-x="995" 
d="M243 1164.5q-14 14.5 -14 47.5v24q0 59 48 59h500q46 0 46 -59v-25q0 -32 -12.5 -46.5t-33.5 -14.5h-500q-20 0 -34 14.5zM208.5 94q-124.5 114 -124.5 347v35q0 148 53.5 251t152.5 155.5t235 52.5q123 0 210 -35t132 -100t45 -154q0 -99 -45 -156.5t-133 -83.5
t-229 -30l-218 -7q19 -115 98.5 -169.5t197.5 -54.5q47 0 98.5 9t94.5 23l49 19q11 3 17 3q11 0 18.5 -8t12.5 -27l18 -58q3 -12 3 -20q0 -26 -28 -36l-59 -25q-53 -22 -121 -33.5t-141 -11.5q-212 0 -336.5 114zM461 499q97 2 150.5 10.5t86 36.5t32.5 87q0 69 -48.5 109.5
t-153.5 40.5q-123 0 -185.5 -69t-63.5 -221z" />
    <glyph glyph-name="gbreve" unicode="&#x11f;" horiz-adv-x="1063" 
d="M356.5 1092q-68.5 33 -103 89.5t-34.5 127.5q0 37 13.5 58t35.5 21q20 0 31 -13.5t25 -43.5q18 -39 37 -64.5t58.5 -44.5t104.5 -19q64 0 103.5 19t59 44.5t37.5 63.5q16 31 27 44.5t31 13.5q21 0 33.5 -20.5t12.5 -58.5q0 -71 -33.5 -127.5t-102 -89.5t-168.5 -33
q-99 0 -167.5 33zM192.5 -300.5q-123.5 71.5 -123.5 209.5q0 79 47.5 127.5t126.5 61.5q-71 47 -71 125q0 45 24.5 81t71.5 57q-91 31 -132 95t-41 166q0 145 95.5 219.5t308.5 74.5h466q20 0 33 -14.5t13 -46.5v-23q0 -33 -13 -47t-33 -14h-112q42 -63 42 -149
q0 -98 -39 -161.5t-127 -95.5t-234 -32h-96q-33 0 -53 -18.5t-20 -45.5q0 -31 24 -47t77 -20l207 -11q191 -12 274 -76t83 -189q0 -90 -53.5 -157.5t-156 -104t-246.5 -36.5q-219 0 -342.5 71.5zM620.5 469q44.5 17 62.5 53t18 96q0 61 -18 97.5t-62.5 54t-124.5 17.5
q-78 0 -122.5 -18t-63.5 -54.5t-19 -95.5q0 -62 18.5 -97.5t62.5 -52.5t124 -17t124.5 17zM731.5 -195q60.5 38 60.5 107q0 40 -17 64.5t-63 39.5t-134 23l-194 18q-69 0 -105.5 -34.5t-36.5 -90.5q0 -165 302 -165q127 0 187.5 38z" />
    <glyph glyph-name="gcommaaccent" unicode="&#x123;" horiz-adv-x="1063" 
d="M463 1077q-14 12 -14 33q0 13 4 25l67 198q16 49 67 49h58q27 0 41.5 -12t14.5 -33q0 -10 -3 -21l-58 -200q-11 -51 -69 -51h-68q-26 0 -40 12zM192.5 -300.5q-123.5 71.5 -123.5 209.5q0 79 47.5 127.5t126.5 61.5q-71 47 -71 125q0 45 24.5 81t71.5 57q-91 31 -132 95
t-41 166q0 145 95.5 219.5t308.5 74.5h466q20 0 33 -14.5t13 -46.5v-23q0 -33 -13 -47t-33 -14h-112q42 -63 42 -149q0 -98 -39 -161.5t-127 -95.5t-234 -32h-96q-33 0 -53 -18.5t-20 -45.5q0 -31 24 -47t77 -20l207 -11q191 -12 274 -76t83 -189q0 -90 -53.5 -157.5
t-156 -104t-246.5 -36.5q-219 0 -342.5 71.5zM620.5 469q44.5 17 62.5 53t18 96q0 61 -18 97.5t-62.5 54t-124.5 17.5q-78 0 -122.5 -18t-63.5 -54.5t-19 -95.5q0 -62 18.5 -97.5t62.5 -52.5t124 -17t124.5 17zM731.5 -195q60.5 38 60.5 107q0 40 -17 64.5t-63 39.5t-134 23
l-194 18q-69 0 -105.5 -34.5t-36.5 -90.5q0 -165 302 -165q127 0 187.5 38z" />
    <glyph glyph-name="gdotaccent" unicode="&#x121;" horiz-adv-x="1063" 
d="M437.5 1125q-32.5 32 -32.5 87q0 54 32.5 85.5t86.5 31.5t87 -31.5t33 -85.5q0 -55 -33 -87t-87 -32t-86.5 32zM192.5 -300.5q-123.5 71.5 -123.5 209.5q0 79 47.5 127.5t126.5 61.5q-71 47 -71 125q0 45 24.5 81t71.5 57q-91 31 -132 95t-41 166q0 145 95.5 219.5
t308.5 74.5h466q20 0 33 -14.5t13 -46.5v-23q0 -33 -13 -47t-33 -14h-112q42 -63 42 -149q0 -98 -39 -161.5t-127 -95.5t-234 -32h-96q-33 0 -53 -18.5t-20 -45.5q0 -31 24 -47t77 -20l207 -11q191 -12 274 -76t83 -189q0 -90 -53.5 -157.5t-156 -104t-246.5 -36.5
q-219 0 -342.5 71.5zM620.5 469q44.5 17 62.5 53t18 96q0 61 -18 97.5t-62.5 54t-124.5 17.5q-78 0 -122.5 -18t-63.5 -54.5t-19 -95.5q0 -62 18.5 -97.5t62.5 -52.5t124 -17t124.5 17zM731.5 -195q60.5 38 60.5 107q0 40 -17 64.5t-63 39.5t-134 23l-194 18
q-69 0 -105.5 -34.5t-36.5 -90.5q0 -165 302 -165q127 0 187.5 38z" />
    <glyph glyph-name="hbar" unicode="&#x127;" horiz-adv-x="1035" 
d="M111 56v977h-56q-28 0 -44 15.5t-16 42.5v18q0 28 15.5 43t44.5 15h56v111q0 54 81 54h42q82 0 82 -54v-111h381q28 0 43 -15t15 -43v-18q0 -27 -15 -42.5t-43 -15.5h-381v-166q88 68 243 68q194 0 283.5 -91.5t89.5 -274.5v-513q0 -56 -81 -56h-41q-82 0 -82 56v509
q0 111 -45.5 160.5t-152.5 49.5q-112 0 -163 -50t-51 -160v-509q0 -56 -82 -56h-42q-81 0 -81 56z" />
    <glyph glyph-name="dotlessi" unicode="&#x131;" horiz-adv-x="427" 
d="M111 56v805q0 55 81 55h41q82 0 82 -55v-805q0 -26 -18.5 -41t-63.5 -15h-41q-81 0 -81 56z" />
    <glyph glyph-name="i.loclTRK" horiz-adv-x="427" 
d="M136 1125q-34 32 -34 87q0 53 34 85t87 32t85.5 -31.5t32.5 -85.5q0 -55 -32.5 -87t-85.5 -32t-87 32zM111 56v805q0 55 81 55h41q82 0 82 -55v-805q0 -26 -18.5 -41t-63.5 -15h-41q-81 0 -81 56z" />
    <glyph glyph-name="ij" unicode="&#x133;" horiz-adv-x="861" 
d="M129.5 1129q-32.5 31 -32.5 84q0 51 32.5 82.5t84.5 31.5q51 0 83 -31.5t32 -82.5q0 -53 -32 -84t-83 -31q-52 0 -84.5 31zM557.5 1129q-32.5 31 -32.5 84q0 51 33 82.5t84 31.5t83.5 -31.5t32.5 -82.5q0 -53 -32 -84t-84 -31t-84.5 31zM111 56v805q0 55 81 55h41
q82 0 82 -55v-805q0 -26 -18.5 -41t-63.5 -15h-41q-81 0 -81 56zM354 -346q-35 26 -35 71v15q0 23 15.5 32.5t48.5 9.5q155 0 155 174v905q0 55 81 55h40q83 0 83 -55v-911q0 -103 -36.5 -175.5t-101 -109.5t-148.5 -37q-67 0 -102 26z" />
    <glyph glyph-name="imacron" unicode="&#x12b;" horiz-adv-x="427" 
d="M-61 1164.5q-13 14.5 -13 47.5v24q0 59 46 59h500q48 0 48 -59v-25q0 -32 -13.5 -46.5t-34.5 -14.5h-500q-20 0 -33 14.5zM111 56v805q0 55 81 55h41q82 0 82 -55v-805q0 -26 -18.5 -41t-63.5 -15h-41q-81 0 -81 56z" />
    <glyph glyph-name="iogonek" unicode="&#x12f;" horiz-adv-x="427" 
d="M136 1125q-34 32 -34 87q0 53 34 85t87 32t85.5 -31.5t32.5 -85.5q0 -55 -32.5 -87t-85.5 -32t-87 32zM35 -289.5q-49 37.5 -49 105.5q0 65 49.5 117t116.5 74q-41 11 -41 49v805q0 55 81 55h41q82 0 82 -55v-805q0 -18 -8.5 -30.5t-28.5 -19.5q-65 -26 -104 -65.5
t-39 -85.5q0 -61 72 -61q29 0 51.5 7t47.5 19q13 6 25.5 10.5t22.5 4.5q17 0 26 -10t9 -28q0 -31 -31 -60t-82 -46.5t-109 -17.5q-83 0 -132 37.5z" />
    <glyph glyph-name="kcommaaccent" unicode="&#x137;" horiz-adv-x="992" 
d="M111 56v1222q0 54 81 54h41q82 0 82 -54v-1222q0 -26 -18.5 -41t-63.5 -15h-41q-81 0 -81 56zM670 56l-289 365q-14 19 -14 39q0 19 14 36l292 364q39 56 122 56h76q57 0 57 -27q0 -11 -14 -29l-352 -396l352 -408q14 -19 14 -30q0 -26 -57 -26h-80q-83 0 -121 56z
M348.5 -402q-12.5 12 -12.5 34q0 12 5 30l52 183q6 28 26 43.5t49 15.5h55q29 0 45.5 -13t16.5 -36q0 -13 -6 -28l-55 -153q-16 -44 -35.5 -66t-48.5 -22h-57q-22 0 -34.5 12z" />
    <glyph glyph-name="lacute" unicode="&#x13a;" horiz-adv-x="427" 
d="M114.5 1444q-12.5 10 -12.5 26q0 21 24 46l123 133q18 20 38 30.5t46 10.5h65q27 0 43.5 -12t16.5 -30q0 -20 -24 -43l-111 -104q-38 -36 -67.5 -51.5t-61.5 -15.5h-46q-21 0 -33.5 10zM111 56v1222q0 54 81 54h41q82 0 82 -54v-1222q0 -26 -18.5 -41t-63.5 -15h-41
q-81 0 -81 56z" />
    <glyph glyph-name="lcaron" unicode="&#x13e;" horiz-adv-x="642" 
d="M111 56v1222q0 54 81 54h41q82 0 82 -54v-1222q0 -26 -18.5 -41t-63.5 -15h-41q-81 0 -81 56zM397 947q0 10 1 16l50 315q4 27 21.5 40.5t45.5 13.5h53q56 0 56 -49q0 -6 -2 -18l-67 -316q-11 -53 -67 -53h-36q-55 0 -55 51z" />
    <glyph glyph-name="lcommaaccent" unicode="&#x13c;" horiz-adv-x="427" 
d="M111 56v1222q0 54 81 54h41q82 0 82 -54v-1222q0 -26 -18.5 -41t-63.5 -15h-41q-81 0 -81 56zM59 -401.5q-13 12.5 -13 34.5q0 11 5 29l52 183q7 28 26.5 43.5t49.5 15.5h55q29 0 45 -13t16 -36q0 -11 -5 -28l-56 -153q-15 -44 -34.5 -66t-49.5 -22h-56q-22 0 -35 12.5z
" />
    <glyph glyph-name="ldot" unicode="&#x140;" horiz-adv-x="626" 
d="M111 56v1222q0 54 81 54h41q82 0 82 -54v-1222q0 -26 -18.5 -41t-63.5 -15h-41q-81 0 -81 56zM415.5 476q-25.5 27 -25.5 85q0 113 103 113q53 0 78.5 -28t25.5 -85q0 -58 -26 -85t-78 -27t-77.5 27z" />
    <glyph glyph-name="ncaron" unicode="&#x148;" horiz-adv-x="1034" 
d="M404.5 1088q-19.5 9 -38.5 30l-127 131q-23 23 -23 45q0 17 15 27.5t42 10.5h21q33 0 53 -7t38 -22.5t53 -52.5l68 -71l66 71q33 35 52.5 51.5t40.5 23.5t54 7h23q26 0 40 -9.5t14 -25.5q0 -22 -26 -48l-124 -131q-18 -21 -38.5 -30t-47.5 -9h-110q-26 0 -45.5 9zM103 56
v515q0 179 103 271.5t311 92.5t311 -92.5t103 -271.5v-515q0 -56 -82 -56h-41q-82 0 -82 56v511q0 110 -48.5 159t-160.5 49q-113 0 -161.5 -49t-48.5 -159v-511q0 -56 -81 -56h-41q-82 0 -82 56z" />
    <glyph glyph-name="ncommaaccent" unicode="&#x146;" horiz-adv-x="1034" 
d="M103 56v515q0 179 103 271.5t311 92.5t311 -92.5t103 -271.5v-515q0 -56 -82 -56h-41q-82 0 -82 56v511q0 110 -48.5 159t-160.5 49q-113 0 -161.5 -49t-48.5 -159v-511q0 -56 -81 -56h-41q-82 0 -82 56zM363.5 -401.5q-12.5 12.5 -12.5 35.5q0 15 4 28l51 183
q8 28 28 43.5t50 15.5h55q29 0 44.5 -12.5t15.5 -34.5q0 -14 -6 -30l-53 -153q-17 -45 -36 -66.5t-48 -21.5h-58q-22 0 -34.5 12.5z" />
    <glyph glyph-name="eng" unicode="&#x14b;" horiz-adv-x="1028" 
d="M539.5 -346q-35.5 26 -35.5 71v16q0 23 15.5 33t47.5 10q153 0 153 173v610q0 111 -47 159.5t-158 48.5t-159.5 -49t-48.5 -159v-511q0 -56 -81 -56h-41q-82 0 -82 56v513q0 366 412 366q409 0 409 -366v-619q0 -155 -76 -238.5t-207 -83.5q-66 0 -101.5 26z" />
    <glyph glyph-name="ohungarumlaut" unicode="&#x151;" horiz-adv-x="1059" 
d="M340 1100q0 22 24 55l105 133q19 24 37.5 34t46.5 10h46q28 0 44.5 -12t16.5 -30q0 -21 -19 -41l-86 -90q-44 -46 -77 -65.5t-68 -19.5h-38q-32 0 -32 26zM633 1080q-7 6 -7 17q0 24 31 60l123 135q19 21 39 30.5t45 9.5h49q28 0 43.5 -11t15.5 -29q0 -21 -24 -44
l-108 -96q-47 -42 -81 -60t-68 -18h-38q-13 0 -20 6zM193 92.5q-109 112.5 -109 345.5v40q0 232 109 344.5t334 112.5q227 0 338 -111.5t111 -346.5v-39q0 -235 -111 -346.5t-338 -111.5q-225 0 -334 112.5zM668 161.5q52 29.5 76.5 96t24.5 180.5v40q0 113 -24.5 179.5
t-76.5 95.5t-138 29q-88 0 -139.5 -29t-75 -95t-23.5 -180v-39q0 -114 23.5 -181t75.5 -96.5t139 -29.5q86 0 138 29.5z" />
    <glyph glyph-name="omacron" unicode="&#x14d;" horiz-adv-x="1059" 
d="M250.5 1164.5q-13.5 14.5 -13.5 47.5v24q0 59 47 59h499q22 0 34.5 -13t12.5 -46v-25q0 -61 -47 -61h-499q-20 0 -33.5 14.5zM193 92.5q-109 112.5 -109 345.5v40q0 232 109 344.5t334 112.5q227 0 338 -111.5t111 -346.5v-39q0 -235 -111 -346.5t-338 -111.5
q-225 0 -334 112.5zM668 161.5q52 29.5 76.5 96t24.5 180.5v40q0 113 -24.5 179.5t-76.5 95.5t-138 29q-88 0 -139.5 -29t-75 -95t-23.5 -180v-39q0 -114 23.5 -181t75.5 -96.5t139 -29.5q86 0 138 29.5z" />
    <glyph glyph-name="racute" unicode="&#x155;" horiz-adv-x="699" 
d="M326 1087.5q-12 9.5 -12 25.5q0 23 23 47l123 132q34 40 83 40h66q27 0 43 -11.5t16 -29.5q0 -21 -23 -43l-111 -104q-39 -36 -67.5 -51t-62.5 -15h-46q-20 0 -32 9.5zM103 56v494q0 366 412 366h53q21 0 34 -14.5t13 -46.5v-41q0 -60 -47 -60h-53q-114 0 -162 -47.5
t-48 -158.5v-492q0 -56 -81 -56h-39q-82 0 -82 56z" />
    <glyph glyph-name="rcaron" unicode="&#x159;" horiz-adv-x="699" 
d="M319.5 1088q-19.5 9 -38.5 30l-127 131q-23 23 -23 45q0 17 15.5 27.5t42.5 10.5h21q33 0 53 -7t37 -22t53 -53l67 -71l68 71q34 36 52.5 52t39.5 23t54 7h24q26 0 39.5 -9.5t13.5 -25.5q0 -21 -25 -48l-125 -131q-19 -21 -39 -30t-46 -9h-111q-26 0 -45.5 9zM103 56v494
q0 366 412 366h53q21 0 34 -14.5t13 -46.5v-41q0 -60 -47 -60h-53q-114 0 -162 -47.5t-48 -158.5v-492q0 -56 -81 -56h-39q-82 0 -82 56z" />
    <glyph glyph-name="rcommaaccent" unicode="&#x157;" horiz-adv-x="699" 
d="M103 56v494q0 366 412 366h53q21 0 34 -14.5t13 -46.5v-41q0 -60 -47 -60h-53q-114 0 -162 -47.5t-48 -158.5v-492q0 -56 -81 -56h-39q-82 0 -82 56zM53 -401.5q-13 12.5 -13 34.5q0 11 5 29l52 183q7 28 26.5 43.5t48.5 15.5h55q29 0 45.5 -12.5t16.5 -35.5
q0 -13 -6 -29l-55 -153q-14 -44 -34 -66t-50 -22h-55q-23 0 -36 12.5z" />
    <glyph glyph-name="scedilla" unicode="&#x15f;" horiz-adv-x="920" 
d="M343 -376q-50 18 -80 45.5t-30 55.5q0 37 34 37q10 0 22.5 -5t25.5 -12q33 -16 59.5 -24.5t65.5 -8.5q98 0 98 57q0 25 -18.5 37t-55.5 23q-42 13 -63.5 27.5t-21.5 47.5q0 15 5 27.5t15 27.5l16 25q-113 9 -239 55l-63 26q-17 6 -24 14.5t-7 21.5q0 5 2 19l15 54
q5 19 13 28t21 9q7 0 22 -5l54 -22q60 -22 127.5 -36t127.5 -14q166 0 166 109q0 33 -17 53.5t-43.5 33t-73.5 27.5l-142 45q-73 22 -125 50t-85.5 79.5t-33.5 130.5q0 80 40.5 142t120 96.5t192.5 34.5q73 0 140.5 -12t120.5 -34l57 -22q17 -5 23.5 -14t6.5 -23
q0 -5 -2 -19l-14 -57q-6 -19 -13.5 -27t-20.5 -8q-8 0 -19 3l-51 20q-41 16 -95 25.5t-111 9.5q-90 0 -129 -28t-39 -81q0 -38 17 -61t44 -34.5t72 -24.5l137 -45q78 -22 130.5 -48.5t86.5 -76t34 -127.5q0 -118 -82 -189t-232 -80l-11 -18q-1 -4 -5 -13.5t-4 -18.5
q0 -18 15 -26.5t47 -16.5q37 -11 60.5 -22.5t41 -37t17.5 -69.5q0 -73 -60.5 -113.5t-174.5 -40.5q-57 0 -107 18z" />
    <glyph glyph-name="scommaaccent" unicode="&#x219;" horiz-adv-x="920" 
d="M176 39l-63 26q-17 6 -24 14.5t-7 21.5q0 5 2 19l15 54q5 19 13 28t21 9q7 0 22 -5l54 -22q60 -22 127.5 -36t127.5 -14q166 0 166 109q0 33 -17 53.5t-43.5 33t-73.5 27.5l-142 45q-73 22 -125 50t-85.5 79.5t-33.5 130.5q0 80 40.5 142t120 96.5t192.5 34.5
q73 0 140.5 -12t120.5 -34l57 -22q17 -5 23.5 -14t6.5 -23q0 -5 -2 -19l-14 -57q-6 -19 -13.5 -27t-20.5 -8q-8 0 -19 3l-51 20q-41 16 -95 25.5t-111 9.5q-90 0 -129 -28t-39 -81q0 -38 17 -61t44 -34.5t72 -24.5l137 -45q78 -22 130.5 -48.5t86.5 -76t34 -127.5
q0 -83 -41.5 -144t-121.5 -94t-193 -33q-153 0 -306 59zM329 -401.5q-13 12.5 -13 35.5q0 15 4 28l52 183q8 28 27.5 43.5t49.5 15.5h55q29 0 45 -13t16 -35q0 -13 -6 -29l-54 -153q-16 -44 -36 -66t-49 -22h-56q-22 0 -35 12.5z" />
    <glyph glyph-name="tbar" unicode="&#x167;" horiz-adv-x="755" 
d="M274 79.5q-84 79.5 -84 232.5v137h-106q-21 0 -34.5 15t-13.5 48v23q0 32 14 46.5t34 14.5h106v172h-106q-20 0 -34 15t-14 48v24q0 31 14 46t34 15h106v208q0 55 83 55h41q81 0 81 -55v-208h264q21 0 34 -14.5t13 -46.5v-25q0 -32 -13 -47t-34 -15h-264v-172h264
q21 0 34 -14.5t13 -46.5v-25q0 -32 -13 -46.5t-34 -14.5h-264v-102q0 -103 42 -147t132 -44h90q21 0 34 -14.5t13 -46.5v-35q0 -31 -13 -45.5t-34 -14.5h-140q-161 0 -245 79.5z" />
    <glyph glyph-name="tcaron" unicode="&#x165;" horiz-adv-x="755" 
d="M516 1041.5q-14 12.5 -14 35.5q0 6 2 20l50 182q11 53 67 53h43q27 0 41 -12t14 -33q0 -12 -4 -24l-57 -183q-15 -51 -68 -51h-33q-27 0 -41 12.5zM274 79.5q-84 79.5 -84 232.5v456h-106q-20 0 -34 15t-14 48v24q0 31 14 46t34 15h106v208q0 55 83 55h41q81 0 81 -55
v-208h264q21 0 34 -14.5t13 -46.5v-25q0 -32 -13 -47t-34 -15h-264v-421q0 -103 42 -147t132 -44h90q21 0 34 -14.5t13 -46.5v-35q0 -31 -13 -45.5t-34 -14.5h-140q-161 0 -245 79.5z" />
    <glyph glyph-name="tcommaaccent" unicode="&#x163;" horiz-adv-x="755" 
d="M318.5 -376.5q-50.5 17.5 -80 45.5t-29.5 56q0 37 35 37q10 0 22.5 -5t25.5 -12q31 -15 58 -24t66 -9q99 0 99 57q0 25 -18.5 37t-56.5 23q-42 13 -63.5 28t-21.5 47q0 15 5 27.5t15 27.5l33 54q-108 23 -163 98.5t-55 200.5v456h-106q-20 0 -34 15t-14 48v24q0 31 14 46
t34 15h106v208q0 55 83 55h41q81 0 81 -55v-208h264q21 0 34 -14.5t13 -46.5v-25q0 -32 -13 -47t-34 -15h-264v-421q0 -103 42 -147t132 -44h90q21 0 34 -14.5t13 -46.5v-35q0 -31 -13 -45.5t-34 -14.5h-145l-24 -36q-11 -18 -11 -32q0 -18 15 -26.5t47 -16.5q37 -10 61 -22
t41.5 -37.5t17.5 -69.5q0 -73 -60.5 -113.5t-172.5 -40.5q-59 0 -109.5 17.5z" />
    <glyph glyph-name="uni021B" unicode="&#x21b;" horiz-adv-x="755" 
d="M274 79.5q-84 79.5 -84 232.5v456h-106q-20 0 -34 15t-14 48v24q0 31 14 46t34 15h106v208q0 55 83 55h41q81 0 81 -55v-208h264q21 0 34 -14.5t13 -46.5v-25q0 -32 -13 -47t-34 -15h-264v-421q0 -103 42 -147t132 -44h90q21 0 34 -14.5t13 -46.5v-35q0 -31 -13 -45.5
t-34 -14.5h-140q-161 0 -245 79.5zM305.5 -401.5q-13.5 12.5 -13.5 35.5q0 11 5 28l52 183q8 28 27.5 43.5t48.5 15.5h55q29 0 45 -13t16 -36q0 -11 -5 -28l-55 -153q-17 -45 -36 -66.5t-48 -21.5h-56q-22 0 -35.5 12.5z" />
    <glyph glyph-name="uhungarumlaut" unicode="&#x171;" horiz-adv-x="1013" 
d="M320 1099q0 22 25 56l105 133q17 23 36.5 33.5t47.5 10.5h45q28 0 44.5 -12t16.5 -30q0 -19 -20 -41l-86 -90q-42 -46 -75.5 -65.5t-68.5 -19.5h-36q-34 0 -34 25zM607 1097q0 24 31 60l123 135q18 21 37.5 30.5t45.5 9.5h50q27 0 43 -11t16 -29q0 -23 -24 -44l-109 -96
q-46 -42 -80 -60t-67 -18h-39q-27 0 -27 23zM204 73.5q-101 93.5 -101 272.5v515q0 24 19.5 39.5t62.5 15.5h41q81 0 81 -55v-513q0 -109 47.5 -158.5t152.5 -49.5q108 0 153 49t45 159v513q0 24 19.5 39.5t62.5 15.5h42q43 0 62 -15.5t19 -39.5v-515q0 -181 -98.5 -273.5
t-304.5 -92.5q-202 0 -303 93.5z" />
    <glyph glyph-name="umacron" unicode="&#x16b;" horiz-adv-x="1013" 
d="M230.5 1165q-13.5 15 -13.5 47v24q0 32 13.5 45.5t33.5 13.5h501q47 0 47 -59v-25q0 -32 -13.5 -46.5t-33.5 -14.5h-501q-20 0 -33.5 15zM204 73.5q-101 93.5 -101 272.5v515q0 24 19.5 39.5t62.5 15.5h41q81 0 81 -55v-513q0 -109 47.5 -158.5t152.5 -49.5q108 0 153 49
t45 159v513q0 24 19.5 39.5t62.5 15.5h42q43 0 62 -15.5t19 -39.5v-515q0 -181 -98.5 -273.5t-304.5 -92.5q-202 0 -303 93.5z" />
    <glyph glyph-name="uogonek" unicode="&#x173;" horiz-adv-x="1013" 
d="M420.5 -299.5q-48.5 36.5 -48.5 104.5q0 56 37 101.5t94 73.5q-199 1 -299.5 93t-100.5 273v515q0 24 19.5 39.5t62.5 15.5h41q81 0 81 -55v-513q0 -109 47.5 -158.5t152.5 -49.5q108 0 153 49t45 159v513q0 24 19.5 39.5t62.5 15.5h42q43 0 62 -15.5t19 -39.5v-515
q0 -139 -57.5 -225.5t-177.5 -120.5q-65 -23 -110 -64.5t-45 -91.5q0 -60 73 -60q29 0 51 7t49 19q13 6 25.5 10.5t21.5 4.5q17 0 25 -10.5t8 -27.5q0 -32 -30.5 -60t-81 -45.5t-108.5 -17.5q-84 0 -132.5 36.5z" />
    <glyph glyph-name="uring" unicode="&#x16f;" horiz-adv-x="1013" 
d="M400.5 1066.5q-48.5 25.5 -75 71t-26.5 101.5t26.5 101t75 71t112.5 26q65 0 114 -26t76 -71t27 -101t-27 -101.5t-76 -71t-114 -25.5q-64 0 -112.5 25.5zM589 1166.5q29 28.5 29 72.5q0 43 -29.5 72t-72.5 29q-45 0 -74 -29t-29 -72q0 -44 28.5 -72.5t74.5 -28.5
q44 0 73 28.5zM204 73.5q-101 93.5 -101 272.5v515q0 24 19.5 39.5t62.5 15.5h41q81 0 81 -55v-513q0 -109 47.5 -158.5t152.5 -49.5q108 0 153 49t45 159v513q0 24 19.5 39.5t62.5 15.5h42q43 0 62 -15.5t19 -39.5v-515q0 -181 -98.5 -273.5t-304.5 -92.5q-202 0 -303 93.5
z" />
    <glyph glyph-name="wacute" unicode="&#x1e83;" horiz-adv-x="1467" 
d="M651 1087.5q-12 9.5 -12 25.5q0 23 24 47l122 132q18 20 38 30t45 10h66q27 0 43 -11t16 -29q0 -22 -23 -44l-111 -104q-39 -36 -67.5 -51t-61.5 -15h-47q-20 0 -32 9.5zM276 108l-199 753q-2 10 -2 15q0 40 67 40h54q86 0 96 -51l142 -676q2 -14 19 -14q5 0 7.5 2.5
t5.5 11.5l176 672q11 55 94 55h28q79 0 90 -55l168 -672q1 -9 4.5 -11.5t10.5 -2.5q15 0 16 14l141 676q4 24 27.5 37.5t67.5 13.5h33q67 0 67 -41q0 -4 -2 -14l-200 -753q-12 -56 -45 -86.5t-89 -30.5h-29q-58 0 -93 31t-46 87l-142 559l-159 -559q-26 -118 -139 -118h-28
q-112 0 -141 117z" />
    <glyph glyph-name="wcircumflex" unicode="&#x175;" horiz-adv-x="1467" 
d="M471.5 1089.5q-15.5 10.5 -15.5 27.5q0 22 24 46l127 130q18 20 38 29.5t45 9.5h111q26 0 46.5 -9.5t38.5 -29.5l125 -130q25 -25 25 -48q0 -16 -13.5 -26t-39.5 -10h-23q-33 0 -54 7t-39.5 22.5t-53.5 51.5l-67 71l-68 -71q-36 -37 -53 -52t-37 -22t-53 -7h-21
q-27 0 -42.5 10.5zM276 108l-199 753q-2 10 -2 15q0 40 67 40h54q86 0 96 -51l142 -676q2 -14 19 -14q5 0 7.5 2.5t5.5 11.5l176 672q11 55 94 55h28q79 0 90 -55l168 -672q1 -9 4.5 -11.5t10.5 -2.5q15 0 16 14l141 676q4 24 27.5 37.5t67.5 13.5h33q67 0 67 -41
q0 -4 -2 -14l-200 -753q-12 -56 -45 -86.5t-89 -30.5h-29q-58 0 -93 31t-46 87l-142 559l-159 -559q-26 -118 -139 -118h-28q-112 0 -141 117z" />
    <glyph glyph-name="wdieresis" unicode="&#x1e85;" horiz-adv-x="1467" 
d="M513 1123q-31 30 -31 80q0 48 31.5 78t80.5 30q48 0 78.5 -30t30.5 -78q0 -50 -30 -80t-79 -30q-50 0 -81 30zM822 1123q-31 30 -31 80q0 49 31 78.5t81 29.5q48 0 78.5 -30t30.5 -78q0 -50 -30.5 -80t-78.5 -30q-50 0 -81 30zM276 108l-199 753q-2 10 -2 15q0 40 67 40
h54q86 0 96 -51l142 -676q2 -14 19 -14q5 0 7.5 2.5t5.5 11.5l176 672q11 55 94 55h28q79 0 90 -55l168 -672q1 -9 4.5 -11.5t10.5 -2.5q15 0 16 14l141 676q4 24 27.5 37.5t67.5 13.5h33q67 0 67 -41q0 -4 -2 -14l-200 -753q-12 -56 -45 -86.5t-89 -30.5h-29q-58 0 -93 31
t-46 87l-142 559l-159 -559q-26 -118 -139 -118h-28q-112 0 -141 117z" />
    <glyph glyph-name="wgrave" unicode="&#x1e81;" horiz-adv-x="1467" 
d="M701 1093q-29 15 -69 51l-111 104q-24 23 -24 44q0 18 16.5 29t43.5 11h66q25 0 44 -9.5t39 -30.5l123 -132q24 -24 24 -48q0 -15 -12 -24.5t-32 -9.5h-46q-33 0 -62 15zM276 108l-199 753q-2 10 -2 15q0 40 67 40h54q86 0 96 -51l142 -676q2 -14 19 -14q5 0 7.5 2.5
t5.5 11.5l176 672q11 55 94 55h28q79 0 90 -55l168 -672q1 -9 4.5 -11.5t10.5 -2.5q15 0 16 14l141 676q4 24 27.5 37.5t67.5 13.5h33q67 0 67 -41q0 -4 -2 -14l-200 -753q-12 -56 -45 -86.5t-89 -30.5h-29q-58 0 -93 31t-46 87l-142 559l-159 -559q-26 -118 -139 -118h-28
q-112 0 -141 117z" />
    <glyph glyph-name="ycircumflex" unicode="&#x177;" horiz-adv-x="973" 
d="M227.5 1089.5q-15.5 10.5 -15.5 27.5q0 22 24 46l127 130q19 21 38.5 30t44.5 9h112q51 0 84 -39l125 -130q25 -27 25 -48q0 -16 -13.5 -26t-39.5 -10h-23q-33 0 -54.5 7t-40 22.5t-52.5 51.5l-66 71l-68 -71q-37 -38 -54 -52.5t-37 -21.5t-53 -7h-21q-27 0 -42.5 10.5z
M61 -293v26q0 33 12.5 47.5t32.5 14.5h41q85 0 146 52.5t101 156.5l11 36l-330 821q-4 12 -4 17q0 38 70 38h57q79 0 98 -55l218 -595l203 595q7 24 30.5 39.5t67.5 15.5h35q36 0 52.5 -10t16.5 -27q0 -10 -4 -18l-328 -867q-65 -172 -163.5 -259t-242.5 -87h-75
q-45 0 -45 59z" />
    <glyph glyph-name="ygrave" unicode="&#x1ef3;" horiz-adv-x="973" 
d="M457 1093q-29 15 -68 51l-111 104q-24 21 -24 44q0 18 16 29t43 11h67q25 0 44 -9.5t39 -30.5l122 -132q24 -24 24 -48q0 -15 -12 -24.5t-32 -9.5h-46q-33 0 -62 15zM61 -293v26q0 33 12.5 47.5t32.5 14.5h41q85 0 146 52.5t101 156.5l11 36l-330 821q-4 12 -4 17
q0 38 70 38h57q79 0 98 -55l218 -595l203 595q7 24 30.5 39.5t67.5 15.5h35q36 0 52.5 -10t16.5 -27q0 -10 -4 -18l-328 -867q-65 -172 -163.5 -259t-242.5 -87h-75q-45 0 -45 59z" />
    <glyph glyph-name="ordfeminine" unicode="&#xaa;" horiz-adv-x="837" 
d="M196.5 702.5q-73.5 49.5 -73.5 153.5v14q0 100 70.5 149.5t220.5 56.5l143 7v16q0 60 -30 88t-98 28q-43 0 -91 -9t-90 -26l-39 -13q-10 -3 -18 -3q-24 0 -33 32l-12 43q-3 11 -3 20q0 23 25 32l50 19q99 40 219 40q140 0 207.5 -57.5t67.5 -175.5v-244
q0 -116 -71.5 -168t-221.5 -52q-149 0 -222.5 49.5zM525 790q32 25 32 83v102l-118 -6q-86 -6 -121.5 -28t-35.5 -70v-12q0 -50 32 -72t105 -22q74 0 106 25z" />
    <glyph glyph-name="ordmasculine" unicode="&#xba;" horiz-adv-x="886" 
d="M199.5 735q-82.5 81 -82.5 253v29q0 172 82.5 253.5t244.5 81.5q164 0 245 -80t81 -254v-30q0 -174 -81 -254t-245 -80q-162 0 -244.5 81zM538.5 799.5q34.5 19.5 50.5 64.5t16 124v29q0 79 -16 124t-50.5 64t-93.5 19t-94 -19.5t-51.5 -64t-16.5 -123.5v-28
q0 -79 16.5 -124.5t51.5 -65t94 -19.5t93.5 19.5z" />
    <glyph glyph-name="afii10017" unicode="&#x410;" horiz-adv-x="1342" 
d="M70 46q0 9 3 19l402 1135q26 82 67 117t121 35h26q72 0 115 -36t69 -115l396 -1136q3 -9 3 -18q0 -21 -18.5 -34t-59.5 -13h-59q-90 0 -109 65l-104 322h-516l-105 -322q-19 -65 -111 -65h-42q-78 0 -78 46zM874 546l-187 589q-5 16 -19 16q-11 0 -16 -16l-195 -589h417z
" />
    <glyph glyph-name="afii10018" unicode="&#x411;" horiz-adv-x="1190" 
d="M121 149v1035q0 148 193 148h640q55 0 55 -71v-30q0 -70 -55 -70h-562q-45 0 -45 -33v-359h327q219 0 325 -95t106 -287q0 -194 -105 -290.5t-332 -96.5h-357q-190 0 -190 149zM632 168q96 0 152 21.5t80.5 67.5t24.5 124q0 120 -58 175t-194 55h-290v-408q0 -35 45 -35
h240z" />
    <glyph glyph-name="afii10019" unicode="&#x412;" horiz-adv-x="1218" 
d="M121 149v1035q0 72 45.5 110t144.5 38h370q203 0 300 -83.5t97 -254.5q0 -113 -50 -189t-146 -112q239 -66 239 -320q0 -180 -105 -276.5t-316 -96.5h-389q-190 0 -190 149zM613 754q135 0 193.5 53.5t58.5 160.5q0 72 -22.5 115.5t-74.5 64t-142 20.5h-241
q-44 0 -44 -33v-381h272zM644 162q134 0 191.5 55t57.5 169q0 112 -62.5 168t-203.5 56h-286v-414q0 -17 10 -25.5t34 -8.5h259z" />
    <glyph glyph-name="afii10020" unicode="&#x413;" horiz-adv-x="1038" 
d="M121 61v1123q0 72 45.5 110t144.5 38h607q54 0 54 -71v-30q0 -37 -15 -53.5t-39 -16.5h-530q-43 0 -43 -33v-1067q0 -61 -93 -61h-39q-92 0 -92 61z" />
    <glyph glyph-name="afii10052" unicode="&#x403;" horiz-adv-x="1038" 
d="M477 1445.5q-12 9.5 -12 25.5q0 23 23 47l123 132q35 41 83 41h66q27 0 43 -11.5t16 -29.5q0 -22 -23 -44l-111 -104q-39 -36 -67.5 -51t-61.5 -15h-46q-21 0 -33 9.5zM121 61v1123q0 72 45.5 110t144.5 38h607q54 0 54 -71v-30q0 -37 -15 -53.5t-39 -16.5h-530
q-43 0 -43 -33v-1067q0 -61 -93 -61h-39q-92 0 -92 61z" />
    <glyph glyph-name="afii10050" unicode="&#x490;" horiz-adv-x="1038" 
d="M121 61v1123q0 148 193 148h452v253q0 27 21 44t70 17h18q79 0 83 -61l14 -354q4 -70 -54 -70h-526q-45 0 -45 -33v-1067q0 -61 -92 -61h-42q-92 0 -92 61z" />
    <glyph glyph-name="afii10021" unicode="&#x414;" horiz-adv-x="1600" 
d="M81 -252l-15 353q-3 70 53 70h23q84 0 133.5 53.5t57.5 164.5l63 795q4 73 47.5 110.5t141.5 37.5h574q100 0 145.5 -38t45.5 -110v-1013h130q56 0 52 -70l-13 -353q-2 -61 -83 -61h-16q-92 0 -92 61v252h-1057v-252q0 -61 -90 -61h-18q-80 0 -82 61zM1123 171v957
q0 33 -45 33h-420q-23 0 -32.5 -8.5t-11.5 -24.5l-56 -732q-9 -136 -77 -225h642z" />
    <glyph glyph-name="afii10022" unicode="&#x415;" horiz-adv-x="1091" 
d="M121 149v1035q0 72 45.5 110t144.5 38h632q24 0 39 -16.5t15 -54.5v-30q0 -37 -15 -53.5t-39 -16.5h-551q-45 0 -45 -33v-368h501q23 0 38 -16t15 -51v-29q0 -36 -15 -52t-38 -16h-501v-390q0 -35 45 -35h551q24 0 39 -17t15 -55v-29q0 -36 -15.5 -53t-38.5 -17h-632
q-190 0 -190 149z" />
    <glyph glyph-name="afii10023" unicode="&#x401;" horiz-adv-x="1091" 
d="M335 1481q-31 30 -31 80q0 48 31 78t80 30q48 0 79 -30t31 -78q0 -50 -30.5 -80t-79.5 -30t-80 30zM644 1481q-31 30 -31 80q0 48 31 78t80 30q48 0 78.5 -30t30.5 -78q0 -50 -30 -80t-79 -30t-80 30zM121 149v1035q0 72 45.5 110t144.5 38h632q24 0 39 -16.5t15 -54.5
v-30q0 -37 -15 -53.5t-39 -16.5h-551q-45 0 -45 -33v-368h501q23 0 38 -16t15 -51v-29q0 -36 -15 -52t-38 -16h-501v-390q0 -35 45 -35h551q24 0 39 -17t15 -55v-29q0 -36 -15.5 -53t-38.5 -17h-632q-190 0 -190 149z" />
    <glyph glyph-name="afii10024" unicode="&#x416;" horiz-adv-x="1877" 
d="M91 28q0 13 13 34l449 604l-445 604q-14 22 -14 37q0 28 59 28h74q50 0 83.5 -18t50.5 -47l389 -566q12 -22 12 -43t-12 -42l-388 -557q-16 -28 -50.5 -45t-84.5 -17h-76q-60 0 -60 28zM824 61v1212q0 62 92 62h43q92 0 92 -62v-1212q0 -61 -92 -61h-43q-92 0 -92 61z
M1565 17q-34 17 -51 45l-388 557q-12 24 -12 44t12 41l390 566q16 29 49.5 47t83.5 18h71q62 0 62 -29q0 -11 -14 -36l-450 -604l452 -604q15 -22 15 -35q0 -27 -61 -27h-75q-50 0 -84 17z" />
    <glyph glyph-name="afii10025" unicode="&#x417;" horiz-adv-x="1174" 
d="M211 46l-100 36q-22 7 -31.5 19t-9.5 29q0 14 4 27l20 58q9 28 18 40t24 12q8 0 23 -5l93 -35q82 -31 160.5 -50t161.5 -19q135 0 206 60t71 168q0 213 -280 213h-124q-49 0 -49 65v30q0 64 49 64h119q131 0 199.5 59.5t68.5 160.5q0 93 -62 144.5t-186 51.5
q-143 0 -311 -65l-86 -31q-13 -5 -22 -5q-15 0 -24 11.5t-15 37.5l-18 59q-5 18 -5 29q0 16 9 26.5t29 16.5l95 37q175 62 360 62q144 0 245.5 -44t153 -124t51.5 -186q0 -109 -54.5 -189t-152.5 -121q111 -35 172 -112.5t61 -196.5q0 -117 -60 -207.5t-171.5 -141
t-260.5 -50.5q-191 0 -371 66z" />
    <glyph glyph-name="afii10026" unicode="&#x418;" horiz-adv-x="1313" 
d="M170 43.5q-49 43.5 -49 121.5v1108q0 59 79 59h28q45 0 63.5 -15.5t18.5 -43.5v-1069q0 -14 11 -14q16 0 23 14l428 973q31 85 77 120t123 35h39q83 0 133 -43t50 -121v-1109q0 -26 -19 -42.5t-62 -16.5h-28q-81 0 -81 59v1069q0 17 -12 17q-13 0 -21 -17l-430 -971
q-31 -86 -76.5 -121.5t-120.5 -35.5h-43q-82 0 -131 43.5z" />
    <glyph glyph-name="afii10027" unicode="&#x419;" horiz-adv-x="1313" 
d="M500 1450q-69 33 -103 90t-34 127q0 37 13 57.5t35 20.5q19 0 30 -13.5t27 -44.5q18 -38 37.5 -63.5t59 -44t103.5 -18.5q65 0 104.5 19t58 44t37.5 64q14 30 25 43.5t31 13.5q22 0 35.5 -20.5t13.5 -57.5q0 -70 -34 -127t-103 -90t-168 -33t-168 33zM170 43.5
q-49 43.5 -49 121.5v1108q0 59 79 59h28q45 0 63.5 -15.5t18.5 -43.5v-1069q0 -14 11 -14q16 0 23 14l428 973q31 85 77 120t123 35h39q83 0 133 -43t50 -121v-1109q0 -26 -19 -42.5t-62 -16.5h-28q-81 0 -81 59v1069q0 17 -12 17q-13 0 -21 -17l-430 -971
q-31 -86 -76.5 -121.5t-120.5 -35.5h-43q-82 0 -131 43.5z" />
    <glyph glyph-name="afii10028" unicode="&#x41a;" horiz-adv-x="1231" 
d="M121 61v1209q0 29 20.5 45.5t71.5 16.5h42q51 0 71.5 -16.5t20.5 -45.5v-1209q0 -61 -92 -61h-42q-92 0 -92 61zM905.5 17q-34.5 17 -49.5 45l-432 557q-14 22 -14 42q0 21 14 43l434 565q14 29 48 46t84 17h86q61 0 61 -28q0 -12 -14 -35l-495 -603l497 -604
q15 -22 15 -35q0 -27 -61 -27h-89q-50 0 -84.5 17z" />
    <glyph glyph-name="afii10061" unicode="&#x40c;" horiz-adv-x="1231" 
d="M513 1445.5q-12 9.5 -12 25.5q0 23 23 47l122 132q36 41 84 41h66q27 0 43 -11.5t16 -29.5q0 -22 -23 -44l-111 -104q-40 -36 -67.5 -51t-61.5 -15h-46q-21 0 -33 9.5zM121 61v1209q0 29 20.5 45.5t71.5 16.5h42q51 0 71.5 -16.5t20.5 -45.5v-1209q0 -61 -92 -61h-42
q-92 0 -92 61zM905.5 17q-34.5 17 -49.5 45l-432 557q-14 22 -14 42q0 21 14 43l434 565q14 29 48 46t84 17h86q61 0 61 -28q0 -12 -14 -35l-495 -603l497 -604q15 -22 15 -35q0 -27 -61 -27h-89q-50 0 -84.5 17z" />
    <glyph glyph-name="afii10029" unicode="&#x41b;" horiz-adv-x="1461" 
d="M81 17q-15 17 -15 55v29q0 37 15 53.5t39 16.5h27q78 0 125.5 53.5t56.5 164.5l60 795q6 74 49.5 111t141.5 37h565q195 0 195 -148v-1123q0 -61 -93 -61h-42q-93 0 -93 61v1067q0 33 -44 33h-414q-23 0 -33 -8.5t-12 -24.5l-55 -732q-9 -125 -60 -214.5t-134.5 -135.5
t-188.5 -46h-51q-24 0 -39 17z" />
    <glyph glyph-name="afii10030" unicode="&#x41c;" horiz-adv-x="1600" 
d="M103.5 16.5q-19.5 16.5 -17.5 42.5l71 1111q5 81 52 124t128 43h25q83 0 132 -35.5t66 -122.5l241 -1004l243 1009q14 77 65 115t132 38h27q81 0 126 -42.5t50 -124.5l71 -1111q2 -26 -18 -42.5t-66 -16.5h-35q-47 0 -64 15.5t-19 43.5l-69 1071q0 9 -3 12t-10 3
q-18 0 -21 -15l-256 -1001q-14 -67 -51.5 -98t-98.5 -31h-15q-61 0 -98.5 30.5t-52.5 98.5l-258 1001q-5 15 -21 15q-14 0 -14 -15l-68 -1071q-3 -28 -20 -43.5t-62 -15.5h-28q-44 0 -63.5 16.5z" />
    <glyph glyph-name="afii10031" unicode="&#x41d;" horiz-adv-x="1289" 
d="M121 61v1209q0 29 20.5 45.5t71.5 16.5h42q51 0 71.5 -16.5t20.5 -45.5v-503h596v503q0 29 21 45.5t72 16.5h41q94 0 94 -62v-1209q0 -61 -94 -61h-41q-93 0 -93 61v541h-596v-541q0 -61 -92 -61h-42q-92 0 -92 61z" />
    <glyph glyph-name="afii10032" unicode="&#x41e;" horiz-adv-x="1424" 
d="M251.5 145.5q-150.5 165.5 -150.5 501.5v39q0 334 151.5 500t458.5 166t459.5 -166.5t152.5 -499.5v-39q0 -335 -151 -501t-461 -166q-309 0 -459.5 165.5zM927.5 206.5q81.5 50.5 119 158t37.5 282.5v39q0 174 -37.5 282t-119.5 159t-216 51t-215.5 -51t-118.5 -159
t-37 -282v-39q0 -175 37 -282.5t118 -158t216 -50.5t216.5 50.5z" />
    <glyph glyph-name="afii10033" unicode="&#x41f;" horiz-adv-x="1295" 
d="M121 61v1123q0 72 45.5 110t144.5 38h671q193 0 193 -148v-1123q0 -61 -94 -61h-36q-92 0 -92 61v1067q0 33 -45 33h-521q-44 0 -44 -33v-1067q0 -61 -93 -61h-37q-92 0 -92 61z" />
    <glyph glyph-name="afii10034" unicode="&#x420;" horiz-adv-x="1190" 
d="M121 61v1123q0 148 192 148h357q229 0 332 -92.5t103 -286.5q0 -192 -108 -295.5t-325 -103.5h-325v-493q0 -61 -92 -61h-42q-92 0 -92 61zM638 719q134 0 192 55.5t58 173.5q0 78 -24 124.5t-79 68.5t-152 22h-242q-44 0 -44 -35v-409h291z" />
    <glyph glyph-name="afii10035" unicode="&#x421;" horiz-adv-x="1241" 
d="M379.5 57q-136.5 77 -207.5 226.5t-71 363.5v39q0 214 71 363t207.5 226t330.5 77q159 0 320 -56l89 -33q19 -7 27 -17t8 -25q0 -14 -4 -27l-16 -55q-6 -24 -14.5 -34.5t-22.5 -10.5q-10 0 -21 4l-79 27q-123 43 -246 43q-202 0 -306.5 -120t-104.5 -362v-39
q0 -243 104.5 -363.5t306.5 -120.5q63 0 122.5 11t123.5 33l79 27q11 4 21 4q14 0 22.5 -10.5t14.5 -34.5l16 -54q4 -13 4 -27q0 -16 -8 -25.5t-27 -15.5l-89 -34q-164 -57 -320 -57q-194 0 -330.5 77z" />
    <glyph glyph-name="afii10036" unicode="&#x422;" horiz-adv-x="1203" 
d="M488 61v1100h-373q-24 0 -39 16.5t-15 53.5v30q0 38 15 54.5t39 16.5h973q54 0 54 -71v-30q0 -37 -15 -53.5t-39 -16.5h-374v-1100q0 -61 -92 -61h-42q-92 0 -92 61z" />
    <glyph glyph-name="afii10037" unicode="&#x423;" horiz-adv-x="1209" 
d="M107.5 13q-16.5 15 -16.5 47v46q0 34 16 48.5t42 14.5h46q101 0 173.5 55t125.5 170l19 47l-410 835q-5 10 -5 19q0 16 19.5 26.5t61.5 10.5h59q52 0 77 -15t36 -41l279 -635l263 635q10 25 35.5 40.5t77.5 15.5h39q42 0 61.5 -10.5t19.5 -27.5q0 -8 -5 -18l-408 -892
q-88 -193 -200 -289.5t-279 -96.5h-85q-25 0 -41.5 15z" />
    <glyph glyph-name="afii10062" unicode="&#x40e;" horiz-adv-x="1209" 
d="M463.5 1450q-68.5 33 -102.5 90t-34 127q0 37 13 57.5t34 20.5q19 0 30 -13.5t27 -44.5q18 -38 37.5 -63.5t59 -44t103.5 -18.5t103.5 19t59 44.5t37.5 63.5q15 31 26.5 44t30.5 13q22 0 35 -20t13 -58q0 -70 -34 -127t-103 -90t-168 -33t-167.5 33zM107.5 13
q-16.5 15 -16.5 47v46q0 34 16 48.5t42 14.5h46q101 0 173.5 55t125.5 170l19 47l-410 835q-5 10 -5 19q0 16 19.5 26.5t61.5 10.5h59q52 0 77 -15t36 -41l279 -635l263 635q10 25 35.5 40.5t77.5 15.5h39q42 0 61.5 -10.5t19.5 -27.5q0 -8 -5 -18l-408 -892
q-88 -193 -200 -289.5t-279 -96.5h-85q-25 0 -41.5 15z" />
    <glyph glyph-name="afii10038" unicode="&#x424;" horiz-adv-x="1690" 
d="M730 61v90q-310 11 -469.5 139.5t-159.5 376.5q0 246 157 376t472 141v86q0 29 20.5 45.5t70.5 16.5h43q93 0 93 -62v-86q631 -22 631 -517q0 -249 -160 -377t-471 -139v-90q0 -61 -93 -61h-43q-91 0 -91 61zM730 1014q-143 -7 -231.5 -47t-129.5 -116t-41 -194
q0 -114 42 -185.5t130 -107t230 -41.5v691zM1187.5 364.5q89.5 35.5 132.5 107.5t43 185q0 118 -41.5 194.5t-130.5 116.5t-234 46v-691q141 6 230.5 41.5z" />
    <glyph glyph-name="afii10039" unicode="&#x425;" horiz-adv-x="1284" 
d="M112.5 11q-19.5 11 -19.5 30q0 10 6 22l382 604l-380 601q-6 12 -6 22q0 19 19.5 30.5t57.5 11.5h87q47 0 68.5 -15t36.5 -44l289 -487l289 487q13 29 35.5 44t70.5 15h58q39 0 59.5 -11.5t20.5 -30.5q0 -8 -7 -22l-380 -596l387 -609q6 -10 6 -21q0 -19 -20 -30.5
t-60 -11.5h-80q-48 0 -70.5 15.5t-36.5 45.5l-297 496l-292 -496q-13 -29 -36.5 -45t-71.5 -16h-56q-40 0 -59.5 11z" />
    <glyph glyph-name="afii10041" unicode="&#x427;" horiz-adv-x="1297" 
d="M951 61v449q-105 -87 -281 -87h-153q-219 0 -319 98t-100 283v474q0 24 21 39t65 15h43q48 0 70 -15t22 -39v-470q0 -73 21 -119t72.5 -70t141.5 -24h152q130 0 187.5 54t57.5 159v462q0 29 20.5 45.5t71.5 16.5h46q89 0 89 -62v-1209q0 -61 -89 -61h-46q-92 0 -92 61z
" />
    <glyph glyph-name="afii10040" unicode="&#x426;" horiz-adv-x="1418" 
d="M1182.5 -296q-21.5 17 -21.5 44v252h-850q-190 0 -190 149v1121q0 29 20.5 45.5t71.5 16.5h37q51 0 72 -16.5t21 -45.5v-1064q0 -35 44 -35h566v1099q0 29 20.5 45.5t71.5 16.5h36q52 0 73 -16.5t21 -45.5v-1099h138q56 0 53 -70l-13 -353q-1 -27 -20.5 -44t-62.5 -17
h-18q-48 0 -69.5 17z" />
    <glyph glyph-name="afii10042" unicode="&#x428;" horiz-adv-x="1797" 
d="M121 149v1121q0 29 20.5 45.5t71.5 16.5h37q51 0 72 -16.5t21 -45.5v-1064q0 -35 44 -35h400v1099q0 29 21 45.5t72 16.5h36q51 0 72 -16.5t21 -45.5v-1099h402q44 0 44 35v1064q0 29 20.5 45.5t70.5 16.5h38q51 0 71.5 -16.5t20.5 -45.5v-1121q0 -149 -190 -149h-1175
q-190 0 -190 149z" />
    <glyph glyph-name="afii10043" unicode="&#x429;" horiz-adv-x="1914" 
d="M1657 -252v252h-1346q-190 0 -190 149v1121q0 29 20.5 45.5t71.5 16.5h37q51 0 72 -16.5t21 -45.5v-1064q0 -35 44 -35h400v1099q0 29 21 45.5t72 16.5h36q51 0 72 -16.5t21 -45.5v-1099h446v1099q0 29 20.5 45.5t70.5 16.5h38q51 0 71.5 -16.5t20.5 -45.5v-1099h132
q59 0 54 -70l-15 -353q-2 -61 -82 -61h-16q-92 0 -92 61z" />
    <glyph glyph-name="afii10145" unicode="&#x40f;" horiz-adv-x="1295" 
d="M568 -252l-10 252h-247q-190 0 -190 149v1121q0 29 20.5 45.5t71.5 16.5h37q51 0 72 -16.5t21 -45.5v-1064q0 -35 44 -35h521q45 0 45 35v1064q0 29 20.5 45.5t71.5 16.5h36q52 0 73 -16.5t21 -45.5v-1121q0 -149 -193 -149h-223l-11 -252q0 -63 -82 -63h-15
q-83 0 -83 63z" />
    <glyph glyph-name="afii10049" unicode="&#x42f;" horiz-adv-x="1223" 
d="M93 34q0 11 8 25l232 422q41 73 100 112q-163 20 -243.5 106t-80.5 246q0 195 104.5 291t332.5 96h365q100 0 145 -38t45 -110v-1123q0 -61 -91 -61h-41q-93 0 -93 61v509h-166q-60 -3 -94 -31t-66 -87l-202 -393q-27 -59 -118 -59h-67q-70 0 -70 34zM876 720v408
q0 17 -10 26t-34 9h-251q-96 0 -151 -22t-79 -68.5t-24 -125.5q0 -117 57.5 -172t192.5 -55h299z" />
    <glyph glyph-name="afii10046" unicode="&#x42c;" horiz-adv-x="1190" 
d="M121 149v1121q0 29 20.5 45.5t71.5 16.5h41q51 0 71.5 -16.5t20.5 -45.5v-485h329q221 0 325.5 -94.5t104.5 -292.5q0 -195 -106.5 -296.5t-333.5 -101.5h-354q-190 0 -190 149zM632 169q96 0 151.5 23t79.5 70.5t24 127.5q0 79 -24 128.5t-78.5 74t-147.5 24.5h-291
v-412q0 -36 43 -36h243z" />
    <glyph glyph-name="afii10044" unicode="&#x42a;" horiz-adv-x="1371" 
d="M302 149v1022h-180q-23 0 -38 16.5t-15 54.5v28q0 39 15 56t38 17h295v-11h19q51 0 72 -16.5t21 -45.5v-485h328q222 0 326.5 -94.5t104.5 -292.5q0 -195 -107 -296.5t-334 -101.5h-353q-192 0 -192 149zM815 169q96 0 151.5 23t79.5 70.5t24 127.5q0 79 -24 128.5
t-79 74t-147 24.5h-291v-412q0 -36 44 -36h242z" />
    <glyph glyph-name="afii10045" unicode="&#x42b;" horiz-adv-x="1656" 
d="M121 149v1121q0 29 20.5 45.5t71.5 16.5h41q51 0 71.5 -16.5t20.5 -45.5v-485h329q221 0 325.5 -94.5t104.5 -292.5q0 -195 -106.5 -296.5t-333.5 -101.5h-354q-190 0 -190 149zM1310 61v1209q0 29 21 45.5t72 16.5h42q92 0 92 -62v-1209q0 -61 -92 -61h-42q-93 0 -93 61
zM632 169q96 0 151.5 23t79.5 70.5t24 127.5q0 79 -24 128.5t-78.5 74t-147.5 24.5h-291v-412q0 -36 43 -36h243z" />
    <glyph glyph-name="afii10058" unicode="&#x409;" horiz-adv-x="2109" 
d="M81 17q-15 17 -15 55v29q0 37 15 53.5t39 16.5h27q78 0 125.5 53.5t56.5 164.5l60 795q6 74 49.5 111t141.5 37h495q100 0 145 -38t45 -110v-400h329q220 0 325 -95t105 -293q0 -195 -106 -295.5t-333 -100.5h-351q-99 0 -144 38t-45 111v979q0 33 -45 33h-346
q-23 0 -33 -8.5t-12 -24.5l-55 -732q-9 -125 -60 -214.5t-134.5 -135.5t-188.5 -46h-51q-24 0 -39 17zM1552 168q96 0 151.5 22.5t80 70t24.5 126.5q0 120 -57.5 175t-193.5 55h-292v-414q0 -35 44 -35h243z" />
    <glyph glyph-name="afii10059" unicode="&#x40a;" horiz-adv-x="2007" 
d="M121 61v1209q0 29 20.5 45.5t71.5 16.5h42q51 0 71.5 -16.5t20.5 -45.5v-499h591v499q0 62 94 62h41q94 0 94 -62v-494h326q221 0 326.5 -93.5t105.5 -286.5q0 -195 -106.5 -295.5t-334.5 -100.5h-352q-194 0 -194 149v456h-591v-544q0 -61 -92 -61h-42q-92 0 -92 61z
M1451 168q96 0 152 22.5t80.5 70t24.5 126.5q0 80 -24.5 130t-79.5 74t-148 24h-289v-412q0 -17 10 -26t34 -9h240z" />
    <glyph glyph-name="afii10054" unicode="&#x405;" horiz-adv-x="1232" 
d="M250 40l-105 36q-18 8 -26.5 18.5t-8.5 26.5q0 13 4 26l18 59q7 23 16.5 33t25.5 10q12 0 25 -4l88 -30q71 -25 152 -40t161 -15q142 0 213 49t71 142q0 50 -22.5 81.5t-67.5 54t-132 52.5l-183 58q-115 37 -189.5 80.5t-115.5 112t-41 170.5q0 117 55.5 205.5
t162.5 137.5t256 49q173 0 331 -55l90 -34q19 -7 27.5 -17t8.5 -26q0 -11 -3 -23l-18 -61q-7 -22 -15.5 -31.5t-21.5 -9.5q-8 0 -25 5l-78 26q-143 50 -278 50q-136 0 -203 -50.5t-67 -141.5q0 -56 23.5 -90.5t67 -56.5t125.5 -49l183 -60q127 -39 202.5 -83t113.5 -109.5
t38 -165.5q0 -121 -58 -208.5t-169.5 -134.5t-269.5 -47q-186 0 -361 60z" />
    <glyph glyph-name="afii10053" unicode="&#x404;" horiz-adv-x="1238" 
d="M379.5 57q-136.5 77 -207.5 226.5t-71 363.5v39q0 214 71 363t207.5 226t330.5 77q159 0 320 -56l89 -33q19 -7 26.5 -16.5t7.5 -25.5q0 -12 -3 -27l-16 -58q-5 -25 -13.5 -36t-22.5 -11q-9 0 -22 5l-79 27q-63 21 -122.5 32t-123.5 11q-186 0 -289 -100t-119 -301h542
q23 0 38 -16.5t15 -52.5v-30q0 -36 -15 -52t-38 -16h-544q11 -215 114.5 -321.5t295.5 -106.5q62 0 120 11t126 31l79 30q16 4 20 4q15 0 23.5 -11t14.5 -36l16 -58q3 -15 3 -27q0 -16 -7.5 -25.5t-26.5 -15.5l-89 -34q-164 -57 -320 -57q-194 0 -330.5 77z" />
    <glyph glyph-name="afii10047" unicode="&#x42d;" horiz-adv-x="1238" 
d="M207 37l-88 34q-19 6 -27 15.5t-8 25.5q0 12 3 27l16 58q6 25 14.5 36t22.5 11q5 0 19 -4l81 -30q68 -20 126 -31t119 -11q190 0 294 107.5t117 320.5h-543q-53 0 -53 68v30q0 69 53 69h543q-16 204 -118.5 302.5t-292.5 98.5q-118 0 -245 -43l-81 -27q-13 -5 -21 -5
q-13 0 -21 11t-14 36l-16 58q-3 15 -3 27q0 16 8 25.5t27 16.5l88 33q163 56 319 56q296 0 453.5 -168t157.5 -490v-39q0 -215 -71 -366t-208 -230t-332 -79q-154 0 -319 57z" />
    <glyph glyph-name="afii10055" unicode="&#x406;" horiz-adv-x="468" 
d="M121 61v1209q0 29 20.5 45.5t71.5 16.5h44q50 0 70 -16.5t20 -45.5v-1209q0 -61 -90 -61h-44q-92 0 -92 61z" />
    <glyph glyph-name="afii10056" unicode="&#x407;" horiz-adv-x="468" 
d="M5 1481q-31 30 -31 80q0 48 31.5 78t80.5 30q48 0 78.5 -30t30.5 -78q0 -50 -30.5 -80t-78.5 -30q-50 0 -81 30zM313.5 1480.5q-30.5 29.5 -30.5 80.5q0 49 30.5 78.5t80.5 29.5q48 0 78.5 -30t30.5 -78q0 -50 -30 -80t-79 -30q-50 0 -80.5 29.5zM121 61v1209
q0 29 20.5 45.5t71.5 16.5h44q50 0 70 -16.5t20 -45.5v-1209q0 -61 -90 -61h-44q-92 0 -92 61z" />
    <glyph glyph-name="afii10057" unicode="&#x408;" horiz-adv-x="693" 
d="M101.5 7.5q-40.5 27.5 -40.5 77.5v15q0 27 17.5 39t52.5 12q105 0 159.5 50t54.5 164v905q0 29 20.5 45.5t70.5 16.5h46q91 0 91 -62v-913q0 -124 -44.5 -208.5t-124.5 -126.5t-186 -42q-76 0 -116.5 27.5z" />
    <glyph glyph-name="afii10060" unicode="&#x40b;" horiz-adv-x="1534" 
d="M1229 6.5q-21 15.5 -21 38.5v479q0 73 -22.5 119.5t-74.5 70t-141 23.5q-139 0 -197.5 -52t-58.5 -161v-463q0 -61 -92 -61h-42q-92 0 -92 61v1100h-373q-24 0 -39 16.5t-15 53.5v30q0 38 15 54.5t39 16.5h973q54 0 54 -71v-30q0 -37 -15 -53.5t-39 -16.5h-374v-339
q106 88 288 88q219 0 319 -98.5t100 -283.5v-483q0 -24 -20 -39t-65 -15h-42q-44 0 -65 15.5z" />
    <glyph glyph-name="afii10048" unicode="&#x42e;" horiz-adv-x="1871" 
d="M719 602h-372v-541q0 -61 -92 -61h-42q-92 0 -92 61v1209q0 29 20.5 45.5t71.5 16.5h42q51 0 71.5 -16.5t20.5 -45.5v-503h373q29 585 523 585q269 0 398 -168.5t129 -497.5v-39q0 -328 -128 -497.5t-399 -169.5q-508 0 -524 622zM1421 205q66 51 95.5 158t29.5 284v39
q0 177 -30 284t-96 157.5t-177 50.5q-110 0 -176 -50.5t-96 -157.5t-30 -284v-39q0 -176 30 -283.5t96 -158.5t176 -51q112 0 178 51z" />
    <glyph glyph-name="afii10051" unicode="&#x402;" horiz-adv-x="1564" 
d="M848.5 6.5q-14.5 15.5 -14.5 50.5v28q0 36 14.5 51.5t37.5 15.5h113q122 0 188 78.5t66 222.5q0 127 -62.5 191t-202.5 64q-145 0 -209.5 -52.5t-64.5 -160.5v-434q0 -61 -92 -61h-42q-92 0 -92 61v1100h-373q-24 0 -39 16.5t-15 53.5v30q0 38 15 54.5t39 16.5h973
q54 0 54 -71v-30q0 -37 -15 -53.5t-39 -16.5h-374v-377q55 47 134.5 71.5t181.5 24.5q231 0 340.5 -110t109.5 -310q0 -142 -53.5 -248t-157.5 -163.5t-253 -57.5h-130q-23 0 -37.5 15.5z" />
    <glyph glyph-name="afii10146" unicode="&#x462;" horiz-adv-x="1318" 
d="M250 149v857h-160q-22 0 -36.5 16t-14.5 51v25q0 35 14.5 50.5t36.5 15.5h160v106q0 29 20.5 45.5t71.5 16.5h41q51 0 71.5 -16.5t20.5 -45.5v-106h295q22 0 36 -15.5t14 -50.5v-25q0 -67 -50 -67h-295v-221h329q221 0 325.5 -94.5t104.5 -292.5q0 -195 -106.5 -296.5
t-333.5 -101.5h-354q-190 0 -190 149zM761 169q96 0 151.5 23t79.5 70.5t24 127.5q0 79 -24 128.5t-78.5 74t-147.5 24.5h-291v-412q0 -36 44 -36h242z" />
    <glyph glyph-name="afii10147" unicode="&#x472;" horiz-adv-x="1424" 
d="M251.5 145.5q-150.5 165.5 -150.5 501.5v39q0 334 151.5 500t458.5 166t459.5 -166.5t152.5 -499.5v-39q0 -335 -151 -501t-461 -166q-309 0 -459.5 165.5zM1082 783q-10 139 -51.5 225.5t-119.5 128t-200 41.5q-120 0 -197.5 -40.5t-119 -126t-52.5 -221.5q74 37 150 37
q68 0 116 -14.5t107 -42.5q55 -26 96 -38.5t96 -12.5q102 0 175 64zM922.5 203q80.5 47 119.5 147t42 264q-78 -63 -185 -63q-69 0 -116 14.5t-107 42.5q-52 26 -93.5 39t-98.5 13q-72 0 -144 -41q3 -167 42 -268t119 -148t210 -47q131 0 211.5 47z" />
    <glyph glyph-name="afii10148" unicode="&#x474;" horiz-adv-x="1447" 
d="M533 36.5q-44 36.5 -67 113.5l-377 1118q-3 9 -3 19q0 45 79 45h57q92 0 110 -64l321 -1057q2 -15 17 -15q7 0 11 3t6 12l277 973q19 73 72 110.5t151 37.5h140q53 0 53 -71v-30q0 -70 -53 -70h-108q-23 0 -32.5 -9.5t-15.5 -28.5l-306 -972q-24 -80 -67 -115.5
t-124 -35.5h-24q-73 0 -117 36.5z" />
    <glyph glyph-name="uni0492" unicode="&#x492;" horiz-adv-x="1152" 
d="M234 61v538h-144q-22 0 -36.5 15.5t-14.5 50.5v27q0 35 14.5 50t36.5 15h144v427q0 148 191 148h606q56 0 56 -71v-30q0 -37 -15.5 -53.5t-40.5 -16.5h-528q-24 0 -33.5 -8.5t-9.5 -24.5v-371h286q50 0 50 -65v-27q0 -35 -14 -50.5t-36 -15.5h-286v-538q0 -61 -94 -61
h-40q-92 0 -92 61z" />
    <glyph glyph-name="uni0496" unicode="&#x496;" horiz-adv-x="2014" 
d="M91 28q0 13 13 34l449 604l-445 604q-14 22 -14 37q0 28 59 28h74q50 0 83.5 -18t50.5 -47l389 -566q12 -22 12 -43t-12 -42l-388 -557q-16 -28 -50.5 -45t-84.5 -17h-76q-60 0 -60 28zM824 61v1212q0 62 92 62h43q92 0 92 -62v-1212q0 -61 -92 -61h-43q-92 0 -92 61z
M1779 -296q-22 17 -22 44v243h-93l-2 9h-13q-50 0 -84 17t-51 45l-388 557q-12 24 -12 44t12 41l390 566q16 29 49.5 47t83.5 18h71q62 0 62 -29q0 -11 -14 -36l-450 -604l379 -502h212q57 0 52 -70l-13 -346q0 -27 -19 -44t-62 -17h-17q-49 0 -71 17z" />
    <glyph glyph-name="uni049A" unicode="&#x49a;" horiz-adv-x="1362" 
d="M121 61v1209q0 29 20.5 45.5t71.5 16.5h42q51 0 71.5 -16.5t20.5 -45.5v-1209q0 -61 -92 -61h-42q-92 0 -92 61zM1106 -252v243h-94l-2 9h-20q-50 0 -84.5 17t-49.5 45l-432 557q-14 22 -14 42q0 21 14 43l434 565q14 29 48 46t84 17h86q61 0 61 -28q0 -12 -14 -35
l-495 -603l417 -502h211q58 0 54 -70l-15 -346q0 -27 -18.5 -44t-61.5 -17h-18q-91 0 -91 61z" />
    <glyph glyph-name="uni04A2" unicode="&#x4a2;" horiz-adv-x="1424" 
d="M1188 -296q-21 17 -21 44v243h-92l-3 9h-36q-93 0 -93 61v541h-596v-541q0 -61 -92 -61h-42q-92 0 -92 61v1209q0 29 20.5 45.5t71.5 16.5h42q51 0 71.5 -16.5t20.5 -45.5v-503h596v503q0 29 21 45.5t72 16.5h41q94 0 94 -62v-1106h148q58 0 54 -70l-16 -346
q0 -27 -19 -44t-62 -17h-18q-49 0 -70 17z" />
    <glyph glyph-name="uni04AE" unicode="&#x4ae;" horiz-adv-x="1291" 
d="M536 61v494l-446 713q-7 14 -7 23q0 18 20 29.5t58 11.5h79q48 0 70 -15t36 -44l314 -536l310 536q13 29 35.5 44t70.5 15h54q38 0 58 -11.5t20 -29.5q0 -9 -7 -23l-437 -706v-501q0 -61 -93 -61h-43q-92 0 -92 61z" />
    <glyph glyph-name="uni04B0" unicode="&#x4b0;" horiz-adv-x="1291" 
d="M536 61v370h-244q-23 0 -37 15.5t-14 50.5v31q0 35 14 50.5t37 15.5h220l-422 674q-7 14 -7 23q0 18 20 29.5t58 11.5h79q48 0 70 -15t36 -44l314 -536l310 536q13 29 35.5 44t70.5 15h54q38 0 58 -11.5t20 -29.5q0 -9 -7 -23l-418 -674h234q22 0 36 -16t14 -50v-31
q0 -34 -14 -50t-36 -16h-253v-370q0 -61 -93 -61h-43q-92 0 -92 61z" />
    <glyph glyph-name="uni04B2" unicode="&#x4b2;" horiz-adv-x="1415" 
d="M1180.5 -296q-21.5 17 -21.5 44v252h-127q-48 0 -70.5 15.5t-36.5 45.5l-297 496l-292 -496q-13 -29 -36.5 -45t-71.5 -16h-56q-40 0 -59.5 11t-19.5 30q0 10 6 22l382 604l-380 601q-6 12 -6 22q0 19 19.5 30.5t57.5 11.5h87q47 0 68.5 -15t36.5 -44l289 -487l289 487
q13 29 35.5 44t70.5 15h58q39 0 59.5 -11.5t20.5 -30.5q0 -8 -7 -22l-380 -596l319 -499h193q56 0 53 -69l-15 -356q0 -27 -19 -44t-63 -17h-16q-49 0 -70.5 17z" />
    <glyph glyph-name="uni04B6" unicode="&#x4b6;" horiz-adv-x="1416" 
d="M1160 -252v252h-117q-92 0 -92 61v449q-105 -87 -281 -87h-153q-219 0 -319 98t-100 283v474q0 24 21 39t65 15h43q48 0 70 -15t22 -39v-470q0 -73 21 -119t72.5 -70t141.5 -24h152q130 0 187.5 54t57.5 159v462q0 29 20.5 45.5t71.5 16.5h46q89 0 89 -62v-1097h132
q58 0 54 -69l-14 -356q0 -27 -20 -44t-64 -17h-14q-92 0 -92 61z" />
    <glyph glyph-name="uni04BA" unicode="&#x4ba;" horiz-adv-x="1297" 
d="M121 61v1209q0 29 20 45.5t68 16.5h47q50 0 70.5 -16.5t20.5 -45.5v-448q108 88 280 88h154q219 0 318.5 -98.5t99.5 -283.5v-472q0 -56 -85 -56h-43q-92 0 -92 56v468q0 73 -21 119t-72.5 70t-142.5 24h-151q-131 0 -188 -53.5t-57 -159.5v-463q0 -61 -91 -61h-47
q-88 0 -88 61z" />
    <glyph glyph-name="uni04C0" unicode="&#x4c0;" horiz-adv-x="468" 
d="M121 61v1209q0 29 20.5 45.5t71.5 16.5h44q50 0 70 -16.5t20 -45.5v-1209q0 -61 -90 -61h-44q-92 0 -92 61z" />
    <glyph glyph-name="uni04D8" unicode="&#x4d8;" horiz-adv-x="1370" 
d="M353.5 29q-124.5 49 -189.5 142.5t-65 224.5q0 147 65.5 232t193 121.5t332.5 42.5l334 10q-25 183 -132.5 274.5t-292.5 91.5q-134 0 -260 -45l-80 -27q-13 -5 -21 -5q-13 0 -21.5 11.5t-15.5 36.5l-16 55q-3 15 -3 25q0 17 8.5 27t27.5 17l89 33q158 56 334 56
q200 0 340.5 -77t213.5 -226.5t73 -362.5v-39q0 -323 -158.5 -492.5t-457.5 -174.5q-174 0 -298.5 49zM937 280.5q94 120.5 95 369.5l-309 -8q-202 -5 -305.5 -58t-103.5 -182q0 -126 84.5 -184t246.5 -58q198 0 292 120.5z" />
    <glyph glyph-name="uni04E2" unicode="&#x4e2;" horiz-adv-x="1313" 
d="M384 1522.5q-13 14.5 -13 47.5v24q0 61 47 61h499q48 0 48 -61v-25q0 -32 -13 -46.5t-35 -14.5h-499q-21 0 -34 14.5zM170 43.5q-49 43.5 -49 121.5v1108q0 59 79 59h28q45 0 63.5 -15.5t18.5 -43.5v-1069q0 -14 11 -14q16 0 23 14l428 973q31 85 77 120t123 35h39
q83 0 133 -43t50 -121v-1109q0 -26 -19 -42.5t-62 -16.5h-28q-81 0 -81 59v1069q0 17 -12 17q-13 0 -21 -17l-430 -971q-31 -86 -76.5 -121.5t-120.5 -35.5h-43q-82 0 -131 43.5z" />
    <glyph glyph-name="uni04E8" unicode="&#x4e8;" horiz-adv-x="1424" 
d="M251.5 145.5q-150.5 165.5 -150.5 501.5v39q0 334 151.5 500t458.5 166t459.5 -166.5t152.5 -499.5v-39q0 -335 -151 -501t-461 -166q-309 0 -459.5 165.5zM1082 758q-7 148 -47 240t-119 136t-205 44q-125 0 -204 -44t-119 -136t-47 -240h741zM919 201q80 45 119 140.5
t44 249.5h-741q5 -154 44.5 -249.5t119 -140.5t206.5 -45q128 0 208 45z" />
    <glyph glyph-name="uni04EE" unicode="&#x4ee;" horiz-adv-x="1209" 
d="M347.5 1522.5q-13.5 14.5 -13.5 47.5v24q0 33 13.5 47t33.5 14h500q47 0 47 -61v-25q0 -32 -13 -46.5t-34 -14.5h-500q-20 0 -33.5 14.5zM107.5 13q-16.5 15 -16.5 47v46q0 34 16 48.5t42 14.5h46q101 0 173.5 55t125.5 170l19 47l-410 835q-5 10 -5 19q0 16 19.5 26.5
t61.5 10.5h59q52 0 77 -15t36 -41l279 -635l263 635q10 25 35.5 40.5t77.5 15.5h39q42 0 61.5 -10.5t19.5 -27.5q0 -8 -5 -18l-408 -892q-88 -193 -200 -289.5t-279 -96.5h-85q-25 0 -41.5 15z" />
    <glyph glyph-name="afii10065" unicode="&#x430;" horiz-adv-x="985" 
d="M182 49.5q-98 69.5 -98 205.5v18q0 135 97 201t300 76l210 12v33q0 90 -47 133t-146 43q-60 0 -128.5 -14t-125.5 -35l-53 -21q-12 -3 -21 -3q-14 0 -22.5 9t-13.5 29l-13 57q-3 12 -3 21q0 13 6.5 21.5t22.5 15.5l64 25q140 59 304 59q195 0 284.5 -80.5t89.5 -236.5
v-341q0 -151 -96.5 -224t-304.5 -73t-306 69.5zM644 152q47 40 47 125v157l-175 -10q-121 -7 -175.5 -40.5t-54.5 -107.5v-18q0 -75 45 -110.5t157 -35.5q109 0 156 40z" />
    <glyph glyph-name="afii10066" unicode="&#x431;" horiz-adv-x="1069" 
d="M203.5 91q-104.5 111 -104.5 344v53q0 440 165 646.5t452 206.5h104q51 0 83 13q12 3 21 3q34 0 34 -40v-63q0 -43 -36 -57q-57 -18 -104 -16l-80 1q-307 5 -402 -315q80 63 227 63q204 0 305.5 -113t101.5 -342v-40q0 -234 -107 -344.5t-332 -110.5q-223 0 -327.5 111z
M668.5 162q50.5 29 73.5 94.5t23 178.5v40q0 112 -23 177.5t-73.5 95t-136.5 29.5t-136.5 -30t-73 -95.5t-22.5 -177.5v-39q0 -112 22.5 -177.5t73 -95t136.5 -29.5t136.5 29z" />
    <glyph glyph-name="afii10067" unicode="&#x432;" horiz-adv-x="1059" 
d="M155 36q-44 36 -44 106v632q0 142 182 142h339q156 0 231.5 -62t75.5 -178q0 -71 -33 -123t-101 -80q85 -23 125.5 -75t40.5 -136q0 -123 -90.5 -192.5t-261.5 -69.5h-326q-94 0 -138 36zM592 539q77 0 110.5 27.5t33.5 90.5q0 44 -13.5 69t-45 36.5t-88.5 11.5h-232
q-22 0 -32 -8t-10 -25v-202h277zM584 142q65 0 102.5 14t53 42.5t15.5 76.5q0 64 -32 94.5t-109 30.5h-299v-225q0 -17 10 -25t32 -8h227z" />
    <glyph glyph-name="afii10068" unicode="&#x433;" horiz-adv-x="783" 
d="M111 56v718q0 142 182 142h377q21 0 34 -14.5t13 -46.5v-25q0 -32 -13 -47t-34 -15h-313q-22 0 -32 -7t-10 -24v-681q0 -26 -18.5 -41t-63.5 -15h-41q-81 0 -81 56z" />
    <glyph glyph-name="afii10100" unicode="&#x453;" horiz-adv-x="783" 
d="M345 1087.5q-12 9.5 -12 25.5q0 23 23 47l123 132q18 20 38 30t45 10h66q27 0 43 -11.5t16 -29.5q0 -21 -23 -43l-111 -104q-40 -36 -67.5 -51t-61.5 -15h-46q-21 0 -33 9.5zM111 56v718q0 142 182 142h377q21 0 34 -14.5t13 -46.5v-25q0 -32 -13 -47t-34 -15h-313
q-22 0 -32 -7t-10 -24v-681q0 -26 -18.5 -41t-63.5 -15h-41q-81 0 -81 56z" />
    <glyph glyph-name="afii10098" unicode="&#x491;" horiz-adv-x="801" 
d="M111 56v718q0 142 182 142h260v249q0 58 85 58h15q40 0 58 -16t19 -42l13 -332q2 -33 -12 -49t-38 -16h-336q-22 0 -32 -7t-10 -24v-681q0 -26 -18.5 -41t-63.5 -15h-41q-81 0 -81 56z" />
    <glyph glyph-name="afii10069" unicode="&#x434;" horiz-adv-x="1385" 
d="M88.5 -292.5q-17.5 14.5 -18.5 40.5l-14 335q-3 63 50 63h58q84 0 126.5 47t50.5 150l34 431q6 69 48 105.5t135 36.5h391q181 0 181 -142v-628h141q53 0 50 -63l-15 -335q1 -26 -16.5 -40.5t-59.5 -14.5h-13q-48 0 -67 14.5t-19 40.5v252h-884v-252q0 -26 -19.5 -40.5
t-66.5 -14.5h-14q-41 0 -58.5 14.5zM920 146v591q0 16 -10 23.5t-32 7.5h-253q-24 0 -33 -7t-10 -24l-34 -382q-12 -133 -73 -209h445z" />
    <glyph glyph-name="afii10070" unicode="&#x435;" horiz-adv-x="995" 
d="M208.5 94q-124.5 114 -124.5 347v35q0 148 53.5 251t152.5 155.5t235 52.5q123 0 210 -35t132 -100t45 -154q0 -99 -45 -156.5t-133 -83.5t-229 -30l-218 -7q19 -115 98.5 -169.5t197.5 -54.5q47 0 98.5 9t94.5 23l49 19q11 3 17 3q11 0 18.5 -8t12.5 -27l18 -58
q3 -12 3 -20q0 -26 -28 -36l-59 -25q-53 -22 -121 -33.5t-141 -11.5q-212 0 -336.5 114zM461 499q97 2 150.5 10.5t86 36.5t32.5 87q0 69 -48.5 109.5t-153.5 40.5q-123 0 -185.5 -69t-63.5 -221z" />
    <glyph glyph-name="afii10071" unicode="&#x451;" horiz-adv-x="995" 
d="M293 1123q-31 30 -31 80q0 48 31 78t80 30q48 0 79 -30t31 -78q0 -50 -30.5 -80t-79.5 -30t-80 30zM601.5 1122.5q-30.5 29.5 -30.5 80.5q0 49 30.5 78.5t80.5 29.5q48 0 79 -30t31 -78q0 -50 -30.5 -80t-79.5 -30q-50 0 -80.5 29.5zM208.5 94q-124.5 114 -124.5 347v35
q0 148 53.5 251t152.5 155.5t235 52.5q123 0 210 -35t132 -100t45 -154q0 -99 -45 -156.5t-133 -83.5t-229 -30l-218 -7q19 -115 98.5 -169.5t197.5 -54.5q47 0 98.5 9t94.5 23l49 19q11 3 17 3q11 0 18.5 -8t12.5 -27l18 -58q3 -12 3 -20q0 -26 -28 -36l-59 -25
q-53 -22 -121 -33.5t-141 -11.5q-212 0 -336.5 114zM461 499q97 2 150.5 10.5t86 36.5t32.5 87q0 69 -48.5 109.5t-153.5 40.5q-123 0 -185.5 -69t-63.5 -221z" />
    <glyph glyph-name="afii10072" unicode="&#x436;" horiz-adv-x="1559" 
d="M64 26q0 11 14 30l352 408l-352 396q-14 18 -14 30q0 26 56 26h76q85 0 122 -56l294 -364q13 -17 13 -36t-13 -39l-291 -365q-16 -25 -46 -40.5t-76 -15.5h-79q-56 0 -56 26zM676 56v805q0 24 19 39.5t62 15.5h44q43 0 62 -15.5t19 -39.5v-805q0 -56 -81 -56h-44
q-81 0 -81 56zM1238 56l-291 365q-13 20 -13 39t13 36l294 364q37 56 121 56h78q55 0 55 -26q0 -14 -14 -30l-353 -396l353 -408q14 -17 14 -31q0 -25 -55 -25h-82q-84 0 -120 56z" />
    <glyph glyph-name="afii10073" unicode="&#x437;" horiz-adv-x="958" 
d="M178 39l-65 26q-29 10 -29 36q0 10 3 20l14 55q7 19 15 27.5t20 8.5q9 0 20 -4l54 -21q148 -54 258 -54q102 0 142.5 33t40.5 105q0 64 -31 96t-103 32h-226q-45 0 -45 57v28q0 31 12.5 45.5t32.5 14.5h202q74 0 108 29.5t34 91.5q0 43 -15 69t-51 38t-100 12
q-61 0 -127.5 -15.5t-127.5 -39.5l-54 -20q-11 -4 -20 -4q-12 0 -20 8.5t-15 27.5l-13 53q-3 12 -3 21q0 13 6.5 21.5t22.5 14.5l64 25q153 59 302 59q177 0 264.5 -65.5t87.5 -186.5q0 -72 -33 -127t-100 -83q83 -24 122 -78t39 -139q0 -128 -97 -202t-283 -74
q-154 0 -306 59z" />
    <glyph glyph-name="afii10074" unicode="&#x438;" horiz-adv-x="1146" 
d="M156.5 43q-45.5 43 -45.5 122v691q0 26 18.5 43t61.5 17h31q81 0 81 -60v-652q0 -14 13 -14q15 0 21 14l282 556q39 86 84 121t119 35h37q82 0 129 -43t47 -122v-692q0 -59 -80 -59h-31q-81 0 -81 59v653q0 16 -14 16q-13 0 -20 -16l-282 -555q-39 -87 -84 -122t-119 -35
h-40q-82 0 -127.5 43z" />
    <glyph glyph-name="afii10075" unicode="&#x439;" horiz-adv-x="1146" 
d="M401.5 1092q-68.5 33 -103 89.5t-34.5 127.5q0 38 13 58.5t36 20.5q20 0 31 -13.5t25 -43.5q18 -39 37 -64.5t58.5 -44.5t104.5 -19q64 0 103.5 19t58 44t37.5 64q16 31 27 44.5t30 13.5q22 0 35 -21t13 -58q0 -71 -34 -127.5t-102 -89.5t-168 -33q-99 0 -167.5 33z
M156.5 43q-45.5 43 -45.5 122v691q0 26 18.5 43t61.5 17h31q81 0 81 -60v-652q0 -14 13 -14q15 0 21 14l282 556q39 86 84 121t119 35h37q82 0 129 -43t47 -122v-692q0 -59 -80 -59h-31q-81 0 -81 59v653q0 16 -14 16q-13 0 -20 -16l-282 -555q-39 -87 -84 -122t-119 -35
h-40q-82 0 -127.5 43z" />
    <glyph glyph-name="afii10076" unicode="&#x43a;" horiz-adv-x="992" 
d="M111 56v805q0 55 81 55h41q82 0 82 -55v-805q0 -26 -18.5 -41t-63.5 -15h-41q-81 0 -81 56zM670 56l-289 365q-14 19 -14 39q0 19 14 36l292 364q39 56 122 56h76q57 0 57 -27q0 -11 -14 -29l-352 -396l352 -408q14 -19 14 -30q0 -26 -57 -26h-80q-83 0 -121 56z" />
    <glyph glyph-name="afii10109" unicode="&#x45c;" horiz-adv-x="992" 
d="M404.5 1087.5q-12.5 9.5 -12.5 25.5q0 22 24 47l123 132q18 20 38 30t45 10h66q27 0 43 -11t16 -29q0 -22 -23 -44l-111 -104q-40 -37 -68 -51.5t-61 -14.5h-47q-20 0 -32.5 9.5zM111 56v805q0 55 81 55h41q82 0 82 -55v-805q0 -26 -18.5 -41t-63.5 -15h-41q-81 0 -81 56
zM670 56l-289 365q-14 19 -14 39q0 19 14 36l292 364q39 56 122 56h76q57 0 57 -27q0 -11 -14 -29l-352 -396l352 -408q14 -19 14 -30q0 -26 -57 -26h-80q-83 0 -121 56z" />
    <glyph glyph-name="afii10077" unicode="&#x43b;" horiz-adv-x="1198" 
d="M79.5 15q-13.5 15 -13.5 47v30q0 31 14 45.5t35 14.5h15q71 0 113.5 45.5t51.5 150.5l34 426q6 69 48 105.5t135 36.5h392q183 0 183 -142v-718q0 -56 -82 -56h-41q-82 0 -82 56v681q0 16 -10 23.5t-32 7.5h-268q-22 0 -30.5 -7t-10.5 -24l-36 -398q-8 -105 -49.5 -181.5
t-110.5 -117t-159 -40.5h-61q-22 0 -35.5 15z" />
    <glyph glyph-name="afii10078" unicode="&#x43c;" horiz-adv-x="1307" 
d="M92.5 15.5q-17.5 15.5 -15.5 39.5l47 706q3 74 48 114.5t121 40.5h28q78 0 124.5 -33t61.5 -115l146 -606l148 611q15 73 63 108t125 35h27q78 0 120.5 -39.5t46.5 -115.5l48 -706q1 -24 -17.5 -39.5t-61.5 -15.5h-40q-75 0 -75 55l-47 669q0 14 -11 14q-17 0 -21 -14
l-162 -604q-15 -64 -49 -92t-91 -28h-15q-58 0 -92.5 28.5t-48.5 91.5l-162 604q-4 14 -19 14q-12 0 -12 -14l-47 -669q-2 -26 -18 -40.5t-59 -14.5h-32q-41 0 -58.5 15.5z" />
    <glyph glyph-name="afii10079" unicode="&#x43d;" horiz-adv-x="1072" 
d="M111 56v805q0 55 81 55h41q82 0 82 -55v-323h441v323q0 55 80 55h43q43 0 62.5 -15.5t19.5 -39.5v-805q0 -56 -82 -56h-43q-80 0 -80 56v336h-441v-336q0 -26 -18.5 -41t-63.5 -15h-41q-81 0 -81 56z" />
    <glyph glyph-name="afii10080" unicode="&#x43e;" horiz-adv-x="1059" 
d="M193 92.5q-109 112.5 -109 345.5v40q0 232 109 344.5t334 112.5q227 0 338 -111.5t111 -346.5v-39q0 -235 -111 -346.5t-338 -111.5q-225 0 -334 112.5zM668 161.5q52 29.5 76.5 96t24.5 180.5v40q0 113 -24.5 179.5t-76.5 95.5t-138 29q-88 0 -139.5 -29t-75 -95
t-23.5 -180v-39q0 -114 23.5 -181t75.5 -96.5t139 -29.5q86 0 138 29.5z" />
    <glyph glyph-name="afii10081" unicode="&#x43f;" horiz-adv-x="1072" 
d="M111 56v718q0 142 182 142h485q183 0 183 -142v-718q0 -56 -83 -56h-42q-80 0 -80 56v681q0 17 -10 24t-33 7h-356q-22 0 -32 -7t-10 -24v-681q0 -26 -18.5 -41t-63.5 -15h-41q-81 0 -81 56z" />
    <glyph glyph-name="afii10082" unicode="&#x440;" horiz-adv-x="1060" 
d="M103 -299v777q0 234 105 345.5t328 111.5q225 0 332.5 -111t107.5 -347v-39q0 -232 -101 -345t-307 -113q-170 0 -261 94v-373q0 -53 -81 -53h-41q-82 0 -82 53zM676 161.5q51 29.5 74 96t23 180.5v40q0 114 -23 180t-73.5 95t-137.5 29t-137 -29t-72.5 -95t-22.5 -180
v-39q0 -114 23 -181t73.5 -96.5t135.5 -29.5q86 0 137 29.5z" />
    <glyph glyph-name="afii10083" unicode="&#x441;" horiz-adv-x="929" 
d="M197 88.5q-113 108.5 -113 351.5v36q0 243 113 351t320 108q140 0 250 -46l55 -22q30 -10 30 -38q0 -11 -3 -23l-16 -55q-8 -40 -32 -40q-5 0 -17 4l-50 19q-87 29 -180 29q-128 0 -193.5 -66t-65.5 -221v-36q0 -156 65.5 -221.5t193.5 -65.5q103 0 180 30l50 18
q9 3 16 3q13 0 20.5 -9.5t12.5 -29.5l16 -56q3 -12 3 -22q0 -27 -30 -38l-55 -22q-113 -47 -250 -47q-207 0 -320 108.5z" />
    <glyph glyph-name="afii10084" unicode="&#x442;" horiz-adv-x="891" 
d="M362.5 15q-18.5 15 -18.5 41v712h-260q-20 0 -34 15t-14 48v24q0 31 14 46t34 15h723q20 0 33.5 -15t13.5 -46v-25q0 -32 -13.5 -47t-33.5 -15h-258v-712q0 -56 -82 -56h-40q-46 0 -64.5 15z" />
    <glyph glyph-name="afii10085" unicode="&#x443;" horiz-adv-x="973" 
d="M61 -293v26q0 33 12.5 47.5t32.5 14.5h41q85 0 146 52.5t101 156.5l11 36l-330 821q-4 12 -4 17q0 38 70 38h57q79 0 98 -55l218 -595l203 595q7 24 30.5 39.5t67.5 15.5h35q36 0 52.5 -10t16.5 -27q0 -10 -4 -18l-328 -867q-65 -172 -163.5 -259t-242.5 -87h-75
q-45 0 -45 59z" />
    <glyph glyph-name="afii10110" unicode="&#x45e;" horiz-adv-x="973" 
d="M343.5 1092q-68.5 33 -102.5 89.5t-34 127.5q0 37 13.5 58t35.5 21q20 0 31 -13.5t25 -43.5q18 -39 37 -64.5t58.5 -44.5t104.5 -19q64 0 103 18.5t58.5 44t37.5 63.5q15 31 27 45t32 14q21 0 33.5 -21t12.5 -58q0 -71 -33.5 -127.5t-102 -89.5t-168.5 -33t-168.5 33z
M61 -293v26q0 33 12.5 47.5t32.5 14.5h41q85 0 146 52.5t101 156.5l11 36l-330 821q-4 12 -4 17q0 38 70 38h57q79 0 98 -55l218 -595l203 595q7 24 30.5 39.5t67.5 15.5h35q36 0 52.5 -10t16.5 -27q0 -10 -4 -18l-328 -867q-65 -172 -163.5 -259t-242.5 -87h-75
q-45 0 -45 59z" />
    <glyph glyph-name="afii10086" unicode="&#x444;" horiz-adv-x="1323" 
d="M560 -299v299h-27q-152 0 -251 43.5t-148.5 138t-49.5 247.5v41q0 230 111 338t338 108h27v362q0 54 82 54h41q43 0 62.5 -15t19.5 -39v-362h25q228 0 338.5 -107.5t110.5 -338.5v-41q0 -154 -49 -248t-147.5 -137.5t-252.5 -43.5h-25v-299q0 -53 -82 -53h-41
q-82 0 -82 53zM560 142v631h-30q-88 0 -140 -29t-76.5 -95t-24.5 -179v-39q0 -113 24 -175.5t76 -88t141 -25.5h30zM793 142q89 0 141 25.5t76 88t24 175.5v39q0 113 -24.5 179t-76.5 95t-140 29h-28v-631h28z" />
    <glyph glyph-name="afii10087" unicode="&#x445;" horiz-adv-x="991" 
d="M89.5 10.5q-18.5 10.5 -18.5 27.5q0 10 6 20l270 402l-267 398q-6 11 -6 20q0 17 18.5 27.5t53.5 10.5h74q43 0 64 -14.5t34 -40.5l183 -293l183 293q14 26 35 40.5t64 14.5h54q35 0 54 -11t19 -27q0 -8 -7 -20l-265 -394l272 -406q7 -12 7 -21q0 -16 -19 -26.5
t-54 -10.5h-72q-44 0 -64.5 14.5t-32.5 41.5l-188 296l-192 -296q-11 -26 -32 -41t-65 -15h-54q-36 0 -54.5 10.5z" />
    <glyph glyph-name="afii10089" unicode="&#x447;" horiz-adv-x="1034" 
d="M737 7.5q-18 14.5 -18 40.5v264q-89 -71 -243 -71q-194 0 -284.5 92t-90.5 274v254q0 24 19.5 39.5t62.5 15.5h43q43 0 62 -15.5t19 -39.5v-251q0 -75 19 -120.5t62.5 -67.5t117.5 -22q112 0 162.5 50t50.5 160v251q0 55 81 55h42q80 0 80 -55v-813q0 -26 -18 -40.5
t-63 -14.5h-41q-45 0 -63 14.5z" />
    <glyph glyph-name="afii10088" unicode="&#x446;" horiz-adv-x="1196" 
d="M981 -292.5q-18 14.5 -18 40.5v252h-670q-95 0 -138.5 34.5t-43.5 102.5v724q0 55 81 55h41q82 0 82 -55v-683q0 -32 42 -32h399v715q0 55 80 55h42q83 0 83 -55v-715h137q52 0 49 -63l-14 -335q0 -26 -17 -40.5t-59 -14.5h-14q-44 0 -62 14.5z" />
    <glyph glyph-name="afii10090" unicode="&#x448;" horiz-adv-x="1634" 
d="M155 36q-44 36 -44 106v719q0 55 81 55h41q82 0 82 -55v-683q0 -32 42 -32h360v715q0 55 82 55h42q44 0 63 -15.5t19 -39.5v-715h353q42 0 42 32v683q0 55 82 55h42q80 0 80 -55v-719q0 -70 -43 -106t-138 -36h-1048q-94 0 -138 36z" />
    <glyph glyph-name="afii10091" unicode="&#x449;" horiz-adv-x="1750" 
d="M1531 -292.5q-19 14.5 -19 40.5v252h-1219q-94 0 -138 36t-44 106v719q0 55 81 55h41q82 0 82 -55v-683q0 -32 42 -32h355v715q0 55 81 55h41q82 0 82 -55v-715h396v715q0 55 82 55h41q44 0 63 -15.5t19 -39.5v-715h136q22 0 35.5 -15t12.5 -48l-13 -335q-2 -27 -19 -41
t-59 -14h-13q-47 0 -66 14.5z" />
    <glyph glyph-name="afii10193" unicode="&#x45f;" horiz-adv-x="1072" 
d="M457 -251l-9 251h-155q-94 0 -138 36t-44 106v719q0 55 81 55h41q82 0 82 -55v-683q0 -32 42 -32h356q43 0 43 32v683q0 55 80 55h42q83 0 83 -55v-719q0 -70 -44 -106t-139 -36h-142l-9 -251q0 -26 -18.5 -41t-58.5 -15h-17q-76 0 -76 56z" />
    <glyph glyph-name="afii10097" unicode="&#x44f;" horiz-adv-x="1060" 
d="M69 30q0 11 6 23l128 237q29 57 84 96q-196 46 -196 252q0 144 86.5 212t258.5 68h331q183 0 183 -142v-720q0 -56 -82 -56h-40q-81 0 -81 56v314h-215q-52 -3 -81 -27t-56 -75l-105 -215q-21 -53 -102 -53h-59q-60 0 -60 30zM747 510v233q0 32 -42 32h-234
q-94 0 -131 -32t-37 -103q0 -63 40 -96.5t120 -33.5h284z" />
    <glyph glyph-name="afii10094" unicode="&#x44c;" horiz-adv-x="1052" 
d="M155 36q-44 36 -44 106v719q0 55 81 55h41q82 0 82 -55v-316h313q167 0 252.5 -64t85.5 -201q0 -144 -86 -212t-255 -68h-332q-94 0 -138 36zM592 142q93 0 129.5 32.5t36.5 104.5q0 126 -160 126h-283v-230q0 -33 42 -33h235z" />
    <glyph glyph-name="afii10092" unicode="&#x44a;" horiz-adv-x="1258" 
d="M357.5 36q-43.5 36 -43.5 106v626h-194q-20 0 -32.5 14.5t-12.5 44.5v28q0 32 12.5 46.5t32.5 14.5h317q44 0 63 -15.5t19 -39.5v-309h313q168 0 253.5 -65.5t85.5 -206.5q0 -144 -86 -212t-257 -68h-332q-95 0 -138.5 36zM799 142q93 0 129 32.5t36 104.5q0 62 -40 94
t-120 32h-285v-230q0 -16 10 -24.5t33 -8.5h237z" />
    <glyph glyph-name="afii10093" unicode="&#x44b;" horiz-adv-x="1478" 
d="M155 36q-44 36 -44 106v719q0 55 81 55h41q82 0 82 -55v-316h313q167 0 252.5 -64t85.5 -201q0 -144 -86 -212t-255 -68h-332q-94 0 -138 36zM1163 56v805q0 55 81 55h42q81 0 81 -55v-805q0 -56 -81 -56h-42q-81 0 -81 56zM592 142q93 0 129.5 32.5t36.5 104.5
q0 126 -160 126h-283v-230q0 -33 42 -33h235z" />
    <glyph glyph-name="afii10106" unicode="&#x459;" horiz-adv-x="1812" 
d="M79.5 15q-13.5 15 -13.5 47v23q0 32 13.5 46.5t35.5 14.5h15q70 0 113.5 47.5t51.5 149.5l34 431q6 70 48 106t135 36h381q94 0 137.5 -36.5t43.5 -105.5v-224h312q169 0 254.5 -65t85.5 -205q0 -144 -86.5 -212t-256.5 -68h-330q-96 0 -139.5 36t-43.5 106v592
q0 17 -10 25t-32 8h-250q-23 0 -32 -7.5t-10 -25.5l-34 -395q-13 -159 -99 -249t-227 -90h-61q-22 0 -35.5 15zM1351 142q64 0 100.5 14.5t51.5 44.5t15 78q0 126 -160 126h-284v-230q0 -16 10 -24.5t33 -8.5h234z" />
    <glyph glyph-name="afii10107" unicode="&#x45a;" horiz-adv-x="1686" 
d="M111 56v805q0 55 81 55h41q82 0 82 -55v-308h439v308q0 55 82 55h41q82 0 82 -55v-311h302q169 0 254.5 -65t85.5 -205q0 -144 -86 -212t-257 -68h-319q-96 0 -140.5 36t-44.5 106v259h-439v-345q0 -26 -18.5 -41t-63.5 -15h-41q-81 0 -81 56zM1225 142q94 0 131 32.5
t37 104.5q0 126 -160 126h-274v-230q0 -33 42 -33h224z" />
    <glyph glyph-name="afii10102" unicode="&#x455;" horiz-adv-x="920" 
d="M176 39l-63 26q-17 6 -24 14.5t-7 21.5q0 5 2 19l15 54q5 19 13 28t21 9q7 0 22 -5l54 -22q60 -22 127.5 -36t127.5 -14q166 0 166 109q0 33 -17 53.5t-43.5 33t-73.5 27.5l-142 45q-73 22 -125 50t-85.5 79.5t-33.5 130.5q0 80 40.5 142t120 96.5t192.5 34.5
q73 0 140.5 -12t120.5 -34l57 -22q17 -5 23.5 -14t6.5 -23q0 -5 -2 -19l-14 -57q-6 -19 -13.5 -27t-20.5 -8q-8 0 -19 3l-51 20q-41 16 -95 25.5t-111 9.5q-90 0 -129 -28t-39 -81q0 -38 17 -61t44 -34.5t72 -24.5l137 -45q78 -22 130.5 -48.5t86.5 -76t34 -127.5
q0 -83 -41.5 -144t-121.5 -94t-193 -33q-153 0 -306 59z" />
    <glyph glyph-name="afii10101" unicode="&#x454;" horiz-adv-x="929" 
d="M197 88.5q-113 108.5 -113 351.5v36q0 243 113 351t320 108q140 0 250 -46l55 -22q31 -10 31 -38q0 -5 -4 -23l-15 -46q-5 -20 -12 -29.5t-19 -9.5q-8 0 -17 3l-50 18q-93 32 -182 32q-119 0 -186 -58t-76 -187h382q21 0 34 -13.5t13 -43.5v-25q0 -56 -47 -56h-383
q8 -131 75.5 -189.5t187.5 -58.5q97 0 182 31l50 16q12 4 17 4q22 0 31 -40l15 -45q3 -12 3 -22q0 -14 -7 -23t-23 -15l-55 -22q-113 -47 -250 -47q-207 0 -320 108.5z" />
    <glyph glyph-name="afii10095" unicode="&#x44d;" horiz-adv-x="929" 
d="M162 27l-55 22q-17 6 -23.5 15.5t-6.5 24.5q0 4 2 20l15 45q5 20 12.5 30t20.5 10q3 0 17 -4l50 -16q82 -31 180 -31q119 0 187 58.5t77 189.5h-382q-48 0 -48 56v25q0 30 13 43.5t35 13.5h381q-11 129 -78.5 187t-184.5 58q-91 0 -180 -32l-50 -18q-11 -3 -18 -3
q-13 0 -20 9t-12 30l-15 46q-3 12 -3 22q0 29 31 39l55 22q113 46 251 46q206 0 319.5 -108.5t113.5 -350.5v-36q0 -460 -433 -460q-135 0 -251 47z" />
    <glyph glyph-name="afii10103" unicode="&#x456;" horiz-adv-x="427" 
d="M129.5 1129q-32.5 31 -32.5 84q0 51 32.5 82.5t84.5 31.5q51 0 83 -31.5t32 -82.5q0 -53 -32 -84t-83 -31q-52 0 -84.5 31zM111 56v805q0 55 81 55h41q82 0 82 -55v-805q0 -26 -18.5 -41t-63.5 -15h-41q-81 0 -81 56z" />
    <glyph glyph-name="afii10104" unicode="&#x457;" horiz-adv-x="427" 
d="M-11 1123q-31 30 -31 80q0 48 31 78t80 30t79 -29.5t30 -78.5q0 -51 -30 -80.5t-79 -29.5t-80 30zM297 1123q-31 30 -31 80q0 48 31 78t80 30q48 0 78.5 -30t30.5 -78q0 -50 -30 -80t-79 -30t-80 30zM111 56v805q0 55 81 55h41q82 0 82 -55v-805q0 -26 -18.5 -41
t-63.5 -15h-41q-81 0 -81 56z" />
    <glyph glyph-name="afii10105" unicode="&#x458;" horiz-adv-x="435" 
d="M131.5 1129q-32.5 31 -32.5 84q0 51 32.5 82.5t84.5 31.5q51 0 83 -31.5t32 -82.5q0 -53 -32 -84t-83 -31q-52 0 -84.5 31zM-73 -346q-35 26 -35 71v15q0 22 16 32t48 10q77 0 116 42t39 132v905q0 55 81 55h41q82 0 82 -55v-911q0 -103 -36 -175.5t-101 -109.5t-149 -37
q-67 0 -102 26z" />
    <glyph glyph-name="afii10108" unicode="&#x45b;" horiz-adv-x="1035" 
d="M142 56v977h-56q-28 0 -44 15.5t-16 42.5v18q0 28 15.5 43t44.5 15h56v111q0 54 82 54h42q81 0 81 -54v-111h381q28 0 43 -15t15 -43v-18q0 -27 -15 -42.5t-43 -15.5h-381v-166q89 68 244 68q194 0 283 -91.5t89 -274.5v-513q0 -56 -81 -56h-41q-82 0 -82 56v509
q0 111 -45.5 160.5t-152.5 49.5q-112 0 -163 -50t-51 -160v-509q0 -56 -81 -56h-42q-82 0 -82 56z" />
    <glyph glyph-name="afii10096" unicode="&#x44e;" horiz-adv-x="1496" 
d="M648 81.5q-108 101.5 -118 310.5h-207v-336q0 -56 -83 -56h-48q-81 0 -81 56v805q0 55 81 55h48q44 0 63.5 -15.5t19.5 -39.5v-323h208q14 202 121.5 299.5t317.5 97.5q225 0 334 -111.5t109 -346.5v-39q0 -235 -109 -346.5t-334 -111.5q-214 0 -322 101.5zM1110 161.5
q51 29.5 75 95.5t24 181v40q0 114 -24 179.5t-75 94t-138 28.5t-139 -29t-76 -94.5t-24 -178.5v-39q0 -114 24 -181t76 -96.5t139 -29.5t138 29.5z" />
    <glyph glyph-name="afii10099" unicode="&#x452;" horiz-adv-x="1067" 
d="M578 -346q-36 26 -36 71v15q0 22 16 32t48 10q76 0 114 42t38 132v609q0 112 -44.5 161t-152.5 49q-115 0 -165 -49.5t-50 -160.5v-509q0 -56 -79 -56h-43q-82 0 -82 56v977h-62q-24 0 -39 15.5t-15 42.5v18q0 27 15 42.5t39 15.5h62v111q0 54 82 54h43q79 0 79 -54v-111
h382q28 0 43 -15t15 -43v-18q0 -27 -15 -42.5t-43 -15.5h-382v-167q89 69 245 69q192 0 282 -91.5t90 -274.5v-619q0 -103 -35 -175.5t-99 -109.5t-150 -37q-65 0 -101 26z" />
    <glyph glyph-name="afii10194" unicode="&#x463;" horiz-adv-x="1086" 
d="M186 36q-44 36 -44 106v718h-62q-27 0 -42.5 15t-15.5 43v28q0 29 15.5 44t42.5 15h62v273q0 24 19.5 39t62.5 15h43q81 0 81 -54v-273h373q57 0 57 -59v-28q0 -28 -14.5 -43t-42.5 -15h-373v-310h314q168 0 253 -65t85 -205q0 -144 -85.5 -212t-256.5 -68h-332
q-96 0 -140 36zM627 142q65 0 101 14.5t51 44t15 78.5q0 126 -161 126h-285v-230q0 -33 42 -33h237z" />
    <glyph glyph-name="afii10195" unicode="&#x473;" horiz-adv-x="1059" 
d="M193 92.5q-109 112.5 -109 345.5v40q0 232 109 344.5t334 112.5q227 0 338 -111.5t111 -346.5v-39q0 -235 -111 -346.5t-338 -111.5q-225 0 -334 112.5zM724.5 499.5q26.5 13.5 42.5 30.5q-5 93 -31.5 148t-76.5 79.5t-129 24.5q-84 0 -135 -26.5t-76 -86.5t-27 -162
q18 18 49.5 34t75.5 16q41 0 71.5 -10t68.5 -29q32 -16 54.5 -24t50.5 -8q36 0 62.5 13.5zM660.5 157q50.5 25 76.5 81.5t31 151.5q-47 -42 -111 -42q-42 0 -71.5 9.5t-68.5 28.5q-33 16 -55 23.5t-51 7.5q-39 0 -69 -17t-47 -37q10 -125 65 -178t170 -53q80 0 130.5 25z
" />
    </font>
</defs>
</svg>
