<?xml version="1.0" standalone="no"?>
<!DOCTYPE svg PUBLIC "-//W3C//DTD SVG 1.1//EN" "http://www.w3.org/Graphics/SVG/1.1/DTD/svg11.dtd" >
<svg xmlns="http://www.w3.org/2000/svg" xmlns:xlink="http://www.w3.org/1999/xlink" version="1.1">
<metadata>
Created by FontForge 20160402 at Wed Oct 12 16:37:55 2016
 By ip
Copyright (c) 2016 by Hubert Jocham.
</metadata>
<defs>
<font id="innogyWEB-Bold" horiz-adv-x="1176" >
  <font-face 
    font-family="innogyWEB Bold"
    font-weight="700"
    font-stretch="normal"
    units-per-em="2048"
    panose-1="2 11 8 3 4 0 0 2 0 3"
    ascent="1638"
    descent="-410"
    x-height="928"
    cap-height="1333"
    bbox="-842 -471 2046 1815"
    underline-thickness="102"
    underline-position="-205"
    unicode-range="U+0020-FB02"
  />
<missing-glyph horiz-adv-x="979" 
d="M182 1489h621v-1960h-621v1960zM653 1157v64h-129v73h129v64h-323v-64h127v-73h-129v-64h325zM653 901v68h-129v137h-196v-205h325zM391 1038h66v-69h-66v69zM524 647v137h129v64h-325v-64h129v-73h-129v-64h196zM653 535v196h-65v-129h-260v-67h325zM653 270v222h-196
v-109h67v45h64v-92h-197v156h-63v-222h325zM653 -70v224h-325v-224h325zM391 88h197v-92h-197v92zM653 -336v66h-200l137 92h63v63h-325v-63h137l-137 -92v-66h325z" />
    <glyph glyph-name="uniFB01" unicode="fi" horiz-adv-x="1192" 
d="M864 1115q-39 38 -39 102q0 61 39 99t101 38t100.5 -38t38.5 -99q0 -64 -38.5 -102t-100.5 -38t-101 38zM197.5 18.5q-23.5 18.5 -23.5 49.5v684h-84q-55 0 -55 75v27q0 40 15.5 57t39.5 17h84v24q0 180 102 280.5t297 100.5h101q55 0 55 -73v-48q0 -71 -55 -71h-43
q-99 0 -148 -46t-49 -145v-22h217q25 0 40.5 -17t15.5 -57v-29q0 -73 -56 -73h-217v-684q0 -31 -22.5 -49.5t-79.5 -18.5h-53q-58 0 -81.5 18.5zM857.5 18q-21.5 18 -21.5 50v792q0 31 22 49.5t78 18.5h53q105 0 105 -68v-792q0 -31 -23.5 -49.5t-81.5 -18.5h-53
q-57 0 -78.5 18z" />
    <glyph glyph-name="uniFB02" unicode="fl" horiz-adv-x="1192" 
d="M197.5 18.5q-23.5 18.5 -23.5 49.5v684h-84q-55 0 -55 75v27q0 40 15.5 57t39.5 17h84v24q0 180 102 280.5t297 100.5h101q55 0 55 -73v-48q0 -71 -55 -71h-43q-99 0 -148 -46t-49 -145v-22h217q25 0 40.5 -17t15.5 -57v-29q0 -73 -56 -73h-217v-684q0 -31 -22.5 -49.5
t-79.5 -18.5h-53q-58 0 -81.5 18.5zM857.5 18q-21.5 18 -21.5 50v1198q0 67 100 67h53q105 0 105 -67v-1198q0 -31 -23.5 -49.5t-81.5 -18.5h-53q-57 0 -78.5 18z" />
    <glyph glyph-name=".notdef" horiz-adv-x="979" 
d="M182 1489h621v-1960h-621v1960zM653 1157v64h-129v73h129v64h-323v-64h127v-73h-129v-64h325zM653 901v68h-129v137h-196v-205h325zM391 1038h66v-69h-66v69zM524 647v137h129v64h-325v-64h129v-73h-129v-64h196zM653 535v196h-65v-129h-260v-67h325zM653 270v222h-196
v-109h67v45h64v-92h-197v156h-63v-222h325zM653 -70v224h-325v-224h325zM391 88h197v-92h-197v92zM653 -336v66h-200l137 92h63v63h-325v-63h137l-137 -92v-66h325z" />
    <glyph glyph-name="space" unicode=" " horiz-adv-x="469" 
 />
    <glyph glyph-name="A" unicode="A" horiz-adv-x="1354" 
d="M64 57q0 14 4 25l362 1077q20 70 48.5 111.5t73 61.5t112.5 20h32q91 0 146 -45.5t86 -145.5l358 -1079q3 -12 3 -23q0 -59 -101 -59h-70q-118 0 -137 82l-82 276h-463l-82 -276q-19 -82 -139 -82h-49q-102 0 -102 57zM844 547l-156 530q-5 17 -18 17q-10 0 -15 -17
l-161 -530h350z" />
    <glyph glyph-name="B" unicode="B" horiz-adv-x="1229" 
d="M155 39q-46 39 -46 115v1026q0 75 46 114t148 39h412q195 0 293 -83t98 -255q0 -115 -56 -192.5t-157 -110.5q123 -29 188.5 -105.5t65.5 -213.5q0 -179 -106.5 -276t-311.5 -97h-426q-102 0 -148 39zM616 762q117 0 168.5 49t51.5 143q0 65 -20.5 104.5t-66.5 58
t-124 18.5h-195q-24 0 -33.5 -8.5t-9.5 -24.5v-340h229zM643 195q116 0 166.5 49.5t50.5 152.5q0 100 -54.5 149.5t-178.5 49.5h-240v-369q0 -17 9.5 -24.5t33.5 -7.5h213z" />
    <glyph glyph-name="C" unicode="C" horiz-adv-x="1239" 
d="M371.5 55.5q-138.5 75.5 -211 225t-72.5 366.5v39q0 216 72.5 365t211 225t335.5 76q164 0 327 -56l86 -30q23 -8 32.5 -20t9.5 -32q0 -13 -5 -38l-16 -58q-9 -32 -19.5 -45.5t-27.5 -13.5q-11 0 -23 4l-70 22q-111 39 -231 39q-185 0 -280 -107.5t-95 -330.5v-39
q0 -225 95 -332.5t280 -107.5q114 0 231 41l70 22q12 4 23 4q17 0 27.5 -14t19.5 -47l16 -55q5 -25 5 -39q0 -20 -9.5 -32t-32.5 -19l-86 -31q-165 -57 -327 -57q-197 0 -335.5 75.5z" />
    <glyph glyph-name="D" unicode="D" horiz-adv-x="1305" 
d="M155 39q-46 39 -46 115v1026q0 75 46 114t148 39h315q599 0 599 -647v-39q0 -314 -154.5 -480.5t-446.5 -166.5h-313q-102 0 -148 39zM586 209q176 0 259 108t83 330v39q0 224 -83 330t-263 106h-146q-22 0 -32.5 -7.5t-10.5 -24.5v-846q0 -35 43 -35h150z" />
    <glyph glyph-name="E" unicode="E" horiz-adv-x="1100" 
d="M155 39q-46 39 -46 115v1026q0 75 46 114t148 39h649q66 0 66 -88v-35q0 -86 -66 -86h-510q-43 0 -43 -32v-320h461q62 0 62 -80v-33q0 -43 -17.5 -62t-44.5 -19h-461v-336q0 -35 43 -35h510q66 0 66 -88v-33q0 -86 -66 -86h-649q-102 0 -148 39z" />
    <glyph glyph-name="F" unicode="F" horiz-adv-x="1077" 
d="M134 20.5q-25 20.5 -25 55.5v1104q0 75 46 114t148 39h645q66 0 66 -88v-35q0 -86 -66 -86h-510q-43 0 -43 -32v-342h463q27 0 44.5 -19.5t17.5 -64.5v-37q0 -43 -17.5 -61.5t-44.5 -18.5h-463v-473q0 -35 -25.5 -55.5t-90.5 -20.5h-54q-66 0 -91 20.5z" />
    <glyph glyph-name="G" unicode="G" horiz-adv-x="1327" 
d="M383.5 55.5q-143.5 73.5 -220.5 222t-77 369.5v39q0 215 75.5 364t220 225.5t349.5 76.5q184 0 344 -56l86 -30q23 -8 32.5 -20t9.5 -32q0 -13 -5 -38l-16 -60q-7 -33 -18 -47t-28 -14q-11 0 -22 4l-72 22q-126 43 -247 43q-195 0 -297.5 -109t-102.5 -329v-39
q0 -228 99.5 -334t289.5 -106q49 0 89.5 9t66 20t25.5 12v411q0 33 23 51.5t83 18.5h49q61 0 84 -18.5t23 -51.5v-438q0 -49 -17 -84t-55 -59q-176 -96 -428 -96q-200 0 -343.5 73.5z" />
    <glyph glyph-name="H" unicode="H" horiz-adv-x="1300" 
d="M134 20.5q-25 20.5 -25 55.5v1177q0 37 25 57.5t91 20.5h56q67 0 92.5 -20.5t25.5 -57.5v-469h504v469q0 36 26 57t93 21h53q67 0 94 -21t27 -57v-1177q0 -76 -121 -76h-53q-67 0 -93 20.5t-26 55.5v510h-504v-510q0 -35 -26 -55.5t-92 -20.5h-56q-66 0 -91 20.5z" />
    <glyph glyph-name="I" unicode="I" horiz-adv-x="506" 
d="M134 20.5q-25 20.5 -25 55.5v1179q0 37 25 57.5t91 20.5h58q65 0 90.5 -21t25.5 -57v-1179q0 -35 -25.5 -55.5t-90.5 -20.5h-58q-66 0 -91 20.5z" />
    <glyph glyph-name="J" unicode="J" horiz-adv-x="711" 
d="M101 15q-48 35 -48 96v18q0 59 74 59q92 0 138 44.5t46 144.5v878q0 36 26 57t91 21h59q65 0 91 -21t26 -57v-886q0 -129 -46 -216t-128 -130t-192 -43q-89 0 -137 35z" />
    <glyph glyph-name="K" unicode="K" horiz-adv-x="1257" 
d="M134 20.5q-25 20.5 -25 55.5v1179q0 37 25 57.5t91 20.5h56q67 0 92.5 -20.5t25.5 -57.5v-1179q0 -35 -26 -55.5t-92 -20.5h-56q-66 0 -91 20.5zM890 21.5q-42 21.5 -59 56.5l-362 540q-13 22 -13 45q0 24 13 44l365 546q14 36 56 58t109 22h97q82 0 82 -38
q0 -17 -15 -42l-428 -587l428 -588q16 -24 16 -42q0 -36 -81 -36h-99q-67 0 -109 21.5z" />
    <glyph glyph-name="L" unicode="L" horiz-adv-x="1047" 
d="M155 39q-46 39 -46 115v1101q0 37 25 57.5t91 20.5h56q67 0 92.5 -20.5t25.5 -57.5v-1013q0 -37 43 -37h484q30 0 46.5 -18.5t16.5 -67.5v-31q0 -49 -17 -68.5t-46 -19.5h-623q-102 0 -148 39z" />
    <glyph glyph-name="M" unicode="M" horiz-adv-x="1645" 
d="M97.5 20.5q-23.5 20.5 -21.5 53.5l63 1063q6 101 63 152.5t156 51.5h29q100 0 161 -43.5t77 -144.5l198 -952l201 956q13 93 76.5 138.5t161.5 45.5h28q100 0 155.5 -51.5t59.5 -152.5l64 -1063q2 -33 -22.5 -53.5t-84.5 -20.5h-37q-60 0 -82 19.5t-24 54.5l-62 1013
q0 9 -2.5 12t-9.5 3q-16 0 -18 -15l-211 -929q-28 -158 -187 -158h-20q-157 0 -186 158l-215 929q-6 15 -21 15q-12 0 -12 -15l-62 -1013q-2 -35 -23 -54.5t-79 -19.5h-33q-57 0 -80.5 20.5z" />
    <glyph glyph-name="N" unicode="N" horiz-adv-x="1346" 
d="M130.5 20q-21.5 20 -21.5 54v1059q0 97 60 148.5t161 51.5h57q92 0 150 -43.5t88 -140.5l350 -899q3 -8 7 -11t11 -3q13 0 13 14v1007q0 35 22.5 55.5t79.5 20.5h31q102 0 102 -76v-1056q0 -97 -59 -149t-158 -52h-61q-94 0 -152 43.5t-88 140.5l-348 899q-8 17 -23 17
q-10 0 -10 -17v-1009q0 -74 -102 -74h-33q-55 0 -76.5 20z" />
    <glyph glyph-name="O" unicode="O" horiz-adv-x="1425" 
d="M244 144q-156 164 -156 503v39q0 336 158 501t465 165q308 0 467 -165t159 -501v-39q0 -339 -157 -503t-469 -164q-311 0 -467 164zM895 238q69 45 101 144t32 265v39q0 165 -32 265t-101 146t-184 46q-114 0 -183 -46t-101 -146t-32 -265v-39q0 -166 32 -265t101 -144
t183 -45q115 0 184 45z" />
    <glyph glyph-name="P" unicode="P" horiz-adv-x="1208" 
d="M134 20.5q-25 20.5 -25 55.5v1104q0 75 47 114t149 39h393q226 0 331.5 -95.5t105.5 -295.5q0 -198 -109.5 -305t-323.5 -107h-303v-454q0 -35 -26 -55.5t-92 -20.5h-56q-66 0 -91 20.5zM641 729q116 0 167.5 49.5t51.5 155.5q0 71 -21.5 112.5t-70 60.5t-131.5 19h-197
q-22 0 -31.5 -8.5t-9.5 -25.5v-363h242z" />
    <glyph glyph-name="Q" unicode="Q" horiz-adv-x="1421" 
d="M1476.5 -325.5q-79.5 24.5 -146 59.5t-164.5 95q-93 57 -156.5 91t-136.5 57t-150 23h-12q-311 0 -467 161.5t-156 495.5v39q0 331 158 493.5t465 162.5q308 0 467 -162.5t159 -493.5v-39q0 -415 -247 -567q53 -20 100.5 -43t114.5 -58q86 -44 143 -70t125 -43t143 -17
h27q63 0 63 -88v-35q0 -50 -16.5 -68t-46.5 -18h-103q-84 0 -163.5 24.5zM895 254q69 45 101 142.5t32 260.5v39q0 163 -32 261.5t-101 144t-184 45.5q-114 0 -183 -45.5t-101 -144t-32 -261.5v-39q0 -163 32 -260.5t101 -142.5t183 -45q115 0 184 45z" />
    <glyph glyph-name="R" unicode="R" horiz-adv-x="1245" 
d="M134 20.5q-25 20.5 -25 55.5v1104q0 75 47 114t149 39h408q154 0 250 -39.5t142 -123.5t46 -218q0 -156 -75.5 -246t-223.5 -120q56 -35 92 -107l211 -405q7 -17 7 -28q0 -46 -91 -46h-76q-120 0 -149 74l-176 375q-26 54 -56 78.5t-88 27.5h-127v-479q0 -35 -26.5 -55.5
t-96.5 -20.5h-51q-66 0 -91 20.5zM655 731q116 0 169 49.5t53 153.5q0 71 -22.5 113.5t-71.5 61.5t-132 19h-213q-21 0 -30 -8t-9 -24v-365h256z" />
    <glyph glyph-name="S" unicode="S" horiz-adv-x="1221" 
d="M238 39l-101 33q-43 15 -43 54q0 15 6 34l17 63q9 30 21 43t31 13q12 0 30 -5l75 -24q67 -23 149.5 -38t158.5 -15q249 0 249 161q0 45 -21 72.5t-62 46.5t-121 45l-170 49q-112 33 -187 78.5t-116 116t-41 174.5q0 122 57 215t168 145t268 52q176 0 338 -54l88 -32
q23 -8 33 -21t10 -34q0 -7 -4 -29l-18 -66q-9 -29 -20 -41t-27 -12q-13 0 -29 6l-68 21q-147 49 -276 49q-121 0 -179.5 -43t-58.5 -121q0 -50 22 -80t62 -48.5t115 -41.5l172 -51q121 -34 197 -79t114.5 -114t38.5 -172q0 -125 -59 -217t-175 -142t-282 -50q-193 0 -362 59
z" />
    <glyph glyph-name="T" unicode="T" horiz-adv-x="1217" 
d="M488 20.5q-25 20.5 -25 55.5v1048h-344q-28 0 -46 20t-18 66v35q0 88 64 88h979q65 0 65 -88v-35q0 -86 -65 -86h-344v-1048q0 -35 -26 -55.5t-91 -20.5h-57q-67 0 -92 20.5z" />
    <glyph glyph-name="U" unicode="U" horiz-adv-x="1260" 
d="M225 107.5q-127 127.5 -127 373.5v774q0 37 25 57.5t92 20.5h55q67 0 93 -20.5t26 -57.5v-776q0 -135 57 -199.5t185 -64.5q129 0 184 62t55 202v776q0 36 26 57t91 21h57q67 0 93 -20.5t26 -57.5v-774q0 -247 -132 -374t-410 -127q-269 0 -396 127.5z" />
    <glyph glyph-name="V" unicode="V" horiz-adv-x="1341" 
d="M503.5 45.5q-55.5 45.5 -83.5 142.5l-340 1063q-3 12 -3 23q0 59 101 59h70q118 0 137 -82l274 -985q2 -8 6 -11t11 -3t11 3t5 11l283 985q7 36 40 59t99 23h49q102 0 102 -59q0 -11 -3 -23l-342 -1061q-30 -101 -84 -145.5t-154 -44.5h-31q-92 0 -147.5 45.5z" />
    <glyph glyph-name="W" unicode="W" horiz-adv-x="1823" 
d="M373.5 40.5q-49.5 40.5 -66.5 123.5l-227 1087q-3 12 -3 23q0 28 23.5 43.5t79.5 15.5h70q68 0 102.5 -23t36.5 -59l158 -981q2 -14 18 -14q5 0 8 3t5 11l206 981q6 38 35 60t96 22h39q64 0 92 -21.5t35 -60.5l207 -981q2 -14 15 -14q14 0 16 14l156 981q5 38 34 60
t95 22h43q100 0 100 -62q0 -6 -2 -20l-229 -1087q-16 -82 -62 -123t-127 -41h-33q-168 0 -192 166l-180 774l-177 -774q-15 -84 -65.5 -125t-138.5 -41h-33q-85 0 -134.5 40.5z" />
    <glyph glyph-name="X" unicode="X" horiz-adv-x="1288" 
d="M106 13.5q-25 13.5 -25 37.5q0 11 7 27l338 590l-338 585q-7 18 -7 27q0 25 24.5 39t76.5 14h107q63 0 91 -19.5t42 -56.5l240 -462l237 462q14 37 42.5 56.5t92.5 19.5h68q52 0 77.5 -14.5t25.5 -38.5q0 -14 -7 -27l-340 -583l344 -592q6 -13 6 -25q0 -24 -25.5 -38.5
t-78.5 -14.5h-96q-65 0 -93 19.5t-43 56.5l-247 471l-238 -471q-14 -37 -43.5 -56.5t-93.5 -19.5h-66q-53 0 -78 13.5z" />
    <glyph glyph-name="Y" unicode="Y" horiz-adv-x="1290" 
d="M527.5 20.5q-25.5 20.5 -25.5 55.5v467l-422 710q-8 16 -8 28q0 24 25.5 38t76.5 14h94q64 0 92.5 -19.5t42.5 -56.5l259 -483l260 483q14 37 42.5 56.5t92.5 19.5h59q51 0 76.5 -14t25.5 -38q0 -12 -8 -28l-415 -704v-473q0 -35 -26 -55.5t-93 -20.5h-58
q-65 0 -90.5 20.5z" />
    <glyph glyph-name="Z" unicode="Z" horiz-adv-x="1174" 
d="M106.5 34.5q-36.5 34.5 -36.5 100.5q0 46 13.5 80.5t47.5 79.5l608 803q7 10 7 17q0 13 -21 13h-580q-26 0 -44.5 20.5t-18.5 65.5v35q0 45 18 64.5t45 19.5h789q70 0 108.5 -34.5t38.5 -102.5q0 -46 -12 -80t-45 -80l-602 -800q-8 -11 -8 -19q0 -12 18 -12h610
q28 0 45 -20.5t17 -67.5v-33q0 -47 -17 -65.5t-45 -18.5h-837q-62 0 -98.5 34.5z" />
    <glyph glyph-name="a" unicode="a" horiz-adv-x="1006" 
d="M176.5 49q-104.5 69 -104.5 207v20q0 134 95 201t294 78l213 12v25q0 79 -44.5 118.5t-137.5 39.5q-54 0 -123 -13t-125 -32l-47 -19q-18 -4 -25 -4q-18 0 -29 11t-18 38l-12 62q-4 15 -4 29q0 16 8 26t26 18l68 25q134 55 311 55q206 0 302 -82t96 -243v-342
q0 -157 -101 -228t-319 -71q-219 0 -323.5 69zM633.5 166q40.5 35 40.5 113v143l-154 -8q-101 -6 -147.5 -37t-46.5 -96v-19q0 -68 39 -99.5t135 -31.5q93 0 133.5 35z" />
    <glyph glyph-name="b" unicode="b" horiz-adv-x="1071" 
d="M203.5 91q-111.5 111 -111.5 351v824q0 67 98 67h66q53 0 73.5 -17.5t20.5 -49.5v-383q88 63 236 63q204 0 308.5 -111.5t104.5 -351.5v-41q0 -243 -112.5 -352.5t-343.5 -109.5q-228 0 -339.5 111zM662 186q43 26 63 87t20 169v41q0 109 -20 170.5t-62.5 87t-115.5 25.5
q-72 0 -114.5 -26t-62.5 -87.5t-20 -169.5v-39q0 -109 19 -170.5t61.5 -87.5t116.5 -26q72 0 115 26z" />
    <glyph glyph-name="c" unicode="c" horiz-adv-x="934" 
d="M188 88.5q-116 108.5 -116 355.5v37q0 248 116 356.5t326 108.5q148 0 260 -47l55 -20q20 -7 28.5 -18.5t8.5 -30.5q0 -17 -4 -33l-14 -58q-9 -55 -43 -55q-5 0 -19 4l-45 17q-83 26 -168 26q-115 0 -173 -56.5t-58 -193.5v-37q0 -136 58 -191.5t173 -55.5q94 0 168 26
l45 17q9 3 18 3q18 0 28.5 -13.5t15.5 -41.5l14 -59q4 -16 4 -31q0 -18 -8.5 -30t-28.5 -19l-55 -22q-120 -47 -260 -47q-210 0 -326 108.5z" />
    <glyph glyph-name="d" unicode="d" horiz-adv-x="1079" 
d="M186.5 89q-114.5 109 -114.5 353v41q0 240 106.5 351.5t315.5 111.5q145 0 233 -61v381q0 69 104 69h58q55 0 76.5 -18.5t21.5 -50.5v-824q0 -240 -111.5 -351t-338.5 -111q-236 0 -350.5 109zM647 186q42 26 61 87.5t19 170.5v39q0 109 -19 170t-61 87t-115 26
t-115 -25.5t-61.5 -86.5t-19.5 -171v-41q0 -108 19.5 -169t62 -87t114.5 -26q73 0 115 26z" />
    <glyph glyph-name="e" unicode="e" horiz-adv-x="1004" 
d="M200 94q-128 114 -128 352v35q0 153 56 257t158.5 156t241.5 52q127 0 218 -36t138.5 -103t47.5 -158q0 -99 -43.5 -157.5t-132 -85.5t-230.5 -31l-200 -6q21 -99 94.5 -145t179.5 -46q43 0 93.5 9t94.5 22l43 16q11 4 22 4q15 0 24 -11t14 -36l18 -59q5 -18 5 -28
q0 -17 -8 -27t-25 -17l-62 -26q-55 -22 -125 -33.5t-145 -11.5q-221 0 -349 114zM475 510q84 2 131 10t75 34t28 79q0 63 -41.5 99t-132.5 36q-109 0 -164 -63t-56 -201z" />
    <glyph glyph-name="f" unicode="f" horiz-adv-x="737" 
d="M197.5 18.5q-23.5 18.5 -23.5 49.5v684h-84q-55 0 -55 75v27q0 40 15.5 57t39.5 17h84v24q0 180 102 280.5t297 100.5h101q55 0 55 -73v-48q0 -71 -55 -71h-43q-99 0 -148 -46t-49 -145v-22h217q25 0 40.5 -17t15.5 -57v-29q0 -73 -56 -73h-217v-684q0 -31 -22.5 -49.5
t-79.5 -18.5h-53q-58 0 -81.5 18.5z" />
    <glyph glyph-name="g" unicode="g" horiz-adv-x="1075" 
d="M184.5 -302q-123.5 71 -123.5 202q0 76 46.5 123t128.5 59q-82 47 -82 133q0 49 26.5 86.5t77.5 58.5q-93 31 -134.5 97t-41.5 170q0 149 99 225t321 76h473q53 0 53 -74v-25q0 -41 -14 -57t-39 -16h-92q28 -61 28 -129q0 -100 -40.5 -165.5t-131.5 -98.5t-241 -33h-92
q-32 0 -50 -17t-18 -41q0 -53 94 -59l215 -10q191 -11 278 -75t87 -191q0 -95 -55.5 -164.5t-163 -107.5t-259.5 -38q-226 0 -349.5 71zM604.5 479q37.5 16 52.5 49.5t15 89.5q0 59 -15 92.5t-52.5 49.5t-104.5 16q-96 0 -134 -36.5t-38 -118.5q0 -58 15.5 -92t53 -50
t103.5 -16q67 0 104.5 16zM768 -84q0 35 -15 56.5t-55 35t-114 19.5l-191 16q-58 0 -89.5 -29.5t-31.5 -79.5q0 -76 73 -110.5t202 -34.5q221 0 221 127z" />
    <glyph glyph-name="h" unicode="h" horiz-adv-x="1051" 
d="M120.5 18q-22.5 18 -22.5 50v1198q0 67 103 67h51q59 0 81.5 -18.5t22.5 -48.5v-367q85 47 222 47q195 0 287.5 -91t92.5 -275v-512q0 -31 -22 -49.5t-78 -18.5h-59q-56 0 -77.5 18t-21.5 50v503q0 95 -38.5 138t-129.5 43t-133.5 -43.5t-42.5 -137.5v-503
q0 -32 -22.5 -50t-81.5 -18h-51q-58 0 -80.5 18z" />
    <glyph glyph-name="i" unicode="i" horiz-adv-x="455" 
d="M126.5 1115q-38.5 38 -38.5 102q0 61 38.5 99t100.5 38t101 -38t39 -99q0 -64 -39 -102t-101 -38t-100.5 38zM120.5 18q-22.5 18 -22.5 50v792q0 68 103 68h51q59 0 81.5 -18.5t22.5 -49.5v-792q0 -32 -22.5 -50t-81.5 -18h-51q-58 0 -80.5 18z" />
    <glyph glyph-name="j" unicode="j" horiz-adv-x="467" 
d="M127 1115q-39 38 -39 102q0 61 39.5 99t101.5 38t101 -38t39 -99q0 -64 -39 -102t-101 -38q-63 0 -102 38zM-65 -341q-41 32 -41 87v18q0 50 67 50q69 0 103 37.5t34 117.5v891q0 68 103 68h51q59 0 81.5 -18.5t22.5 -49.5v-899q0 -108 -38 -183t-106 -113t-157 -38
q-79 0 -120 32z" />
    <glyph glyph-name="k" unicode="k" horiz-adv-x="1024" 
d="M120.5 18q-22.5 18 -22.5 50v1198q0 67 103 67h51q59 0 81.5 -18.5t22.5 -48.5v-1198q0 -32 -22.5 -50t-81.5 -18h-51q-58 0 -80.5 18zM716.5 18.5q-36.5 18.5 -54.5 49.5l-248 358q-14 20 -14 39t14 39l250 354q18 31 55 50.5t94 19.5h84q38 0 56 -9.5t18 -24.5
q0 -16 -15 -36l-317 -389l317 -401q15 -20 15 -35q0 -33 -74 -33h-86q-58 0 -94.5 18.5z" />
    <glyph glyph-name="l" unicode="l" horiz-adv-x="455" 
d="M120.5 18q-22.5 18 -22.5 50v1198q0 67 103 67h51q59 0 81.5 -18.5t22.5 -48.5v-1198q0 -32 -22.5 -50t-81.5 -18h-51q-58 0 -80.5 18z" />
    <glyph glyph-name="m" unicode="m" horiz-adv-x="1589" 
d="M92 68v512q0 182 104.5 274t309.5 92q178 0 291 -80q52 40 126 60t162 20q412 0 412 -366v-512q0 -32 -20.5 -50t-75.5 -18h-66q-54 0 -75 18t-21 50v503q0 94 -38 137.5t-122 43.5q-85 0 -119 -42.5t-34 -138.5v-503q0 -31 -21.5 -49.5t-75.5 -18.5h-67q-98 0 -98 68
v503q0 96 -34 138.5t-120 42.5q-84 0 -122 -43.5t-38 -137.5v-503q0 -32 -20.5 -50t-77.5 -18h-64q-96 0 -96 68z" />
    <glyph glyph-name="n" unicode="n" horiz-adv-x="1051" 
d="M92 68v514q0 180 109.5 272t322.5 92q214 0 324 -92t110 -272v-514q0 -68 -100 -68h-59q-101 0 -101 68v505q0 94 -40.5 136.5t-133.5 42.5t-133.5 -42.5t-40.5 -136.5v-505q0 -32 -21.5 -50t-78.5 -18h-57q-101 0 -101 68z" />
    <glyph glyph-name="o" unicode="o" horiz-adv-x="1075" 
d="M189 91.5q-117 111.5 -117 350.5v41q0 240 117 351.5t346 111.5q233 0 351 -109.5t118 -353.5v-41q0 -242 -118 -352t-351 -110q-229 0 -346 111.5zM654.5 186q43.5 26 65 87t21.5 169v41q0 109 -21.5 170.5t-65 87t-115.5 25.5q-74 0 -118 -25.5t-64.5 -87t-20.5 -170.5
v-39q0 -108 20.5 -170t64.5 -88t118 -26q72 0 115.5 26z" />
    <glyph glyph-name="p" unicode="p" horiz-adv-x="1073" 
d="M92 -287v770q0 241 112.5 352t340.5 111q230 0 343 -109t113 -354v-41q0 -238 -105 -350t-308 -112q-143 0 -238 65v-332q0 -30 -21.5 -47.5t-78.5 -17.5h-57q-101 0 -101 65zM665 186q43 26 63 87.5t20 168.5v41q0 109 -20 170.5t-63 87t-116 25.5q-75 0 -117.5 -26
t-62 -87t-19.5 -170v-39q0 -108 20 -170t63 -88t116 -26t116 26z" />
    <glyph glyph-name="q" unicode="q" horiz-adv-x="1071" 
d="M721 -287v332q-94 -65 -236 -65q-202 0 -307.5 112t-105.5 350v41q0 245 113 354t343 109q229 0 340 -111t111 -352v-770q0 -31 -21 -49t-77 -18h-60q-100 0 -100 67zM640 187.5q42 25.5 61.5 86.5t19.5 170v39q0 109 -19.5 169.5t-61.5 86t-114 25.5q-73 0 -115.5 -25
t-62.5 -86t-20 -170v-41q0 -107 20 -168t62.5 -86.5t115.5 -25.5q72 0 114 25.5z" />
    <glyph glyph-name="r" unicode="r" horiz-adv-x="707" 
d="M92 68v493q0 182 109 274.5t323 92.5h56q55 0 55 -74v-51q0 -72 -55 -72h-56q-95 0 -135.5 -41t-40.5 -135v-487q0 -32 -21.5 -50t-76.5 -18h-57q-101 0 -101 68z" />
    <glyph glyph-name="s" unicode="s" horiz-adv-x="940" 
d="M172 35l-66 26q-20 6 -28 16.5t-8 27.5q0 6 2 24l16 55q7 25 16.5 36t25.5 11q11 0 28 -6l47 -18q58 -20 125 -33.5t125 -13.5q147 0 147 96q0 43 -31 63.5t-98 38.5l-129 37q-75 20 -128.5 49t-86.5 81.5t-33 133.5q0 86 42.5 150.5t127 100.5t207.5 36q161 0 275 -45
l59 -20q19 -6 27 -17t8 -29q0 -6 -2 -24l-15 -57q-7 -25 -16 -34.5t-25 -9.5q-10 0 -24 3l-45 16q-45 15 -100 25t-107 10q-80 0 -114 -24.5t-34 -71.5q0 -34 16.5 -54t41.5 -30.5t71 -22.5l125 -37q119 -28 186.5 -85.5t67.5 -172.5q0 -135 -98 -210.5t-285 -75.5
q-160 0 -313 55z" />
    <glyph glyph-name="t" unicode="t" horiz-adv-x="776" 
d="M259.5 81.5q-85.5 81.5 -85.5 235.5v435h-84q-55 0 -55 75v27q0 40 15.5 57t39.5 17h84v188q0 31 23.5 49.5t81.5 18.5h55q58 0 80 -18t22 -50v-188h236q55 0 55 -74v-29q0 -73 -55 -73h-236v-394q0 -89 38 -127t118 -38h80q55 0 55 -74v-47q0 -72 -55 -72h-162
q-165 0 -250.5 81.5z" />
    <glyph glyph-name="u" unicode="u" horiz-adv-x="1034" 
d="M200 73q-108 93 -108 273v514q0 68 101 68h57q56 0 78 -18.5t22 -49.5v-508q0 -93 39.5 -135.5t128.5 -42.5t126.5 42t37.5 136v508q0 30 23.5 49t78.5 19h60q98 0 98 -68v-514q0 -181 -106 -273.5t-318 -92.5q-210 0 -318 93z" />
    <glyph glyph-name="v" unicode="v" horiz-adv-x="1034" 
d="M364 30.5q-50 40.5 -75 127.5l-219 696q-3 11 -3 21q0 53 93 53h59q60 0 90 -20.5t35 -53.5l162 -625q3 -7 6.5 -9.5t9.5 -2.5q13 0 15 12l174 625q15 74 123 74h40q95 0 95 -53q0 -7 -4 -21l-224 -694q-26 -89 -74 -129.5t-132 -40.5h-37q-84 0 -134 40.5z" />
    <glyph glyph-name="w" unicode="w" horiz-adv-x="1479" 
d="M250 133l-182 727q-2 12 -2 17q0 24 19.5 37.5t68.5 13.5h65q58 0 87 -18t34 -48l113 -622q2 -15 18 -15q5 0 7 2.5t5 12.5l146 620q12 68 116 68h33q99 0 111 -68l137 -620q1 -9 4.5 -12t9.5 -3q8 0 12 3t5 12l110 622q3 30 32 48t87 18h37q86 0 86 -51q0 -5 -2 -17
l-182 -727q-30 -143 -164 -143h-31q-142 0 -168 147l-112 494l-129 -494q-15 -74 -55.5 -110.5t-114.5 -36.5h-29q-138 0 -172 143z" />
    <glyph glyph-name="x" unicode="x" horiz-adv-x="1022" 
d="M89 12.5q-23 12.5 -23 33.5q0 12 6 24l239 395l-237 393q-6 12 -6 22q0 21 23 34.5t69 13.5h88q56 0 81.5 -18t39.5 -50l149 -280l148 280q15 32 41 50t81 18h66q46 0 69.5 -13t23.5 -34q0 -12 -7 -23l-235 -389l241 -399q7 -11 7 -24q0 -21 -23 -33.5t-70 -12.5h-84
q-58 0 -84 17.5t-37 50.5l-153 280l-158 -280q-10 -32 -36.5 -50t-84.5 -18h-63q-48 0 -71 12.5z" />
    <glyph glyph-name="y" unicode="y" horiz-adv-x="1008" 
d="M61 -281v29q0 76 54 76h41q79 0 136 46t91 138l10 31l-325 821q-5 12 -5 22q0 20 22 33t69 13h71q102 0 121 -68l186 -559l175 559q7 30 35 49t85 19h39q47 0 69 -13t22 -33q0 -10 -5 -22l-321 -860q-65 -176 -168.5 -264t-261.5 -88h-86q-54 0 -54 71z" />
    <glyph glyph-name="z" unicode="z" horiz-adv-x="930" 
d="M93.5 30q-32.5 30 -32.5 87q0 44 10.5 73.5t41.5 61.5l417 473q8 8 8 15q0 12 -18 12h-391q-25 0 -41 17t-16 58v27q0 40 16 57t41 17h606q55 0 87 -31t32 -88q0 -42 -11 -72.5t-40 -62.5l-418 -471q-7 -7 -7 -15q0 -6 4.5 -10t12.5 -4h424q23 0 38 -16.5t15 -55.5v-30
q0 -72 -53 -72h-639q-54 0 -86.5 30z" />
    <glyph glyph-name="comma" unicode="," horiz-adv-x="428" 
d="M23 -207q0 5 2 19l88 370q10 62 92 62h74q38 0 58 -14.5t20 -39.5q0 -11 -5 -28l-108 -359q-12 -35 -37 -51t-72 -16h-33q-79 0 -79 57z" />
    <glyph glyph-name="period" unicode="." horiz-adv-x="428" 
d="M113.5 23q-37.5 37 -37.5 98q0 62 37.5 98.5t99.5 36.5t99.5 -36.5t37.5 -98.5q0 -61 -37.5 -98t-99.5 -37t-99.5 37z" />
    <glyph glyph-name="zero" unicode="0" 
d="M296 55.5q-108 75.5 -155 224.5t-47 382q0 235 50.5 386.5t160 227.5t287.5 76q184 0 291 -76.5t152.5 -226t45.5 -383.5q0 -236 -48.5 -386.5t-157 -225t-287.5 -74.5q-184 0 -292 75.5zM727 242q48 45 67 144t19 278q0 181 -18 281t-66 146t-141 46q-91 0 -139.5 -46
t-67.5 -146.5t-19 -280.5t18 -278.5t66.5 -143.5t141.5 -45q91 0 139 45z" />
    <glyph glyph-name="one" unicode="1" horiz-adv-x="813" 
d="M448.5 19.5q-24.5 19.5 -24.5 54.5v989l-236 -121q-16 -7 -30 -7q-43 0 -64 56l-10 27q-13 35 -13 56q0 17 7 27t22 17l310 178q39 20 72.5 28.5t78.5 8.5h60q86 0 86 -63v-1196q0 -35 -24.5 -54.5t-88.5 -19.5h-57q-64 0 -88.5 19.5z" />
    <glyph glyph-name="two" unicode="2" horiz-adv-x="1186" 
d="M133.5 46.5q-45.5 46.5 -45.5 139.5q0 107 37 182t108.5 130t188.5 110l182 88q75 37 116.5 65t65 69t23.5 104q0 207 -236 207q-79 0 -160.5 -15.5t-154.5 -40.5l-76 -24q-11 -4 -22 -4q-17 0 -28 14t-19 47l-19 49q-6 23 -6 39q0 21 10.5 34t34.5 20l90 34
q80 26 175.5 42t195.5 16q154 0 264 -46.5t168.5 -136.5t58.5 -219q0 -120 -42.5 -202.5t-115.5 -136.5t-182 -103l-182 -88q-78 -41 -118.5 -69t-59.5 -62t-20 -84h669q62 0 62 -86v-33q0 -48 -17 -67t-45 -19h-772q-83 0 -128.5 46.5z" />
    <glyph glyph-name="three" unicode="3" 
d="M380 -2.5q-97 17.5 -175 45.5l-94 33q-25 9 -36 22t-11 35q0 17 6 39l18 57q11 36 22.5 51t30.5 15q11 0 23 -4l82 -31q86 -32 163.5 -51t155.5 -19q79 0 134 26.5t82.5 72.5t27.5 104q0 92 -62 138.5t-182 46.5h-116q-58 0 -58 79v35q0 78 58 78h112q114 0 175 52
t61 141q0 85 -54.5 131.5t-164.5 46.5q-141 0 -312 -64l-76 -26q-15 -5 -23 -5q-17 0 -28.5 15.5t-19.5 48.5l-17 55q-6 24 -6 41q0 20 10.5 32.5t32.5 18.5l90 35q79 27 173.5 43.5t195.5 16.5q149 0 254 -43.5t159 -124t54 -189.5q0 -110 -57 -191.5t-150 -119.5
q105 -31 168.5 -107.5t63.5 -197.5q0 -118 -62.5 -208.5t-177.5 -140.5t-268 -50q-105 0 -202 17.5z" />
    <glyph glyph-name="four" unicode="4" horiz-adv-x="1194" 
d="M709.5 20.5q-23.5 20.5 -23.5 55.5v219h-463q-69 0 -111 40.5t-42 117.5q0 49 13 86t50 102l350 561q46 75 106 112.5t150 37.5q93 0 149 -47.5t56 -130.5v-668h123q59 0 59 -86v-39q0 -50 -15.5 -68t-43.5 -18h-123v-219q0 -35 -22 -55.5t-80 -20.5h-51
q-58 0 -81.5 20.5zM686 506v541q0 9 -3.5 14t-9.5 5q-9 0 -16 -11l-315 -520q-5 -7 -5 -16q0 -13 17 -13h332z" />
    <glyph glyph-name="five" unicode="5" horiz-adv-x="1161" 
d="M376 -2.5q-97 17.5 -175 45.5l-95 33q-24 8 -35 21t-11 33q0 15 8 42l16 57q11 36 22.5 51t30.5 15q11 0 23 -4l80 -31q91 -33 166.5 -51.5t154.5 -18.5q72 0 125.5 28t82 77t28.5 111q0 87 -50 149.5t-151.5 105.5t-261.5 74q-71 11 -108.5 45.5t-37.5 87.5q0 26 9 56
l92 276q37 133 182 133h514q64 0 64 -88v-39q0 -48 -17 -67t-47 -19h-473l-68 -194q226 -43 365 -112.5t202.5 -167.5t63.5 -230q0 -128 -61 -227t-174 -154t-262 -55q-105 0 -202 17.5z" />
    <glyph glyph-name="six" unicode="6" horiz-adv-x="1151" 
d="M219 121q-131 141 -131 432v82q0 227 67.5 387.5t197.5 245t313 84.5q152 0 262 -41l51 -19q35 -14 35 -49q0 -15 -4 -31l-19 -61q-6 -28 -16 -41t-26 -13q-8 0 -17 3l-41 14q-83 27 -195 27q-153 0 -241 -108.5t-95 -309.5q98 133 318 133q181 0 283 -96.5t102 -294.5
v-39q0 -145 -59 -245t-164 -150.5t-242 -50.5q-248 0 -379 141zM747 233.5q54 53.5 54 178.5v39q0 122 -52 168.5t-151 46.5q-123 0 -177 -50.5t-54 -169.5v-32q0 -127 62.5 -180.5t162.5 -53.5q101 0 155 53.5z" />
    <glyph glyph-name="seven" unicode="7" horiz-adv-x="1116" 
d="M328.5 20.5q-26.5 20.5 -26.5 58.5q0 10 1 15q23 139 80.5 312t147 352t202.5 329q7 8 7 17q0 16 -23 16h-594q-62 0 -62 86v39q0 88 62 88h792q142 0 142 -143q0 -44 -15.5 -83t-52.5 -87q-112 -145 -196 -316t-134.5 -331.5t-70.5 -290.5q-15 -82 -109 -82h-76
q-48 0 -74.5 20.5z" />
    <glyph glyph-name="eight" unicode="8" horiz-adv-x="1196" 
d="M224 68q-136 88 -136 268v24q0 127 70 206.5t170 115.5q-88 34 -144.5 106.5t-56.5 182.5v20q0 176 124.5 268.5t348.5 92.5q226 0 348.5 -86.5t122.5 -261.5v-25q0 -112 -55.5 -184.5t-143.5 -108.5q99 -33 167.5 -110t68.5 -205v-29q0 -179 -136.5 -270.5t-373.5 -91.5
q-238 0 -374 88zM751 815.5q56 45.5 56 138.5v21q0 83 -54 127.5t-153 44.5q-98 0 -153.5 -46.5t-55.5 -127.5v-21q0 -93 56 -136.5t153 -45.5q95 0 151 45.5zM775.5 233.5q62.5 47.5 62.5 133.5v22q0 98 -66.5 141t-177.5 43q-108 0 -172 -46t-64 -142v-23q0 -87 62 -131.5
t178 -44.5q115 0 177.5 47.5z" />
    <glyph glyph-name="nine" unicode="9" horiz-adv-x="1151" 
d="M342 -7q-67 11 -119 30l-51 20q-19 7 -27 18t-8 28q0 16 4 32l19 63q9 52 40 52q8 0 19 -3l39 -14q91 -26 195 -26q155 0 243 107t95 312q-99 -137 -318 -137q-181 0 -283 98t-102 295v39q0 144 60.5 245t166.5 151.5t242 50.5q247 0 376.5 -141.5t129.5 -430.5v-84
q0 -226 -68 -386.5t-199 -245t-315 -84.5q-72 0 -139 11zM728 713.5q56 54.5 56 173.5v35q0 126 -60.5 179.5t-158.5 53.5q-104 0 -160.5 -54t-56.5 -179v-39q0 -123 54 -173.5t151 -50.5q119 0 175 54.5z" />
    <glyph glyph-name="bracketleft" unicode="[" horiz-adv-x="670" 
d="M113 -63v1366q0 34 17.5 51.5t51.5 17.5h361q71 0 71 -78v-28q0 -41 -18 -59.5t-53 -18.5h-172v-1133h172q34 0 52.5 -20t18.5 -60v-28q0 -41 -18 -59.5t-53 -18.5h-361q-69 0 -69 68z" />
    <glyph glyph-name="backslash" unicode="\" horiz-adv-x="811" 
d="M552.5 -30.5q-20.5 14.5 -28.5 42.5l-458 1284q-6 15 -6 29q0 24 16.5 37.5t46.5 13.5h86q60 0 80 -57l459 -1284q4 -12 4 -26q0 -26 -16.5 -40t-47.5 -14h-84q-31 0 -51.5 14.5z" />
    <glyph glyph-name="bracketright" unicode="]" horiz-adv-x="670" 
d="M72.5 -112.5q-17.5 18.5 -17.5 59.5v28q0 80 70 80h172v1133h-172q-35 0 -52.5 18.5t-17.5 59.5v28q0 78 70 78h360q34 0 53 -18t19 -51v-1366q0 -34 -19 -51t-53 -17h-360q-35 0 -52.5 18.5z" />
    <glyph glyph-name="colon" unicode=":" horiz-adv-x="428" 
d="M113.5 703q-37.5 37 -37.5 100q0 61 37.5 97t99.5 36t99.5 -36t37.5 -97q0 -63 -37.5 -100t-99.5 -37t-99.5 37zM113.5 23q-37.5 37 -37.5 98q0 62 37.5 98.5t99.5 36.5t99.5 -36.5t37.5 -98.5q0 -61 -37.5 -98t-99.5 -37t-99.5 37z" />
    <glyph glyph-name="semicolon" unicode=";" horiz-adv-x="428" 
d="M125.5 703.5q-37.5 37.5 -37.5 99.5q0 61 37 97t98 36t99 -36t38 -97q0 -62 -38 -99.5t-99 -37.5q-60 0 -97.5 37.5zM20 -212q0 10 3 24l83 370q7 31 29.5 46.5t65.5 15.5h71q39 0 59 -14.5t20 -39.5q0 -11 -5 -28l-108 -359q-12 -35 -36.5 -51t-72.5 -16h-31
q-78 0 -78 52z" />
    <glyph glyph-name="less" unicode="&#x3c;" 
d="M178 422q-55 17 -55 78v104q0 31 13 50.5t42 29.5l795 305q16 6 31 6q23 0 37 -16.5t14 -44.5v-62q0 -60 -58 -81l-628 -238l628 -231q30 -11 44 -30.5t14 -49.5v-64q0 -29 -13.5 -45t-37.5 -16q-14 0 -31 6z" />
    <glyph glyph-name="equal" unicode="=" 
d="M141 645.5q-18 18.5 -18 52.5v58q0 34 18 52.5t52 18.5h790q34 0 53 -18.5t19 -52.5v-58q0 -34 -19 -52.5t-53 -18.5h-790q-34 0 -52 18.5zM141 298.5q-18 17.5 -18 51.5v58q0 34 18 51.5t52 17.5h790q34 0 53 -18t19 -51v-58q0 -33 -19 -51t-53 -18h-790q-34 0 -52 17.5
z" />
    <glyph glyph-name="greater" unicode="&#x3e;" 
d="M174 117q-24 0 -37.5 16t-13.5 45v64q0 31 13 50t42 30l629 231l-629 238q-29 10 -42 30t-13 51v62q0 28 14 44.5t37 16.5q14 0 31 -6l792 -305q29 -11 43.5 -30t14.5 -50v-104q0 -60 -58 -78l-792 -299q-16 -6 -31 -6z" />
    <glyph glyph-name="at" unicode="@" horiz-adv-x="1817" 
d="M512.5 -127q-189.5 90 -298 265t-108.5 421q0 247 109 426.5t298 273t425 93.5q244 0 418.5 -94t264 -250t89.5 -338q0 -158 -54.5 -277t-149.5 -183.5t-214 -64.5q-88 0 -141.5 37.5t-71.5 100.5q-50 -66 -128.5 -104t-164.5 -38q-125 0 -191.5 61t-66.5 163
q0 128 90.5 198t276.5 82l176 10v23q0 73 -38 107t-123 34q-50 0 -110.5 -10.5t-111.5 -26.5l-45 -18q-12 -3 -20 -3q-15 0 -24 9.5t-13 30.5l-15 53q-2 16 -2 22q0 31 31 42l59 22q119 49 273 49q180 0 263 -72t83 -212v-347q0 -33 14.5 -47t48.5 -14q79 0 125.5 87
t46.5 253q0 153 -68 277t-199 196t-312 72q-172 0 -310 -72t-218 -210.5t-80 -330.5q0 -214 83.5 -349.5t224.5 -197t322 -61.5q107 0 224.5 19t205.5 51l50 20q15 5 25 5q15 0 25 -11t17 -35l15 -55q4 -13 4 -26q0 -16 -8.5 -26t-28.5 -18l-68 -24q-210 -78 -475 -78
q-240 0 -429.5 90zM954 319q51 20 84 60.5t33 99.5v51l-135 -8q-94 -4 -140 -38t-46 -93q0 -45 26.5 -68.5t75.5 -23.5q51 0 102 20z" />
    <glyph glyph-name="parenleft" unicode="(" horiz-adv-x="670" 
d="M415 -125.5q-21 7.5 -38 25.5q-131 125 -212 314t-81 404q0 217 81 406t212 315q17 18 38 25.5t48 7.5h53q27 0 41.5 -10t14.5 -28t-17 -44q-86 -120 -141.5 -293t-55.5 -379q0 -204 55.5 -376.5t141.5 -292.5q17 -26 17 -44t-14.5 -28t-41.5 -10h-53q-27 0 -48 7.5z" />
    <glyph glyph-name="parenright" unicode=")" horiz-adv-x="670" 
d="M103 -123q-15 10 -15 27q0 19 18 45q85 120 140 292.5t55 376.5q0 206 -55 379t-140 293q-18 26 -18 45q0 17 15 27t42 10h54q26 0 46 -7.5t40 -25.5q130 -126 210 -315t80 -406q0 -215 -80 -403.5t-210 -314.5q-20 -18 -40 -25.5t-46 -7.5h-54q-27 0 -42 10z" />
    <glyph glyph-name="fraction" unicode="&#x2044;" horiz-adv-x="41" 
d="M-366.5 11q-13.5 11 -13.5 31q0 16 11 40l621 1200q31 51 88 51h18q30 0 46 -12.5t16 -34.5q0 -17 -10 -37l-623 -1200q-27 -49 -84 -49h-31q-25 0 -38.5 11z" />
    <glyph glyph-name="braceleft" unicode="{" horiz-adv-x="670" 
d="M255 -104q-71 27 -111 79t-40 125q0 54 19.5 93.5t57.5 89.5q32 44 47.5 73t15.5 66q0 96 -92 106q-36 9 -54 27t-18 49v33q0 32 17.5 49.5t54.5 24.5q92 17 92 106q0 38 -15.5 67t-47.5 73q-38 50 -57.5 89.5t-19.5 94.5q0 73 40 125t111 79t163 27h125q71 0 71 -78v-28
q0 -78 -63 -78h-55q-71 0 -100 -32t-29 -81q0 -32 12 -56.5t37 -62.5q29 -42 44 -76t15 -81q0 -124 -131 -176q58 -24 94.5 -70t36.5 -111q0 -45 -15 -78.5t-43 -73.5q-25 -38 -37.5 -64.5t-12.5 -61.5q0 -45 31 -76t102 -31h53q31 0 46 -20t15 -62v-28q0 -41 -18 -59.5
t-53 -18.5h-125q-92 0 -163 27z" />
    <glyph glyph-name="bar" unicode="|" horiz-adv-x="526" 
d="M185 -334q-19 18 -19 51v1819q0 34 19 53t53 19h53q33 0 51 -19t18 -53v-1819q0 -34 -17.5 -51.5t-51.5 -17.5h-53q-34 0 -53 18z" />
    <glyph glyph-name="braceright" unicode="}" horiz-adv-x="670" 
d="M72.5 -112.5q-17.5 18.5 -17.5 59.5v28q0 42 14.5 62t45.5 20h53q70 0 101.5 31t31.5 76q0 36 -12.5 63.5t-37.5 62.5q-28 42 -42 74.5t-14 77.5q0 66 36 111.5t93 69.5q-129 52 -129 176q0 47 15 81.5t43 75.5q25 36 36.5 61.5t11.5 57.5q0 48 -29.5 80.5t-99.5 32.5
h-55q-62 0 -62 78v28q0 78 70 78h125q92 0 163 -27t111.5 -79t40.5 -125q0 -55 -19.5 -94.5t-56.5 -89.5q-32 -42 -47.5 -72t-15.5 -68q0 -90 92 -106q36 -7 53 -24.5t17 -49.5v-33q0 -31 -17.5 -49t-52.5 -27q-92 -10 -92 -106q0 -38 15.5 -67.5t47.5 -71.5
q37 -50 56.5 -89t19.5 -94q0 -73 -40.5 -125t-111.5 -79t-163 -27h-125q-35 0 -52.5 18.5z" />
    <glyph glyph-name="slash" unicode="/" horiz-adv-x="811" 
d="M76.5 -31.5q-16.5 13.5 -16.5 36.5q0 14 6 30l458 1284q16 57 80 57h84q30 0 47 -14.5t17 -39.5q0 -14 -4 -26l-459 -1284q-19 -57 -80 -57h-86q-30 0 -46.5 13.5z" />
    <glyph glyph-name="exclam" unicode="!" horiz-adv-x="459" 
d="M115 504l-13 762q0 67 95 67h63q53 0 74.5 -19t19.5 -48l-12 -762q0 -32 -20.5 -51t-73.5 -19h-41q-92 0 -92 70zM130.5 17q-38.5 37 -38.5 98q0 62 38.5 98.5t98.5 36.5q61 0 99.5 -36.5t38.5 -98.5q0 -61 -38.5 -98t-99.5 -37q-60 0 -98.5 37z" />
    <glyph glyph-name="question" unicode="?" horiz-adv-x="731" 
d="M195 452.5q-21 18.5 -21 49.5l-2 59q-2 49 14.5 89.5t41 71t66.5 72.5q41 41 65 70t40.5 67t16.5 85q0 67 -34.5 99t-102.5 32q-62 0 -119 -21l-41 -12q-10 -3 -19 -3q-16 0 -25 12t-14 38l-14 58q-3 15 -3 27q0 36 34 48l53 21q91 37 211 37q157 0 244.5 -80t87.5 -232
q0 -76 -22.5 -133t-54 -94.5t-82.5 -84.5q-38 -35 -59 -58t-36 -52.5t-17 -64.5l-2 -51q-2 -31 -22 -49.5t-72 -18.5h-39q-52 0 -73 18.5zM189 22.5q-37 36.5 -37 98.5q0 63 37 99t100 36q61 0 98 -36.5t37 -98.5q0 -61 -37.5 -98t-97.5 -37q-63 0 -100 36.5z" />
    <glyph glyph-name="plus" unicode="+" 
d="M508 106q-19 18 -19 52v297h-296q-34 0 -52 17.5t-18 51.5v58q0 34 18 52.5t52 18.5h296v295q0 34 19 53t53 19h53q35 0 53.5 -19t18.5 -53v-295h297q34 0 53 -18.5t19 -52.5v-58q0 -33 -19 -51t-53 -18h-297v-297q0 -34 -18 -52t-54 -18h-53q-34 0 -53 18z" />
    <glyph glyph-name="hyphen" unicode="-" horiz-adv-x="688" 
d="M88 470.5q-18 19.5 -18 66.5v32q0 88 65 88h418q29 0 46 -19.5t17 -68.5v-32q0 -49 -16.5 -67.5t-46.5 -18.5h-418q-29 0 -47 19.5z" />
    <glyph glyph-name="Lslash" unicode="&#x141;" horiz-adv-x="1047" 
d="M972.5 186.5q16.5 -18.5 16.5 -67.5v-31q0 -49 -17 -68.5t-46 -19.5h-623q-102 0 -148 39t-46 115v330l-19 -9q-24 -11 -40 -11q-23 0 -36.5 16t-13.5 44v47q0 65 57 88l52 25v571q0 37 25 57.5t91 20.5h56q67 0 92.5 -20.5t25.5 -57.5v-431l271 130q20 10 40 10
q23 0 36.5 -16t13.5 -45v-47q0 -57 -58 -88l-303 -145v-381q0 -37 43 -37h484q30 0 46.5 -18.5z" />
    <glyph glyph-name="lslash" unicode="&#x142;" horiz-adv-x="455" 
d="M120.5 18q-22.5 18 -22.5 50v491l-22 -12q-26 -14 -46 -14q-21 0 -32.5 14t-11.5 41v65q0 30 13 51.5t40 38.5l59 33v490q0 67 103 67h51q59 0 81.5 -18.5t22.5 -48.5v-346l21 12q26 14 45 14q22 0 34.5 -15t12.5 -42v-64q0 -60 -55 -90l-58 -30v-637q0 -32 -22.5 -50
t-81.5 -18h-51q-58 0 -80.5 18z" />
    <glyph glyph-name="quotedbl" unicode="&#x22;" horiz-adv-x="762" 
d="M138.5 857q-17.5 15 -19.5 46l-17 377q-3 72 82 72h47q85 0 82 -72l-18 -377q-3 -61 -76 -61h-26q-37 0 -54.5 15zM480.5 857q-17.5 15 -19.5 46l-19 377q-2 34 19.5 53t64.5 19h52q87 0 84 -72l-19 -377q-2 -31 -19.5 -46t-54.5 -15h-34q-37 0 -54.5 15z" />
    <glyph glyph-name="numbersign" unicode="#" 
d="M216 17q-11 17 -9 53l43 325h-105q-27 0 -46 17.5t-19 54.5v35q0 35 19 52t46 17h129l25 195h-154q-27 0 -46 18t-19 56v32q0 37 19 54.5t46 17.5h179l43 332q6 57 71 57h78q29 0 41.5 -13.5t12.5 -39.5q0 -13 -1 -20l-41 -316h191l43 332q3 29 23 43t51 14h75
q57 0 57 -57q0 -10 -1 -16l-41 -316h108q29 0 46.5 -17t17.5 -55v-34q0 -38 -17.5 -55t-46.5 -17h-133l-24 -195h157q29 0 46.5 -16.5t17.5 -52.5v-37q0 -70 -64 -70h-180l-45 -340q-4 -27 -22.5 -41t-47.5 -14h-82q-29 0 -41.5 13t-12.5 38q0 12 1 19l43 325h-188l-45 -340
q-3 -27 -21.5 -41t-48.5 -14h-84q-33 0 -44 17zM670 571l26 195h-190l-27 -195h191z" />
    <glyph glyph-name="dollar" unicode="$" 
d="M504 -242.5q-17 13.5 -17 37.5v209q-145 12 -266 53l-96 31q-22 8 -32.5 20.5t-10.5 32.5q0 14 6 33l18 59q8 30 19 42.5t29 12.5q10 0 30 -5l74 -25q68 -22 148 -35.5t157 -13.5q120 0 181 39.5t61 116.5q0 45 -21 71.5t-60.5 44t-117.5 41.5l-170 49q-109 32 -182 76.5
t-113.5 114.5t-40.5 172q0 104 44 187t131 136t212 68v207q0 24 17 37.5t61 13.5h41q42 0 59 -13.5t17 -37.5v-205q115 -10 238 -49l86 -27q41 -15 41 -54q0 -12 -5 -32l-18 -61q-7 -28 -18 -41t-28 -13q-11 0 -30 7l-63 20q-144 45 -273 45q-119 0 -174 -40t-55 -117
q0 -48 20 -76.5t58.5 -47t111.5 -40.5l172 -49q119 -34 193 -77.5t111.5 -110.5t37.5 -167q0 -164 -104 -267t-301 -124v-211q0 -51 -76 -51h-41q-44 0 -61 13.5z" />
    <glyph glyph-name="percent" unicode="%" horiz-adv-x="1270" 
d="M109.5 737q-64.5 90 -64.5 262q0 177 66 265t206 88q143 0 205 -86.5t62 -261.5q0 -177 -66 -267t-205 -90t-203.5 90zM247.5 11q-14.5 11 -14.5 30t13 41l620 1200q29 51 84 51h23q28 0 43.5 -12.5t15.5 -33.5q0 -18 -10 -38l-623 -1200q-27 -49 -84 -49h-28
q-25 0 -39.5 11zM395.5 827q24.5 53 24.5 177q0 121 -24 172t-81 51q-56 0 -80 -51t-24 -172q0 -124 24 -177t80 -53t80.5 53zM748.5 70.5q-64.5 90.5 -64.5 263.5q0 177 66 264.5t206 87.5q143 0 205 -86.5t62 -261.5q0 -177 -66.5 -267.5t-204.5 -90.5q-139 0 -203.5 90.5
zM1033 161.5q24 52.5 24 176.5q0 82 -10 130.5t-32.5 70.5t-60.5 22q-56 0 -80 -51t-24 -172q0 -85 10.5 -134.5t33 -72t60.5 -22.5q55 0 79 52.5z" />
    <glyph glyph-name="ampersand" unicode="&#x26;" horiz-adv-x="1448" 
d="M296 23q-96 43 -150 124t-54 193q0 97 38.5 167t101.5 117.5t151 88.5q-53 66 -81 132t-28 138q0 106 46.5 187t133 126t203.5 45q167 0 258 -81.5t91 -225.5q0 -92 -40.5 -157.5t-103.5 -109t-155 -85.5l278 -291q59 79 90 172.5t31 190.5v59q0 59 74 59h51q76 0 76 -59
v-98q0 -125 -45.5 -248t-131.5 -223l158 -164q23 -25 23 -45q0 -19 -19 -30t-55 -11h-107q-36 0 -59 8.5t-43 28.5l-63 69q-196 -120 -449 -120q-124 0 -220 43zM741 900.5q52 52.5 52 127.5q0 65 -35 100t-99 35q-67 0 -107 -44.5t-40 -119.5q0 -55 20 -101.5t60 -94.5
q97 45 149 97.5zM825 244l-323 338q-71 -41 -109.5 -92.5t-38.5 -124.5q0 -57 27 -100t75.5 -67t112.5 -24q137 0 256 70z" />
    <glyph glyph-name="quotesingle" unicode="'" horiz-adv-x="428" 
d="M135.5 857q-16.5 15 -18.5 48l-15 369q-2 40 17.5 59t62.5 19h60q85 0 82 -78l-21 -369q-2 -33 -18.5 -48t-53.5 -15h-41q-38 0 -54.5 15z" />
    <glyph glyph-name="asterisk" unicode="*" horiz-adv-x="979" 
d="M252 702q-30 23 -30 51q0 25 22 48l121 133l-177 39q-26 4 -40 19.5t-14 38.5q0 11 5 28l19 55q7 24 21.5 36.5t34.5 12.5q15 0 34 -8l166 -80l-21 185q-1 4 -1 13q0 29 18 44.5t51 15.5h57q32 0 49.5 -15.5t17.5 -44.5q0 -8 -1 -13l-21 -187l170 82q19 8 34 8
q20 0 34.5 -12.5t21.5 -36.5l19 -55q4 -13 4 -27q0 -24 -13.5 -39.5t-39.5 -19.5l-179 -39l121 -133q22 -23 22 -48q0 -29 -32 -53l-47 -32q-21 -15 -41 -15q-32 0 -55 37l-93 156l-92 -156q-9 -19 -22.5 -28.5t-29.5 -9.5q-22 0 -44 16z" />
    <glyph glyph-name="asciicircum" unicode="^" 
d="M165 119q-16 13 -16 35q0 15 7 32l303 781q12 28 32 41.5t50 13.5h102q62 0 82 -57l297 -779q5 -14 5 -30q0 -24 -15.5 -37t-44.5 -13h-70q-31 0 -50 13t-30 41l-227 614l-232 -614q-10 -28 -29.5 -41t-49.5 -13h-70q-28 0 -44 13z" />
    <glyph glyph-name="underscore" unicode="_" horiz-adv-x="979" 
d="M-4 -113h987v-172h-987v172z" />
    <glyph glyph-name="asciitilde" unicode="~" 
d="M133 410.5q-24 31.5 -24 89.5q0 62 28.5 114t87.5 83.5t146 31.5q81 0 142 -20.5t138 -58.5q54 -28 92.5 -42t79.5 -14q33 0 53 10.5t29.5 26t18.5 40.5q12 30 24 44t39 14q33 0 57.5 -31t24.5 -88q0 -64 -29 -116t-88 -83.5t-145 -31.5q-78 0 -136 19.5t-130 55.5
q-62 31 -102 45.5t-89 14.5q-32 0 -51 -10.5t-28 -25.5t-19 -40q-11 -30 -23.5 -44.5t-40.5 -14.5q-31 0 -55 31.5z" />
    <glyph glyph-name="quotesinglbase" unicode="&#x201a;" horiz-adv-x="428" 
d="M23 -207q0 5 2 19l88 370q10 62 92 62h74q38 0 58 -14.5t20 -39.5q0 -11 -5 -28l-108 -359q-12 -35 -37 -51t-72 -16h-33q-79 0 -79 57z" />
    <glyph glyph-name="florin" unicode="&#x192;" 
d="M77 -340.5q-39 32.5 -36 86.5v18q2 25 19 37.5t55 12.5q69 0 109 37.5t52 117.5l111 783h-111q-24 0 -39.5 17t-15.5 58v27q0 40 15.5 57t39.5 17h134l4 24q27 192 142 296t310 104h90q24 0 39 -16.5t15 -55.5v-47q0 -39 -15 -55.5t-39 -16.5h-53q-100 0 -155.5 -49
t-71.5 -164l-4 -20h166q24 0 38.5 -17t14.5 -57v-29q0 -73 -53 -73h-189l-112 -791q-23 -163 -116.5 -248.5t-236.5 -85.5q-68 0 -107 32.5z" />
    <glyph glyph-name="quotedblbase" unicode="&#x201e;" horiz-adv-x="772" 
d="M23 -207q0 5 2 19l88 370q10 62 92 62h74q38 0 58 -14.5t20 -39.5q0 -11 -5 -28l-108 -359q-12 -35 -37 -51t-72 -16h-33q-79 0 -79 57zM381 -209q0 14 2 21l86 370q6 30 28.5 46t65.5 16h72q39 0 59 -14.5t20 -39.5q0 -11 -5 -28l-109 -359q-11 -34 -36.5 -50.5
t-71.5 -16.5h-33q-78 0 -78 55z" />
    <glyph glyph-name="ellipsis" unicode="&#x2026;" horiz-adv-x="1280" 
d="M113.5 23q-37.5 37 -37.5 98q0 62 37.5 98.5t99.5 36.5t99.5 -36.5t37.5 -98.5q0 -61 -37.5 -98t-99.5 -37t-99.5 37zM540 23q-38 37 -38 98q0 62 38 98.5t99 36.5t99 -36.5t38 -98.5q0 -61 -38 -98t-99 -37t-99 37zM967 22.5q-37 36.5 -37 98.5q0 63 37 99t100 36
q61 0 99 -36.5t38 -98.5q0 -61 -38 -98t-99 -37q-63 0 -100 36.5z" />
    <glyph glyph-name="dagger" unicode="&#x2020;" 
d="M495.5 -336.5q-17.5 17.5 -16.5 51.5l27 1002l-338 -29q-34 -3 -53 14.5t-19 51.5v86q0 35 19 51.5t53 13.5l338 -26l-29 381q-3 35 14.5 54t51.5 19h90q34 0 52.5 -19t14.5 -54l-32 -381l340 26q34 3 52.5 -13.5t18.5 -51.5v-86q0 -34 -18.5 -51.5t-52.5 -14.5l-340 29
l30 -1002q1 -33 -17 -51t-52 -18h-82q-34 0 -51.5 17.5z" />
    <glyph glyph-name="daggerdbl" unicode="&#x2021;" 
d="M492 -333q-18 19 -15 54l29 340l-338 -30q-34 -3 -53 14.5t-19 52.5v84q0 35 19 52.5t53 15.5l338 -29l-27 262l27 271l-338 -27q-34 -3 -53 14.5t-19 51.5v88q0 33 19 49.5t53 13.5l338 -29l-29 345q-3 35 15 54t53 19h88q34 0 52.5 -19t14.5 -54l-32 -345l340 29
q34 3 52.5 -13t18.5 -50v-88q0 -34 -18.5 -51.5t-52.5 -14.5l-340 27l28 -271l-28 -262l340 29q34 2 52.5 -15.5t18.5 -52.5v-84q0 -35 -18.5 -52.5t-52.5 -14.5l-340 30l32 -340q4 -35 -14.5 -54t-52.5 -19h-88q-35 0 -53 19z" />
    <glyph glyph-name="perthousand" unicode="&#x2030;" horiz-adv-x="1866" 
d="M109.5 737q-64.5 90 -64.5 262q0 177 66 265t206 88q143 0 205 -86.5t62 -261.5q0 -177 -66 -267t-205 -90t-203.5 90zM247.5 11q-14.5 11 -14.5 30t13 41l620 1200q29 51 84 51h23q28 0 43.5 -12.5t15.5 -33.5q0 -18 -10 -38l-623 -1200q-27 -49 -84 -49h-28
q-25 0 -39.5 11zM395.5 827q24.5 53 24.5 177q0 121 -24 172t-81 51q-56 0 -80 -51t-24 -172q0 -124 24 -177t80 -53t80.5 53zM748.5 70.5q-64.5 90.5 -64.5 263.5q0 177 66 264.5t206 87.5q143 0 205 -86.5t62 -261.5q0 -177 -66.5 -267.5t-204.5 -90.5q-139 0 -203.5 90.5
zM1346 70.5q-64 90.5 -64 263.5q0 177 66 264.5t204 87.5q144 0 205.5 -86t61.5 -262q0 -177 -65.5 -267.5t-203.5 -90.5q-140 0 -204 90.5zM1033 161.5q24 52.5 24 176.5q0 82 -10 130.5t-32.5 70.5t-60.5 22q-56 0 -80 -51t-24 -172q0 -85 10.5 -134.5t33 -72t60.5 -22.5
q55 0 79 52.5zM1630.5 161q24.5 52 24.5 177q0 82 -10 130.5t-32.5 70.5t-60.5 22q-56 0 -80 -51t-24 -172q0 -85 10 -134.5t32 -72t60 -22.5q56 0 80.5 52z" />
    <glyph glyph-name="guilsinglleft" unicode="&#x2039;" horiz-adv-x="645" 
d="M356.5 109.5q-20.5 9.5 -30.5 25.5l-209 377q-12 24 -12 44q0 18 12 42l213 373q8 18 28 26.5t45 8.5h86q25 0 38.5 -11t13.5 -31q0 -13 -6 -30l-173 -381l173 -381q6 -16 6 -30q0 -20 -13.5 -31t-38.5 -11h-90q-22 0 -42.5 9.5z" />
    <glyph glyph-name="OE" unicode="&#x152;" horiz-adv-x="2011" 
d="M236 144.5q-148 164.5 -148 502.5v39q0 336 147.5 501t442.5 165q134 0 217 -39t129 -90q25 110 193 110h649q28 0 46.5 -20t18.5 -68v-35q0 -46 -18.5 -66t-46.5 -20h-520q-43 0 -43 -32v-320h471q59 0 59 -80v-33q0 -79 -59 -79h-471v-338q0 -35 43 -35h520
q65 0 65 -88v-33q0 -47 -18.5 -66.5t-46.5 -19.5h-649q-177 0 -193 117q-49 -54 -132 -95.5t-214 -41.5q-294 0 -442 164.5zM915.5 231q69.5 43 104.5 105v655q-35 63 -105 108.5t-186 45.5q-118 0 -191 -45.5t-108 -146t-35 -267.5v-39q0 -170 35 -270t107.5 -144.5
t191.5 -44.5q117 0 186.5 43z" />
    <glyph glyph-name="quoteleft" unicode="&#x2018;" horiz-adv-x="428" 
d="M66 837.5q-20 14.5 -20 39.5q0 11 5 26l109 359q19 71 108 71h25q39 0 59 -15t20 -42q0 -11 -3 -23l-84 -366q-7 -33 -30 -48.5t-67 -15.5h-63q-39 0 -59 14.5z" />
    <glyph glyph-name="quoteright" unicode="&#x2019;" horiz-adv-x="428" 
d="M45 883q0 6 2 20l86 369q6 32 28.5 47.5t65.5 15.5h66q38 0 58 -16t20 -42q0 -13 -4 -24l-111 -358q-19 -70 -109 -70h-24q-78 0 -78 58z" />
    <glyph glyph-name="quotedblleft" unicode="&#x201c;" horiz-adv-x="797" 
d="M66 837.5q-20 14.5 -20 39.5q0 11 5 26l109 359q19 71 108 71h25q39 0 59 -15t20 -42q0 -11 -3 -23l-84 -366q-7 -33 -30 -48.5t-67 -15.5h-63q-39 0 -59 14.5zM435 837q-20 14 -20 39q0 10 5 27l108 359q10 35 35.5 53t73.5 18h25q38 0 58 -14.5t20 -41.5q0 -10 -3 -24
l-84 -366q-12 -64 -96 -64h-63q-39 0 -59 14z" />
    <glyph glyph-name="quotedblright" unicode="&#x201d;" horiz-adv-x="797" 
d="M45 883q0 6 2 20l86 369q6 32 28.5 47.5t65.5 15.5h66q38 0 58 -16t20 -42q0 -13 -4 -24l-111 -358q-19 -70 -109 -70h-24q-78 0 -78 58zM414 883q0 6 2 20l86 369q6 32 28.5 47.5t65.5 15.5h66q37 0 57 -15.5t20 -41.5q0 -13 -4 -25l-110 -358q-10 -35 -36 -52.5
t-73 -17.5h-24q-78 0 -78 58z" />
    <glyph glyph-name="bullet" unicode="&#x2022;" horiz-adv-x="684" 
d="M220.5 341q-55.5 30 -87 85t-31.5 127q0 73 31 128.5t86 85.5t123 30q112 0 176 -64t64 -174q0 -72 -29.5 -128.5t-83.5 -88t-123 -31.5q-70 0 -125.5 30z" />
    <glyph glyph-name="endash" unicode="&#x2013;" 
d="M102 539v30q0 86 62 86h848q61 0 61 -86v-32q0 -84 -61 -84h-848q-62 0 -62 86z" />
    <glyph glyph-name="emdash" unicode="&#x2014;" horiz-adv-x="1649" 
d="M102 539v30q0 86 62 86h1321q61 0 61 -86v-32q0 -47 -16.5 -65.5t-44.5 -18.5h-1321q-62 0 -62 86z" />
    <glyph glyph-name="trademark" unicode="&#x2122;" horiz-adv-x="1663" 
d="M338.5 640q-16.5 17 -16.5 48v508h-150q-31 0 -47 16.5t-16 47.5v8q0 31 16 48t47 17h485q31 0 47.5 -17t16.5 -48v-8q0 -31 -16.5 -47.5t-47.5 -16.5h-151v-508q0 -31 -18 -48t-50 -17h-51q-32 0 -48.5 17zM797 688v580q0 65 63 65h119q29 0 46 -14t24 -43l114 -414
l115 414q12 57 70 57h118q31 0 47.5 -17t16.5 -48v-580q0 -31 -16.5 -48t-47.5 -17h-34q-31 0 -48.5 17t-17.5 48v440l-125 -448q-7 -29 -25 -43t-47 -14h-28q-61 0 -70 57l-127 446v-438q0 -31 -16.5 -48t-48.5 -17h-19q-63 0 -63 65z" />
    <glyph glyph-name="guilsinglright" unicode="&#x203a;" horiz-adv-x="643" 
d="M118.5 111q-13.5 11 -13.5 31q0 14 6 30l172 381l-172 381q-6 18 -6 31q0 20 13 30.5t38 10.5h86q54 0 73 -35l211 -373q13 -23 13 -44q0 -19 -13 -42l-207 -377q-10 -16 -30.5 -25.5t-42.5 -9.5h-90q-24 0 -37.5 11z" />
    <glyph glyph-name="oe" unicode="&#x153;" horiz-adv-x="1686" 
d="M191.5 92q-119.5 112 -119.5 350v41q0 239 119.5 351t349.5 112q118 0 204 -30t142 -95q58 62 140 93.5t183 31.5q128 0 219.5 -36t139 -103t47.5 -158q0 -99 -43.5 -157.5t-132 -85.5t-230.5 -31l-200 -6q21 -96 94.5 -140.5t179.5 -44.5q45 0 95.5 8t90.5 21l43 16
q13 5 24 5q14 0 22.5 -10.5t15.5 -35.5l18 -65q4 -15 4 -28q0 -30 -32 -44l-62 -26q-118 -45 -272 -45q-107 0 -194.5 31.5t-147.5 94.5q-57 -65 -144 -95.5t-204 -30.5q-230 0 -349.5 112zM1159 510q84 2 131 10t75 34t28 79q0 63 -41.5 99t-132.5 36q-110 0 -164.5 -62.5
t-55.5 -201.5zM661.5 186q44.5 26 65.5 87t21 169v41q0 109 -21 170t-65.5 86t-118.5 25t-117.5 -25.5t-63.5 -86t-20 -169.5v-39q0 -109 20 -170.5t63.5 -87.5t117.5 -26t118.5 26z" />
    <glyph glyph-name="Ydieresis" unicode="&#x178;" horiz-adv-x="1290" 
d="M405.5 1469q-36.5 35 -36.5 94q0 56 37 91.5t94 35.5q55 0 91 -35.5t36 -91.5q0 -59 -35.5 -94t-91.5 -35q-58 0 -94.5 35zM734 1469q-36 35 -36 94q0 56 36.5 91.5t94.5 35.5q56 0 91.5 -35.5t35.5 -91.5q0 -59 -35.5 -94t-91.5 -35q-59 0 -95 35zM527.5 20.5
q-25.5 20.5 -25.5 55.5v467l-422 710q-8 16 -8 28q0 24 25.5 38t76.5 14h94q64 0 92.5 -19.5t42.5 -56.5l259 -483l260 483q14 37 42.5 56.5t92.5 19.5h59q51 0 76.5 -14t25.5 -38q0 -12 -8 -28l-415 -704v-473q0 -35 -26 -55.5t-93 -20.5h-58q-65 0 -90.5 20.5z" />
    <glyph glyph-name="exclamdown" unicode="&#xa1;" horiz-adv-x="459" 
d="M130.5 766q-38.5 37 -38.5 98t38.5 98t98.5 37q61 0 99.5 -37t38.5 -98t-38.5 -98t-99.5 -37q-60 0 -98.5 37zM104 -287l11 764q2 32 22.5 50t73.5 18h39q53 0 72.5 -18t19.5 -50l14 -764q0 -30 -20 -47.5t-74 -17.5h-63q-99 0 -95 65z" />
    <glyph glyph-name="cent" unicode="&#xa2;" 
d="M532 13.5q-16 13.5 -16 39.5v131q-350 48 -350 457v37q0 409 350 457v147q0 24 16 37.5t60 13.5h43q76 0 76 -51v-143q109 -15 184 -43l59 -23q21 -7 29.5 -19t8.5 -32q0 -12 -3 -29l-16 -61q-12 -55 -45 -55q-10 0 -21 4l-45 14q-85 29 -172 29q-119 0 -179 -56
t-60 -190v-37q0 -134 60 -190t179 -56q87 0 172 29l45 14q10 3 20 3q18 0 29 -13.5t17 -40.5l16 -61q3 -16 3 -29q0 -20 -9 -32.5t-29 -18.5l-59 -23q-82 -31 -184 -43v-127q0 -25 -16.5 -39t-59.5 -14h-43q-44 0 -60 13.5z" />
    <glyph glyph-name="sterling" unicode="&#xa3;" horiz-adv-x="1219" 
d="M704.5 -6q-56.5 17 -135.5 50q-73 30 -122 45t-105 15q-62 0 -119 -22q-22 -8 -36 -8q-35 0 -35 47v47q0 28 12.5 45.5t40.5 30.5q125 59 125 186q0 49 -17 92h-198q-39 0 -39 60v32q0 32 11 46t28 14h123q-34 61 -53 121t-19 137q0 124 57 219t165.5 148t258.5 53
q276 0 424 -185l39 -47q12 -15 12 -30q0 -22 -28 -50l-54 -43q-30 -25 -47 -25q-15 0 -28 17l-31 35q-110 117 -252 117q-124 0 -187 -63t-63 -173q0 -69 13.5 -117.5t41.5 -113.5h324q20 0 30.5 -14t10.5 -46v-32q0 -33 -10.5 -46.5t-30.5 -13.5h-276q6 -30 6 -71
q0 -86 -45 -162q51 -6 91 -18.5t97 -35.5q54 -22 89.5 -32t74.5 -10q61 0 90 25.5t29 76.5v31q0 23 14 35t45 12h59q56 0 56 -49v-43q0 -86 -35 -155t-105 -109t-172 -40q-68 0 -124.5 17z" />
    <glyph glyph-name="yen" unicode="&#xa5;" 
d="M442 76v356h-338q-19 0 -30 12.5t-11 44.5v33q0 60 41 60h334l-55 104h-279q-41 0 -41 59v33q0 60 41 60h195l-227 415q-6 14 -6 27q0 24 24.5 38.5t77.5 14.5h68q63 0 92.5 -20t42.5 -56l225 -503l221 503q12 37 41 56.5t94 19.5h56q52 0 77.5 -14.5t25.5 -38.5
q0 -11 -7 -27l-230 -415h199q43 0 43 -60v-33q0 -59 -43 -59h-280l-58 -104h338q43 0 43 -60v-33q0 -32 -11.5 -44.5t-31.5 -12.5h-340v-356q0 -35 -26.5 -55.5t-92.5 -20.5h-53q-119 0 -119 76z" />
    <glyph glyph-name="brokenbar" unicode="&#xa6;" horiz-adv-x="526" 
d="M185 776.5q-19 18.5 -19 52.5v707q0 34 19 53t53 19h49q36 0 54.5 -19t18.5 -53v-707q0 -34 -18.5 -52.5t-54.5 -18.5h-49q-34 0 -53 18.5zM185 -334q-19 18 -19 51v729q0 34 19 52t53 18h49q73 0 73 -70v-729q0 -69 -73 -69h-49q-34 0 -53 18z" />
    <glyph glyph-name="section" unicode="&#xa7;" 
d="M354 -361.5q-64 11.5 -114 31.5l-52 21q-16 7 -23 18t-7 29q0 6 2 26l10 56q12 49 40 49q10 0 19 -4l43 -17q47 -15 88.5 -23.5t88.5 -8.5q79 0 121 41.5t42 107.5q0 59 -30.5 112.5t-75.5 98.5t-124 114q-98 84 -159 147.5t-104 149t-43 189.5q0 81 33 147t88.5 110
t124.5 63q25 118 119.5 187t250.5 69q68 0 131.5 -11.5t112.5 -31.5l51 -19q20 -8 27.5 -20t7.5 -31q0 -7 -2 -25l-14 -53q-5 -25 -14.5 -37t-25.5 -12q-9 0 -20 4l-43 14q-82 33 -174 33q-81 0 -121.5 -40t-40.5 -107q0 -59 30 -112t75.5 -98.5t123.5 -112.5
q99 -86 159.5 -149.5t103.5 -149t43 -189.5q0 -82 -33 -148t-89 -109.5t-124 -62.5q-26 -119 -120 -188.5t-251 -69.5q-67 0 -131 11.5zM909 90.5q19 37.5 19 85.5q0 74 -38.5 138.5t-95.5 116.5t-155 127q-95 73 -154 125.5t-105.5 119.5t-60.5 145q-31 -20 -50 -57.5
t-19 -85.5q0 -75 38.5 -140t96 -117t154.5 -126q94 -72 153.5 -125t105.5 -120.5t60 -145.5q32 22 51 59.5z" />
    <glyph glyph-name="copyright" unicode="&#xa9;" horiz-adv-x="1792" 
d="M491 -53.5q-182 91.5 -286.5 260.5t-104.5 393q0 226 102 396.5t282 263t407 92.5q231 0 413 -93t285 -261t103 -386q0 -227 -102.5 -398.5t-283.5 -265t-409 -93.5q-224 0 -406 91.5zM1216 80.5q137 74.5 214 210.5t77 315q0 197 -82.5 330.5t-223 198.5t-316.5 65
t-312.5 -73t-213 -208t-76.5 -315q0 -198 82 -332.5t222.5 -200t317.5 -65.5q174 0 311 74.5zM607.5 276q-109.5 96 -109.5 314v33q0 219 109 314t306 95q136 0 248 -41l49 -18q34 -10 34 -44q0 -13 -3 -28l-16 -63q-9 -48 -40 -48q-8 0 -18 3l-43 14q-73 24 -157 24
q-112 0 -169 -46.5t-57 -161.5v-33q0 -113 57 -159t169 -46q91 0 157 23l43 14q11 3 18 3q16 0 25.5 -11.5t14.5 -36.5l16 -66q3 -15 3 -27q0 -17 -8 -27.5t-26 -14.5l-49 -21q-126 -41 -248 -41q-196 0 -305.5 96z" />
    <glyph glyph-name="logicalnot" unicode="&#xac;" 
d="M873 287q-19 19 -19 53v287h-661q-34 0 -52 18.5t-18 52.5v58q0 34 18 52.5t52 18.5h790q34 0 53 -18.5t19 -52.5v-416q0 -34 -19 -53t-53 -19h-57q-34 0 -53 19z" />
    <glyph glyph-name="minus" unicode="&#x2212;" 
d="M141 470.5q-18 17.5 -18 51.5v60q0 34 18 52.5t52 18.5h790q34 0 53 -18.5t19 -52.5v-60q0 -33 -19 -51t-53 -18h-790q-34 0 -52 17.5z" />
    <glyph glyph-name="registered" unicode="&#xae;" horiz-adv-x="1792" 
d="M490.5 -54q-181.5 91 -286 259.5t-104.5 392.5q0 227 102 398t282 263.5t407 92.5q231 0 413 -93t285 -261t103 -386q0 -228 -102.5 -399.5t-283.5 -264.5t-409 -93q-225 0 -406.5 91zM1216 80q137 74 214 209.5t77 314.5q0 197 -82.5 331t-223.5 199.5t-316 65.5
q-176 0 -312.5 -73.5t-213 -209t-76.5 -315.5q0 -197 82 -331t223 -199.5t317 -65.5q174 0 311 74zM584 254v686q0 33 21 50.5t75 17.5h332q127 0 190.5 -61.5t63.5 -166.5q0 -90 -48.5 -151.5t-138.5 -77.5q21 -16 38.5 -31.5t33.5 -44.5l115 -227q5 -12 5 -19
q0 -28 -63 -28h-51q-47 0 -70.5 12t-31.5 35l-94 203q-23 39 -44 56.5t-59 18.5h-72v-272q0 -25 -18 -39t-63 -14h-39q-82 0 -82 53zM952 651q59 0 88 32t29 85q0 54 -28 81.5t-91 27.5h-164v-226h166z" />
    <glyph glyph-name="degree" unicode="&#xb0;" horiz-adv-x="936" 
d="M297.5 755q-77.5 40 -121 111.5t-43.5 163.5q0 94 43.5 167.5t120.5 114t176 40.5q97 0 172 -40.5t116.5 -113.5t41.5 -168q0 -92 -41.5 -163.5t-116.5 -111.5t-172 -40q-98 0 -175.5 40zM575 925q39 40 39 107q0 69 -39 110.5t-102 41.5q-66 0 -106.5 -41.5
t-40.5 -110.5q0 -67 40.5 -107t106.5 -40q63 0 102 40z" />
    <glyph glyph-name="plusminus" unicode="&#xb1;" 
d="M508 316q-19 19 -19 53v209h-296q-34 0 -52 18.5t-18 52.5v49q0 34 18 52t52 18h296v213q0 34 19 53t53 19h53q35 0 53.5 -19t18.5 -53v-213h297q34 0 53 -18t19 -52v-49q0 -34 -19 -52.5t-53 -18.5h-297v-209q0 -34 -18.5 -53t-53.5 -19h-53q-34 0 -53 19zM141 18
q-18 18 -18 52v49q0 34 18 52.5t52 18.5h790q34 0 53 -18.5t19 -52.5v-49q0 -34 -19 -52t-53 -18h-790q-34 0 -52 18z" />
    <glyph glyph-name="paragraph" unicode="&#xb6;" horiz-adv-x="1276" 
d="M657 18q-18 18 -18 52v456h-107q-125 0 -221 49t-149 140t-53 213q0 120 51.5 211.5t146.5 142.5t221 51h543q34 0 52 -18.5t18 -52.5v-1192q0 -34 -18 -52t-52 -18h-57q-34 0 -53 18t-19 52v1079h-104v-1079q0 -34 -19 -52t-53 -18h-57q-34 0 -52 18zM639 711v438h-68
q-102 0 -157.5 -56.5t-55.5 -158.5q0 -104 55 -163.5t156 -59.5h70z" />
    <glyph glyph-name="periodcentered" unicode="&#xb7;" horiz-adv-x="500" 
d="M152 457q-37 37 -37 98q0 60 37 96.5t98 36.5q60 0 98.5 -36.5t38.5 -96.5q0 -61 -38 -98t-99 -37t-98 37z" />
    <glyph glyph-name="questiondown" unicode="&#xbf;" horiz-adv-x="731" 
d="M344.5 760q-37.5 37 -37.5 98t37.5 98t97.5 37q62 0 100 -37t38 -98t-38 -98t-100 -37q-60 0 -97.5 37zM144.5 -292.5q-87.5 80.5 -87.5 231.5q0 77 22.5 133.5t53.5 93.5t83 86q38 35 59 58t36 52.5t17 65.5l2 49q2 32 22 50t72 18h39q53 0 73.5 -17.5t20.5 -50.5l2 -57
q2 -50 -14.5 -91t-41.5 -71.5t-67 -72.5q-40 -40 -64 -69t-40.5 -67t-16.5 -84q0 -67 34.5 -99t103.5 -32q58 0 118 19l41 14q11 3 18 3q17 0 26 -12t14 -38l14 -60q3 -15 3 -27q0 -18 -8 -28.5t-26 -17.5l-53 -23q-97 -37 -211 -37q-157 0 -244.5 80.5z" />
    <glyph glyph-name="AE" unicode="&#xc6;" horiz-adv-x="1892" 
d="M63 45q0 12 5 27l446 1071q36 101 91.5 145.5t154.5 44.5h981q63 0 63 -88v-35q0 -86 -63 -86h-563v-352h471q59 0 59 -80v-33q0 -79 -59 -79h-471v-338q0 -35 43 -35h520q63 0 63 -88v-33q0 -86 -63 -86h-649q-103 0 -151 39.5t-48 114.5v206h-426l-113 -288
q-23 -82 -143 -82h-49q-99 0 -99 55zM893 547v575h-115q-8 0 -12.5 -3t-7.5 -11l-219 -561h354z" />
    <glyph glyph-name="multiply" unicode="&#xd7;" 
d="M588 416l-234 -232q-22 -22 -48 -22t-52 22l-37 37q-23 26 -23 51q0 27 23 50l232 233l-232 231q-24 24 -24 50t24 51l37 37q27 24 52 24t48 -24l234 -232l233 234q25 23 50 23q26 0 51 -23l36 -39q24 -24 24 -50q0 -25 -24 -51l-233 -231l233 -233q24 -24 24 -51
q0 -26 -24 -50l-36 -39q-23 -22 -50 -22q-26 0 -51 22z" />
    <glyph glyph-name="Thorn" unicode="&#xde;" horiz-adv-x="1208" 
d="M131.5 19q-22.5 19 -22.5 51v1192q0 32 23 51.5t83 19.5h74q110 0 110 -71v-181h306q152 0 248 -40.5t142 -125.5t46 -219q0 -198 -109.5 -300.5t-324.5 -102.5h-308v-223q0 -32 -24 -51t-86 -19h-74q-61 0 -83.5 19zM643 485q117 0 170 50t53 157q0 70 -22.5 112
t-72 61.5t-132.5 19.5h-240v-400h244z" />
    <glyph glyph-name="germandbls" unicode="&#xdf;" horiz-adv-x="1055" 
d="M119 18q-21 18 -21 50v804q0 139 66 248t189.5 170.5t289.5 61.5q167 0 255.5 -75.5t88.5 -207.5q0 -66 -23 -117.5t-55 -87.5t-83 -83q-50 -45 -74.5 -75.5t-24.5 -66.5q0 -32 22.5 -53.5t72.5 -51.5q51 -30 84 -57t57 -72.5t24 -111.5q0 -89 -42 -155.5t-116.5 -102
t-169.5 -35.5h-133q-51 0 -51 72v28q0 72 51 72h43q81 0 123.5 26.5t42.5 90.5q0 38 -16.5 66t-41 46.5t-64.5 41.5q-43 26 -68.5 45.5t-43.5 50.5t-18 75q0 42 16.5 77t40.5 61.5t66 65.5t67 66.5t42.5 64.5t17.5 81q0 60 -32 92.5t-93 32.5q-70 0 -127.5 -34.5t-91 -99.5
t-33.5 -153v-800q0 -32 -21.5 -50t-78.5 -18h-59q-57 0 -78 18z" />
    <glyph glyph-name="ae" unicode="&#xe6;" horiz-adv-x="1608" 
d="M176.5 49q-104.5 69 -104.5 207v20q0 134 95 201t294 78l215 12v25q0 80 -46 119t-145 39q-54 -1 -120.5 -14t-120.5 -31l-47 -19q-13 -4 -27 -4q-17 0 -27.5 11.5t-17.5 37.5l-12 62q-4 15 -4 29q0 16 8 26t26 18l68 25q134 55 311 55q211 0 312 -90q55 45 131 67.5
t168 22.5q127 0 217.5 -36t137 -103t46.5 -158q0 -99 -43 -157.5t-130 -85.5t-228 -31l-201 -6q22 -97 94 -141t178 -44q43 0 94.5 8t92.5 21l45 16q11 5 23 5q13 0 21 -10.5t15 -35.5l18 -65q5 -18 5 -29q0 -16 -8.5 -26t-26.5 -17l-60 -26q-116 -45 -270 -45
q-193 0 -313 88q-52 -46 -135.5 -67t-204.5 -21q-219 0 -323.5 69zM1077 510q84 2 131.5 10t76 34t28.5 79q0 62 -41.5 98.5t-130.5 36.5q-110 0 -164 -62.5t-55 -201.5zM635 166q41 35 41 113v145l-156 -8q-101 -6 -147.5 -37.5t-46.5 -97.5v-19q0 -68 39 -99.5t135 -31.5
q94 0 135 35z" />
    <glyph glyph-name="eth" unicode="&#xf0;" horiz-adv-x="1053" 
d="M185 89.5q-113 109.5 -113 352.5v41q0 240 105.5 351.5t307.5 111.5q76 0 142 -16q-22 45 -68 119l-151 -52q-19 -6 -34 -6q-25 0 -38.5 15t-13.5 43v12q0 34 15.5 54.5t47.5 31.5l78 27q-44 48 -84 86q-20 19 -20 38q0 15 11.5 25t30.5 10h134q33 0 61 -11.5t55 -37.5
q9 -6 20 -18t15 -17l197 66q23 7 34 7q24 0 38 -15t14 -41v-15q0 -33 -16 -53.5t-48 -32.5l-121 -41q84 -121 139.5 -275t55.5 -335v-72q0 -241 -111 -351.5t-340 -110.5q-230 0 -343 109.5zM643 187.5q43 25.5 62.5 86.5t19.5 170v27q0 112 -18.5 175t-61.5 90.5t-119 27.5
q-73 0 -115 -25t-61.5 -85.5t-19.5 -170.5v-41q0 -108 19.5 -168.5t61.5 -86t115 -25.5q74 0 117 25.5z" />
    <glyph glyph-name="divide" unicode="&#xf7;" 
d="M495 819.5q-36 35.5 -36 93.5q0 55 36 90t93 35t93 -35t36 -90q0 -58 -36 -93.5t-93 -35.5t-93 35.5zM141 472.5q-18 17.5 -18 51.5v56q0 34 18 52.5t52 18.5h790q34 0 53 -18.5t19 -52.5v-56q0 -33 -19 -51t-53 -18h-790q-34 0 -52 17.5zM494.5 100q-35.5 34 -35.5 93
q0 56 36 91t93 35t93 -35t36 -91q0 -59 -35.5 -93t-93.5 -34t-93.5 34z" />
    <glyph glyph-name="thorn" unicode="&#xfe;" horiz-adv-x="1071" 
d="M92 -287v1553q0 29 23 48t78 19h57q100 0 100 -67v-383q88 63 236 63q204 0 308.5 -111.5t104.5 -351.5v-41q0 -238 -105 -350t-308 -112q-145 0 -236 65v-332q0 -30 -21.5 -47.5t-78.5 -17.5h-57q-101 0 -101 65zM664.5 186q42.5 26 61.5 87t19 169v41q0 110 -19 171
t-61 86.5t-116 25.5q-73 0 -116 -26t-63 -87.5t-20 -169.5v-39q0 -108 20 -170t63 -88t116 -26t115.5 26z" />
    <glyph glyph-name="Zcaron" unicode="&#x17d;" horiz-adv-x="1174" 
d="M477.5 1440.5q-20.5 10.5 -43.5 34.5l-121 129q-23 24 -23 48q0 19 17.5 31.5t46.5 12.5h31q34 0 55 -7t39.5 -22.5t50.5 -50.5l68 -74l64 74q44 49 72 64.5t77 15.5h33q29 0 45.5 -12t16.5 -30q0 -24 -25 -50l-121 -129q-21 -24 -42.5 -34.5t-51.5 -10.5h-140
q-28 0 -48.5 10.5zM106.5 34.5q-36.5 34.5 -36.5 100.5q0 46 13.5 80.5t47.5 79.5l608 803q7 10 7 17q0 13 -21 13h-580q-26 0 -44.5 20.5t-18.5 65.5v35q0 45 18 64.5t45 19.5h789q70 0 108.5 -34.5t38.5 -102.5q0 -46 -12 -80t-45 -80l-602 -800q-8 -11 -8 -19
q0 -12 18 -12h610q28 0 45 -20.5t17 -67.5v-33q0 -47 -17 -65.5t-45 -18.5h-837q-62 0 -98.5 34.5z" />
    <glyph glyph-name="zcaron" unicode="&#x17e;" horiz-adv-x="930" 
d="M356.5 1077.5q-21.5 10.5 -43.5 34.5l-120 129q-25 25 -25 49q0 19 17.5 31t47.5 12h29q35 0 56 -6.5t39.5 -22t52.5 -51.5l67 -73l64 73q31 34 50.5 50.5t41.5 23t57 6.5h33q29 0 44.5 -11.5t15.5 -29.5q0 -25 -25 -51l-119 -129q-20 -23 -42.5 -34t-51.5 -11h-139
q-28 0 -49.5 10.5zM93.5 30q-32.5 30 -32.5 87q0 44 10.5 73.5t41.5 61.5l417 473q8 8 8 15q0 12 -18 12h-391q-25 0 -41 17t-16 58v27q0 40 16 57t41 17h606q55 0 87 -31t32 -88q0 -42 -11 -72.5t-40 -62.5l-418 -471q-7 -7 -7 -15q0 -6 4.5 -10t12.5 -4h424q23 0 38 -16.5
t15 -55.5v-30q0 -72 -53 -72h-639q-54 0 -86.5 30z" />
    <glyph glyph-name="Scaron" unicode="&#x160;" horiz-adv-x="1221" 
d="M513 1440.5q-21 10.5 -42 34.5l-123 129q-23 24 -23 48q0 19 17.5 31.5t46.5 12.5h31q34 0 55 -7t40 -22.5t52 -50.5l66 -74l65 74q44 49 71.5 64.5t76.5 15.5h35q28 0 44 -11.5t16 -30.5q0 -22 -26 -50l-118 -129q-22 -24 -44 -34.5t-51 -10.5h-139q-29 0 -50 10.5z
M238 39l-101 33q-43 15 -43 54q0 15 6 34l17 63q9 30 21 43t31 13q12 0 30 -5l75 -24q67 -23 149.5 -38t158.5 -15q249 0 249 161q0 45 -21 72.5t-62 46.5t-121 45l-170 49q-112 33 -187 78.5t-116 116t-41 174.5q0 122 57 215t168 145t268 52q176 0 338 -54l88 -32
q23 -8 33 -21t10 -34q0 -7 -4 -29l-18 -66q-9 -29 -20 -41t-27 -12q-13 0 -29 6l-68 21q-147 49 -276 49q-121 0 -179.5 -43t-58.5 -121q0 -50 22 -80t62 -48.5t115 -41.5l172 -51q121 -34 197 -79t114.5 -114t38.5 -172q0 -125 -59 -217t-175 -142t-282 -50q-193 0 -362 59
z" />
    <glyph glyph-name="scaron" unicode="&#x161;" horiz-adv-x="940" 
d="M371.5 1077.5q-21.5 10.5 -41.5 34.5l-123 129q-24 26 -24 48q0 19 18 31.5t49 12.5h29q34 0 55 -6.5t40.5 -22.5t51.5 -51l66 -73l65 73q31 34 50.5 50.5t42 23t57.5 6.5h32q29 0 44.5 -11.5t15.5 -30.5q0 -24 -25 -50l-119 -129q-21 -24 -43 -34.5t-51 -10.5h-139
q-29 0 -50.5 10.5zM172 35l-66 26q-20 6 -28 16.5t-8 27.5q0 6 2 24l16 55q7 25 16.5 36t25.5 11q11 0 28 -6l47 -18q58 -20 125 -33.5t125 -13.5q147 0 147 96q0 43 -31 63.5t-98 38.5l-129 37q-75 20 -128.5 49t-86.5 81.5t-33 133.5q0 86 42.5 150.5t127 100.5t207.5 36
q161 0 275 -45l59 -20q19 -6 27 -17t8 -29q0 -6 -2 -24l-15 -57q-7 -25 -16 -34.5t-25 -9.5q-10 0 -24 3l-45 16q-45 15 -100 25t-107 10q-80 0 -114 -24.5t-34 -71.5q0 -34 16.5 -54t41.5 -30.5t71 -22.5l125 -37q119 -28 186.5 -85.5t67.5 -172.5q0 -135 -98 -210.5
t-285 -75.5q-160 0 -313 55z" />
    <glyph glyph-name="Agrave" unicode="&#xc0;" horiz-adv-x="1354" 
d="M631 1442.5q-32 15.5 -72 50.5l-123 109q-26 23 -26 48q0 20 18 33t49 13h90q27 0 48 -11t44 -34l123 -133q24 -25 24 -50q0 -18 -14 -29.5t-36 -11.5h-56q-37 0 -69 15.5zM64 57q0 14 4 25l362 1077q20 70 48.5 111.5t73 61.5t112.5 20h32q91 0 146 -45.5t86 -145.5
l358 -1079q3 -12 3 -23q0 -59 -101 -59h-70q-118 0 -137 82l-82 276h-463l-82 -276q-19 -82 -139 -82h-49q-102 0 -102 57zM844 547l-156 530q-5 17 -18 17q-10 0 -15 -17l-161 -530h350z" />
    <glyph glyph-name="Aacute" unicode="&#xc1;" horiz-adv-x="1354" 
d="M561 1438.5q-14 11.5 -14 29.5q0 25 24 50l125 133q40 45 92 45h91q30 0 48 -13t18 -32q0 -25 -27 -49l-121 -109q-41 -35 -72.5 -50.5t-67.5 -15.5h-59q-23 0 -37 11.5zM64 57q0 14 4 25l362 1077q20 70 48.5 111.5t73 61.5t112.5 20h32q91 0 146 -45.5t86 -145.5
l358 -1079q3 -12 3 -23q0 -59 -101 -59h-70q-118 0 -137 82l-82 276h-463l-82 -276q-19 -82 -139 -82h-49q-102 0 -102 57zM844 547l-156 530q-5 17 -18 17q-10 0 -15 -17l-161 -530h350z" />
    <glyph glyph-name="Acircumflex" unicode="&#xc2;" horiz-adv-x="1354" 
d="M385.5 1442.5q-17.5 12.5 -17.5 32.5q0 23 23 49l123 127q21 23 42.5 34t49.5 11h139q28 0 50 -11t45 -34l118 -127q26 -28 26 -51q0 -19 -16 -31t-44 -12h-35q-50 0 -77.5 15t-70.5 64l-65 72l-66 -72q-32 -34 -51.5 -50t-40.5 -22.5t-55 -6.5h-31q-29 0 -46.5 12.5z
M64 57q0 14 4 25l362 1077q20 70 48.5 111.5t73 61.5t112.5 20h32q91 0 146 -45.5t86 -145.5l358 -1079q3 -12 3 -23q0 -59 -101 -59h-70q-118 0 -137 82l-82 276h-463l-82 -276q-19 -82 -139 -82h-49q-102 0 -102 57zM844 547l-156 530q-5 17 -18 17q-10 0 -15 -17
l-161 -530h350z" />
    <glyph glyph-name="Atilde" unicode="&#xc3;" horiz-adv-x="1354" 
d="M346 1466.5q-18 24.5 -18 67.5q0 47 23 86.5t70 63.5t114 24q58 0 98.5 -14.5t88.5 -42.5q35 -21 59.5 -31t54.5 -10q34 0 48.5 13.5t26.5 40.5q10 23 20.5 33.5t33.5 10.5q26 0 44.5 -23t18.5 -67q0 -47 -23.5 -87t-70 -64.5t-113.5 -24.5q-56 0 -93.5 14.5t-84.5 42.5
q-37 22 -62.5 32.5t-58.5 10.5q-35 0 -50.5 -14t-27.5 -41q-11 -23 -21.5 -34t-33.5 -11q-25 0 -43 24.5zM64 57q0 14 4 25l362 1077q20 70 48.5 111.5t73 61.5t112.5 20h32q91 0 146 -45.5t86 -145.5l358 -1079q3 -12 3 -23q0 -59 -101 -59h-70q-118 0 -137 82l-82 276
h-463l-82 -276q-19 -82 -139 -82h-49q-102 0 -102 57zM844 547l-156 530q-5 17 -18 17q-10 0 -15 -17l-161 -530h350z" />
    <glyph glyph-name="Adieresis" unicode="&#xc4;" horiz-adv-x="1354" 
d="M421 1469q-36 35 -36 94q0 56 36.5 91.5t94.5 35.5q56 0 91.5 -35.5t35.5 -91.5q0 -59 -35.5 -94t-91.5 -35q-59 0 -95 35zM749.5 1469q-36.5 35 -36.5 94q0 56 37 91.5t94 35.5t93 -35.5t36 -91.5q0 -59 -35.5 -94t-93.5 -35t-94.5 35zM64 57q0 14 4 25l362 1077
q20 70 48.5 111.5t73 61.5t112.5 20h32q91 0 146 -45.5t86 -145.5l358 -1079q3 -12 3 -23q0 -59 -101 -59h-70q-118 0 -137 82l-82 276h-463l-82 -276q-19 -82 -139 -82h-49q-102 0 -102 57zM844 547l-156 530q-5 17 -18 17q-10 0 -15 -17l-161 -530h350z" />
    <glyph glyph-name="Aring" unicode="&#xc5;" horiz-adv-x="1354" 
d="M557 1424q-52 27 -81.5 74.5t-29.5 107.5q0 59 29.5 107t82 75t118.5 27q68 0 120.5 -27t81.5 -74.5t29 -107.5t-29 -107.5t-81.5 -74.5t-120.5 -27q-67 0 -119 27zM747 1539q27 26 27 67q0 40 -27 67t-67 27q-42 0 -68 -27t-26 -67q0 -42 25.5 -67.5t68.5 -25.5
q40 0 67 26zM64 57q0 14 4 25l362 1077q20 70 48.5 111.5t73 61.5t112.5 20h32q91 0 146 -45.5t86 -145.5l358 -1079q3 -12 3 -23q0 -59 -101 -59h-70q-118 0 -137 82l-82 276h-463l-82 -276q-19 -82 -139 -82h-49q-102 0 -102 57zM844 547l-156 530q-5 17 -18 17
q-10 0 -15 -17l-161 -530h350z" />
    <glyph glyph-name="Ccedilla" unicode="&#xc7;" horiz-adv-x="1239" 
d="M567.5 -380q-52.5 17 -83.5 45t-31 59q0 19 10 29.5t29 10.5q18 0 50 -16q29 -14 55 -21.5t62 -7.5q46 0 69.5 15t23.5 41q0 23 -18 34.5t-54 22.5q-41 13 -61.5 27t-20.5 45q0 16 4.5 28.5t13.5 26.5l17 25q-263 21 -404 190.5t-141 472.5v39q0 216 72.5 365t211 225
t335.5 76q164 0 327 -56l86 -30q23 -8 32.5 -20t9.5 -32q0 -13 -5 -38l-16 -58q-9 -32 -19.5 -45.5t-27.5 -13.5q-11 0 -23 4l-70 22q-111 39 -231 39q-185 0 -280 -107.5t-95 -330.5v-39q0 -225 95 -332.5t280 -107.5q114 0 231 41l70 22q12 4 23 4q17 0 27.5 -14t19.5 -47
l16 -55q5 -25 5 -39q0 -20 -9.5 -32t-32.5 -19l-86 -31q-132 -47 -274 -55l-8 -17q-11 -16 -11 -33q0 -16 15 -24t46 -17q37 -10 61.5 -22t42.5 -37.5t18 -69.5q0 -77 -62.5 -118t-181.5 -41q-60 0 -112.5 17z" />
    <glyph glyph-name="Egrave" unicode="&#xc8;" horiz-adv-x="1100" 
d="M523 1442.5q-32 15.5 -72 50.5l-121 109q-28 25 -28 50q0 19 18 31.5t49 12.5h90q28 0 49 -11t43 -34l123 -133q25 -26 25 -51q0 -18 -13.5 -29t-36.5 -11h-57q-37 0 -69 15.5zM155 39q-46 39 -46 115v1026q0 75 46 114t148 39h649q66 0 66 -88v-35q0 -86 -66 -86h-510
q-43 0 -43 -32v-320h461q62 0 62 -80v-33q0 -43 -17.5 -62t-44.5 -19h-461v-336q0 -35 43 -35h510q66 0 66 -88v-33q0 -86 -66 -86h-649q-102 0 -148 39z" />
    <glyph glyph-name="Eacute" unicode="&#xc9;" horiz-adv-x="1100" 
d="M453.5 1438q-13.5 11 -13.5 29q0 23 25 51l123 133q21 22 42.5 33.5t49.5 11.5h90q31 0 49 -12.5t18 -31.5q0 -25 -28 -50l-121 -109q-40 -35 -71 -50.5t-68 -15.5h-60q-22 0 -35.5 11zM155 39q-46 39 -46 115v1026q0 75 46 114t148 39h649q66 0 66 -88v-35
q0 -86 -66 -86h-510q-43 0 -43 -32v-320h461q62 0 62 -80v-33q0 -43 -17.5 -62t-44.5 -19h-461v-336q0 -35 43 -35h510q66 0 66 -88v-33q0 -86 -66 -86h-649q-102 0 -148 39z" />
    <glyph glyph-name="Ecircumflex" unicode="&#xca;" horiz-adv-x="1100" 
d="M278 1442q-17 12 -17 32q0 23 24 50l121 127q20 23 41.5 34t50.5 11h139q29 0 51.5 -11t42.5 -34l119 -127q26 -28 26 -52q0 -19 -16 -30.5t-45 -11.5h-33q-35 0 -57 6.5t-41.5 22.5t-50.5 50l-64 72l-67 -72q-34 -36 -52.5 -51t-39.5 -21.5t-56 -6.5h-28q-31 0 -48 12z
M155 39q-46 39 -46 115v1026q0 75 46 114t148 39h649q66 0 66 -88v-35q0 -86 -66 -86h-510q-43 0 -43 -32v-320h461q62 0 62 -80v-33q0 -43 -17.5 -62t-44.5 -19h-461v-336q0 -35 43 -35h510q66 0 66 -88v-33q0 -86 -66 -86h-649q-102 0 -148 39z" />
    <glyph glyph-name="Edieresis" unicode="&#xcb;" horiz-adv-x="1100" 
d="M313 1469q-37 35 -37 94q0 56 37.5 91.5t94.5 35.5q55 0 91 -35.5t36 -91.5q0 -59 -35.5 -94t-91.5 -35q-58 0 -95 35zM643 1469q-37 35 -37 94q0 56 37 91.5t94 35.5q56 0 91.5 -35.5t35.5 -91.5q0 -59 -35.5 -94t-91.5 -35q-57 0 -94 35zM155 39q-46 39 -46 115v1026
q0 75 46 114t148 39h649q66 0 66 -88v-35q0 -86 -66 -86h-510q-43 0 -43 -32v-320h461q62 0 62 -80v-33q0 -43 -17.5 -62t-44.5 -19h-461v-336q0 -35 43 -35h510q66 0 66 -88v-33q0 -86 -66 -86h-649q-102 0 -148 39z" />
    <glyph glyph-name="Igrave" unicode="&#xcc;" horiz-adv-x="506" 
d="M211 1442.5q-32 15.5 -72 50.5l-121 109q-28 25 -28 49q0 20 18 32.5t49 12.5h90q27 0 48 -11t45 -34l122 -133q26 -27 26 -51q0 -18 -13.5 -29t-36.5 -11h-57q-38 0 -70 15.5zM134 20.5q-25 20.5 -25 55.5v1179q0 37 25 57.5t91 20.5h58q65 0 90.5 -21t25.5 -57v-1179
q0 -35 -25.5 -55.5t-90.5 -20.5h-58q-66 0 -91 20.5z" />
    <glyph glyph-name="Iacute" unicode="&#xcd;" horiz-adv-x="506" 
d="M142.5 1438q-13.5 11 -13.5 29q0 23 25 51l122 133q40 45 93 45h90q30 0 48 -13t18 -32q0 -25 -27 -49l-121 -109q-40 -35 -71 -50.5t-68 -15.5h-60q-22 0 -35.5 11zM134 20.5q-25 20.5 -25 55.5v1179q0 37 25 57.5t91 20.5h58q65 0 90.5 -21t25.5 -57v-1179
q0 -35 -25.5 -55.5t-90.5 -20.5h-58q-66 0 -91 20.5z" />
    <glyph glyph-name="Icircumflex" unicode="&#xce;" horiz-adv-x="506" 
d="M-33.5 1442q-17.5 12 -17.5 32q0 23 24 50l121 127q21 23 42.5 34t49.5 11h140q28 0 49.5 -11t44.5 -34l119 -127q25 -26 25 -51q0 -19 -15.5 -31t-44.5 -12h-33q-35 0 -57 6.5t-41.5 22.5t-50.5 50l-66 72l-66 -72q-33 -35 -51.5 -50.5t-39.5 -22t-56 -6.5h-29
q-30 0 -47.5 12zM134 20.5q-25 20.5 -25 55.5v1179q0 37 25 57.5t91 20.5h58q65 0 90.5 -21t25.5 -57v-1179q0 -35 -25.5 -55.5t-90.5 -20.5h-58q-66 0 -91 20.5z" />
    <glyph glyph-name="Idieresis" unicode="&#xcf;" horiz-adv-x="506" 
d="M1.5 1469q-36.5 35 -36.5 94q0 56 37 91.5t94 35.5q56 0 91.5 -35.5t35.5 -91.5q0 -59 -35.5 -94t-91.5 -35q-58 0 -94.5 35zM331 1469q-36 35 -36 94q0 56 36.5 91.5t94.5 35.5q56 0 91.5 -35.5t35.5 -91.5q0 -59 -35.5 -94t-91.5 -35q-59 0 -95 35zM134 20.5
q-25 20.5 -25 55.5v1179q0 37 25 57.5t91 20.5h58q65 0 90.5 -21t25.5 -57v-1179q0 -35 -25.5 -55.5t-90.5 -20.5h-58q-66 0 -91 20.5z" />
    <glyph glyph-name="Eth" unicode="&#xd0;" horiz-adv-x="1305" 
d="M155 39q-46 39 -46 115v428h-50q-59 0 -59 77v31q0 78 59 78h50v412q0 75 46 114t148 39h315q599 0 599 -647v-39q0 -314 -154.5 -480.5t-446.5 -166.5h-313q-102 0 -148 39zM586 209q176 0 259 108t83 330v39q0 224 -83 330t-263 106h-146q-22 0 -32.5 -7.5t-10.5 -24.5
v-322h269q27 0 42 -17.5t15 -60.5v-31q0 -43 -15 -60t-42 -17h-269v-338q0 -35 43 -35h150z" />
    <glyph glyph-name="Ntilde" unicode="&#xd1;" horiz-adv-x="1346" 
d="M373.5 1466.5q-19.5 24.5 -19.5 67.5q0 46 24 86t71 64t114 24q58 0 98.5 -15t87.5 -42q35 -21 59.5 -31t53.5 -10q35 0 49.5 14t26.5 41q11 23 21 33t32 10q28 0 47 -22.5t19 -67.5q0 -46 -24 -86.5t-71 -65t-114 -24.5q-55 0 -93.5 14.5t-82.5 41.5q-37 22 -63.5 33
t-59.5 11q-35 0 -50.5 -14.5t-27.5 -41.5q-11 -23 -21 -33.5t-32 -10.5q-25 0 -44.5 24.5zM130.5 20q-21.5 20 -21.5 54v1059q0 97 60 148.5t161 51.5h57q92 0 150 -43.5t88 -140.5l350 -899q3 -8 7 -11t11 -3q13 0 13 14v1007q0 35 22.5 55.5t79.5 20.5h31q102 0 102 -76
v-1056q0 -97 -59 -149t-158 -52h-61q-94 0 -152 43.5t-88 140.5l-348 899q-8 17 -23 17q-10 0 -10 -17v-1009q0 -74 -102 -74h-33q-55 0 -76.5 20z" />
    <glyph glyph-name="Ograve" unicode="&#xd2;" horiz-adv-x="1425" 
d="M666 1442.5q-32 15.5 -72 50.5l-121 109q-28 25 -28 50q0 19 18 31.5t49 12.5h90q27 0 48 -11t44 -34l123 -133q25 -28 25 -51q0 -18 -13.5 -29t-35.5 -11h-58q-37 0 -69 15.5zM244 144q-156 164 -156 503v39q0 336 158 501t465 165q308 0 467 -165t159 -501v-39
q0 -339 -157 -503t-469 -164q-311 0 -467 164zM895 238q69 45 101 144t32 265v39q0 165 -32 265t-101 146t-184 46q-114 0 -183 -46t-101 -146t-32 -265v-39q0 -166 32 -265t101 -144t183 -45q115 0 184 45z" />
    <glyph glyph-name="Ocircumflex" unicode="&#xd4;" horiz-adv-x="1425" 
d="M421 1442q-17 12 -17 32q0 23 24 50l121 127q20 23 41.5 34t50.5 11h139q28 0 50 -11t44 -34l119 -127q26 -28 26 -52q0 -19 -16 -30.5t-45 -11.5h-32q-35 0 -57 6.5t-42 22.5t-51 50l-65 72l-66 -72q-33 -35 -51.5 -50.5t-39.5 -22t-56 -6.5h-29q-31 0 -48 12zM244 144
q-156 164 -156 503v39q0 336 158 501t465 165q308 0 467 -165t159 -501v-39q0 -339 -157 -503t-469 -164q-311 0 -467 164zM895 238q69 45 101 144t32 265v39q0 165 -32 265t-101 146t-184 46q-114 0 -183 -46t-101 -146t-32 -265v-39q0 -166 32 -265t101 -144t183 -45
q115 0 184 45z" />
    <glyph glyph-name="Otilde" unicode="&#xd5;" horiz-adv-x="1425" 
d="M380.5 1466.5q-18.5 24.5 -18.5 67.5q0 46 24 86t70.5 64t112.5 24q58 0 98.5 -15t89.5 -43q36 -21 60 -30.5t53 -9.5q35 0 50 14t27 41q10 22 20 32.5t32 10.5q27 0 46.5 -23t19.5 -67q0 -46 -24 -86.5t-71 -65t-114 -24.5q-56 0 -93.5 14t-83.5 42q-38 23 -63.5 33.5
t-58.5 10.5q-35 0 -50.5 -14.5t-27.5 -41.5q-10 -22 -20.5 -33t-32.5 -11q-27 0 -45.5 24.5zM244 144q-156 164 -156 503v39q0 336 158 501t465 165q308 0 467 -165t159 -501v-39q0 -339 -157 -503t-469 -164q-311 0 -467 164zM895 238q69 45 101 144t32 265v39
q0 165 -32 265t-101 146t-184 46q-114 0 -183 -46t-101 -146t-32 -265v-39q0 -166 32 -265t101 -144t183 -45q115 0 184 45z" />
    <glyph glyph-name="Odieresis" unicode="&#xd6;" horiz-adv-x="1425" 
d="M456.5 1469q-36.5 35 -36.5 94q0 56 37 91.5t94 35.5q56 0 91.5 -35.5t35.5 -91.5q0 -59 -35.5 -94t-91.5 -35q-58 0 -94.5 35zM786 1469q-36 35 -36 94q0 56 36.5 91.5t94.5 35.5q55 0 91 -35.5t36 -91.5q0 -59 -35.5 -94t-91.5 -35q-59 0 -95 35zM244 144
q-156 164 -156 503v39q0 336 158 501t465 165q308 0 467 -165t159 -501v-39q0 -339 -157 -503t-469 -164q-311 0 -467 164zM895 238q69 45 101 144t32 265v39q0 165 -32 265t-101 146t-184 46q-114 0 -183 -46t-101 -146t-32 -265v-39q0 -166 32 -265t101 -144t183 -45
q115 0 184 45z" />
    <glyph glyph-name="Oslash" unicode="&#xd8;" horiz-adv-x="1425" 
d="M305.5 -113.5q-15.5 13.5 -15.5 36.5q0 17 9 38l47 102q-129 75 -193.5 219.5t-64.5 364.5v39q0 336 158 501t465 165q127 0 229 -27l35 72q23 55 90 55h12q33 0 50.5 -13t17.5 -36q0 -19 -10 -39l-50 -102q252 -156 252 -576v-39q0 -339 -157 -503t-469 -164
q-115 0 -213 24l-35 -76q-14 -30 -35.5 -42.5t-54.5 -12.5h-25q-27 0 -42.5 13.5zM844 1122q-52 21 -133 21q-114 0 -183 -46t-101 -146t-32 -265v-39q0 -119 16.5 -202t51.5 -140zM895 238q69 45 101 144t32 265v39q0 113 -13.5 192.5t-43.5 135.5l-377 -807
q46 -14 117 -14q115 0 184 45z" />
    <glyph glyph-name="Ugrave" unicode="&#xd9;" horiz-adv-x="1260" 
d="M582 1442.5q-32 15.5 -72 50.5l-123 109q-26 25 -26 49q0 19 18 32t49 13h90q27 0 48 -11t44 -34l123 -133q24 -25 24 -50q0 -18 -14 -29.5t-36 -11.5h-56q-37 0 -69 15.5zM225 107.5q-127 127.5 -127 373.5v774q0 37 25 57.5t92 20.5h55q67 0 93 -20.5t26 -57.5v-776
q0 -135 57 -199.5t185 -64.5q129 0 184 62t55 202v776q0 36 26 57t91 21h57q67 0 93 -20.5t26 -57.5v-774q0 -247 -132 -374t-410 -127q-269 0 -396 127.5z" />
    <glyph glyph-name="Uacute" unicode="&#xda;" horiz-adv-x="1260" 
d="M513 1438q-14 11 -14 29q0 25 25 51l123 133q20 22 42 33.5t50 11.5h90q31 0 49 -12.5t18 -32.5q0 -24 -28 -49l-120 -109q-41 -35 -72 -50.5t-68 -15.5h-59q-22 0 -36 11zM225 107.5q-127 127.5 -127 373.5v774q0 37 25 57.5t92 20.5h55q67 0 93 -20.5t26 -57.5v-776
q0 -135 57 -199.5t185 -64.5q129 0 184 62t55 202v776q0 36 26 57t91 21h57q67 0 93 -20.5t26 -57.5v-774q0 -247 -132 -374t-410 -127q-269 0 -396 127.5z" />
    <glyph glyph-name="Ucircumflex" unicode="&#xdb;" horiz-adv-x="1260" 
d="M336 1442.5q-18 12.5 -18 32.5q0 22 24 49l123 127q21 23 42.5 34t49.5 11h139q28 0 50 -11t45 -34l118 -127q25 -26 25 -51q0 -19 -15.5 -31t-44.5 -12h-32q-35 0 -57 6.5t-42 22.5t-51 50l-65 72l-66 -72q-32 -34 -51.5 -50t-40.5 -22.5t-55 -6.5h-29q-31 0 -49 12.5z
M225 107.5q-127 127.5 -127 373.5v774q0 37 25 57.5t92 20.5h55q67 0 93 -20.5t26 -57.5v-776q0 -135 57 -199.5t185 -64.5q129 0 184 62t55 202v776q0 36 26 57t91 21h57q67 0 93 -20.5t26 -57.5v-774q0 -247 -132 -374t-410 -127q-269 0 -396 127.5z" />
    <glyph glyph-name="Udieresis" unicode="&#xdc;" horiz-adv-x="1260" 
d="M372 1469q-36 35 -36 94q0 56 36.5 91.5t94.5 35.5q56 0 91.5 -35.5t35.5 -91.5q0 -59 -35.5 -94t-91.5 -35q-59 0 -95 35zM701 1469q-37 35 -37 94q0 56 37 91.5t96 35.5q55 0 91 -35.5t36 -91.5q0 -59 -35.5 -94t-91.5 -35q-59 0 -96 35zM225 107.5
q-127 127.5 -127 373.5v774q0 37 25 57.5t92 20.5h55q67 0 93 -20.5t26 -57.5v-776q0 -135 57 -199.5t185 -64.5q129 0 184 62t55 202v776q0 36 26 57t91 21h57q67 0 93 -20.5t26 -57.5v-774q0 -247 -132 -374t-410 -127q-269 0 -396 127.5z" />
    <glyph glyph-name="Yacute" unicode="&#xdd;" horiz-adv-x="1290" 
d="M545.5 1438q-13.5 11 -13.5 29q0 23 25 51l123 133q22 23 43 34t49 11h90q31 0 49 -12.5t18 -31.5q0 -25 -28 -50l-121 -109q-40 -35 -71 -50.5t-68 -15.5h-59q-23 0 -36.5 11zM527.5 20.5q-25.5 20.5 -25.5 55.5v467l-422 710q-8 16 -8 28q0 24 25.5 38t76.5 14h94
q64 0 92.5 -19.5t42.5 -56.5l259 -483l260 483q14 37 42.5 56.5t92.5 19.5h59q51 0 76.5 -14t25.5 -38q0 -12 -8 -28l-415 -704v-473q0 -35 -26 -55.5t-93 -20.5h-58q-65 0 -90.5 20.5z" />
    <glyph glyph-name="agrave" unicode="&#xe0;" horiz-adv-x="1006" 
d="M473.5 1080q-32.5 15 -72.5 50l-120 109q-28 24 -28 50q0 19 17.5 31.5t48.5 12.5h91q28 0 49.5 -11t42.5 -34l123 -133q25 -26 25 -50q0 -18 -13.5 -29t-36.5 -11h-57q-37 0 -69.5 15zM176.5 49q-104.5 69 -104.5 207v20q0 134 95 201t294 78l213 12v25
q0 79 -44.5 118.5t-137.5 39.5q-54 0 -123 -13t-125 -32l-47 -19q-18 -4 -25 -4q-18 0 -29 11t-18 38l-12 62q-4 15 -4 29q0 16 8 26t26 18l68 25q134 55 311 55q206 0 302 -82t96 -243v-342q0 -157 -101 -228t-319 -71q-219 0 -323.5 69zM633.5 166q40.5 35 40.5 113v143
l-154 -8q-101 -6 -147.5 -37t-46.5 -96v-19q0 -68 39 -99.5t135 -31.5q93 0 133.5 35z" />
    <glyph glyph-name="aacute" unicode="&#xe1;" horiz-adv-x="1006" 
d="M404.5 1076q-13.5 11 -13.5 28q0 25 25 51l123 133q20 23 42 34t50 11h90q31 0 49 -12.5t18 -32.5q0 -24 -28 -49l-121 -109q-40 -35 -71 -50t-68 -15h-60q-22 0 -35.5 11zM176.5 49q-104.5 69 -104.5 207v20q0 134 95 201t294 78l213 12v25q0 79 -44.5 118.5
t-137.5 39.5q-54 0 -123 -13t-125 -32l-47 -19q-18 -4 -25 -4q-18 0 -29 11t-18 38l-12 62q-4 15 -4 29q0 16 8 26t26 18l68 25q134 55 311 55q206 0 302 -82t96 -243v-342q0 -157 -101 -228t-319 -71q-219 0 -323.5 69zM633.5 166q40.5 35 40.5 113v143l-154 -8
q-101 -6 -147.5 -37t-46.5 -96v-19q0 -68 39 -99.5t135 -31.5q93 0 133.5 35z" />
    <glyph glyph-name="acircumflex" unicode="&#xe2;" horiz-adv-x="1006" 
d="M228.5 1079q-17.5 12 -17.5 32q0 24 25 50l120 127q22 24 43.5 34.5t49.5 10.5h139q29 0 51.5 -11t42.5 -34l119 -127q25 -26 25 -51q0 -19 -15.5 -31t-44.5 -12h-33q-35 0 -57 6.5t-41.5 23t-50.5 50.5l-64 72l-67 -72q-34 -36 -52.5 -51.5t-39.5 -22t-56 -6.5h-29
q-30 0 -47.5 12zM176.5 49q-104.5 69 -104.5 207v20q0 134 95 201t294 78l213 12v25q0 79 -44.5 118.5t-137.5 39.5q-54 0 -123 -13t-125 -32l-47 -19q-18 -4 -25 -4q-18 0 -29 11t-18 38l-12 62q-4 15 -4 29q0 16 8 26t26 18l68 25q134 55 311 55q206 0 302 -82t96 -243
v-342q0 -157 -101 -228t-319 -71q-219 0 -323.5 69zM633.5 166q40.5 35 40.5 113v143l-154 -8q-101 -6 -147.5 -37t-46.5 -96v-19q0 -68 39 -99.5t135 -31.5q93 0 133.5 35z" />
    <glyph glyph-name="atilde" unicode="&#xe3;" horiz-adv-x="1006" 
d="M189 1103.5q-19 24.5 -19 67.5q0 47 24 87t71 64t114 24q58 0 98 -15t88 -43q35 -21 59.5 -31t53.5 -10q34 0 49 14t27 41q10 22 20.5 33t32.5 11q28 0 46.5 -23t18.5 -68q0 -47 -23.5 -87t-70.5 -64.5t-114 -24.5q-55 0 -93 14.5t-83 42.5q-37 22 -63.5 33t-59.5 11
q-35 0 -51 -14.5t-28 -42.5q-10 -22 -20.5 -33t-32.5 -11q-25 0 -44 24.5zM176.5 49q-104.5 69 -104.5 207v20q0 134 95 201t294 78l213 12v25q0 79 -44.5 118.5t-137.5 39.5q-54 0 -123 -13t-125 -32l-47 -19q-18 -4 -25 -4q-18 0 -29 11t-18 38l-12 62q-4 15 -4 29
q0 16 8 26t26 18l68 25q134 55 311 55q206 0 302 -82t96 -243v-342q0 -157 -101 -228t-319 -71q-219 0 -323.5 69zM633.5 166q40.5 35 40.5 113v143l-154 -8q-101 -6 -147.5 -37t-46.5 -96v-19q0 -68 39 -99.5t135 -31.5q93 0 133.5 35z" />
    <glyph glyph-name="adieresis" unicode="&#xe4;" horiz-adv-x="1006" 
d="M264 1106q-37 35 -37 94q0 56 37 91.5t94 35.5q56 0 91.5 -35t35.5 -92q0 -59 -35.5 -94t-91.5 -35q-57 0 -94 35zM593.5 1106q-36.5 35 -36.5 94q0 57 37 92t94 35q56 0 91.5 -35t35.5 -92q0 -59 -35.5 -94t-91.5 -35q-58 0 -94.5 35zM176.5 49q-104.5 69 -104.5 207v20
q0 134 95 201t294 78l213 12v25q0 79 -44.5 118.5t-137.5 39.5q-54 0 -123 -13t-125 -32l-47 -19q-18 -4 -25 -4q-18 0 -29 11t-18 38l-12 62q-4 15 -4 29q0 16 8 26t26 18l68 25q134 55 311 55q206 0 302 -82t96 -243v-342q0 -157 -101 -228t-319 -71q-219 0 -323.5 69z
M633.5 166q40.5 35 40.5 113v143l-154 -8q-101 -6 -147.5 -37t-46.5 -96v-19q0 -68 39 -99.5t135 -31.5q93 0 133.5 35z" />
    <glyph glyph-name="aring" unicode="&#xe5;" horiz-adv-x="1006" 
d="M401 1061q-52 27 -81 74.5t-29 107.5t29 107.5t81 74.5t119 27q68 0 121 -27t82 -74.5t29 -107.5t-29 -107.5t-82 -74.5t-121 -27q-67 0 -119 27zM589.5 1176.5q26.5 25.5 26.5 66.5q0 40 -27 67t-65 27q-42 0 -68 -27t-26 -67q0 -41 25.5 -66.5t68.5 -25.5
q39 0 65.5 25.5zM176.5 49q-104.5 69 -104.5 207v20q0 134 95 201t294 78l213 12v25q0 79 -44.5 118.5t-137.5 39.5q-54 0 -123 -13t-125 -32l-47 -19q-18 -4 -25 -4q-18 0 -29 11t-18 38l-12 62q-4 15 -4 29q0 16 8 26t26 18l68 25q134 55 311 55q206 0 302 -82t96 -243
v-342q0 -157 -101 -228t-319 -71q-219 0 -323.5 69zM633.5 166q40.5 35 40.5 113v143l-154 -8q-101 -6 -147.5 -37t-46.5 -96v-19q0 -68 39 -99.5t135 -31.5q93 0 133.5 35z" />
    <glyph glyph-name="idieresis" unicode="&#xef;" horiz-adv-x="455" 
d="M-16.5 1106q-36.5 35 -36.5 94q0 57 37 92t94 35t92 -35t35 -92q0 -59 -34.5 -94t-92.5 -35t-94.5 35zM313 1106q-37 35 -37 94q0 56 37 91.5t95 35.5q55 0 91 -35.5t36 -91.5q0 -59 -35.5 -94t-91.5 -35q-58 0 -95 35zM120.5 18q-22.5 18 -22.5 50v792q0 68 103 68h51
q59 0 81.5 -18.5t22.5 -49.5v-792q0 -32 -22.5 -50t-81.5 -18h-51q-58 0 -80.5 18z" />
    <glyph glyph-name="ccedilla" unicode="&#xe7;" horiz-adv-x="934" 
d="M385.5 -380q-52.5 17 -84 45t-31.5 59q0 19 10.5 29.5t28.5 10.5q11 0 22 -4t29 -12q29 -14 55 -21.5t62 -7.5q46 0 69 15t23 41q0 23 -17.5 34.5t-53.5 22.5q-41 13 -61.5 27t-20.5 45q0 16 4.5 28.5t13.5 26.5l15 23q-180 16 -278.5 125.5t-98.5 336.5v37
q0 248 116 356.5t326 108.5q148 0 260 -47l55 -20q20 -7 28.5 -18.5t8.5 -30.5q0 -17 -4 -33l-14 -58q-9 -55 -43 -55q-5 0 -19 4l-45 17q-83 26 -168 26q-115 0 -173 -56.5t-58 -193.5v-37q0 -136 58 -191.5t173 -55.5q94 0 168 26l45 17q9 3 18 3q18 0 28.5 -13.5
t15.5 -41.5l14 -59q4 -16 4 -31q0 -18 -8.5 -30t-28.5 -19l-55 -22q-80 -32 -194 -45l-11 -17q-10 -17 -10 -33t14.5 -24.5t46.5 -16.5q37 -11 61 -22.5t42 -37t18 -69.5q0 -77 -62 -118t-181 -41q-60 0 -112.5 17z" />
    <glyph glyph-name="egrave" unicode="&#xe8;" horiz-adv-x="1004" 
d="M483.5 1080q-32.5 15 -71.5 50l-121 109q-28 25 -28 50q0 19 18 31.5t49 12.5h90q28 0 48 -10.5t44 -34.5l123 -133q25 -26 25 -50q0 -18 -13.5 -29t-36.5 -11h-57q-37 0 -69.5 15zM200 94q-128 114 -128 352v35q0 153 56 257t158.5 156t241.5 52q127 0 218 -36
t138.5 -103t47.5 -158q0 -99 -43.5 -157.5t-132 -85.5t-230.5 -31l-200 -6q21 -99 94.5 -145t179.5 -46q43 0 93.5 9t94.5 22l43 16q11 4 22 4q15 0 24 -11t14 -36l18 -59q5 -18 5 -28q0 -17 -8 -27t-25 -17l-62 -26q-55 -22 -125 -33.5t-145 -11.5q-221 0 -349 114z
M475 510q84 2 131 10t75 34t28 79q0 63 -41.5 99t-132.5 36q-109 0 -164 -63t-56 -201z" />
    <glyph glyph-name="eacute" unicode="&#xe9;" horiz-adv-x="1004" 
d="M414.5 1076q-13.5 11 -13.5 29q0 24 25 50l123 133q37 45 92 45h90q31 0 48.5 -12.5t17.5 -32.5q0 -25 -27 -49l-121 -109q-40 -35 -71 -50t-68 -15h-59q-23 0 -36.5 11zM200 94q-128 114 -128 352v35q0 153 56 257t158.5 156t241.5 52q127 0 218 -36t138.5 -103
t47.5 -158q0 -99 -43.5 -157.5t-132 -85.5t-230.5 -31l-200 -6q21 -99 94.5 -145t179.5 -46q43 0 93.5 9t94.5 22l43 16q11 4 22 4q15 0 24 -11t14 -36l18 -59q5 -18 5 -28q0 -17 -8 -27t-25 -17l-62 -26q-55 -22 -125 -33.5t-145 -11.5q-221 0 -349 114zM475 510
q84 2 131 10t75 34t28 79q0 63 -41.5 99t-132.5 36q-109 0 -164 -63t-56 -201z" />
    <glyph glyph-name="ecircumflex" unicode="&#xea;" horiz-adv-x="1004" 
d="M239 1079q-17 12 -17 32q0 23 24 50l121 127q20 24 41.5 34.5t50.5 10.5h139q29 0 51 -10.5t43 -34.5l119 -127q26 -28 26 -52q0 -19 -16 -30.5t-45 -11.5h-33q-35 0 -57 6.5t-41.5 23t-50.5 50.5l-66 72l-65 -72q-34 -36 -52.5 -51.5t-39.5 -22t-56 -6.5h-28
q-31 0 -48 12zM200 94q-128 114 -128 352v35q0 153 56 257t158.5 156t241.5 52q127 0 218 -36t138.5 -103t47.5 -158q0 -99 -43.5 -157.5t-132 -85.5t-230.5 -31l-200 -6q21 -99 94.5 -145t179.5 -46q43 0 93.5 9t94.5 22l43 16q11 4 22 4q15 0 24 -11t14 -36l18 -59
q5 -18 5 -28q0 -17 -8 -27t-25 -17l-62 -26q-55 -22 -125 -33.5t-145 -11.5q-221 0 -349 114zM475 510q84 2 131 10t75 34t28 79q0 63 -41.5 99t-132.5 36q-109 0 -164 -63t-56 -201z" />
    <glyph glyph-name="edieresis" unicode="&#xeb;" horiz-adv-x="1004" 
d="M274.5 1106q-36.5 35 -36.5 94q0 57 37 92t94 35q55 0 91 -35.5t36 -91.5q0 -59 -35.5 -94t-91.5 -35q-58 0 -94.5 35zM603 1106q-36 35 -36 94q0 57 36.5 92t94.5 35q56 0 91.5 -35t35.5 -92q0 -59 -35.5 -94t-91.5 -35q-59 0 -95 35zM200 94q-128 114 -128 352v35
q0 153 56 257t158.5 156t241.5 52q127 0 218 -36t138.5 -103t47.5 -158q0 -99 -43.5 -157.5t-132 -85.5t-230.5 -31l-200 -6q21 -99 94.5 -145t179.5 -46q43 0 93.5 9t94.5 22l43 16q11 4 22 4q15 0 24 -11t14 -36l18 -59q5 -18 5 -28q0 -17 -8 -27t-25 -17l-62 -26
q-55 -22 -125 -33.5t-145 -11.5q-221 0 -349 114zM475 510q84 2 131 10t75 34t28 79q0 63 -41.5 99t-132.5 36q-109 0 -164 -63t-56 -201z" />
    <glyph glyph-name="igrave" unicode="&#xec;" horiz-adv-x="455" 
d="M192.5 1080q-32.5 15 -71.5 50l-121 109q-27 24 -27 49q0 20 17.5 32.5t48.5 12.5h90q28 0 50 -11t42 -34l123 -133q25 -26 25 -50q0 -18 -13.5 -29t-36.5 -11h-57q-37 0 -69.5 15zM120.5 18q-22.5 18 -22.5 50v792q0 68 103 68h51q59 0 81.5 -18.5t22.5 -49.5v-792
q0 -32 -22.5 -50t-81.5 -18h-51q-58 0 -80.5 18z" />
    <glyph glyph-name="iacute" unicode="&#xed;" horiz-adv-x="455" 
d="M124.5 1076.5q-13.5 11.5 -13.5 29.5q0 24 24 49l123 133q21 23 42.5 34t49.5 11h90q31 0 49 -12.5t18 -31.5q0 -25 -28 -50l-121 -109q-40 -35 -71 -50t-68 -15h-59q-22 0 -35.5 11.5zM120.5 18q-22.5 18 -22.5 50v792q0 68 103 68h51q59 0 81.5 -18.5t22.5 -49.5v-792
q0 -32 -22.5 -50t-81.5 -18h-51q-58 0 -80.5 18z" />
    <glyph glyph-name="icircumflex" unicode="&#xee;" horiz-adv-x="455" 
d="M-51.5 1079q-17.5 12 -17.5 33q0 22 24 49l121 127q22 24 42.5 34.5t49.5 10.5h139q29 0 51.5 -11t42.5 -34l121 -127q25 -26 25 -51q0 -19 -16.5 -31t-45.5 -12h-32q-50 0 -78 15.5t-72 64.5l-63 72l-68 -72q-31 -35 -50 -51t-40.5 -22.5t-56.5 -6.5h-29q-30 0 -47.5 12
zM120.5 18q-22.5 18 -22.5 50v792q0 68 103 68h51q59 0 81.5 -18.5t22.5 -49.5v-792q0 -32 -22.5 -50t-81.5 -18h-51q-58 0 -80.5 18z" />
    <glyph glyph-name="ntilde" unicode="&#xf1;" horiz-adv-x="1051" 
d="M185 1103.5q-19 24.5 -19 67.5q0 47 24 87t71 64t114 24q57 0 96 -14.5t89 -43.5q38 -22 61.5 -31.5t52.5 -9.5q34 0 49 14t27 41q10 22 20.5 33t32.5 11q28 0 46.5 -23t18.5 -68q0 -46 -23.5 -86.5t-70 -65t-112.5 -24.5q-56 0 -94.5 14.5t-83.5 42.5q-37 22 -63.5 33
t-60.5 11q-35 0 -50.5 -14.5t-27.5 -41.5q-10 -23 -20.5 -34t-32.5 -11q-25 0 -44 24.5zM92 68v514q0 180 109.5 272t322.5 92q214 0 324 -92t110 -272v-514q0 -68 -100 -68h-59q-101 0 -101 68v505q0 94 -40.5 136.5t-133.5 42.5t-133.5 -42.5t-40.5 -136.5v-505
q0 -32 -21.5 -50t-78.5 -18h-57q-101 0 -101 68z" />
    <glyph glyph-name="ograve" unicode="&#xf2;" horiz-adv-x="1075" 
d="M497.5 1080q-32.5 15 -71.5 50l-123 109q-27 24 -27 49q0 20 17.5 32.5t48.5 12.5h90q29 0 50 -11t42 -34l125 -133q24 -25 24 -50q0 -17 -14 -28.5t-36 -11.5h-56q-37 0 -69.5 15zM189 91.5q-117 111.5 -117 350.5v41q0 240 117 351.5t346 111.5q233 0 351 -109.5
t118 -353.5v-41q0 -242 -118 -352t-351 -110q-229 0 -346 111.5zM654.5 186q43.5 26 65 87t21.5 169v41q0 109 -21.5 170.5t-65 87t-115.5 25.5q-74 0 -118 -25.5t-64.5 -87t-20.5 -170.5v-39q0 -108 20.5 -170t64.5 -88t118 -26q72 0 115.5 26z" />
    <glyph glyph-name="oacute" unicode="&#xf3;" horiz-adv-x="1075" 
d="M428 1076.5q-14 11.5 -14 29.5q0 24 24 49l125 133q20 23 41 34t51 11h90q31 0 49 -12.5t18 -32.5q0 -24 -28 -49l-122 -109q-38 -34 -70 -49.5t-68 -15.5h-59q-23 0 -37 11.5zM189 91.5q-117 111.5 -117 350.5v41q0 240 117 351.5t346 111.5q233 0 351 -109.5
t118 -353.5v-41q0 -242 -118 -352t-351 -110q-229 0 -346 111.5zM654.5 186q43.5 26 65 87t21.5 169v41q0 109 -21.5 170.5t-65 87t-115.5 25.5q-74 0 -118 -25.5t-64.5 -87t-20.5 -170.5v-39q0 -108 20.5 -170t64.5 -88t118 -26q72 0 115.5 26z" />
    <glyph glyph-name="ocircumflex" unicode="&#xf4;" horiz-adv-x="1075" 
d="M252.5 1079.5q-17.5 12.5 -17.5 32.5q0 23 23 49l123 127q21 24 41.5 34.5t50.5 10.5h139q29 0 51 -10.5t44 -34.5l118 -127q25 -26 25 -51q0 -19 -15.5 -31t-43.5 -12h-35q-35 0 -57 6.5t-41.5 23t-49.5 50.5l-65 72l-66 -72q-32 -35 -51.5 -51t-40.5 -22.5t-55 -6.5
h-31q-29 0 -46.5 12.5zM189 91.5q-117 111.5 -117 350.5v41q0 240 117 351.5t346 111.5q233 0 351 -109.5t118 -353.5v-41q0 -242 -118 -352t-351 -110q-229 0 -346 111.5zM654.5 186q43.5 26 65 87t21.5 169v41q0 109 -21.5 170.5t-65 87t-115.5 25.5q-74 0 -118 -25.5
t-64.5 -87t-20.5 -170.5v-39q0 -108 20.5 -170t64.5 -88t118 -26q72 0 115.5 26z" />
    <glyph glyph-name="otilde" unicode="&#xf5;" horiz-adv-x="1075" 
d="M213 1103.5q-18 24.5 -18 67.5q0 47 23 87t69.5 64t113.5 24q58 0 98.5 -15t89.5 -43q35 -21 59.5 -31t53.5 -10q34 0 48.5 13.5t26.5 40.5q10 23 20.5 34t33.5 11q27 0 45.5 -23t18.5 -68q0 -47 -23.5 -87t-70 -64.5t-113.5 -24.5q-56 0 -93.5 14.5t-84.5 42.5
q-38 23 -63.5 33.5t-59.5 10.5t-49 -14t-27 -41q-11 -24 -21.5 -35t-33.5 -11q-25 0 -43 24.5zM189 91.5q-117 111.5 -117 350.5v41q0 240 117 351.5t346 111.5q233 0 351 -109.5t118 -353.5v-41q0 -242 -118 -352t-351 -110q-229 0 -346 111.5zM654.5 186q43.5 26 65 87
t21.5 169v41q0 109 -21.5 170.5t-65 87t-115.5 25.5q-74 0 -118 -25.5t-64.5 -87t-20.5 -170.5v-39q0 -108 20.5 -170t64.5 -88t118 -26q72 0 115.5 26z" />
    <glyph glyph-name="odieresis" unicode="&#xf6;" horiz-adv-x="1075" 
d="M287 1106q-37 35 -37 94q0 57 37 92t96 35q56 0 91.5 -35t35.5 -92q0 -59 -35.5 -94t-91.5 -35q-59 0 -96 35zM616.5 1106q-36.5 35 -36.5 94q0 57 37 92t94 35t93 -35t36 -92q0 -59 -36 -94t-93 -35q-58 0 -94.5 35zM189 91.5q-117 111.5 -117 350.5v41q0 240 117 351.5
t346 111.5q233 0 351 -109.5t118 -353.5v-41q0 -242 -118 -352t-351 -110q-229 0 -346 111.5zM654.5 186q43.5 26 65 87t21.5 169v41q0 109 -21.5 170.5t-65 87t-115.5 25.5q-74 0 -118 -25.5t-64.5 -87t-20.5 -170.5v-39q0 -108 20.5 -170t64.5 -88t118 -26q72 0 115.5 26z
" />
    <glyph glyph-name="oslash" unicode="&#xf8;" horiz-adv-x="1075" 
d="M244.5 -114q-12.5 11 -12.5 31q0 18 10 38l34 76q-204 100 -204 411v41q0 240 117 351.5t346 111.5q77 0 163 -14l43 90q21 49 78 49h4q27 0 42.5 -12t15.5 -32q0 -16 -9 -34l-51 -108q183 -105 183 -402v-41q0 -242 -118 -352t-351 -110q-64 0 -132 10l-28 -64
q-13 -27 -31.5 -39t-46.5 -12h-18q-22 0 -34.5 11zM616 756q-27 10 -77 10q-74 0 -118 -25.5t-64.5 -87t-20.5 -170.5v-39q0 -74 8.5 -124.5t28.5 -81.5zM654.5 186q43.5 26 65 87t21.5 169v41q0 112 -24 176l-232 -495q34 -4 54 -4q72 0 115.5 26z" />
    <glyph glyph-name="ugrave" unicode="&#xf9;" horiz-adv-x="1034" 
d="M477.5 1080q-32.5 15 -71.5 50l-121 109q-28 25 -28 49q0 20 18 32.5t49 12.5h90q28 0 49.5 -11t42.5 -34l123 -133q25 -26 25 -50q0 -18 -13.5 -29t-36.5 -11h-57q-37 0 -69.5 15zM200 73q-108 93 -108 273v514q0 68 101 68h57q56 0 78 -18.5t22 -49.5v-508
q0 -93 39.5 -135.5t128.5 -42.5t126.5 42t37.5 136v508q0 30 23.5 49t78.5 19h60q98 0 98 -68v-514q0 -181 -106 -273.5t-318 -92.5q-210 0 -318 93z" />
    <glyph glyph-name="uacute" unicode="&#xfa;" horiz-adv-x="1034" 
d="M408.5 1076q-13.5 11 -13.5 28q0 25 25 51l123 133q20 23 42 34t50 11h90q31 0 49 -12.5t18 -31.5q0 -25 -28 -50l-121 -109q-40 -35 -71 -50t-68 -15h-60q-22 0 -35.5 11zM200 73q-108 93 -108 273v514q0 68 101 68h57q56 0 78 -18.5t22 -49.5v-508q0 -93 39.5 -135.5
t128.5 -42.5t126.5 42t37.5 136v508q0 30 23.5 49t78.5 19h60q98 0 98 -68v-514q0 -181 -106 -273.5t-318 -92.5q-210 0 -318 93z" />
    <glyph glyph-name="ucircumflex" unicode="&#xfb;" horiz-adv-x="1034" 
d="M233 1079q-17 12 -17 32q0 23 24 50l120 127q21 24 42.5 34.5t50.5 10.5h139q29 0 51.5 -11t42.5 -34l119 -127q26 -28 26 -52q0 -19 -16 -30.5t-45 -11.5h-33q-35 0 -57 6.5t-41.5 23t-50.5 50.5l-64 72l-67 -72q-34 -36 -52.5 -51.5t-39.5 -22t-56 -6.5h-28
q-31 0 -48 12zM200 73q-108 93 -108 273v514q0 68 101 68h57q56 0 78 -18.5t22 -49.5v-508q0 -93 39.5 -135.5t128.5 -42.5t126.5 42t37.5 136v508q0 30 23.5 49t78.5 19h60q98 0 98 -68v-514q0 -181 -106 -273.5t-318 -92.5q-210 0 -318 93z" />
    <glyph glyph-name="udieresis" unicode="&#xfc;" horiz-adv-x="1034" 
d="M268 1106q-37 35 -37 94q0 56 37 91.5t94 35.5q56 0 91.5 -35t35.5 -92q0 -59 -35.5 -94t-91.5 -35q-57 0 -94 35zM597 1106q-36 35 -36 94q0 57 36 92t95 35q56 0 91.5 -35t35.5 -92q0 -59 -35.5 -94t-91.5 -35q-59 0 -95 35zM200 73q-108 93 -108 273v514q0 68 101 68
h57q56 0 78 -18.5t22 -49.5v-508q0 -93 39.5 -135.5t128.5 -42.5t126.5 42t37.5 136v508q0 30 23.5 49t78.5 19h60q98 0 98 -68v-514q0 -181 -106 -273.5t-318 -92.5q-210 0 -318 93z" />
    <glyph glyph-name="yacute" unicode="&#xfd;" horiz-adv-x="1008" 
d="M404.5 1076q-13.5 11 -13.5 28q0 25 25 51l123 133q20 23 42 34t50 11h90q31 0 49 -12.5t18 -32.5q0 -24 -28 -49l-121 -109q-40 -35 -71 -50t-68 -15h-60q-22 0 -35.5 11zM61 -281v29q0 76 54 76h41q79 0 136 46t91 138l10 31l-325 821q-5 12 -5 22q0 20 22 33t69 13h71
q102 0 121 -68l186 -559l175 559q7 30 35 49t85 19h39q47 0 69 -13t22 -33q0 -10 -5 -22l-321 -860q-65 -176 -168.5 -264t-261.5 -88h-86q-54 0 -54 71z" />
    <glyph glyph-name="ydieresis" unicode="&#xff;" horiz-adv-x="1008" 
d="M264 1106q-37 35 -37 94q0 56 37 91.5t94 35.5q56 0 91.5 -35t35.5 -92q0 -59 -35.5 -94t-91.5 -35q-57 0 -94 35zM593.5 1106q-36.5 35 -36.5 94q0 57 37 92t94 35q56 0 91.5 -35t35.5 -92q0 -59 -35.5 -94t-91.5 -35q-58 0 -94.5 35zM61 -281v29q0 76 54 76h41
q79 0 136 46t91 138l10 31l-325 821q-5 12 -5 22q0 20 22 33t69 13h71q102 0 121 -68l186 -559l175 559q7 30 35 49t85 19h39q47 0 69 -13t22 -33q0 -10 -5 -22l-321 -860q-65 -176 -168.5 -264t-261.5 -88h-86q-54 0 -54 71z" />
    <glyph glyph-name="Cacute" unicode="&#x106;" horiz-adv-x="1239" 
d="M588.5 1438q-13.5 11 -13.5 29q0 23 25 51l123 133q22 23 43 34t49 11h90q31 0 49 -12.5t18 -31.5q0 -25 -28 -50l-121 -109q-40 -35 -71 -50.5t-68 -15.5h-59q-23 0 -36.5 11zM371.5 55.5q-138.5 75.5 -211 225t-72.5 366.5v39q0 216 72.5 365t211 225t335.5 76
q164 0 327 -56l86 -30q23 -8 32.5 -20t9.5 -32q0 -13 -5 -38l-16 -58q-9 -32 -19.5 -45.5t-27.5 -13.5q-11 0 -23 4l-70 22q-111 39 -231 39q-185 0 -280 -107.5t-95 -330.5v-39q0 -225 95 -332.5t280 -107.5q114 0 231 41l70 22q12 4 23 4q17 0 27.5 -14t19.5 -47l16 -55
q5 -25 5 -39q0 -20 -9.5 -32t-32.5 -19l-86 -31q-165 -57 -327 -57q-197 0 -335.5 75.5z" />
    <glyph glyph-name="cacute" unicode="&#x107;" horiz-adv-x="934" 
d="M396.5 1076q-13.5 11 -13.5 29q0 25 25 50l122 133q21 23 43 34t50 11h90q31 0 49 -12.5t18 -32.5q0 -24 -28 -49l-121 -109q-40 -35 -71 -50t-68 -15h-60q-22 0 -35.5 11zM188 88.5q-116 108.5 -116 355.5v37q0 248 116 356.5t326 108.5q148 0 260 -47l55 -20
q20 -7 28.5 -18.5t8.5 -30.5q0 -17 -4 -33l-14 -58q-9 -55 -43 -55q-5 0 -19 4l-45 17q-83 26 -168 26q-115 0 -173 -56.5t-58 -193.5v-37q0 -136 58 -191.5t173 -55.5q94 0 168 26l45 17q9 3 18 3q18 0 28.5 -13.5t15.5 -41.5l14 -59q4 -16 4 -31q0 -18 -8.5 -30t-28.5 -19
l-55 -22q-120 -47 -260 -47q-210 0 -326 108.5z" />
    <glyph glyph-name="Nacute" unicode="&#x143;" horiz-adv-x="1346" 
d="M588.5 1438q-13.5 11 -13.5 29q0 23 25 51l123 133q22 23 43 34t49 11h90q31 0 49 -12.5t18 -31.5q0 -25 -28 -50l-121 -109q-40 -35 -71 -50.5t-68 -15.5h-59q-23 0 -36.5 11zM130.5 20q-21.5 20 -21.5 54v1059q0 97 60 148.5t161 51.5h57q92 0 150 -43.5t88 -140.5
l350 -899q3 -8 7 -11t11 -3q13 0 13 14v1007q0 35 22.5 55.5t79.5 20.5h31q102 0 102 -76v-1056q0 -97 -59 -149t-158 -52h-61q-94 0 -152 43.5t-88 140.5l-348 899q-8 17 -23 17q-10 0 -10 -17v-1009q0 -74 -102 -74h-33q-55 0 -76.5 20z" />
    <glyph glyph-name="nacute" unicode="&#x144;" horiz-adv-x="1051" 
d="M400.5 1076q-13.5 11 -13.5 28q0 25 25 51l123 133q20 23 42 34t50 11h90q31 0 49 -12.5t18 -32.5q0 -24 -28 -49l-121 -109q-40 -35 -71 -50t-68 -15h-60q-22 0 -35.5 11zM92 68v514q0 180 109.5 272t322.5 92q214 0 324 -92t110 -272v-514q0 -68 -100 -68h-59
q-101 0 -101 68v505q0 94 -40.5 136.5t-133.5 42.5t-133.5 -42.5t-40.5 -136.5v-505q0 -32 -21.5 -50t-78.5 -18h-57q-101 0 -101 68z" />
    <glyph glyph-name="Oacute" unicode="&#xd3;" horiz-adv-x="1425" 
d="M597 1438q-14 11 -14 29q0 25 25 51l123 133q20 22 42 33.5t50 11.5h90q31 0 49 -12.5t18 -32.5q0 -24 -28 -49l-121 -109q-40 -35 -71 -50.5t-68 -15.5h-59q-22 0 -36 11zM244 144q-156 164 -156 503v39q0 336 158 501t465 165q308 0 467 -165t159 -501v-39
q0 -339 -157 -503t-469 -164q-311 0 -467 164zM895 238q69 45 101 144t32 265v39q0 165 -32 265t-101 146t-184 46q-114 0 -183 -46t-101 -146t-32 -265v-39q0 -166 32 -265t101 -144t183 -45q115 0 184 45z" />
    <glyph glyph-name="Sacute" unicode="&#x15a;" horiz-adv-x="1221" 
d="M518 1438.5q-14 11.5 -14 29.5q0 25 24 50l125 133q40 45 92 45h91q30 0 48 -12.5t18 -32.5q0 -24 -28 -49l-122 -109q-39 -35 -70.5 -50.5t-67.5 -15.5h-59q-23 0 -37 11.5zM238 39l-101 33q-43 15 -43 54q0 15 6 34l17 63q9 30 21 43t31 13q12 0 30 -5l75 -24
q67 -23 149.5 -38t158.5 -15q249 0 249 161q0 45 -21 72.5t-62 46.5t-121 45l-170 49q-112 33 -187 78.5t-116 116t-41 174.5q0 122 57 215t168 145t268 52q176 0 338 -54l88 -32q23 -8 33 -21t10 -34q0 -7 -4 -29l-18 -66q-9 -29 -20 -41t-27 -12q-13 0 -29 6l-68 21
q-147 49 -276 49q-121 0 -179.5 -43t-58.5 -121q0 -50 22 -80t62 -48.5t115 -41.5l172 -51q121 -34 197 -79t114.5 -114t38.5 -172q0 -125 -59 -217t-175 -142t-282 -50q-193 0 -362 59z" />
    <glyph glyph-name="sacute" unicode="&#x15b;" horiz-adv-x="940" 
d="M377 1076.5q-14 11.5 -14 29.5q0 24 24 49l125 133q19 23 41.5 34t50.5 11h90q31 0 48.5 -12.5t17.5 -32.5q0 -25 -27 -49l-121 -109q-40 -35 -71 -50t-68 -15h-59q-23 0 -37 11.5zM172 35l-66 26q-20 6 -28 16.5t-8 27.5q0 6 2 24l16 55q7 25 16.5 36t25.5 11
q11 0 28 -6l47 -18q58 -20 125 -33.5t125 -13.5q147 0 147 96q0 43 -31 63.5t-98 38.5l-129 37q-75 20 -128.5 49t-86.5 81.5t-33 133.5q0 86 42.5 150.5t127 100.5t207.5 36q161 0 275 -45l59 -20q19 -6 27 -17t8 -29q0 -6 -2 -24l-15 -57q-7 -25 -16 -34.5t-25 -9.5
q-10 0 -24 3l-45 16q-45 15 -100 25t-107 10q-80 0 -114 -24.5t-34 -71.5q0 -34 16.5 -54t41.5 -30.5t71 -22.5l125 -37q119 -28 186.5 -85.5t67.5 -172.5q0 -135 -98 -210.5t-285 -75.5q-160 0 -313 55z" />
    <glyph glyph-name="Zacute" unicode="&#x179;" horiz-adv-x="1174" 
d="M484 1438.5q-14 11.5 -14 29.5q0 25 24 50l122 133q22 23 43.5 34t49.5 11h90q31 0 49 -13t18 -33q0 -25 -26 -48l-123 -109q-40 -35 -71 -50.5t-68 -15.5h-58q-22 0 -36 11.5zM106.5 34.5q-36.5 34.5 -36.5 100.5q0 46 13.5 80.5t47.5 79.5l608 803q7 10 7 17
q0 13 -21 13h-580q-26 0 -44.5 20.5t-18.5 65.5v35q0 45 18 64.5t45 19.5h789q70 0 108.5 -34.5t38.5 -102.5q0 -46 -12 -80t-45 -80l-602 -800q-8 -11 -8 -19q0 -12 18 -12h610q28 0 45 -20.5t17 -67.5v-33q0 -47 -17 -65.5t-45 -18.5h-837q-62 0 -98.5 34.5z" />
    <glyph glyph-name="zacute" unicode="&#x17a;" horiz-adv-x="930" 
d="M361.5 1076q-13.5 11 -13.5 28q0 25 25 51l123 133q20 23 42 34t50 11h90q31 0 49 -12.5t18 -32.5q0 -24 -28 -49l-121 -109q-40 -35 -71 -50t-68 -15h-60q-22 0 -35.5 11zM93.5 30q-32.5 30 -32.5 87q0 44 10.5 73.5t41.5 61.5l417 473q8 8 8 15q0 12 -18 12h-391
q-25 0 -41 17t-16 58v27q0 40 16 57t41 17h606q55 0 87 -31t32 -88q0 -42 -11 -72.5t-40 -62.5l-418 -471q-7 -7 -7 -15q0 -6 4.5 -10t12.5 -4h424q23 0 38 -16.5t15 -55.5v-30q0 -72 -53 -72h-639q-54 0 -86.5 30z" />
    <glyph glyph-name="Aogonek" unicode="&#x104;" horiz-adv-x="1354" 
d="M986 -297q-52 39 -52 111q0 64 46.5 113t113.5 75q-53 4 -78.5 25.5t-34.5 54.5l-82 276h-463l-82 -276q-19 -82 -139 -82h-49q-102 0 -102 57q0 14 4 25l362 1077q20 70 48.5 111.5t73 61.5t112.5 20h32q91 0 146 -45.5t86 -145.5l358 -1079q4 -16 4 -24q0 -37 -45 -52
q-62 -25 -100.5 -61.5t-38.5 -81.5q0 -30 17 -45t55 -15q27 0 49 6t45 17q5 2 21 8t30 6q19 0 29 -11.5t10 -31.5q0 -35 -33 -65.5t-87 -49t-114 -18.5q-90 0 -142 39zM844 547l-156 530q-5 17 -18 17q-10 0 -15 -17l-161 -530h350z" />
    <glyph glyph-name="aogonek" unicode="&#x105;" horiz-adv-x="1006" 
d="M501 -284.5q-52 39.5 -52 110.5q0 46 27 86t71 68h-47q-219 0 -323.5 69t-104.5 207v20q0 134 95 201t294 78l213 12v25q0 79 -44.5 118.5t-137.5 39.5q-54 0 -123 -13t-125 -32l-47 -19q-18 -4 -25 -4q-18 0 -29 11t-18 38l-12 62q-4 15 -4 29q0 16 8 26t26 18l68 25
q134 55 311 55q206 0 302 -82t96 -243v-342q0 -95 -36.5 -158.5t-111.5 -97.5q-66 -26 -108.5 -64t-42.5 -84q0 -30 17.5 -44.5t55.5 -14.5q26 0 46 5.5t47 16.5q14 6 27.5 10.5t25.5 4.5q18 0 28.5 -11.5t10.5 -31.5q0 -35 -33.5 -66t-87.5 -49.5t-113 -18.5
q-92 0 -144 39.5zM633.5 166q40.5 35 40.5 113v143l-154 -8q-101 -6 -147.5 -37t-46.5 -96v-19q0 -68 39 -99.5t135 -31.5q93 0 133.5 35z" />
    <glyph glyph-name="Eogonek" unicode="&#x118;" horiz-adv-x="1100" 
d="M705 -304q-52 38 -52 109q0 69 53.5 120.5t124.5 74.5h-528q-102 0 -148 39t-46 115v1026q0 75 46 114t148 39h649q66 0 66 -88v-35q0 -86 -66 -86h-510q-43 0 -43 -32v-320h461q62 0 62 -80v-33q0 -43 -17.5 -62t-44.5 -19h-461v-336q0 -35 43 -35h510q66 0 66 -88v-33
q0 -73 -45 -84q-65 -26 -106.5 -63.5t-41.5 -83.5q0 -30 17.5 -45t54.5 -15q28 0 49 6t47 18q13 6 25.5 10.5t23.5 4.5q19 0 29 -11.5t10 -31.5q0 -36 -32.5 -66.5t-86.5 -48.5t-114 -18q-91 0 -143 38z" />
    <glyph glyph-name="eogonek" unicode="&#x119;" horiz-adv-x="1004" 
d="M583 -268.5q-53 38.5 -53 108.5q0 80 80 142q-20 -2 -61 -2q-221 0 -349 114t-128 352v35q0 153 56 257t158.5 156t241.5 52q127 0 218 -36t138.5 -103t47.5 -158q0 -99 -43.5 -157.5t-132 -85.5t-230.5 -31l-200 -6q21 -99 94.5 -145t179.5 -46q43 0 93.5 9t94.5 22
l43 16q11 4 22 4q15 0 24 -11t14 -36l18 -59q5 -18 5 -28q0 -17 -8 -27t-25 -17l-27 -12q-65 -26 -107 -64t-42 -86q0 -30 16.5 -43.5t54.5 -13.5q27 0 48 6t46 17q4 1 20.5 7.5t31.5 6.5q18 0 28.5 -12.5t10.5 -30.5q0 -36 -33.5 -66.5t-87.5 -48.5t-113 -18
q-91 0 -144 38.5zM475 510q84 2 131 10t75 34t28 79q0 63 -41.5 99t-132.5 36q-109 0 -164 -63t-56 -201z" />
    <glyph glyph-name="Zdotaccent" unicode="&#x17b;" horiz-adv-x="1174" 
d="M494 1473q-41 39 -41 106q0 65 41 104t106 39t106.5 -39t41.5 -104q0 -66 -41 -105.5t-107 -39.5q-65 0 -106 39zM106.5 34.5q-36.5 34.5 -36.5 100.5q0 46 13.5 80.5t47.5 79.5l608 803q7 10 7 17q0 13 -21 13h-580q-26 0 -44.5 20.5t-18.5 65.5v35q0 45 18 64.5
t45 19.5h789q70 0 108.5 -34.5t38.5 -102.5q0 -46 -12 -80t-45 -80l-602 -800q-8 -11 -8 -19q0 -12 18 -12h610q28 0 45 -20.5t17 -67.5v-33q0 -47 -17 -65.5t-45 -18.5h-837q-62 0 -98.5 34.5z" />
    <glyph glyph-name="zdotaccent" unicode="&#x17c;" horiz-adv-x="930" 
d="M372 1110q-40 39 -40 107q0 66 40.5 104.5t106.5 38.5q65 0 105.5 -39t40.5 -104q0 -67 -40.5 -106.5t-105.5 -39.5q-67 0 -107 39zM93.5 30q-32.5 30 -32.5 87q0 44 10.5 73.5t41.5 61.5l417 473q8 8 8 15q0 12 -18 12h-391q-25 0 -41 17t-16 58v27q0 40 16 57t41 17
h606q55 0 87 -31t32 -88q0 -42 -11 -72.5t-40 -62.5l-418 -471q-7 -7 -7 -15q0 -6 4.5 -10t12.5 -4h424q23 0 38 -16.5t15 -55.5v-30q0 -72 -53 -72h-639q-54 0 -86.5 30z" />
    <glyph glyph-name="Abreve" unicode="&#x102;" horiz-adv-x="1354" 
d="M499.5 1446.5q-73.5 33.5 -110.5 90.5t-37 128q0 47 17.5 71.5t44.5 24.5q21 0 33 -13.5t29 -44.5q19 -37 38.5 -61.5t59 -42.5t104.5 -18t104.5 18t59 42.5t38.5 61.5q17 31 29 44.5t33 13.5q28 0 45 -24.5t17 -71.5q0 -71 -37 -128t-110.5 -90.5t-178.5 -33.5
t-178.5 33.5zM64 57q0 14 4 25l362 1077q20 70 48.5 111.5t73 61.5t112.5 20h32q91 0 146 -45.5t86 -145.5l358 -1079q3 -12 3 -23q0 -59 -101 -59h-70q-118 0 -137 82l-82 276h-463l-82 -276q-19 -82 -139 -82h-49q-102 0 -102 57zM844 547l-156 530q-5 17 -18 17
q-10 0 -15 -17l-161 -530h350z" />
    <glyph glyph-name="Amacron" unicode="&#x100;" horiz-adv-x="1354" 
d="M365 1563v26q0 74 55 74h516q26 0 40.5 -16.5t14.5 -57.5v-28q0 -41 -14.5 -57.5t-40.5 -16.5h-516q-55 0 -55 76zM64 57q0 14 4 25l362 1077q20 70 48.5 111.5t73 61.5t112.5 20h32q91 0 146 -45.5t86 -145.5l358 -1079q3 -12 3 -23q0 -59 -101 -59h-70q-118 0 -137 82
l-82 276h-463l-82 -276q-19 -82 -139 -82h-49q-102 0 -102 57zM844 547l-156 530q-5 17 -18 17q-10 0 -15 -17l-161 -530h350z" />
    <glyph glyph-name="Ccaron" unicode="&#x10c;" horiz-adv-x="1239" 
d="M583.5 1440.5q-20.5 10.5 -42.5 34.5l-121 129q-24 26 -24 49q0 19 17 31t48 12h28q35 0 56.5 -6.5t40 -22t51.5 -51.5l68 -74l63 74q31 34 50.5 50t42 23t57.5 7h32q29 0 45 -11.5t16 -29.5q0 -23 -26 -51l-119 -129q-20 -23 -42.5 -34t-51.5 -11h-139q-29 0 -49.5 10.5
zM371.5 55.5q-138.5 75.5 -211 225t-72.5 366.5v39q0 216 72.5 365t211 225t335.5 76q164 0 327 -56l86 -30q23 -8 32.5 -20t9.5 -32q0 -13 -5 -38l-16 -58q-9 -32 -19.5 -45.5t-27.5 -13.5q-11 0 -23 4l-70 22q-111 39 -231 39q-185 0 -280 -107.5t-95 -330.5v-39
q0 -225 95 -332.5t280 -107.5q114 0 231 41l70 22q12 4 23 4q17 0 27.5 -14t19.5 -47l16 -55q5 -25 5 -39q0 -20 -9.5 -32t-32.5 -19l-86 -31q-165 -57 -327 -57q-197 0 -335.5 75.5z" />
    <glyph glyph-name="Cdotaccent" unicode="&#x10a;" horiz-adv-x="1239" 
d="M599.5 1473q-40.5 39 -40.5 106q0 66 40.5 104.5t107.5 38.5q65 0 105 -39t40 -104q0 -67 -40 -106t-105 -39q-67 0 -107.5 39zM371.5 55.5q-138.5 75.5 -211 225t-72.5 366.5v39q0 216 72.5 365t211 225t335.5 76q164 0 327 -56l86 -30q23 -8 32.5 -20t9.5 -32
q0 -13 -5 -38l-16 -58q-9 -32 -19.5 -45.5t-27.5 -13.5q-11 0 -23 4l-70 22q-111 39 -231 39q-185 0 -280 -107.5t-95 -330.5v-39q0 -225 95 -332.5t280 -107.5q114 0 231 41l70 22q12 4 23 4q17 0 27.5 -14t19.5 -47l16 -55q5 -25 5 -39q0 -20 -9.5 -32t-32.5 -19l-86 -31
q-165 -57 -327 -57q-197 0 -335.5 75.5z" />
    <glyph glyph-name="Dcaron" unicode="&#x10e;" horiz-adv-x="1305" 
d="M498.5 1440.5q-21.5 10.5 -41.5 34.5l-121 129q-24 26 -24 49q0 19 17 31t48 12h29q35 0 56 -6.5t39.5 -22t51.5 -51.5l65 -74l66 74q31 34 50.5 50t42 23t57.5 7h32q29 0 45 -11.5t16 -29.5q0 -23 -26 -51l-119 -129q-21 -24 -43 -34.5t-51 -10.5h-139q-29 0 -50.5 10.5
zM155 39q-46 39 -46 115v1026q0 75 46 114t148 39h315q599 0 599 -647v-39q0 -314 -154.5 -480.5t-446.5 -166.5h-313q-102 0 -148 39zM586 209q176 0 259 108t83 330v39q0 224 -83 330t-263 106h-146q-22 0 -32.5 -7.5t-10.5 -24.5v-846q0 -35 43 -35h150z" />
    <glyph glyph-name="Dcroat" unicode="&#x110;" horiz-adv-x="1305" 
d="M155 39q-46 39 -46 115v428h-50q-59 0 -59 77v31q0 78 59 78h50v412q0 75 46 114t148 39h315q599 0 599 -647v-39q0 -314 -154.5 -480.5t-446.5 -166.5h-313q-102 0 -148 39zM586 209q176 0 259 108t83 330v39q0 224 -83 330t-263 106h-146q-22 0 -32.5 -7.5t-10.5 -24.5
v-322h269q27 0 42 -17.5t15 -60.5v-31q0 -43 -15 -60t-42 -17h-269v-338q0 -35 43 -35h150z" />
    <glyph glyph-name="Ecaron" unicode="&#x11a;" horiz-adv-x="1100" 
d="M447.5 1440.5q-21.5 10.5 -41.5 34.5l-121 129q-24 26 -24 49q0 19 17 31t48 12h28q35 0 56 -6.5t39.5 -22t52.5 -51.5l67 -74l64 74q31 34 50.5 50t41.5 23t57 7h33q29 0 45 -11.5t16 -29.5q0 -23 -26 -51l-119 -129q-20 -23 -42.5 -34t-51.5 -11h-139q-29 0 -50.5 10.5
zM155 39q-46 39 -46 115v1026q0 75 46 114t148 39h649q66 0 66 -88v-35q0 -86 -66 -86h-510q-43 0 -43 -32v-320h461q62 0 62 -80v-33q0 -43 -17.5 -62t-44.5 -19h-461v-336q0 -35 43 -35h510q66 0 66 -88v-33q0 -86 -66 -86h-649q-102 0 -148 39z" />
    <glyph glyph-name="Edotaccent" unicode="&#x116;" horiz-adv-x="1100" 
d="M464 1473q-40 39 -40 106q0 65 40 104t105 39q67 0 107.5 -39t40.5 -104q0 -67 -40.5 -106t-107.5 -39q-65 0 -105 39zM155 39q-46 39 -46 115v1026q0 75 46 114t148 39h649q66 0 66 -88v-35q0 -86 -66 -86h-510q-43 0 -43 -32v-320h461q62 0 62 -80v-33q0 -43 -17.5 -62
t-44.5 -19h-461v-336q0 -35 43 -35h510q66 0 66 -88v-33q0 -86 -66 -86h-649q-102 0 -148 39z" />
    <glyph glyph-name="Emacron" unicode="&#x112;" horiz-adv-x="1100" 
d="M272 1504.5q-16 17.5 -16 58.5v26q0 40 16 57t39 17h518q56 0 56 -74v-28q0 -74 -56 -74h-518q-23 0 -39 17.5zM155 39q-46 39 -46 115v1026q0 75 46 114t148 39h649q66 0 66 -88v-35q0 -86 -66 -86h-510q-43 0 -43 -32v-320h461q62 0 62 -80v-33q0 -43 -17.5 -62
t-44.5 -19h-461v-336q0 -35 43 -35h510q66 0 66 -88v-33q0 -86 -66 -86h-649q-102 0 -148 39z" />
    <glyph glyph-name="Gbreve" unicode="&#x11e;" horiz-adv-x="1327" 
d="M544.5 1446.5q-73.5 33.5 -110.5 90.5t-37 128q0 47 17.5 71.5t44.5 24.5q21 0 33 -13.5t29 -44.5q19 -37 38.5 -61.5t59 -42.5t104.5 -18t104.5 18t59 42.5t38.5 61.5q17 31 29 44.5t33 13.5q28 0 45 -24.5t17 -71.5q0 -71 -37 -128t-110.5 -90.5t-178.5 -33.5
t-178.5 33.5zM383.5 55.5q-143.5 73.5 -220.5 222t-77 369.5v39q0 215 75.5 364t220 225.5t349.5 76.5q184 0 344 -56l86 -30q23 -8 32.5 -20t9.5 -32q0 -13 -5 -38l-16 -60q-7 -33 -18 -47t-28 -14q-11 0 -22 4l-72 22q-126 43 -247 43q-195 0 -297.5 -109t-102.5 -329v-39
q0 -228 99.5 -334t289.5 -106q49 0 89.5 9t66 20t25.5 12v411q0 33 23 51.5t83 18.5h49q61 0 84 -18.5t23 -51.5v-438q0 -49 -17 -84t-55 -59q-176 -96 -428 -96q-200 0 -343.5 73.5z" />
    <glyph glyph-name="Gcommaaccent" unicode="&#x122;" horiz-adv-x="1327" 
d="M383.5 55.5q-143.5 73.5 -220.5 222t-77 369.5v39q0 215 75.5 364t220 225.5t349.5 76.5q184 0 344 -56l86 -30q23 -8 32.5 -20t9.5 -32q0 -13 -5 -38l-16 -60q-7 -33 -18 -47t-28 -14q-11 0 -22 4l-72 22q-126 43 -247 43q-195 0 -297.5 -109t-102.5 -329v-39
q0 -228 99.5 -334t289.5 -106q49 0 89.5 9t66 20t25.5 12v411q0 33 23 51.5t83 18.5h49q61 0 84 -18.5t23 -51.5v-438q0 -49 -17 -84t-55 -59q-176 -96 -428 -96q-200 0 -343.5 73.5zM567 -411.5q-16 14.5 -16 41.5q0 15 4 28l45 184q8 33 29.5 50.5t54.5 17.5h80
q33 0 50.5 -15t17.5 -41q0 -16 -5 -30l-57 -162q-30 -88 -90 -88h-70q-27 0 -43 14.5z" />
    <glyph glyph-name="Gdotaccent" unicode="&#x120;" horiz-adv-x="1327" 
d="M616 1473.5q-41 39.5 -41 105.5q0 65 41.5 104t106.5 39t106 -39t41 -104q0 -67 -41 -106t-106 -39q-66 0 -107 39.5zM383.5 55.5q-143.5 73.5 -220.5 222t-77 369.5v39q0 215 75.5 364t220 225.5t349.5 76.5q184 0 344 -56l86 -30q23 -8 32.5 -20t9.5 -32q0 -13 -5 -38
l-16 -60q-7 -33 -18 -47t-28 -14q-11 0 -22 4l-72 22q-126 43 -247 43q-195 0 -297.5 -109t-102.5 -329v-39q0 -228 99.5 -334t289.5 -106q49 0 89.5 9t66 20t25.5 12v411q0 33 23 51.5t83 18.5h49q61 0 84 -18.5t23 -51.5v-438q0 -49 -17 -84t-55 -59q-176 -96 -428 -96
q-200 0 -343.5 73.5z" />
    <glyph glyph-name="Hbar" unicode="&#x126;" horiz-adv-x="1300" 
d="M134 20.5q-25 20.5 -25 55.5v903h-46q-34 0 -52.5 19t-18.5 53v10q0 34 18.5 51.5t52.5 17.5h46v125q0 37 25 57.5t91 20.5h56q67 0 92.5 -20.5t25.5 -57.5v-125h504v125q0 36 26 57t93 21h53q67 0 94 -21t27 -57v-125h45q34 0 52 -17.5t18 -51.5v-10q0 -34 -18 -53
t-52 -19h-45v-903q0 -76 -121 -76h-53q-67 0 -93 20.5t-26 55.5v510h-504v-510q0 -35 -26 -55.5t-92 -20.5h-56q-66 0 -91 20.5zM903 784v195h-504v-195h504z" />
    <glyph glyph-name="IJ" unicode="&#x132;" horiz-adv-x="1217" 
d="M134 20.5q-25 20.5 -25 55.5v1179q0 37 25 57.5t91 20.5h58q65 0 90.5 -21t25.5 -57v-1179q0 -35 -25.5 -55.5t-90.5 -20.5h-58q-66 0 -91 20.5zM606.5 15q-47.5 35 -47.5 96v18q0 59 74 59q92 0 138 44.5t46 144.5v878q0 36 26 57t91 21h59q117 0 117 -78v-886
q0 -129 -46 -216t-128.5 -130t-192.5 -43q-89 0 -136.5 35z" />
    <glyph glyph-name="Idotaccent" unicode="&#x130;" horiz-adv-x="506" 
d="M153 1473q-40 39 -40 106q0 65 40 104t105 39t106.5 -39t41.5 -104q0 -66 -41 -105.5t-107 -39.5q-65 0 -105 39zM134 20.5q-25 20.5 -25 55.5v1179q0 37 25 57.5t91 20.5h58q65 0 90.5 -21t25.5 -57v-1179q0 -35 -25.5 -55.5t-90.5 -20.5h-58q-66 0 -91 20.5z" />
    <glyph glyph-name="Imacron" unicode="&#x12a;" horiz-adv-x="506" 
d="M-39.5 1504.5q-15.5 17.5 -15.5 58.5v26q0 40 15.5 57t39.5 17h518q53 0 53 -74v-28q0 -74 -53 -74h-518q-24 0 -39.5 17.5zM134 20.5q-25 20.5 -25 55.5v1179q0 37 25 57.5t91 20.5h58q65 0 90.5 -21t25.5 -57v-1179q0 -35 -25.5 -55.5t-90.5 -20.5h-58q-66 0 -91 20.5z
" />
    <glyph glyph-name="Iogonek" unicode="&#x12e;" horiz-adv-x="506" 
d="M84 -297q-53 39 -53 111q0 64 47.5 112.5t114.5 75.5q-48 6 -66 25t-18 49v1179q0 37 25 57.5t91 20.5h58q65 0 90.5 -21t25.5 -57v-1179q0 -52 -57 -70q-61 -25 -99 -62t-38 -81q0 -30 17 -45t54 -15q27 0 48 6t46 17q4 1 20.5 7.5t31.5 6.5q18 0 28.5 -11.5t10.5 -31.5
q0 -35 -33.5 -65.5t-87.5 -49t-113 -18.5q-90 0 -143 39z" />
    <glyph glyph-name="Kcommaaccent" unicode="&#x136;" horiz-adv-x="1229" 
d="M109 0zM134 20.5q-25 20.5 -25 55.5v1179q0 37 25 57.5t91 20.5h56q67 0 92.5 -20.5t25.5 -57.5v-1179q0 -35 -26 -55.5t-92 -20.5h-56q-66 0 -91 20.5zM890 21.5q-42 21.5 -59 56.5l-362 540q-13 22 -13 45q0 24 13 44l365 546q14 36 56 58t109 22h97q82 0 82 -38
q0 -17 -15 -42l-428 -587l428 -588q16 -24 16 -42q0 -36 -81 -36h-99q-67 0 -109 21.5zM437.5 -411.5q-15.5 14.5 -15.5 40.5q0 16 4 29l45 184q7 32 28.5 50t55.5 18h80q33 0 51 -14.5t18 -41.5q0 -12 -5 -30l-58 -162q-30 -88 -90 -88h-71q-27 0 -42.5 14.5z" />
    <glyph glyph-name="Lacute" unicode="&#x139;" horiz-adv-x="1047" 
d="M199 1438.5q-14 11.5 -14 29.5q0 25 24 50l125 133q39 45 92 45h90q31 0 48.5 -12.5t17.5 -32.5q0 -25 -27 -49l-123 -109q-38 -35 -69.5 -50.5t-67.5 -15.5h-59q-23 0 -37 11.5zM155 39q-46 39 -46 115v1101q0 37 25 57.5t91 20.5h56q67 0 92.5 -20.5t25.5 -57.5v-1013
q0 -37 43 -37h484q30 0 46.5 -18.5t16.5 -67.5v-31q0 -49 -17 -68.5t-46 -19.5h-623q-102 0 -148 39z" />
    <glyph glyph-name="Lcaron" unicode="&#x13d;" horiz-adv-x="1047" 
d="M155 39q-46 39 -46 115v1101q0 37 25 57.5t91 20.5h56q67 0 92.5 -20.5t25.5 -57.5v-1013q0 -37 43 -37h484q30 0 46.5 -18.5t16.5 -67.5v-31q0 -49 -17 -68.5t-46 -19.5h-623q-102 0 -148 39zM560.5 872.5q-16.5 16.5 -16.5 46.5q0 10 1 15l45 334q3 32 22 48.5t52 16.5
h73q31 0 47.5 -15t16.5 -44q0 -5 -2 -19l-68 -335q-12 -64 -76 -64h-45q-33 0 -49.5 16.5z" />
    <glyph glyph-name="Lcommaaccent" unicode="&#x13b;" horiz-adv-x="1047" 
d="M155 39q-46 39 -46 115v1101q0 37 25 57.5t91 20.5h56q67 0 92.5 -20.5t25.5 -57.5v-1013q0 -37 43 -37h484q30 0 46.5 -18.5t16.5 -67.5v-31q0 -49 -17 -68.5t-46 -19.5h-623q-102 0 -148 39zM379 -411.5q-16 14.5 -16 40.5q0 16 4 29l45 184q8 33 29.5 50.5t54.5 17.5
h79q33 0 51.5 -14.5t18.5 -40.5q0 -15 -6 -31l-57 -162q-28 -88 -90 -88h-70q-27 0 -43 14.5z" />
    <glyph glyph-name="Ldot" unicode="&#x13f;" horiz-adv-x="1047" 
d="M155 39q-46 39 -46 115v1101q0 37 25 57.5t91 20.5h56q67 0 92.5 -20.5t25.5 -57.5v-1013q0 -37 43 -37h484q30 0 46.5 -18.5t16.5 -67.5v-31q0 -49 -17 -68.5t-46 -19.5h-623q-102 0 -148 39zM607 510q-36 35 -36 94q0 57 36.5 91t94.5 34q56 0 92.5 -34.5t36.5 -90.5
q0 -59 -36 -94t-93 -35q-59 0 -95 35z" />
    <glyph glyph-name="Ncaron" unicode="&#x147;" horiz-adv-x="1346" 
d="M583.5 1440.5q-20.5 10.5 -42.5 34.5l-121 129q-24 26 -24 49q0 19 17 31t48 12h28q35 0 56.5 -6.5t40 -22t51.5 -51.5l68 -74l63 74q31 34 50.5 50t42 23t57.5 7h32q29 0 45 -11.5t16 -29.5q0 -23 -26 -51l-119 -129q-20 -23 -42.5 -34t-51.5 -11h-139q-29 0 -49.5 10.5
zM130.5 20q-21.5 20 -21.5 54v1059q0 97 60 148.5t161 51.5h57q92 0 150 -43.5t88 -140.5l350 -899q3 -8 7 -11t11 -3q13 0 13 14v1007q0 35 22.5 55.5t79.5 20.5h31q102 0 102 -76v-1056q0 -97 -59 -149t-158 -52h-61q-94 0 -152 43.5t-88 140.5l-348 899q-8 17 -23 17
q-10 0 -10 -17v-1009q0 -74 -102 -74h-33q-55 0 -76.5 20z" />
    <glyph glyph-name="Ncommaaccent" unicode="&#x145;" horiz-adv-x="1346" 
d="M130.5 20q-21.5 20 -21.5 54v1059q0 97 60 148.5t161 51.5h57q92 0 150 -43.5t88 -140.5l350 -899q3 -8 7 -11t11 -3q13 0 13 14v1007q0 35 22.5 55.5t79.5 20.5h31q102 0 102 -76v-1056q0 -97 -59 -149t-158 -52h-61q-94 0 -152 43.5t-88 140.5l-348 899q-8 17 -23 17
q-10 0 -10 -17v-1009q0 -74 -102 -74h-33q-55 0 -76.5 20zM486 -411.5q-15 14.5 -15 40.5q0 14 4 29l45 184q6 32 28 50t56 18h80q33 0 51 -15t18 -42q0 -11 -5 -29l-58 -162q-30 -88 -90 -88h-72q-27 0 -42 14.5z" />
    <glyph glyph-name="Eng" unicode="&#x14a;" horiz-adv-x="1346" 
d="M838.5 -341q-37.5 32 -37.5 87v18q0 50 67 50q140 0 140 161v21h-45q-94 0 -152 43.5t-88 140.5l-348 903q-8 17 -23 17q-10 0 -10 -17v-1009q0 -74 -102 -74h-33q-55 0 -76.5 20t-21.5 54v1059q0 97 60 148.5t161 51.5h57q92 0 150 -43.5t88 -140.5l350 -903
q5 -17 18 -17t13 17v1011q0 35 22.5 55.5t79.5 20.5h31q102 0 102 -76v-1290q0 -108 -37 -184.5t-103 -116t-153 -39.5q-72 0 -109.5 32z" />
    <glyph glyph-name="Ohungarumlaut" unicode="&#x150;" horiz-adv-x="1425" 
d="M500.5 1431.5q-9.5 8.5 -9.5 23.5q0 23 23 58l96 129q20 28 40.5 41t51.5 13h64q31 0 49.5 -13t18.5 -34t-21 -45l-86 -95q-42 -46 -76 -66t-73 -20h-50q-18 0 -27.5 8.5zM811 1430.5q-8 7.5 -8 20.5q0 26 31 65l114 133q24 25 44 36t48 11h74q30 0 48 -12.5t18 -32.5
q0 -23 -27 -49l-117 -103q-43 -40 -78.5 -58t-72.5 -18h-51q-15 0 -23 7.5zM244 144q-156 164 -156 503v39q0 336 158 501t465 165q308 0 467 -165t159 -501v-39q0 -339 -157 -503t-469 -164q-311 0 -467 164zM895 238q69 45 101 144t32 265v39q0 165 -32 265t-101 146
t-184 46q-114 0 -183 -46t-101 -146t-32 -265v-39q0 -166 32 -265t101 -144t183 -45q115 0 184 45z" />
    <glyph glyph-name="Omacron" unicode="&#x14c;" horiz-adv-x="1425" 
d="M415 1504.5q-16 17.5 -16 58.5v26q0 40 16 57t40 17h518q53 0 53 -74v-28q0 -74 -53 -74h-518q-24 0 -40 17.5zM244 144q-156 164 -156 503v39q0 336 158 501t465 165q308 0 467 -165t159 -501v-39q0 -339 -157 -503t-469 -164q-311 0 -467 164zM895 238q69 45 101 144
t32 265v39q0 165 -32 265t-101 146t-184 46q-114 0 -183 -46t-101 -146t-32 -265v-39q0 -166 32 -265t101 -144t183 -45q115 0 184 45z" />
    <glyph glyph-name="Racute" unicode="&#x154;" horiz-adv-x="1245" 
d="M484 1438.5q-14 11.5 -14 29.5q0 25 24 50l122 133q22 23 43.5 34t49.5 11h90q31 0 49 -13t18 -33q0 -25 -26 -48l-123 -109q-40 -35 -71 -50.5t-68 -15.5h-58q-22 0 -36 11.5zM134 20.5q-25 20.5 -25 55.5v1104q0 75 47 114t149 39h408q154 0 250 -39.5t142 -123.5
t46 -218q0 -156 -75.5 -246t-223.5 -120q56 -35 92 -107l211 -405q7 -17 7 -28q0 -46 -91 -46h-76q-120 0 -149 74l-176 375q-26 54 -56 78.5t-88 27.5h-127v-479q0 -35 -26.5 -55.5t-96.5 -20.5h-51q-66 0 -91 20.5zM655 731q116 0 169 49.5t53 153.5q0 71 -22.5 113.5
t-71.5 61.5t-132 19h-213q-21 0 -30 -8t-9 -24v-365h256z" />
    <glyph glyph-name="Rcaron" unicode="&#x158;" horiz-adv-x="1245" 
d="M477.5 1440.5q-20.5 10.5 -43.5 34.5l-121 129q-23 24 -23 48q0 19 17.5 31.5t46.5 12.5h31q34 0 55 -7t39.5 -22.5t50.5 -50.5l68 -74l64 74q44 49 72 64.5t77 15.5h33q29 0 45.5 -12t16.5 -30q0 -24 -25 -50l-121 -129q-21 -24 -42.5 -34.5t-51.5 -10.5h-140
q-28 0 -48.5 10.5zM134 20.5q-25 20.5 -25 55.5v1104q0 75 47 114t149 39h408q154 0 250 -39.5t142 -123.5t46 -218q0 -156 -75.5 -246t-223.5 -120q56 -35 92 -107l211 -405q7 -17 7 -28q0 -46 -91 -46h-76q-120 0 -149 74l-176 375q-26 54 -56 78.5t-88 27.5h-127v-479
q0 -35 -26.5 -55.5t-96.5 -20.5h-51q-66 0 -91 20.5zM655 731q116 0 169 49.5t53 153.5q0 71 -22.5 113.5t-71.5 61.5t-132 19h-213q-21 0 -30 -8t-9 -24v-365h256z" />
    <glyph glyph-name="Rcommaaccent" unicode="&#x156;" horiz-adv-x="1245" 
d="M134 20.5q-25 20.5 -25 55.5v1104q0 75 47 114t149 39h408q154 0 250 -39.5t142 -123.5t46 -218q0 -156 -75.5 -246t-223.5 -120q56 -35 92 -107l211 -405q7 -17 7 -28q0 -46 -91 -46h-76q-120 0 -149 74l-176 375q-26 54 -56 78.5t-88 27.5h-127v-479q0 -35 -26.5 -55.5
t-96.5 -20.5h-51q-66 0 -91 20.5zM655 731q116 0 169 49.5t53 153.5q0 71 -22.5 113.5t-71.5 61.5t-132 19h-213q-21 0 -30 -8t-9 -24v-365h256zM461 -411.5q-16 14.5 -16 40.5q0 16 4 29l45 184q8 33 29 50.5t55 17.5h81q32 0 50 -14.5t18 -40.5q0 -15 -6 -31l-57 -162
q-28 -88 -91 -88h-69q-27 0 -43 14.5z" />
    <glyph glyph-name="Scedilla" unicode="&#x15e;" horiz-adv-x="1221" 
d="M473.5 -380q-52.5 17 -84 45t-31.5 59q0 19 10.5 29.5t28.5 10.5q12 0 23.5 -4t28.5 -12q31 -14 56.5 -21.5t59.5 -7.5q46 0 69 15t23 41q0 23 -17.5 34.5t-53.5 22.5q-41 13 -61.5 27t-20.5 45q0 16 4.5 28.5t15.5 26.5l13 23q-158 8 -299 57l-101 33q-43 15 -43 54
q0 15 6 34l17 63q9 30 21 43t31 13q12 0 30 -5l75 -24q67 -23 149.5 -38t158.5 -15q249 0 249 161q0 45 -21 72.5t-62 46.5t-121 45l-170 49q-112 33 -187 78.5t-116 116t-41 174.5q0 122 57 215t168 145t268 52q176 0 338 -54l88 -32q23 -8 33 -21t10 -34q0 -7 -4 -29
l-18 -66q-9 -29 -20 -41t-27 -12q-13 0 -29 6l-68 21q-147 49 -276 49q-121 0 -179.5 -43t-58.5 -121q0 -50 22 -80t62 -48.5t115 -41.5l172 -51q121 -34 197 -79t114.5 -114t38.5 -172q0 -116 -51 -204t-152 -140.5t-247 -62.5l-9 -17q-10 -17 -10 -33t14.5 -24.5
t46.5 -16.5q37 -11 61 -22.5t42 -37t18 -69.5q0 -77 -62 -118t-181 -41q-60 0 -112.5 17z" />
    <glyph glyph-name="Scommaaccent" unicode="&#x218;" horiz-adv-x="1221" 
d="M238 39l-101 33q-43 15 -43 54q0 15 6 34l17 63q9 30 21 43t31 13q12 0 30 -5l75 -24q67 -23 149.5 -38t158.5 -15q249 0 249 161q0 45 -21 72.5t-62 46.5t-121 45l-170 49q-112 33 -187 78.5t-116 116t-41 174.5q0 122 57 215t168 145t268 52q176 0 338 -54l88 -32
q23 -8 33 -21t10 -34q0 -7 -4 -29l-18 -66q-9 -29 -20 -41t-27 -12q-13 0 -29 6l-68 21q-147 49 -276 49q-121 0 -179.5 -43t-58.5 -121q0 -50 22 -80t62 -48.5t115 -41.5l172 -51q121 -34 197 -79t114.5 -114t38.5 -172q0 -125 -59 -217t-175 -142t-282 -50q-193 0 -362 59
zM450.5 -411q-15.5 15 -15.5 43q0 12 3 26l45 184q8 33 30.5 50.5t55.5 17.5h80q33 0 50.5 -14t17.5 -40q0 -14 -6 -32l-56 -162q-30 -88 -90 -88h-71q-28 0 -43.5 15z" />
    <glyph glyph-name="Tbar" unicode="&#x166;" horiz-adv-x="1217" 
d="M488 20.5q-25 20.5 -25 55.5v504h-193q-69 0 -69 79v35q0 41 17 59.5t52 18.5h193v352h-344q-28 0 -46 20t-18 66v35q0 88 64 88h979q65 0 65 -88v-35q0 -86 -65 -86h-344v-352h204q35 0 51.5 -18.5t16.5 -59.5v-35q0 -79 -68 -79h-204v-504q0 -35 -26 -55.5t-91 -20.5
h-57q-67 0 -92 20.5z" />
    <glyph glyph-name="Tcaron" unicode="&#x164;" horiz-adv-x="1217" 
d="M487.5 1440.5q-21.5 10.5 -43.5 34.5l-120 129q-24 26 -24 49q0 19 17 31t48 12h28q35 0 56 -6.5t39.5 -22t52.5 -51.5l67 -74l64 74q31 34 50.5 50t41.5 23t57 7h33q29 0 45 -11.5t16 -29.5q0 -23 -26 -51l-119 -129q-20 -23 -42.5 -34t-51.5 -11h-139q-28 0 -49.5 10.5
zM488 20.5q-25 20.5 -25 55.5v1048h-344q-28 0 -46 20t-18 66v35q0 88 64 88h979q65 0 65 -88v-35q0 -86 -65 -86h-344v-1048q0 -35 -26 -55.5t-91 -20.5h-57q-67 0 -92 20.5z" />
    <glyph glyph-name="Tcommaaccent" unicode="&#x162;" horiz-adv-x="1217" 
d="M465.5 -380q-52.5 17 -84 45t-31.5 59q0 19 10.5 29.5t28.5 10.5q12 0 26 -5t28 -12q32 -14 56 -21t58 -7q46 0 69 15t23 41q0 23 -17.5 34.5t-53.5 22.5q-41 13 -61.5 27t-20.5 45q0 16 4.5 28.5t15.5 26.5l25 43q-43 7 -60.5 26t-17.5 48v1048h-344q-28 0 -46 20
t-18 66v35q0 88 64 88h979q65 0 65 -88v-35q0 -86 -65 -86h-344v-1048q0 -30 -18.5 -49t-65.5 -25l-21 -37q-10 -17 -10 -33t14.5 -24.5t46.5 -16.5q37 -11 61 -22.5t42 -37t18 -69.5q0 -77 -62 -118t-181 -41q-60 0 -112.5 17z" />
    <glyph glyph-name="uni021A" unicode="&#x21a;" horiz-adv-x="1217" 
d="M488 20.5q-25 20.5 -25 55.5v1048h-344q-28 0 -46 20t-18 66v35q0 88 64 88h979q65 0 65 -88v-35q0 -86 -65 -86h-344v-1048q0 -35 -26 -55.5t-91 -20.5h-57q-67 0 -92 20.5zM443 -411.5q-15 14.5 -15 40.5q0 14 4 29l45 184q6 32 28 50t56 18h80q33 0 51 -15t18 -42
q0 -11 -5 -29l-58 -162q-30 -88 -90 -88h-72q-27 0 -42 14.5z" />
    <glyph glyph-name="Uhungarumlaut" unicode="&#x170;" horiz-adv-x="1260" 
d="M416 1431.5q-10 8.5 -10 23.5q0 24 24 58l94 129q22 29 42 41.5t50 12.5h66q31 0 49.5 -13t18.5 -34t-21 -45l-86 -95q-42 -46 -76 -66t-73 -20h-50q-18 0 -28 8.5zM726.5 1430.5q-8.5 7.5 -8.5 20.5q0 27 32 65l114 133q21 24 43 35.5t49 11.5h72q31 0 49 -12.5
t18 -32.5q0 -23 -26 -49l-117 -103q-45 -40 -80 -58t-73 -18h-49q-15 0 -23.5 7.5zM225 107.5q-127 127.5 -127 373.5v774q0 37 25 57.5t92 20.5h55q67 0 93 -20.5t26 -57.5v-776q0 -135 57 -199.5t185 -64.5q129 0 184 62t55 202v776q0 36 26 57t91 21h57q67 0 93 -20.5
t26 -57.5v-774q0 -247 -132 -374t-410 -127q-269 0 -396 127.5z" />
    <glyph glyph-name="Umacron" unicode="&#x16a;" horiz-adv-x="1260" 
d="M315 1563v26q0 74 56 74h518q53 0 53 -74v-28q0 -74 -53 -74h-518q-56 0 -56 76zM225 107.5q-127 127.5 -127 373.5v774q0 37 25 57.5t92 20.5h55q67 0 93 -20.5t26 -57.5v-776q0 -135 57 -199.5t185 -64.5q129 0 184 62t55 202v776q0 36 26 57t91 21h57q67 0 93 -20.5
t26 -57.5v-774q0 -247 -132 -374t-410 -127q-269 0 -396 127.5z" />
    <glyph glyph-name="Uogonek" unicode="&#x172;" horiz-adv-x="1260" 
d="M546 -308q-52 38 -52 109q0 59 40 105t99 74h-12q-269 0 -396 127.5t-127 373.5v774q0 37 25 57.5t92 20.5h55q67 0 93 -20.5t26 -57.5v-776q0 -135 57 -199.5t185 -64.5q129 0 184 62t55 202v776q0 36 26 57t91 21h57q67 0 93 -20.5t26 -57.5v-774q0 -200 -84.5 -320
t-261.5 -161q-66 -26 -108.5 -64.5t-42.5 -85.5q0 -29 17.5 -43t55.5 -14q26 0 46 5.5t47 16.5q14 6 27.5 10.5t25.5 4.5q18 0 28.5 -12t10.5 -31q0 -36 -33.5 -66.5t-87.5 -48.5t-113 -18q-92 0 -144 38z" />
    <glyph glyph-name="Uring" unicode="&#x16e;" horiz-adv-x="1260" 
d="M508 1424q-52 27 -81.5 74.5t-29.5 107.5q0 59 29.5 107t82 75t118.5 27q68 0 120.5 -27t81.5 -74.5t29 -107.5t-29 -107.5t-81.5 -74.5t-120.5 -27q-67 0 -119 27zM698 1539q27 26 27 67q0 40 -27 67t-67 27q-43 0 -68.5 -26.5t-25.5 -67.5q0 -42 25.5 -67.5t68.5 -25.5
q40 0 67 26zM225 107.5q-127 127.5 -127 373.5v774q0 37 25 57.5t92 20.5h55q67 0 93 -20.5t26 -57.5v-776q0 -135 57 -199.5t185 -64.5q129 0 184 62t55 202v776q0 36 26 57t91 21h57q67 0 93 -20.5t26 -57.5v-774q0 -247 -132 -374t-410 -127q-269 0 -396 127.5z" />
    <glyph glyph-name="Wacute" unicode="&#x1e82;" horiz-adv-x="1823" 
d="M824.5 1438q-13.5 11 -13.5 29q0 23 25 51l122 133q40 45 93 45h90q31 0 49 -12.5t18 -32.5q0 -24 -28 -49l-121 -109q-40 -35 -71 -50.5t-68 -15.5h-60q-22 0 -35.5 11zM373.5 40.5q-49.5 40.5 -66.5 123.5l-227 1087q-3 12 -3 23q0 28 23.5 43.5t79.5 15.5h70
q68 0 102.5 -23t36.5 -59l158 -981q2 -14 18 -14q5 0 8 3t5 11l206 981q6 38 35 60t96 22h39q64 0 92 -21.5t35 -60.5l207 -981q2 -14 15 -14q14 0 16 14l156 981q5 38 34 60t95 22h43q100 0 100 -62q0 -6 -2 -20l-229 -1087q-16 -82 -62 -123t-127 -41h-33q-168 0 -192 166
l-180 774l-177 -774q-15 -84 -65.5 -125t-138.5 -41h-33q-85 0 -134.5 40.5z" />
    <glyph glyph-name="Wcircumflex" unicode="&#x174;" horiz-adv-x="1823" 
d="M648.5 1442q-17.5 12 -17.5 32q0 23 24 50l121 127q21 23 42.5 34t49.5 11h140q28 0 49.5 -11t44.5 -34l119 -127q25 -26 25 -51q0 -19 -15.5 -31t-44.5 -12h-33q-35 0 -57 6.5t-41.5 22.5t-50.5 50l-66 72l-66 -72q-33 -35 -51.5 -50.5t-39.5 -22t-56 -6.5h-29
q-30 0 -47.5 12zM373.5 40.5q-49.5 40.5 -66.5 123.5l-227 1087q-3 12 -3 23q0 28 23.5 43.5t79.5 15.5h70q68 0 102.5 -23t36.5 -59l158 -981q2 -14 18 -14q5 0 8 3t5 11l206 981q6 38 35 60t96 22h39q64 0 92 -21.5t35 -60.5l207 -981q2 -14 15 -14q14 0 16 14l156 981
q5 38 34 60t95 22h43q100 0 100 -62q0 -6 -2 -20l-229 -1087q-16 -82 -62 -123t-127 -41h-33q-168 0 -192 166l-180 774l-177 -774q-15 -84 -65.5 -125t-138.5 -41h-33q-85 0 -134.5 40.5z" />
    <glyph glyph-name="Wdieresis" unicode="&#x1e84;" horiz-adv-x="1823" 
d="M683.5 1469q-36.5 35 -36.5 94q0 56 37 91.5t94 35.5q56 0 91.5 -35.5t35.5 -91.5q0 -59 -35.5 -94t-91.5 -35q-58 0 -94.5 35zM1013 1469q-36 35 -36 94q0 56 36.5 91.5t94.5 35.5q56 0 91.5 -35.5t35.5 -91.5q0 -59 -35.5 -94t-91.5 -35q-59 0 -95 35zM373.5 40.5
q-49.5 40.5 -66.5 123.5l-227 1087q-3 12 -3 23q0 28 23.5 43.5t79.5 15.5h70q68 0 102.5 -23t36.5 -59l158 -981q2 -14 18 -14q5 0 8 3t5 11l206 981q6 38 35 60t96 22h39q64 0 92 -21.5t35 -60.5l207 -981q2 -14 15 -14q14 0 16 14l156 981q5 38 34 60t95 22h43
q100 0 100 -62q0 -6 -2 -20l-229 -1087q-16 -82 -62 -123t-127 -41h-33q-168 0 -192 166l-180 774l-177 -774q-15 -84 -65.5 -125t-138.5 -41h-33q-85 0 -134.5 40.5z" />
    <glyph glyph-name="Wgrave" unicode="&#x1e80;" horiz-adv-x="1823" 
d="M893 1442.5q-32 15.5 -72 50.5l-121 109q-28 25 -28 49q0 20 18 32.5t49 12.5h90q27 0 48 -11t45 -34l122 -133q26 -27 26 -51q0 -18 -13.5 -29t-36.5 -11h-57q-38 0 -70 15.5zM373.5 40.5q-49.5 40.5 -66.5 123.5l-227 1087q-3 12 -3 23q0 28 23.5 43.5t79.5 15.5h70
q68 0 102.5 -23t36.5 -59l158 -981q2 -14 18 -14q5 0 8 3t5 11l206 981q6 38 35 60t96 22h39q64 0 92 -21.5t35 -60.5l207 -981q2 -14 15 -14q14 0 16 14l156 981q5 38 34 60t95 22h43q100 0 100 -62q0 -6 -2 -20l-229 -1087q-16 -82 -62 -123t-127 -41h-33q-168 0 -192 166
l-180 774l-177 -774q-15 -84 -65.5 -125t-138.5 -41h-33q-85 0 -134.5 40.5z" />
    <glyph glyph-name="Ycircumflex" unicode="&#x176;" horiz-adv-x="1290" 
d="M370 1442q-17 12 -17 32q0 23 24 50l121 127q20 23 41.5 34t50.5 11h139q29 0 51.5 -11t42.5 -34l119 -127q26 -28 26 -52q0 -19 -16 -30.5t-45 -11.5h-33q-35 0 -57 6.5t-41.5 22.5t-50.5 50l-63 72l-68 -72q-33 -35 -51.5 -50.5t-40 -22t-56.5 -6.5h-28q-31 0 -48 12z
M527.5 20.5q-25.5 20.5 -25.5 55.5v467l-422 710q-8 16 -8 28q0 24 25.5 38t76.5 14h94q64 0 92.5 -19.5t42.5 -56.5l259 -483l260 483q14 37 42.5 56.5t92.5 19.5h59q51 0 76.5 -14t25.5 -38q0 -12 -8 -28l-415 -704v-473q0 -35 -26 -55.5t-93 -20.5h-58q-65 0 -90.5 20.5z
" />
    <glyph glyph-name="Ygrave" unicode="&#x1ef2;" horiz-adv-x="1290" 
d="M615 1442.5q-32 15.5 -72 50.5l-121 109q-28 25 -28 50q0 19 18 31.5t49 12.5h90q27 0 47.5 -11t44.5 -34l123 -133q25 -28 25 -51q0 -18 -13.5 -29t-36.5 -11h-57q-37 0 -69 15.5zM527.5 20.5q-25.5 20.5 -25.5 55.5v467l-422 710q-8 16 -8 28q0 24 25.5 38t76.5 14h94
q64 0 92.5 -19.5t42.5 -56.5l259 -483l260 483q14 37 42.5 56.5t92.5 19.5h59q51 0 76.5 -14t25.5 -38q0 -12 -8 -28l-415 -704v-473q0 -35 -26 -55.5t-93 -20.5h-58q-65 0 -90.5 20.5z" />
    <glyph glyph-name="C.ss01" horiz-adv-x="1239" 
d="M371.5 55.5q-138.5 75.5 -211 225t-72.5 366.5v39q0 216 72.5 365t211 225t335.5 76q164 0 327 -56l86 -30q23 -8 32.5 -20t9.5 -32q0 -13 -5 -38l-16 -64q-8 -33 -18.5 -47.5t-27.5 -14.5q-9 0 -24 5l-70 22q-120 39 -231 39q-379 0 -379 -430v-39q0 -432 379 -432
q57 0 112 10t119 29l70 27q12 3 21 3q19 0 30.5 -14.5t18.5 -48.5l16 -63q5 -25 5 -39q0 -20 -9.5 -32t-32.5 -19l-86 -31q-165 -57 -327 -57q-197 0 -335.5 75.5z" />
    <glyph glyph-name="K.ss01" horiz-adv-x="1257" 
d="M134 20.5q-25 20.5 -25 55.5v1179q0 37 25 57.5t91 20.5h56q67 0 92.5 -20.5t25.5 -57.5v-604l420 606q46 76 166 76h88q83 0 83 -38q0 -15 -15 -38l-383 -460l405 -723q9 -15 9 -29q0 -45 -93 -45h-96q-65 0 -99.5 19.5t-49.5 54.5l-267 489l-168 -205v-282
q0 -35 -26 -55.5t-92 -20.5h-56q-66 0 -91 20.5z" />
    <glyph glyph-name="Kcommaaccent.ss01" horiz-adv-x="1257" 
d="M134 20.5q-25 20.5 -25 55.5v1179q0 37 25 57.5t91 20.5h56q67 0 92.5 -20.5t25.5 -57.5v-604l420 606q46 76 166 76h88q83 0 83 -38q0 -15 -15 -38l-383 -460l405 -723q9 -15 9 -29q0 -45 -93 -45h-96q-65 0 -99.5 19.5t-49.5 54.5l-267 489l-168 -205v-282
q0 -35 -26 -55.5t-92 -20.5h-56q-66 0 -91 20.5zM465 -411.5q-16 14.5 -16 40.5q0 16 4 29l45 184q8 33 29.5 50.5t54.5 17.5h80q32 0 50.5 -14.5t18.5 -40.5q0 -15 -6 -31l-57 -162q-28 -88 -90 -88h-70q-27 0 -43 14.5z" />
    <glyph glyph-name="C.ss02" horiz-adv-x="1239" 
d="M367.5 56.5q-136.5 76.5 -208 225.5t-71.5 365v39q0 215 72 364.5t209 225.5t333 76q132 0 233.5 -26t168.5 -66q45 -29 45 -62v-131q0 -19 -7.5 -29t-20.5 -10q-11 0 -25 6q-72 36 -152 59t-174 23q-379 0 -379 -430v-39q0 -432 379 -432q94 0 174 23t152 59q13 7 25 7
q13 0 20.5 -9.5t7.5 -26.5v-131q0 -34 -45 -65q-67 -40 -169 -66t-236 -26q-195 0 -331.5 76.5z" />
    <glyph glyph-name="abreve" unicode="&#x103;" horiz-adv-x="1006" 
d="M343 1083.5q-73 32.5 -109.5 89.5t-36.5 130q0 47 16.5 71.5t42.5 24.5q22 0 35 -14t29 -45q19 -36 38.5 -60.5t59.5 -42.5t104 -18q65 0 105 18t59.5 42.5t38.5 61.5q15 31 27 44.5t34 13.5q26 0 43 -24.5t17 -71.5q0 -73 -36.5 -130t-109.5 -89.5t-178 -32.5
q-106 0 -179 32.5zM176.5 49q-104.5 69 -104.5 207v20q0 134 95 201t294 78l213 12v25q0 79 -44.5 118.5t-137.5 39.5q-54 0 -123 -13t-125 -32l-47 -19q-18 -4 -25 -4q-18 0 -29 11t-18 38l-12 62q-4 15 -4 29q0 16 8 26t26 18l68 25q134 55 311 55q206 0 302 -82t96 -243
v-342q0 -157 -101 -228t-319 -71q-219 0 -323.5 69zM633.5 166q40.5 35 40.5 113v143l-154 -8q-101 -6 -147.5 -37t-46.5 -96v-19q0 -68 39 -99.5t135 -31.5q93 0 133.5 35z" />
    <glyph glyph-name="amacron" unicode="&#x101;" horiz-adv-x="1006" 
d="M223 1142q-16 18 -16 58v27q0 39 16 55t39 16h518q56 0 56 -71v-29q0 -40 -15.5 -57t-40.5 -17h-518q-23 0 -39 18zM176.5 49q-104.5 69 -104.5 207v20q0 134 95 201t294 78l213 12v25q0 79 -44.5 118.5t-137.5 39.5q-54 0 -123 -13t-125 -32l-47 -19q-18 -4 -25 -4
q-18 0 -29 11t-18 38l-12 62q-4 15 -4 29q0 16 8 26t26 18l68 25q134 55 311 55q206 0 302 -82t96 -243v-342q0 -157 -101 -228t-319 -71q-219 0 -323.5 69zM633.5 166q40.5 35 40.5 113v143l-154 -8q-101 -6 -147.5 -37t-46.5 -96v-19q0 -68 39 -99.5t135 -31.5
q93 0 133.5 35z" />
    <glyph glyph-name="ccaron" unicode="&#x10d;" horiz-adv-x="934" 
d="M391.5 1077.5q-20.5 10.5 -43.5 34.5l-121 129q-23 24 -23 48q0 19 17.5 31.5t46.5 12.5h29q35 0 56.5 -6.5t40.5 -22.5t50 -51l68 -73l63 73q31 34 51 50.5t42 23t57 6.5h33q29 0 45.5 -12t16.5 -30q0 -24 -25 -50l-121 -129q-20 -23 -43 -34t-51 -11h-140
q-28 0 -48.5 10.5zM188 88.5q-116 108.5 -116 355.5v37q0 248 116 356.5t326 108.5q148 0 260 -47l55 -20q20 -7 28.5 -18.5t8.5 -30.5q0 -17 -4 -33l-14 -58q-9 -55 -43 -55q-5 0 -19 4l-45 17q-83 26 -168 26q-115 0 -173 -56.5t-58 -193.5v-37q0 -136 58 -191.5
t173 -55.5q94 0 168 26l45 17q9 3 18 3q18 0 28.5 -13.5t15.5 -41.5l14 -59q4 -16 4 -31q0 -18 -8.5 -30t-28.5 -19l-55 -22q-120 -47 -260 -47q-210 0 -326 108.5z" />
    <glyph glyph-name="cdotaccent" unicode="&#x10b;" horiz-adv-x="934" 
d="M407.5 1110.5q-40.5 39.5 -40.5 106.5q0 65 41 104t106 39t106.5 -39t41.5 -104q0 -67 -41 -106.5t-107 -39.5t-106.5 39.5zM188 88.5q-116 108.5 -116 355.5v37q0 248 116 356.5t326 108.5q148 0 260 -47l55 -20q20 -7 28.5 -18.5t8.5 -30.5q0 -17 -4 -33l-14 -58
q-9 -55 -43 -55q-5 0 -19 4l-45 17q-83 26 -168 26q-115 0 -173 -56.5t-58 -193.5v-37q0 -136 58 -191.5t173 -55.5q94 0 168 26l45 17q9 3 18 3q18 0 28.5 -13.5t15.5 -41.5l14 -59q4 -16 4 -31q0 -18 -8.5 -30t-28.5 -19l-55 -22q-120 -47 -260 -47q-210 0 -326 108.5z
" />
    <glyph glyph-name="dcaron" unicode="&#x10f;" horiz-adv-x="1360" 
d="M186.5 89q-114.5 109 -114.5 353v41q0 240 106.5 351.5t315.5 111.5q145 0 233 -61v381q0 69 104 69h58q55 0 76.5 -18.5t21.5 -50.5v-824q0 -240 -111.5 -351t-338.5 -111q-236 0 -350.5 109zM1099 872.5q-17 16.5 -17 46.5q0 10 1 15l45 334q4 32 23.5 48.5t52.5 16.5
h72q64 0 64 -60q0 -12 -1 -18l-69 -335q-12 -64 -76 -64h-45q-33 0 -50 16.5zM647 186q42 26 61 87.5t19 170.5v39q0 109 -19 170t-61 87t-115 26t-115 -25.5t-61.5 -86.5t-19.5 -171v-41q0 -108 19.5 -169t62 -87t114.5 -26q73 0 115 26z" />
    <glyph glyph-name="dcroat" unicode="&#x111;" horiz-adv-x="1079" 
d="M186.5 89q-114.5 109 -114.5 353v41q0 240 106.5 351.5t315.5 111.5q145 0 233 -61v147h-213q-31 0 -48 17.5t-17 48.5v18q0 32 17 49t48 17h213v84q0 69 104 69h58q55 0 76.5 -18.5t21.5 -50.5v-84h17q32 0 49.5 -17t17.5 -49v-18q0 -31 -17.5 -48.5t-49.5 -17.5h-17
v-590q0 -240 -111.5 -351t-338.5 -111q-236 0 -350.5 109zM647 186q42 26 61 87.5t19 170.5v39q0 109 -19 170t-61 87t-115 26t-115 -25.5t-61.5 -86.5t-19.5 -171v-41q0 -108 19.5 -169t62 -87t114.5 -26q73 0 115 26z" />
    <glyph glyph-name="ecaron" unicode="&#x11b;" horiz-adv-x="1004" 
d="M408.5 1077.5q-21.5 10.5 -41.5 34.5l-121 129q-24 26 -24 49q0 19 17 31t48 12h28q35 0 56 -6.5t39.5 -22t52.5 -51.5l65 -73l66 73q31 34 50.5 50.5t41.5 23t57 6.5h33q29 0 45 -11.5t16 -29.5q0 -23 -26 -51l-119 -129q-21 -24 -43 -34.5t-51 -10.5h-139
q-29 0 -50.5 10.5zM200 94q-128 114 -128 352v35q0 153 56 257t158.5 156t241.5 52q127 0 218 -36t138.5 -103t47.5 -158q0 -99 -43.5 -157.5t-132 -85.5t-230.5 -31l-200 -6q21 -99 94.5 -145t179.5 -46q43 0 93.5 9t94.5 22l43 16q11 4 22 4q15 0 24 -11t14 -36l18 -59
q5 -18 5 -28q0 -17 -8 -27t-25 -17l-62 -26q-55 -22 -125 -33.5t-145 -11.5q-221 0 -349 114zM475 510q84 2 131 10t75 34t28 79q0 63 -41.5 99t-132.5 36q-109 0 -164 -63t-56 -201z" />
    <glyph glyph-name="edotaccent" unicode="&#x117;" horiz-adv-x="1004" 
d="M425 1110.5q-40 39.5 -40 106.5q0 65 40 104t105 39t106.5 -39t41.5 -104q0 -67 -41 -106.5t-107 -39.5q-65 0 -105 39.5zM200 94q-128 114 -128 352v35q0 153 56 257t158.5 156t241.5 52q127 0 218 -36t138.5 -103t47.5 -158q0 -99 -43.5 -157.5t-132 -85.5t-230.5 -31
l-200 -6q21 -99 94.5 -145t179.5 -46q43 0 93.5 9t94.5 22l43 16q11 4 22 4q15 0 24 -11t14 -36l18 -59q5 -18 5 -28q0 -17 -8 -27t-25 -17l-62 -26q-55 -22 -125 -33.5t-145 -11.5q-221 0 -349 114zM475 510q84 2 131 10t75 34t28 79q0 63 -41.5 99t-132.5 36
q-109 0 -164 -63t-56 -201z" />
    <glyph glyph-name="emacron" unicode="&#x113;" horiz-adv-x="1004" 
d="M233 1142q-16 18 -16 58v27q0 39 16 55t39 16h519q53 0 53 -71v-29q0 -40 -14.5 -57t-38.5 -17h-519q-23 0 -39 18zM200 94q-128 114 -128 352v35q0 153 56 257t158.5 156t241.5 52q127 0 218 -36t138.5 -103t47.5 -158q0 -99 -43.5 -157.5t-132 -85.5t-230.5 -31
l-200 -6q21 -99 94.5 -145t179.5 -46q43 0 93.5 9t94.5 22l43 16q11 4 22 4q15 0 24 -11t14 -36l18 -59q5 -18 5 -28q0 -17 -8 -27t-25 -17l-62 -26q-55 -22 -125 -33.5t-145 -11.5q-221 0 -349 114zM475 510q84 2 131 10t75 34t28 79q0 63 -41.5 99t-132.5 36
q-109 0 -164 -63t-56 -201z" />
    <glyph glyph-name="gbreve" unicode="&#x11f;" horiz-adv-x="1075" 
d="M351.5 1084q-73.5 33 -110 90t-36.5 129q0 47 17.5 71.5t43.5 24.5q21 0 33 -13.5t29 -44.5q19 -37 38.5 -61.5t59 -42.5t104.5 -18t105 18t59.5 42.5t38.5 60.5q16 31 29 45t35 14q26 0 42.5 -24.5t16.5 -71.5q0 -73 -36.5 -130t-109.5 -89.5t-180 -32.5
q-105 0 -178.5 33zM184.5 -302q-123.5 71 -123.5 202q0 76 46.5 123t128.5 59q-82 47 -82 133q0 49 26.5 86.5t77.5 58.5q-93 31 -134.5 97t-41.5 170q0 149 99 225t321 76h473q53 0 53 -74v-25q0 -41 -14 -57t-39 -16h-92q28 -61 28 -129q0 -100 -40.5 -165.5t-131.5 -98.5
t-241 -33h-92q-32 0 -50 -17t-18 -41q0 -53 94 -59l215 -10q191 -11 278 -75t87 -191q0 -95 -55.5 -164.5t-163 -107.5t-259.5 -38q-226 0 -349.5 71zM604.5 479q37.5 16 52.5 49.5t15 89.5q0 59 -15 92.5t-52.5 49.5t-104.5 16q-96 0 -134 -36.5t-38 -118.5q0 -58 15.5 -92
t53 -50t103.5 -16q67 0 104.5 16zM768 -84q0 35 -15 56.5t-55 35t-114 19.5l-191 16q-58 0 -89.5 -29.5t-31.5 -79.5q0 -76 73 -110.5t202 -34.5q221 0 221 127z" />
    <glyph glyph-name="gcommaaccent" unicode="&#x123;" horiz-adv-x="1075" 
d="M454 1077q-16 14 -16 39q0 14 4 27l66 196q18 58 78 58h71q31 0 47.5 -14.5t16.5 -40.5q0 -14 -2 -21l-51 -199q-8 -59 -78 -59h-90q-30 0 -46 14zM184.5 -302q-123.5 71 -123.5 202q0 76 46.5 123t128.5 59q-82 47 -82 133q0 49 26.5 86.5t77.5 58.5q-93 31 -134.5 97
t-41.5 170q0 149 99 225t321 76h473q53 0 53 -74v-25q0 -41 -14 -57t-39 -16h-92q28 -61 28 -129q0 -100 -40.5 -165.5t-131.5 -98.5t-241 -33h-92q-32 0 -50 -17t-18 -41q0 -53 94 -59l215 -10q191 -11 278 -75t87 -191q0 -95 -55.5 -164.5t-163 -107.5t-259.5 -38
q-226 0 -349.5 71zM604.5 479q37.5 16 52.5 49.5t15 89.5q0 59 -15 92.5t-52.5 49.5t-104.5 16q-96 0 -134 -36.5t-38 -118.5q0 -58 15.5 -92t53 -50t103.5 -16q67 0 104.5 16zM768 -84q0 35 -15 56.5t-55 35t-114 19.5l-191 16q-58 0 -89.5 -29.5t-31.5 -79.5
q0 -76 73 -110.5t202 -34.5q221 0 221 127z" />
    <glyph glyph-name="gdotaccent" unicode="&#x121;" horiz-adv-x="1075" 
d="M425 1110.5q-40 39.5 -40 106.5q0 65 40 104t105 39t106.5 -39t41.5 -104q0 -67 -41 -106.5t-107 -39.5q-65 0 -105 39.5zM184.5 -302q-123.5 71 -123.5 202q0 76 46.5 123t128.5 59q-82 47 -82 133q0 49 26.5 86.5t77.5 58.5q-93 31 -134.5 97t-41.5 170q0 149 99 225
t321 76h473q53 0 53 -74v-25q0 -41 -14 -57t-39 -16h-92q28 -61 28 -129q0 -100 -40.5 -165.5t-131.5 -98.5t-241 -33h-92q-32 0 -50 -17t-18 -41q0 -53 94 -59l215 -10q191 -11 278 -75t87 -191q0 -95 -55.5 -164.5t-163 -107.5t-259.5 -38q-226 0 -349.5 71zM604.5 479
q37.5 16 52.5 49.5t15 89.5q0 59 -15 92.5t-52.5 49.5t-104.5 16q-96 0 -134 -36.5t-38 -118.5q0 -58 15.5 -92t53 -50t103.5 -16q67 0 104.5 16zM768 -84q0 35 -15 56.5t-55 35t-114 19.5l-191 16q-58 0 -89.5 -29.5t-31.5 -79.5q0 -76 73 -110.5t202 -34.5q221 0 221 127z
" />
    <glyph glyph-name="hbar" unicode="&#x127;" horiz-adv-x="1051" 
d="M121 18.5q-23 18.5 -23 49.5v964h-39q-32 0 -49.5 17.5t-17.5 48.5v18q0 32 17.5 49t49.5 17h39v84q0 67 103 67h53q102 0 102 -67v-84h363q65 0 65 -66v-18q0 -31 -16.5 -48.5t-48.5 -17.5h-363v-133q85 47 224 47q193 0 285.5 -91t92.5 -275v-512q0 -32 -21.5 -50
t-78.5 -18h-57q-57 0 -79 18t-22 50v503q0 95 -38 138t-127 43q-93 0 -136 -43.5t-43 -137.5v-503q0 -32 -22 -50t-80 -18h-53q-57 0 -80 18.5z" />
    <glyph glyph-name="dotlessi" unicode="&#x131;" horiz-adv-x="455" 
d="M120.5 18q-22.5 18 -22.5 50v792q0 68 103 68h51q59 0 81.5 -18.5t22.5 -49.5v-792q0 -32 -22.5 -50t-81.5 -18h-51q-58 0 -80.5 18z" />
    <glyph glyph-name="i.loclTRK" horiz-adv-x="455" 
d="M135 1110.5q-41 39.5 -41 106.5q0 65 41.5 104t106.5 39t105 -39t40 -104q0 -67 -40 -106.5t-105 -39.5q-66 0 -107 39.5zM120.5 18q-22.5 18 -22.5 50v792q0 68 103 68h51q59 0 81.5 -18.5t22.5 -49.5v-792q0 -32 -22.5 -50t-81.5 -18h-51q-58 0 -80.5 18z" />
    <glyph glyph-name="ij" unicode="&#x133;" horiz-adv-x="922" 
d="M126.5 1115q-38.5 38 -38.5 102q0 61 38.5 99t100.5 38t101 -38t39 -99q0 -64 -39 -102t-101 -38t-100.5 38zM582 1115q-39 38 -39 102q0 61 39.5 99t101.5 38t100.5 -38t38.5 -99q0 -64 -38.5 -102t-100.5 -38q-63 0 -102 38zM120.5 18q-22.5 18 -22.5 50v792
q0 68 103 68h51q59 0 81.5 -18.5t22.5 -49.5v-792q0 -32 -22.5 -50t-81.5 -18h-51q-58 0 -80.5 18zM389 -341.5q-41 31.5 -41 87.5v18q0 50 68 50q69 0 103 37.5t34 117.5v891q0 31 22 49.5t80 18.5h52q59 0 81.5 -18.5t22.5 -49.5v-899q0 -108 -38 -183t-106 -113t-157 -38
q-80 0 -121 31.5z" />
    <glyph glyph-name="imacron" unicode="&#x12b;" horiz-adv-x="455" 
d="M-56.5 1141.5q-15.5 17.5 -15.5 58.5v27q0 71 54 71h518q55 0 55 -71v-29q0 -40 -15.5 -57t-39.5 -17h-518q-23 0 -38.5 17.5zM120.5 18q-22.5 18 -22.5 50v792q0 68 103 68h51q59 0 81.5 -18.5t22.5 -49.5v-792q0 -32 -22.5 -50t-81.5 -18h-51q-58 0 -80.5 18z" />
    <glyph glyph-name="iogonek" unicode="&#x12f;" horiz-adv-x="455" 
d="M135 1110.5q-41 39.5 -41 106.5q0 65 41.5 104t106.5 39t105 -39t40 -104q0 -67 -40 -106.5t-105 -39.5q-66 0 -107 39.5zM54.5 -295q-52.5 39 -52.5 111q0 63 46.5 112.5t111.5 73.5q-62 13 -62 66v792q0 68 103 68h51q59 0 81.5 -18.5t22.5 -49.5v-792q0 -22 -11 -38
t-38 -24q-58 -26 -95.5 -62t-37.5 -79q0 -60 74 -60q26 0 46.5 6t45.5 16q17 8 28.5 11.5t22.5 3.5q20 0 30.5 -11.5t10.5 -31.5q0 -35 -33.5 -65.5t-87.5 -49t-112 -18.5q-92 0 -144.5 39z" />
    <glyph glyph-name="kcommaaccent" unicode="&#x137;" horiz-adv-x="1024" 
d="M120.5 18q-22.5 18 -22.5 50v1198q0 67 103 67h51q59 0 81.5 -18.5t22.5 -48.5v-1198q0 -32 -22.5 -50t-81.5 -18h-51q-58 0 -80.5 18zM716.5 18.5q-36.5 18.5 -54.5 49.5l-248 358q-14 20 -14 39t14 39l250 354q18 31 55 50.5t94 19.5h84q38 0 56 -9.5t18 -24.5
q0 -16 -15 -36l-317 -389l317 -401q15 -20 15 -35q0 -33 -74 -33h-86q-58 0 -94.5 18.5zM351 -411.5q-15 14.5 -15 40.5q0 14 4 29l45 184q6 32 28 50t56 18h80q33 0 50.5 -15t17.5 -41q0 -16 -5 -30l-57 -162q-30 -88 -90 -88h-72q-27 0 -42 14.5z" />
    <glyph glyph-name="lacute" unicode="&#x13a;" horiz-adv-x="455" 
d="M107 1436.5q-14 11.5 -14 29.5q0 25 24 50l125 133q39 45 92 45h90q30 0 48 -13t18 -33q0 -25 -27 -49l-121 -108q-39 -35 -71 -50.5t-68 -15.5h-60q-22 0 -36 11.5zM120.5 18q-22.5 18 -22.5 50v1198q0 67 103 67h51q59 0 81.5 -18.5t22.5 -48.5v-1198q0 -32 -22.5 -50
t-81.5 -18h-51q-58 0 -80.5 18z" />
    <glyph glyph-name="lcaron" unicode="&#x13e;" horiz-adv-x="713" 
d="M120.5 18q-22.5 18 -22.5 50v1198q0 67 103 67h51q59 0 81.5 -18.5t22.5 -48.5v-1198q0 -32 -22.5 -50t-81.5 -18h-51q-58 0 -80.5 18zM449.5 876.5q-16.5 20.5 -13.5 57.5l45 334q3 32 23 48.5t53 16.5h72q31 0 48 -15t17 -44q0 -5 -2 -19l-69 -335q-13 -64 -76 -64h-45
q-36 0 -52.5 20.5z" />
    <glyph glyph-name="lcommaaccent" unicode="&#x13c;" horiz-adv-x="455" 
d="M120.5 18q-22.5 18 -22.5 50v1198q0 67 103 67h51q59 0 81.5 -18.5t22.5 -48.5v-1198q0 -32 -22.5 -50t-81.5 -18h-51q-58 0 -80.5 18zM65 -411.5q-16 14.5 -16 41.5q0 15 4 28l45 184q8 33 29.5 50.5t54.5 17.5h80q33 0 51 -15t18 -42q0 -11 -5 -29l-58 -162
q-30 -88 -90 -88h-69q-28 0 -44 14.5z" />
    <glyph glyph-name="ldot" unicode="&#x140;" horiz-adv-x="690" 
d="M120.5 18q-22.5 18 -22.5 50v1198q0 67 103 67h51q59 0 81.5 -18.5t22.5 -48.5v-1198q0 -32 -22.5 -50t-81.5 -18h-51q-58 0 -80.5 18zM420 557q0 65 31.5 97t89.5 32q121 0 121 -129q0 -65 -32 -96t-91 -31q-119 0 -119 127z" />
    <glyph glyph-name="ncaron" unicode="&#x148;" horiz-adv-x="1051" 
d="M395 1077.5q-21 10.5 -43 34.5l-121 129q-24 26 -24 48q0 20 17.5 32t47.5 12h29q35 0 56 -6.5t39.5 -22t52.5 -51.5l67 -73l64 73q44 49 72 64.5t77 15.5h33q29 0 45 -11.5t16 -30.5q0 -24 -26 -50l-119 -129q-20 -23 -42.5 -34t-51.5 -11h-140q-28 0 -49 10.5zM92 68
v514q0 180 109.5 272t322.5 92q214 0 324 -92t110 -272v-514q0 -68 -100 -68h-59q-101 0 -101 68v505q0 94 -40.5 136.5t-133.5 42.5t-133.5 -42.5t-40.5 -136.5v-505q0 -32 -21.5 -50t-78.5 -18h-57q-101 0 -101 68z" />
    <glyph glyph-name="ncommaaccent" unicode="&#x146;" horiz-adv-x="1051" 
d="M92 68v514q0 180 109.5 272t322.5 92q214 0 324 -92t110 -272v-514q0 -68 -100 -68h-59q-101 0 -101 68v505q0 94 -40.5 136.5t-133.5 42.5t-133.5 -42.5t-40.5 -136.5v-505q0 -32 -21.5 -50t-78.5 -18h-57q-101 0 -101 68zM360 -411q-15 15 -15 42q0 12 3 27l45 184
q8 33 29.5 50.5t56.5 17.5h80q32 0 50 -14.5t18 -40.5q0 -15 -6 -31l-56 -162q-30 -88 -90 -88h-72q-28 0 -43 15z" />
    <glyph glyph-name="eng" unicode="&#x14b;" horiz-adv-x="1044" 
d="M533.5 -341q-41.5 32 -41.5 87v18q0 52 67 52t101 37t34 116v604q0 95 -39.5 137t-130.5 42q-93 0 -133.5 -42.5t-40.5 -136.5v-505q0 -32 -21.5 -50t-78.5 -18h-57q-101 0 -101 68v512q0 182 108.5 274t323.5 92q212 0 320 -92t108 -274v-619q0 -163 -79.5 -248.5
t-219.5 -85.5q-78 0 -119.5 32z" />
    <glyph glyph-name="ohungarumlaut" unicode="&#x151;" horiz-adv-x="1075" 
d="M322 1094q0 25 22 57l96 129q22 28 41.5 40.5t50.5 12.5h66q31 0 49.5 -13t18.5 -34t-21 -45l-86 -94q-41 -47 -75 -66.5t-74 -19.5h-50q-38 0 -38 33zM641 1068.5q-8 7.5 -8 20.5q0 27 31 64l116 133q21 24 42.5 35.5t49.5 11.5h72q31 0 48.5 -12.5t17.5 -31.5
q0 -24 -27 -50l-115 -102q-45 -41 -80 -58.5t-73 -17.5h-51q-15 0 -23 7.5zM189 91.5q-117 111.5 -117 350.5v41q0 240 117 351.5t346 111.5q233 0 351 -109.5t118 -353.5v-41q0 -242 -118 -352t-351 -110q-229 0 -346 111.5zM654.5 186q43.5 26 65 87t21.5 169v41
q0 109 -21.5 170.5t-65 87t-115.5 25.5q-74 0 -118 -25.5t-64.5 -87t-20.5 -170.5v-39q0 -108 20.5 -170t64.5 -88t118 -26q72 0 115.5 26z" />
    <glyph glyph-name="omacron" unicode="&#x14d;" horiz-adv-x="1075" 
d="M246.5 1141.5q-15.5 17.5 -15.5 58.5v27q0 71 56 71h516q26 0 40.5 -15.5t14.5 -55.5v-29q0 -74 -55 -74h-516q-25 0 -40.5 17.5zM189 91.5q-117 111.5 -117 350.5v41q0 240 117 351.5t346 111.5q233 0 351 -109.5t118 -353.5v-41q0 -242 -118 -352t-351 -110
q-229 0 -346 111.5zM654.5 186q43.5 26 65 87t21.5 169v41q0 109 -21.5 170.5t-65 87t-115.5 25.5q-74 0 -118 -25.5t-64.5 -87t-20.5 -170.5v-39q0 -108 20.5 -170t64.5 -88t118 -26q72 0 115.5 26z" />
    <glyph glyph-name="racute" unicode="&#x155;" horiz-adv-x="707" 
d="M322.5 1076q-13.5 11 -13.5 28q0 25 25 51l123 133q37 45 92 45h90q31 0 49 -12.5t18 -31.5q0 -25 -28 -50l-121 -109q-40 -35 -71 -50t-68 -15h-60q-22 0 -35.5 11zM92 68v493q0 182 109 274.5t323 92.5h56q55 0 55 -74v-51q0 -72 -55 -72h-56q-95 0 -135.5 -41
t-40.5 -135v-487q0 -32 -21.5 -50t-76.5 -18h-57q-101 0 -101 68z" />
    <glyph glyph-name="rcaron" unicode="&#x159;" horiz-adv-x="707" 
d="M316.5 1077.5q-21.5 10.5 -42.5 34.5l-120 129q-24 26 -24 49q0 19 17 31t48 12h28q35 0 56 -6.5t39.5 -22t52.5 -51.5l65 -73l66 73q31 34 50.5 50.5t41.5 23t57 6.5h33q29 0 45 -11.5t16 -29.5q0 -23 -26 -51l-119 -129q-22 -24 -43.5 -34.5t-50.5 -10.5h-139
q-29 0 -50.5 10.5zM92 68v493q0 182 109 274.5t323 92.5h56q55 0 55 -74v-51q0 -72 -55 -72h-56q-95 0 -135.5 -41t-40.5 -135v-487q0 -32 -21.5 -50t-76.5 -18h-57q-101 0 -101 68z" />
    <glyph glyph-name="rcommaaccent" unicode="&#x157;" horiz-adv-x="707" 
d="M92 68v493q0 182 109 274.5t323 92.5h56q55 0 55 -74v-51q0 -72 -55 -72h-56q-95 0 -135.5 -41t-40.5 -135v-487q0 -32 -21.5 -50t-76.5 -18h-57q-101 0 -101 68zM59 -411.5q-16 14.5 -16 41.5q0 15 4 28l45 184q8 33 29.5 50.5t54.5 17.5h80q32 0 50.5 -14.5t18.5 -40.5
q0 -15 -6 -31l-57 -162q-27 -88 -90 -88h-70q-27 0 -43 14.5z" />
    <glyph glyph-name="scedilla" unicode="&#x15f;" horiz-adv-x="940" 
d="M346.5 -380q-52.5 17 -84 45t-31.5 59q0 19 10.5 29.5t28.5 10.5q12 0 23.5 -4t28.5 -12q28 -13 53.5 -21t60.5 -8q47 0 69.5 15t22.5 41q0 23 -17.5 34.5t-52.5 22.5q-40 13 -60.5 27t-20.5 45q0 16 4.5 28.5t13.5 26.5l17 25q-112 8 -240 51l-66 26q-20 6 -28 16.5
t-8 27.5q0 6 2 24l16 55q7 25 16.5 36t25.5 11q11 0 28 -6l47 -18q58 -20 125 -33.5t125 -13.5q147 0 147 96q0 43 -31 63.5t-98 38.5l-129 37q-75 20 -128.5 49t-86.5 81.5t-33 133.5q0 86 42.5 150.5t127 100.5t207.5 36q161 0 275 -45l59 -20q19 -6 27 -17t8 -29
q0 -6 -2 -24l-15 -57q-7 -25 -16 -34.5t-25 -9.5q-10 0 -24 3l-45 16q-45 15 -100 25t-107 10q-80 0 -114 -24.5t-34 -71.5q0 -34 16.5 -54t41.5 -30.5t71 -22.5l125 -37q119 -28 186.5 -85.5t67.5 -172.5q0 -124 -84.5 -199t-244.5 -85l-11 -17q-8 -20 -8 -33
q0 -16 14.5 -24.5t46.5 -16.5q37 -11 61 -22.5t42 -37t18 -69.5q0 -77 -62.5 -118t-180.5 -41q-60 0 -112.5 17z" />
    <glyph glyph-name="scommaaccent" unicode="&#x219;" horiz-adv-x="940" 
d="M172 35l-66 26q-20 6 -28 16.5t-8 27.5q0 6 2 24l16 55q7 25 16.5 36t25.5 11q11 0 28 -6l47 -18q58 -20 125 -33.5t125 -13.5q147 0 147 96q0 43 -31 63.5t-98 38.5l-129 37q-75 20 -128.5 49t-86.5 81.5t-33 133.5q0 86 42.5 150.5t127 100.5t207.5 36q161 0 275 -45
l59 -20q19 -6 27 -17t8 -29q0 -6 -2 -24l-15 -57q-7 -25 -16 -34.5t-25 -9.5q-10 0 -24 3l-45 16q-45 15 -100 25t-107 10q-80 0 -114 -24.5t-34 -71.5q0 -34 16.5 -54t41.5 -30.5t71 -22.5l125 -37q119 -28 186.5 -85.5t67.5 -172.5q0 -135 -98 -210.5t-285 -75.5
q-160 0 -313 55zM323 -411.5q-16 14.5 -16 41.5q0 15 4 28l45 184q8 33 29.5 50.5t54.5 17.5h82q32 0 50 -15t18 -40q0 -15 -6 -31l-58 -162q-27 -88 -90 -88h-69q-28 0 -44 14.5z" />
    <glyph glyph-name="tbar" unicode="&#x167;" horiz-adv-x="776" 
d="M259.5 81.5q-85.5 81.5 -85.5 235.5v115h-84q-55 0 -55 76v27q0 73 55 73h84v144h-84q-55 0 -55 75v27q0 40 15.5 57t39.5 17h84v188q0 31 23.5 49.5t81.5 18.5h55q58 0 80 -18t22 -50v-188h236q55 0 55 -74v-29q0 -73 -55 -73h-236v-144h236q55 0 55 -73v-29
q0 -74 -55 -74h-236v-74q0 -89 38 -127t118 -38h80q55 0 55 -74v-47q0 -72 -55 -72h-162q-165 0 -250.5 81.5z" />
    <glyph glyph-name="tcaron" unicode="&#x165;" horiz-adv-x="776" 
d="M543 1039.5q-17 15.5 -17 44.5q0 6 2 18l43 168q13 63 78 63h47q31 0 47.5 -14.5t16.5 -40.5q0 -14 -4 -27l-54 -170q-18 -57 -79 -57h-31q-32 0 -49 15.5zM259.5 81.5q-85.5 81.5 -85.5 235.5v435h-84q-55 0 -55 75v27q0 40 15.5 57t39.5 17h84v188q0 31 23.5 49.5
t81.5 18.5h55q58 0 80 -18t22 -50v-188h236q55 0 55 -74v-29q0 -73 -55 -73h-236v-394q0 -89 38 -127t118 -38h80q55 0 55 -74v-47q0 -72 -55 -72h-162q-165 0 -250.5 81.5z" />
    <glyph glyph-name="tcommaaccent" unicode="&#x163;" horiz-adv-x="776" 
d="M319 -380q-52 17 -83 45t-31 59q0 40 39 40q12 0 23.5 -4t28.5 -12q28 -13 53.5 -21t60.5 -8q47 0 69.5 15t22.5 41q0 23 -18 34.5t-54 22.5q-41 13 -61.5 27t-20.5 45q0 16 5 28.5t16 26.5l30 53q-111 23 -168 101t-57 204v435h-84q-55 0 -55 75v27q0 40 15.5 57
t39.5 17h84v188q0 31 23.5 49.5t81.5 18.5h55q58 0 80 -18t22 -50v-188h236q55 0 55 -74v-29q0 -73 -55 -73h-236v-394q0 -89 38 -127t118 -38h80q55 0 55 -74v-47q0 -72 -55 -72h-148l-22 -35q-10 -17 -10 -33t14.5 -24.5t46.5 -16.5q37 -11 61 -22.5t42 -37t18 -69.5
q0 -77 -62 -118t-180 -41q-61 0 -113 17z" />
    <glyph glyph-name="uni021B" unicode="&#x21b;" horiz-adv-x="776" 
d="M259.5 81.5q-85.5 81.5 -85.5 235.5v435h-84q-55 0 -55 75v27q0 40 15.5 57t39.5 17h84v188q0 31 23.5 49.5t81.5 18.5h55q58 0 80 -18t22 -50v-188h236q55 0 55 -74v-29q0 -73 -55 -73h-236v-394q0 -89 38 -127t118 -38h80q55 0 55 -74v-47q0 -72 -55 -72h-162
q-165 0 -250.5 81.5zM297 -411.5q-16 14.5 -16 40.5q0 16 4 29l45 184q8 33 29.5 50.5t54.5 17.5h80q33 0 50.5 -15t17.5 -41q0 -12 -5 -30l-57 -162q-15 -43 -36.5 -65.5t-53.5 -22.5h-70q-27 0 -43 14.5z" />
    <glyph glyph-name="uhungarumlaut" unicode="&#x171;" horiz-adv-x="1034" 
d="M313 1069.5q-10 8.5 -10 23.5q0 23 23 58l96 129q19 27 40 40t52 13h64q31 0 49.5 -13t18.5 -34t-21 -45l-86 -94q-42 -47 -76 -66.5t-74 -19.5h-47q-19 0 -29 8.5zM622 1068.5q-8 7.5 -8 20.5q0 27 31 64l115 133q22 24 43 35.5t49 11.5h74q30 0 47.5 -13t17.5 -32
q0 -24 -26 -49l-117 -102q-43 -41 -78 -58.5t-74 -17.5h-51q-15 0 -23 7.5zM200 73q-108 93 -108 273v514q0 68 101 68h57q56 0 78 -18.5t22 -49.5v-508q0 -93 39.5 -135.5t128.5 -42.5t126.5 42t37.5 136v508q0 30 23.5 49t78.5 19h60q98 0 98 -68v-514q0 -181 -106 -273.5
t-318 -92.5q-210 0 -318 93z" />
    <glyph glyph-name="umacron" unicode="&#x16b;" horiz-adv-x="1034" 
d="M227 1142q-16 18 -16 58v27q0 39 16 55t39 16h518q56 0 56 -71v-29q0 -40 -15.5 -57t-40.5 -17h-518q-23 0 -39 18zM200 73q-108 93 -108 273v514q0 68 101 68h57q56 0 78 -18.5t22 -49.5v-508q0 -93 39.5 -135.5t128.5 -42.5t126.5 42t37.5 136v508q0 30 23.5 49
t78.5 19h60q98 0 98 -68v-514q0 -181 -106 -273.5t-318 -92.5q-210 0 -318 93z" />
    <glyph glyph-name="uogonek" unicode="&#x173;" horiz-adv-x="1034" 
d="M421 -308q-52 38 -52 109q0 59 39.5 105.5t99.5 73.5q-206 1 -311 94.5t-105 271.5v514q0 68 101 68h57q56 0 78 -18.5t22 -49.5v-508q0 -93 39.5 -135.5t128.5 -42.5t126.5 42t37.5 136v508q0 30 23.5 49t78.5 19h60q98 0 98 -68v-514q0 -279 -250 -346
q-66 -26 -108.5 -64.5t-42.5 -85.5q0 -29 17.5 -43t55.5 -14q27 0 48.5 6t44.5 17q13 5 26.5 9.5t24.5 4.5q19 0 29 -12t10 -31q0 -36 -33 -66.5t-86.5 -48.5t-112.5 -18q-92 0 -144 38z" />
    <glyph glyph-name="uring" unicode="&#x16f;" horiz-adv-x="1034" 
d="M404.5 1061q-52.5 27 -81 74.5t-28.5 107.5t28.5 107.5t81 74.5t119.5 27q68 0 120 -27t81 -74.5t29 -107.5t-29 -107.5t-81 -74.5t-120 -27q-67 0 -119.5 27zM594 1176.5q27 25.5 27 66.5q0 40 -27.5 67t-67.5 27q-41 0 -67.5 -27t-26.5 -67q0 -41 26.5 -66.5
t67.5 -25.5t68 25.5zM200 73q-108 93 -108 273v514q0 68 101 68h57q56 0 78 -18.5t22 -49.5v-508q0 -93 39.5 -135.5t128.5 -42.5t126.5 42t37.5 136v508q0 30 23.5 49t78.5 19h60q98 0 98 -68v-514q0 -181 -106 -273.5t-318 -92.5q-210 0 -318 93z" />
    <glyph glyph-name="wacute" unicode="&#x1e83;" horiz-adv-x="1479" 
d="M639.5 1076q-13.5 11 -13.5 29q0 24 25 50l123 133q19 23 41.5 34t50.5 11h90q31 0 49 -12.5t18 -32.5q0 -24 -28 -49l-121 -109q-40 -35 -71 -50t-68 -15h-59q-23 0 -36.5 11zM250 133l-182 727q-2 12 -2 17q0 24 19.5 37.5t68.5 13.5h65q58 0 87 -18t34 -48l113 -622
q2 -15 18 -15q5 0 7 2.5t5 12.5l146 620q12 68 116 68h33q99 0 111 -68l137 -620q1 -9 4.5 -12t9.5 -3q8 0 12 3t5 12l110 622q3 30 32 48t87 18h37q86 0 86 -51q0 -5 -2 -17l-182 -727q-30 -143 -164 -143h-31q-142 0 -168 147l-112 494l-129 -494q-15 -74 -55.5 -110.5
t-114.5 -36.5h-29q-138 0 -172 143z" />
    <glyph glyph-name="wcircumflex" unicode="&#x175;" horiz-adv-x="1479" 
d="M464 1079q-17 12 -17 32q0 23 24 50l121 127q20 24 41.5 34.5t50.5 10.5h139q29 0 51 -10.5t44 -34.5l118 -127q26 -28 26 -52q0 -19 -16 -30.5t-45 -11.5h-32q-35 0 -57 6.5t-42 22.5t-51 51l-65 72l-66 -72q-33 -36 -51.5 -51.5t-39.5 -22t-56 -6.5h-29q-31 0 -48 12z
M250 133l-182 727q-2 12 -2 17q0 24 19.5 37.5t68.5 13.5h65q58 0 87 -18t34 -48l113 -622q2 -15 18 -15q5 0 7 2.5t5 12.5l146 620q12 68 116 68h33q99 0 111 -68l137 -620q1 -9 4.5 -12t9.5 -3q8 0 12 3t5 12l110 622q3 30 32 48t87 18h37q86 0 86 -51q0 -5 -2 -17
l-182 -727q-30 -143 -164 -143h-31q-142 0 -168 147l-112 494l-129 -494q-15 -74 -55.5 -110.5t-114.5 -36.5h-29q-138 0 -172 143z" />
    <glyph glyph-name="wdieresis" unicode="&#x1e85;" horiz-adv-x="1479" 
d="M499.5 1106q-36.5 35 -36.5 94q0 57 37 92t94 35q56 0 91.5 -35t35.5 -92q0 -59 -35.5 -94t-91.5 -35q-58 0 -94.5 35zM829 1106q-36 35 -36 94q0 57 36 92t95 35q55 0 91 -35.5t36 -91.5q0 -59 -35.5 -94t-91.5 -35q-59 0 -95 35zM250 133l-182 727q-2 12 -2 17
q0 24 19.5 37.5t68.5 13.5h65q58 0 87 -18t34 -48l113 -622q2 -15 18 -15q5 0 7 2.5t5 12.5l146 620q12 68 116 68h33q99 0 111 -68l137 -620q1 -9 4.5 -12t9.5 -3q8 0 12 3t5 12l110 622q3 30 32 48t87 18h37q86 0 86 -51q0 -5 -2 -17l-182 -727q-30 -143 -164 -143h-31
q-142 0 -168 147l-112 494l-129 -494q-15 -74 -55.5 -110.5t-114.5 -36.5h-29q-138 0 -172 143z" />
    <glyph glyph-name="wgrave" unicode="&#x1e81;" horiz-adv-x="1479" 
d="M708.5 1080q-32.5 15 -71.5 50l-121 109q-28 25 -28 50q0 19 18 31.5t49 12.5h90q28 0 49 -11t43 -34l123 -133q25 -26 25 -51q0 -17 -13.5 -28t-35.5 -11h-58q-37 0 -69.5 15zM250 133l-182 727q-2 12 -2 17q0 24 19.5 37.5t68.5 13.5h65q58 0 87 -18t34 -48l113 -622
q2 -15 18 -15q5 0 7 2.5t5 12.5l146 620q12 68 116 68h33q99 0 111 -68l137 -620q1 -9 4.5 -12t9.5 -3q8 0 12 3t5 12l110 622q3 30 32 48t87 18h37q86 0 86 -51q0 -5 -2 -17l-182 -727q-30 -143 -164 -143h-31q-142 0 -168 147l-112 494l-129 -494q-15 -74 -55.5 -110.5
t-114.5 -36.5h-29q-138 0 -172 143z" />
    <glyph glyph-name="ycircumflex" unicode="&#x177;" horiz-adv-x="1008" 
d="M228.5 1079q-17.5 12 -17.5 32q0 24 25 50l120 127q22 24 43.5 34.5t49.5 10.5h139q29 0 51.5 -11t42.5 -34l119 -127q25 -26 25 -51q0 -19 -15.5 -31t-44.5 -12h-33q-35 0 -57 6.5t-41.5 23t-50.5 50.5l-64 72l-67 -72q-34 -36 -52.5 -51.5t-39.5 -22t-56 -6.5h-29
q-30 0 -47.5 12zM61 -281v29q0 76 54 76h41q79 0 136 46t91 138l10 31l-325 821q-5 12 -5 22q0 20 22 33t69 13h71q102 0 121 -68l186 -559l175 559q7 30 35 49t85 19h39q47 0 69 -13t22 -33q0 -10 -5 -22l-321 -860q-65 -176 -168.5 -264t-261.5 -88h-86q-54 0 -54 71z" />
    <glyph glyph-name="ygrave" unicode="&#x1ef3;" horiz-adv-x="1008" 
d="M473.5 1080q-32.5 15 -72.5 50l-120 109q-28 24 -28 50q0 19 17.5 31.5t48.5 12.5h91q28 0 49.5 -11t42.5 -34l123 -133q25 -26 25 -50q0 -18 -13.5 -29t-36.5 -11h-57q-37 0 -69.5 15zM61 -281v29q0 76 54 76h41q79 0 136 46t91 138l10 31l-325 821q-5 12 -5 22
q0 20 22 33t69 13h71q102 0 121 -68l186 -559l175 559q7 30 35 49t85 19h39q47 0 69 -13t22 -33q0 -10 -5 -22l-321 -860q-65 -176 -168.5 -264t-261.5 -88h-86q-54 0 -54 71z" />
    <glyph glyph-name="ordfeminine" unicode="&#xaa;" horiz-adv-x="840" 
d="M187 698q-76 49 -76 154v14q0 99 68.5 149t213.5 56l146 8v13q0 52 -28.5 78t-91.5 26q-42 0 -90.5 -8.5t-88.5 -24.5l-35 -10q-11 -4 -21 -4q-13 0 -22 9.5t-15 29.5l-12 45q-3 14 -3 23q0 15 6.5 23.5t21.5 14.5l51 19q100 37 223 37q150 0 220.5 -57.5t70.5 -178.5
v-246q0 -118 -73.5 -168.5t-231.5 -50.5q-157 0 -233 49zM511 792.5q28 22.5 28 75.5v97l-105 -7q-71 -5 -102 -25t-31 -65v-12q0 -45 28.5 -65.5t90.5 -20.5q63 0 91 22.5z" />
    <glyph glyph-name="ordmasculine" unicode="&#xba;" horiz-adv-x="874" 
d="M187 731q-87 80 -87 254v31q0 175 87 255.5t253 80.5q168 0 252 -77.5t84 -256.5v-33q0 -179 -84 -256.5t-252 -77.5q-166 0 -253 80zM522 810q30 17 44 58.5t14 116.5v31q0 75 -14 116.5t-44 58.5t-80 17q-51 0 -81 -17.5t-44 -59t-14 -115.5v-29q0 -75 14 -117
t44 -59.5t81 -17.5q50 0 80 17z" />
    <glyph glyph-name="afii10017" unicode="&#x410;" horiz-adv-x="1354" 
d="M64 57q0 14 4 25l362 1077q20 70 48.5 111.5t73 61.5t112.5 20h32q91 0 146 -45.5t86 -145.5l358 -1079q3 -12 3 -23q0 -59 -101 -59h-70q-118 0 -137 82l-82 276h-463l-82 -276q-19 -82 -139 -82h-49q-102 0 -102 57zM844 547l-156 530q-5 17 -18 17q-10 0 -15 -17
l-161 -530h350z" />
    <glyph glyph-name="afii10018" unicode="&#x411;" horiz-adv-x="1208" 
d="M155 39q-46 39 -46 115v1026q0 153 196 153h674q29 0 46 -19.5t17 -68.5v-35q0 -86 -63 -86h-537q-43 0 -43 -32v-304h308q215 0 321.5 -97.5t106.5 -293.5q0 -201 -107.5 -299t-333.5 -98h-391q-102 0 -148 39zM635 205q83 0 132.5 18.5t72 59.5t22.5 110q0 107 -52 156
t-171 49h-240v-358q0 -35 43 -35h193z" />
    <glyph glyph-name="afii10019" unicode="&#x412;" horiz-adv-x="1229" 
d="M155 39q-46 39 -46 115v1026q0 75 46 114t148 39h412q195 0 293 -83t98 -255q0 -115 -56 -192.5t-157 -110.5q123 -29 188.5 -105.5t65.5 -213.5q0 -179 -106.5 -276t-311.5 -97h-426q-102 0 -148 39zM616 762q117 0 168.5 49t51.5 143q0 65 -20.5 104.5t-66.5 58
t-124 18.5h-195q-24 0 -33.5 -8.5t-9.5 -24.5v-340h229zM643 195q116 0 166.5 49.5t50.5 152.5q0 100 -54.5 149.5t-178.5 49.5h-240v-369q0 -17 9.5 -24.5t33.5 -7.5h213z" />
    <glyph glyph-name="afii10020" unicode="&#x413;" horiz-adv-x="1047" 
d="M134 20.5q-25 20.5 -25 55.5v1104q0 75 46 114t148 39h623q29 0 46 -19.5t17 -68.5v-35q0 -86 -63 -86h-486q-43 0 -43 -32v-1016q0 -35 -26 -55.5t-92 -20.5h-54q-66 0 -91 20.5z" />
    <glyph glyph-name="afii10052" unicode="&#x403;" horiz-adv-x="1047" 
d="M462 1438q-14 11 -14 29q0 25 25 51l123 133q20 22 42 33.5t50 11.5h90q31 0 48.5 -12.5t17.5 -32.5q0 -25 -27 -49l-121 -109q-40 -35 -71 -50.5t-68 -15.5h-59q-22 0 -36 11zM134 20.5q-25 20.5 -25 55.5v1104q0 75 46 114t148 39h623q29 0 46 -19.5t17 -68.5v-35
q0 -86 -63 -86h-486q-43 0 -43 -32v-1016q0 -35 -26 -55.5t-92 -20.5h-54q-66 0 -91 20.5z" />
    <glyph glyph-name="afii10050" unicode="&#x490;" horiz-adv-x="1047" 
d="M134 20.5q-25 20.5 -25 55.5v1104q0 153 196 153h428v238q0 76 117 76h18q103 0 107 -76l14 -361q5 -86 -63 -86h-484q-43 0 -43 -32v-1016q0 -35 -26 -55.5t-92 -20.5h-56q-66 0 -91 20.5z" />
    <glyph glyph-name="afii10021" unicode="&#x414;" horiz-adv-x="1636" 
d="M72 -238l-15 359q-5 86 62 86h31q78 0 123 50.5t53 152.5l61 770q3 76 47.5 114.5t145.5 38.5h612q103 0 150 -39t47 -114v-973h129q66 0 61 -86l-14 -359q-4 -75 -107 -75h-16q-117 0 -117 75v238h-1014v-238q0 -34 -25 -54.5t-89 -20.5h-19q-102 0 -106 75zM1096 207
v885q0 32 -43 32h-344q-22 0 -31.5 -8t-11.5 -24l-52 -670q-6 -123 -59 -215h541z" />
    <glyph glyph-name="afii10022" unicode="&#x415;" horiz-adv-x="1100" 
d="M155 39q-46 39 -46 115v1026q0 75 46 114t148 39h649q66 0 66 -88v-35q0 -86 -66 -86h-510q-43 0 -43 -32v-320h461q62 0 62 -80v-33q0 -43 -17.5 -62t-44.5 -19h-461v-336q0 -35 43 -35h510q66 0 66 -88v-33q0 -86 -66 -86h-649q-102 0 -148 39z" />
    <glyph glyph-name="afii10023" unicode="&#x401;" horiz-adv-x="1100" 
d="M313 1469q-37 35 -37 94q0 56 37.5 91.5t94.5 35.5q55 0 91 -35.5t36 -91.5q0 -59 -35.5 -94t-91.5 -35q-58 0 -95 35zM643 1469q-37 35 -37 94q0 56 37 91.5t94 35.5q56 0 91.5 -35.5t35.5 -91.5q0 -59 -35.5 -94t-91.5 -35q-57 0 -94 35zM155 39q-46 39 -46 115v1026
q0 75 46 114t148 39h649q66 0 66 -88v-35q0 -86 -66 -86h-510q-43 0 -43 -32v-320h461q62 0 62 -80v-33q0 -43 -17.5 -62t-44.5 -19h-461v-336q0 -35 43 -35h510q66 0 66 -88v-33q0 -86 -66 -86h-649q-102 0 -148 39z" />
    <glyph glyph-name="afii10024" unicode="&#x416;" horiz-adv-x="1921" 
d="M78 37q0 15 14 41l404 588l-400 587q-15 27 -15 44q0 38 79 38h88q66 0 107.5 -22.5t60.5 -59.5l332 -546q11 -24 11 -45q0 -20 -11 -44l-332 -540q-17 -35 -59 -56.5t-109 -21.5h-88q-82 0 -82 37zM813 76v1181q0 78 119 78h55q119 0 119 -78v-1181q0 -35 -26 -55.5
t-93 -20.5h-55q-119 0 -119 76zM1565.5 21.5q-41.5 21.5 -60.5 56.5l-331 540q-11 24 -11 47t11 42l331 546q19 37 60.5 59.5t107.5 22.5h84q82 0 82 -39q0 -15 -14 -43l-404 -587l406 -588q15 -25 15 -41q0 -37 -81 -37h-88q-66 0 -107.5 21.5z" />
    <glyph glyph-name="afii10025" unicode="&#x417;" 
d="M380 -2.5q-97 17.5 -175 45.5l-94 33q-25 9 -35.5 22t-10.5 35q0 20 5 39l18 61q9 36 20.5 51.5t30.5 15.5q10 0 25 -5l82 -31q183 -67 319 -67q118 0 179 51.5t61 144.5q0 185 -240 185h-116q-58 0 -58 79v35q0 78 58 78h112q112 0 172 52.5t60 140.5q0 82 -53.5 127
t-161.5 45q-141 0 -312 -64l-76 -27q-15 -5 -24 -5q-17 0 -28.5 15.5t-18.5 49.5l-17 61q-5 27 -5 41q0 21 9.5 32.5t32.5 18.5l90 35q79 27 173.5 43.5t195.5 16.5q149 0 254 -43.5t159 -124t54 -189.5q0 -108 -55 -189t-148 -122q106 -34 167 -110.5t61 -194.5
t-62.5 -208.5t-177.5 -140.5t-268 -50q-105 0 -202 17.5z" />
    <glyph glyph-name="afii10026" unicode="&#x418;" horiz-adv-x="1346" 
d="M167 51.5q-58 51.5 -58 149.5v1056q0 35 21.5 55.5t76.5 20.5h33q57 0 79.5 -20.5t22.5 -55.5v-1007q0 -8 2.5 -11t7.5 -3q16 0 23 14l348 899q29 97 87.5 140.5t152.5 43.5h55q101 0 162 -51.5t61 -148.5v-1059q0 -74 -102 -74h-31q-102 0 -102 74v1009q0 17 -13 17
t-18 -17l-352 -899q-29 -97 -86.5 -140.5t-149.5 -43.5h-61q-101 0 -159 51.5z" />
    <glyph glyph-name="afii10027" unicode="&#x419;" horiz-adv-x="1346" 
d="M507.5 1446.5q-73.5 33.5 -110.5 90.5t-37 128q0 47 17 71.5t45 24.5q21 0 33 -13.5t29 -44.5q19 -37 38.5 -61.5t59 -42.5t104.5 -18t104.5 18t59 42.5t38.5 61.5q17 31 29 44.5t33 13.5q27 0 44.5 -24.5t17.5 -71.5q0 -71 -37 -128t-110.5 -90.5t-178.5 -33.5
t-178.5 33.5zM167 51.5q-58 51.5 -58 149.5v1056q0 35 21.5 55.5t76.5 20.5h33q57 0 79.5 -20.5t22.5 -55.5v-1007q0 -8 2.5 -11t7.5 -3q16 0 23 14l348 899q29 97 87.5 140.5t152.5 43.5h55q101 0 162 -51.5t61 -148.5v-1059q0 -74 -102 -74h-31q-102 0 -102 74v1009
q0 17 -13 17t-18 -17l-352 -899q-29 -97 -86.5 -140.5t-149.5 -43.5h-61q-101 0 -159 51.5z" />
    <glyph glyph-name="afii10028" unicode="&#x41a;" horiz-adv-x="1257" 
d="M134 20.5q-25 20.5 -25 55.5v1179q0 37 25 57.5t91 20.5h56q67 0 92.5 -20.5t25.5 -57.5v-1179q0 -35 -26 -55.5t-92 -20.5h-56q-66 0 -91 20.5zM890 21.5q-42 21.5 -59 56.5l-362 540q-13 22 -13 45q0 24 13 44l365 546q14 36 56 58t109 22h97q82 0 82 -38
q0 -17 -15 -42l-428 -587l428 -588q16 -24 16 -42q0 -36 -81 -36h-99q-67 0 -109 21.5z" />
    <glyph glyph-name="afii10061" unicode="&#x40c;" horiz-adv-x="1257" 
d="M513 1438q-14 11 -14 29q0 25 25 51l123 133q20 22 42 33.5t50 11.5h90q31 0 49 -12.5t18 -32.5q0 -24 -28 -49l-120 -109q-41 -35 -72 -50.5t-68 -15.5h-59q-22 0 -36 11zM134 20.5q-25 20.5 -25 55.5v1179q0 37 25 57.5t91 20.5h56q67 0 92.5 -20.5t25.5 -57.5v-1179
q0 -35 -26 -55.5t-92 -20.5h-56q-66 0 -91 20.5zM890 21.5q-42 21.5 -59 56.5l-362 540q-13 22 -13 45q0 24 13 44l365 546q14 36 56 58t109 22h97q82 0 82 -38q0 -17 -15 -42l-428 -587l428 -588q16 -24 16 -42q0 -36 -81 -36h-99q-67 0 -109 21.5z" />
    <glyph glyph-name="afii10029" unicode="&#x41b;" horiz-adv-x="1470" 
d="M74 19.5q-17 19.5 -17 68.5v33q0 48 17 67t47 19h24q73 0 116 50.5t50 152.5l58 770q6 76 50.5 114.5t145.5 38.5h598q201 0 201 -153v-1104q0 -35 -26 -55.5t-93 -20.5h-55q-67 0 -93 20.5t-26 55.5v1016q0 16 -9.5 24t-33.5 8h-334q-23 0 -33 -8t-12 -24l-47 -670
q-10 -136 -65.5 -231t-147.5 -143t-209 -48h-59q-30 0 -47 19.5z" />
    <glyph glyph-name="afii10030" unicode="&#x41c;" horiz-adv-x="1645" 
d="M97.5 20.5q-23.5 20.5 -21.5 53.5l63 1063q6 101 63 152.5t156 51.5h29q100 0 161 -43.5t77 -144.5l198 -952l201 956q13 93 76.5 138.5t161.5 45.5h28q100 0 155.5 -51.5t59.5 -152.5l64 -1063q2 -33 -22.5 -53.5t-84.5 -20.5h-37q-60 0 -82 19.5t-24 54.5l-62 1013
q0 9 -2.5 12t-9.5 3q-16 0 -18 -15l-211 -929q-28 -158 -187 -158h-20q-157 0 -186 158l-215 929q-6 15 -21 15q-12 0 -12 -15l-62 -1013q-2 -35 -23 -54.5t-79 -19.5h-33q-57 0 -80.5 20.5z" />
    <glyph glyph-name="afii10031" unicode="&#x41d;" horiz-adv-x="1300" 
d="M134 20.5q-25 20.5 -25 55.5v1179q0 37 25 57.5t91 20.5h56q67 0 92.5 -20.5t25.5 -57.5v-471h504v471q0 36 26 57t93 21h53q67 0 94 -21t27 -57v-1179q0 -76 -121 -76h-53q-67 0 -93 20.5t-26 55.5v510h-504v-510q0 -35 -26 -55.5t-92 -20.5h-56q-66 0 -91 20.5z" />
    <glyph glyph-name="afii10032" unicode="&#x41e;" horiz-adv-x="1425" 
d="M244 144q-156 164 -156 503v39q0 336 158 501t465 165q308 0 467 -165t159 -501v-39q0 -339 -157 -503t-469 -164q-311 0 -467 164zM895 238q69 45 101 144t32 265v39q0 165 -32 265t-101 146t-184 46q-114 0 -183 -46t-101 -146t-32 -265v-39q0 -166 32 -265t101 -144
t183 -45q115 0 184 45z" />
    <glyph glyph-name="afii10033" unicode="&#x41f;" horiz-adv-x="1298" 
d="M134 20.5q-25 20.5 -25 55.5v1104q0 75 46 114t148 39h690q103 0 151 -39t48 -114v-1104q0 -35 -26 -55.5t-93 -20.5h-49q-119 0 -119 76v1016q0 32 -43 32h-426q-43 0 -43 -32v-1016q0 -35 -26 -55.5t-93 -20.5h-49q-66 0 -91 20.5z" />
    <glyph glyph-name="afii10034" unicode="&#x420;" horiz-adv-x="1208" 
d="M134 20.5q-25 20.5 -25 55.5v1104q0 75 47 114t149 39h393q226 0 331.5 -95.5t105.5 -295.5q0 -198 -109.5 -305t-323.5 -107h-303v-454q0 -35 -26 -55.5t-92 -20.5h-56q-66 0 -91 20.5zM641 729q116 0 167.5 49.5t51.5 155.5q0 71 -21.5 112.5t-70 60.5t-131.5 19h-197
q-22 0 -31.5 -8.5t-9.5 -25.5v-363h242z" />
    <glyph glyph-name="afii10035" unicode="&#x421;" horiz-adv-x="1239" 
d="M371.5 55.5q-138.5 75.5 -211 225t-72.5 366.5v39q0 216 72.5 365t211 225t335.5 76q164 0 327 -56l86 -30q23 -8 32.5 -20t9.5 -32q0 -13 -5 -38l-16 -58q-9 -32 -19.5 -45.5t-27.5 -13.5q-11 0 -23 4l-70 22q-111 39 -231 39q-185 0 -280 -107.5t-95 -330.5v-39
q0 -225 95 -332.5t280 -107.5q114 0 231 41l70 22q12 4 23 4q17 0 27.5 -14t19.5 -47l16 -55q5 -25 5 -39q0 -20 -9.5 -32t-32.5 -19l-86 -31q-165 -57 -327 -57q-197 0 -335.5 75.5z" />
    <glyph glyph-name="afii10036" unicode="&#x422;" horiz-adv-x="1217" 
d="M488 20.5q-25 20.5 -25 55.5v1048h-344q-28 0 -46 20t-18 66v35q0 88 64 88h979q65 0 65 -88v-35q0 -86 -65 -86h-344v-1048q0 -35 -26 -55.5t-91 -20.5h-57q-67 0 -92 20.5z" />
    <glyph glyph-name="afii10037" unicode="&#x423;" horiz-adv-x="1221" 
d="M105 15q-19 17 -19 57v57q0 41 19 58.5t49 17.5h41q93 0 160.5 49t111.5 147l16 41l-395 822q-5 12 -5 22q0 21 25 34t80 13h74q67 0 98.5 -19t42.5 -50l232 -582l221 582q11 31 41.5 50t97.5 19h49q55 0 79.5 -13t24.5 -34q0 -10 -5 -22l-391 -869q-58 -128 -126 -215
t-161 -134.5t-217 -47.5h-94q-30 0 -49 17z" />
    <glyph glyph-name="afii10062" unicode="&#x40e;" horiz-adv-x="1221" 
d="M456.5 1446.5q-73.5 33.5 -110.5 90.5t-37 128q0 47 17.5 71.5t44.5 24.5q21 0 33 -13.5t29 -44.5q19 -37 38.5 -61.5t59 -42.5t104.5 -18t104.5 18t59 42.5t38.5 61.5q17 31 29 44.5t33 13.5q28 0 45 -24.5t17 -71.5q0 -71 -37 -128t-110.5 -90.5t-178.5 -33.5
t-178.5 33.5zM105 15q-19 17 -19 57v57q0 41 19 58.5t49 17.5h41q93 0 160.5 49t111.5 147l16 41l-395 822q-5 12 -5 22q0 21 25 34t80 13h74q67 0 98.5 -19t42.5 -50l232 -582l221 582q11 31 41.5 50t97.5 19h49q55 0 79.5 -13t24.5 -34q0 -10 -5 -22l-391 -869
q-58 -128 -126 -215t-161 -134.5t-217 -47.5h-94q-30 0 -49 17z" />
    <glyph glyph-name="afii10038" unicode="&#x424;" horiz-adv-x="1753" 
d="M755 20.5q-26 20.5 -26 55.5v76q-318 9 -479.5 136t-161.5 380q0 249 158 377t483 139v71q0 36 26 57t91 21h55q67 0 94 -21t27 -57v-71q326 -11 484.5 -139t158.5 -377q0 -253 -162.5 -380t-480.5 -136v-76q0 -76 -121 -76h-55q-65 0 -91 20.5zM729 967
q-125 -6 -201 -40.5t-110.5 -100t-34.5 -167.5q0 -98 35 -159.5t110.5 -92.5t200.5 -36v596zM1222 407q76 31 112 92.5t36 159.5q0 102 -34.5 168t-110.5 100.5t-203 39.5v-596q124 5 200 36z" />
    <glyph glyph-name="afii10039" unicode="&#x425;" horiz-adv-x="1288" 
d="M106 13.5q-25 13.5 -25 37.5q0 11 7 27l338 590l-338 585q-7 18 -7 27q0 25 24.5 39t76.5 14h107q63 0 91 -19.5t42 -56.5l240 -462l237 462q14 37 42.5 56.5t92.5 19.5h68q52 0 77.5 -14.5t25.5 -38.5q0 -14 -7 -27l-340 -583l344 -592q6 -13 6 -25q0 -24 -25.5 -38.5
t-78.5 -14.5h-96q-65 0 -93 19.5t-43 56.5l-247 471l-238 -471q-14 -37 -43.5 -56.5t-93.5 -19.5h-66q-53 0 -78 13.5z" />
    <glyph glyph-name="afii10041" unicode="&#x427;" horiz-adv-x="1300" 
d="M929 20.5q-26 20.5 -26 55.5v409q-103 -63 -268 -63h-123q-422 0 -422 377v467q0 29 25 48t82 19h63q60 0 85.5 -19t25.5 -48v-459q0 -93 44 -137.5t154 -44.5h121q114 0 163.5 46t49.5 136v448q0 36 26 57t93 21h63q111 0 111 -78v-1179q0 -76 -111 -76h-63
q-67 0 -93 20.5z" />
    <glyph glyph-name="afii10040" unicode="&#x426;" horiz-adv-x="1440" 
d="M1165.5 -292q-26.5 21 -26.5 54v238h-836q-102 0 -148 39t-46 115v1101q0 37 25 57.5t91 20.5h49q67 0 93 -20.5t26 -57.5v-1013q0 -35 43 -35h469v1048q0 36 26.5 57t92.5 21h49q67 0 93 -21t26 -57v-1048h139q31 0 48 -19t16 -67l-15 -359q-4 -75 -106 -75h-19
q-63 0 -89.5 21z" />
    <glyph glyph-name="afii10042" unicode="&#x428;" horiz-adv-x="1827" 
d="M155 39q-46 39 -46 115v1101q0 37 25 57.5t91 20.5h49q67 0 93 -20.5t26 -57.5v-1013q0 -35 43 -35h334v1048q0 36 26.5 57t92.5 21h49q67 0 93 -21t26 -57v-1048h334q43 0 43 35v1013q0 36 25.5 57t90.5 21h52q66 0 91 -20.5t25 -57.5v-1101q0 -75 -46.5 -114.5
t-147.5 -39.5h-1221q-102 0 -148 39z" />
    <glyph glyph-name="afii10043" unicode="&#x429;" horiz-adv-x="1960" 
d="M1659 -238v238h-1356q-102 0 -148 39t-46 115v1101q0 37 25 57.5t91 20.5h49q67 0 93 -20.5t26 -57.5v-1013q0 -35 43 -35h334v1048q0 36 26.5 57t92.5 21h49q67 0 93 -21t26 -57v-1048h377v1048q0 36 25.5 57t90.5 21h52q66 0 91 -20.5t25 -57.5v-1048h131q33 0 51 -19
t15 -67l-17 -359q-4 -75 -104 -75h-18q-117 0 -117 75z" />
    <glyph glyph-name="afii10145" unicode="&#x40f;" horiz-adv-x="1298" 
d="M568.5 -295q-23.5 20 -23.5 55l-10 240h-232q-102 0 -148 39t-46 115v1101q0 37 25 57.5t91 20.5h49q67 0 93 -20.5t26 -57.5v-1013q0 -35 43 -35h426q43 0 43 35v1013q0 36 26.5 57t92.5 21h49q67 0 93 -21t26 -57v-1101q0 -75 -48 -114.5t-151 -39.5h-211l-10 -240
q0 -35 -23 -55t-83 -20h-15q-59 0 -82.5 20z" />
    <glyph glyph-name="afii10049" unicode="&#x42f;" horiz-adv-x="1245" 
d="M82 44q0 14 8 30l209 405q37 70 90 107q-146 27 -220.5 111.5t-74.5 238.5q0 202 107 299.5t334 97.5h405q103 0 150 -39t47 -114v-1104q0 -35 -25.5 -55.5t-91.5 -20.5h-53q-67 0 -93 20.5t-26 55.5v479h-131q-56 -3 -86.5 -27.5t-57.5 -78.5l-176 -375
q-25 -74 -147 -74h-76q-92 0 -92 44zM848 731v361q0 17 -9.5 25.5t-33.5 8.5h-211q-83 0 -132 -19t-71 -61t-22 -112q0 -104 52 -153.5t169 -49.5h258z" />
    <glyph glyph-name="afii10046" unicode="&#x42c;" horiz-adv-x="1208" 
d="M155 39q-46 39 -46 115v1101q0 37 25 57.5t91 20.5h54q66 0 91 -20.5t25 -57.5v-444h312q217 0 322.5 -97.5t105.5 -303.5q0 -410 -445 -410h-387q-102 0 -148 39zM635 205q82 0 131.5 20t71.5 63t22 115q0 107 -50 155t-171 48h-244v-364q0 -37 43 -37h197z" />
    <glyph glyph-name="afii10044" unicode="&#x42a;" horiz-adv-x="1409" 
d="M356 39.5q-47 39.5 -47 114.5v981h-184q-64 0 -64 86v32q0 90 64 90h332v-10h22q67 0 93 -21t26 -57v-444h309q219 0 324.5 -97.5t105.5 -303.5q0 -410 -446 -410h-385q-103 0 -150 39.5zM838 205q82 0 131 20t71.5 63.5t22.5 114.5q0 107 -50 155t-171 48h-244v-364
q0 -37 43 -37h197z" />
    <glyph glyph-name="afii10045" unicode="&#x42b;" horiz-adv-x="1712" 
d="M155 39q-46 39 -46 115v1101q0 37 25 57.5t91 20.5h54q66 0 91 -20.5t25 -57.5v-444h312q217 0 322.5 -97.5t105.5 -303.5q0 -410 -445 -410h-387q-102 0 -148 39zM1341 20.5q-26 20.5 -26 55.5v1179q0 37 26 57.5t93 20.5h55q66 0 92.5 -21t26.5 -57v-1179
q0 -76 -119 -76h-55q-67 0 -93 20.5zM635 205q82 0 131.5 20t71.5 63t22 115q0 107 -50 155t-171 48h-244v-364q0 -37 43 -37h197z" />
    <glyph glyph-name="afii10058" unicode="&#x409;" horiz-adv-x="2120" 
d="M74 19.5q-17 19.5 -17 68.5v33q0 48 17 67t47 19h24q73 0 116 50.5t50 152.5l58 770q6 76 50.5 114.5t145.5 38.5h547q102 0 148.5 -39t46.5 -114v-369h311q216 0 322 -98.5t106 -304.5q0 -202 -109.5 -305t-334.5 -103h-385q-102 0 -148.5 39.5t-46.5 114.5v938
q0 32 -43 32h-285q-23 0 -33 -8t-12 -24l-47 -670q-10 -136 -65.5 -231t-147.5 -143t-209 -48h-59q-30 0 -47 19.5zM1546 205q83 0 132 19.5t71.5 62t22.5 112.5q0 109 -51 158t-171 49h-243v-366q0 -18 10 -26.5t33 -8.5h196z" />
    <glyph glyph-name="afii10059" unicode="&#x40a;" horiz-adv-x="1999" 
d="M134 20.5q-25 20.5 -25 55.5v1179q0 37 25 57.5t91 20.5h56q67 0 92.5 -20.5t25.5 -57.5v-469h498v469q0 36 26.5 57t92.5 21h55q66 0 92.5 -21t26.5 -57v-458h307q218 0 325 -96t107 -293q0 -203 -110 -305.5t-336 -102.5h-387q-103 0 -151 39.5t-48 114.5v434h-498
v-512q0 -35 -26 -55.5t-92 -20.5h-56q-66 0 -91 20.5zM1427 205q123 0 175.5 45t52.5 149q0 108 -51 156.5t-172 48.5h-242v-364q0 -18 10 -26.5t33 -8.5h194z" />
    <glyph glyph-name="afii10054" unicode="&#x405;" horiz-adv-x="1221" 
d="M238 39l-101 33q-43 15 -43 54q0 15 6 34l17 63q9 30 21 43t31 13q12 0 30 -5l75 -24q67 -23 149.5 -38t158.5 -15q249 0 249 161q0 45 -21 72.5t-62 46.5t-121 45l-170 49q-112 33 -187 78.5t-116 116t-41 174.5q0 122 57 215t168 145t268 52q176 0 338 -54l88 -32
q23 -8 33 -21t10 -34q0 -7 -4 -29l-18 -66q-9 -29 -20 -41t-27 -12q-13 0 -29 6l-68 21q-147 49 -276 49q-121 0 -179.5 -43t-58.5 -121q0 -50 22 -80t62 -48.5t115 -41.5l172 -51q121 -34 197 -79t114.5 -114t38.5 -172q0 -125 -59 -217t-175 -142t-282 -50q-193 0 -362 59
z" />
    <glyph glyph-name="afii10053" unicode="&#x404;" horiz-adv-x="1235" 
d="M371.5 55.5q-138.5 75.5 -211 225t-72.5 366.5v39q0 216 72.5 365t211 225t335.5 76q164 0 327 -56l86 -30q23 -8 32.5 -20t9.5 -32q0 -13 -5 -38l-16 -64q-8 -33 -18.5 -47.5t-27.5 -14.5q-9 0 -24 5l-70 22q-120 39 -231 39q-166 0 -259.5 -83.5t-113.5 -256.5h498
q61 0 61 -82v-35q0 -45 -16.5 -63t-44.5 -18h-500q31 -363 375 -363q57 0 112 10t119 29l70 27q12 3 21 3q19 0 30.5 -14.5t18.5 -48.5l16 -63q5 -25 5 -39q0 -20 -9.5 -32t-32.5 -19l-86 -31q-165 -57 -327 -57q-197 0 -335.5 75.5z" />
    <glyph glyph-name="afii10047" unicode="&#x42d;" horiz-adv-x="1235" 
d="M199 37l-84 31q-24 7 -33.5 19t-9.5 33q0 8 4 38l16 63q8 34 19 48.5t29 14.5q8 0 20 -3l71 -27q65 -19 120 -29t112 -10q341 0 375 363h-498q-29 0 -45 17.5t-16 63.5v35q0 45 16 63.5t45 18.5h498q-18 176 -111.5 258t-263.5 82q-110 0 -232 -39l-71 -22q-15 -5 -23 -5
q-16 0 -26.5 14.5t-18.5 47.5l-16 64q-4 30 -4 37q0 21 9.5 33t33.5 20l84 30q166 56 325 56q302 0 462.5 -166t160.5 -492v-39q0 -218 -72.5 -369t-212 -228.5t-338.5 -77.5q-156 0 -325 57z" />
    <glyph glyph-name="afii10055" unicode="&#x406;" horiz-adv-x="506" 
d="M134 20.5q-25 20.5 -25 55.5v1179q0 37 25 57.5t91 20.5h58q65 0 90.5 -21t25.5 -57v-1179q0 -35 -25.5 -55.5t-90.5 -20.5h-58q-66 0 -91 20.5z" />
    <glyph glyph-name="afii10056" unicode="&#x407;" horiz-adv-x="506" 
d="M1.5 1469q-36.5 35 -36.5 94q0 56 37 91.5t94 35.5q56 0 91.5 -35.5t35.5 -91.5q0 -59 -35.5 -94t-91.5 -35q-58 0 -94.5 35zM331 1469q-36 35 -36 94q0 56 36.5 91.5t94.5 35.5q56 0 91.5 -35.5t35.5 -91.5q0 -59 -35.5 -94t-91.5 -35q-59 0 -95 35zM134 20.5
q-25 20.5 -25 55.5v1179q0 37 25 57.5t91 20.5h58q65 0 90.5 -21t25.5 -57v-1179q0 -35 -25.5 -55.5t-90.5 -20.5h-58q-66 0 -91 20.5z" />
    <glyph glyph-name="afii10057" unicode="&#x408;" horiz-adv-x="711" 
d="M101 15q-48 35 -48 96v18q0 59 74 59q92 0 138 44.5t46 144.5v878q0 36 26 57t91 21h59q65 0 91 -21t26 -57v-886q0 -129 -46 -216t-128 -130t-192 -43q-89 0 -137 35z" />
    <glyph glyph-name="afii10060" unicode="&#x40b;" horiz-adv-x="1538" 
d="M1188 9q-25 19 -25 48v467q0 94 -44.5 138.5t-151.5 44.5q-115 0 -164 -44.5t-49 -138.5v-448q0 -35 -26 -55.5t-91 -20.5h-57q-67 0 -92 20.5t-25 55.5v1048h-344q-28 0 -46 20t-18 66v35q0 88 64 88h979q65 0 65 -88v-35q0 -86 -65 -86h-344v-274q108 61 262 61
q420 0 420 -379v-475q0 -29 -24 -48t-81 -19h-61q-57 0 -82 19z" />
    <glyph glyph-name="afii10048" unicode="&#x42e;" horiz-adv-x="1870" 
d="M854.5 136q-130.5 156 -141.5 450h-314v-510q0 -35 -26 -55.5t-92 -20.5h-56q-66 0 -91 20.5t-25 55.5v1179q0 37 25 57.5t91 20.5h56q67 0 92.5 -20.5t25.5 -57.5v-471h316q18 279 150.5 423.5t381.5 144.5q535 0 535 -666v-39q0 -325 -129 -496t-406 -171
q-262 0 -392.5 156zM1397 235q55 45 79.5 144t24.5 268v39q0 169 -24.5 268t-79.5 144t-150 45q-94 0 -149 -45t-80 -144t-25 -268v-39q0 -168 25 -267.5t80 -144.5t149 -45q95 0 150 45z" />
    <glyph glyph-name="afii10051" unicode="&#x402;" horiz-adv-x="1585" 
d="M856 74v32q0 47 18 67t46 20h88q104 0 158.5 68.5t54.5 197.5q0 114 -54 170.5t-176 56.5q-126 0 -181.5 -45t-55.5 -137v-428q0 -35 -26 -55.5t-91 -20.5h-57q-67 0 -92 20.5t-25 55.5v1048h-344q-28 0 -46 20t-18 66v35q0 88 64 88h979q65 0 65 -88v-35q0 -86 -65 -86
h-344v-309q116 74 305 74q234 0 344 -109t110 -313q0 -228 -123 -352.5t-362 -124.5h-108q-64 0 -64 84z" />
    <glyph glyph-name="afii10146" unicode="&#x462;" horiz-adv-x="1346" 
d="M292 39q-46 39 -46 115v835h-148q-26 0 -42.5 18t-16.5 62v29q0 42 16.5 60t42.5 18h148v79q0 37 25 57.5t91 20.5h54q66 0 91 -20.5t25 -57.5v-79h281q57 0 57 -78v-29q0 -80 -57 -80h-281v-178h312q218 0 323 -97.5t105 -303.5q0 -410 -445 -410h-387q-102 0 -148 39z
M772 205q82 0 131.5 20t71.5 63t22 115q0 107 -50 155t-171 48h-244v-364q0 -37 43 -37h197z" />
    <glyph glyph-name="afii10147" unicode="&#x472;" horiz-adv-x="1425" 
d="M244 144q-156 164 -156 503v39q0 336 158 501t465 165q308 0 467 -165t159 -501v-39q0 -339 -157 -503t-469 -164q-311 0 -467 164zM1026 795q-10 124 -46 200.5t-102 112t-167 35.5q-98 0 -163 -35t-101 -110t-48 -197q64 35 129 35q59 0 100 -12.5t93 -36.5
q46 -22 81 -33t81 -11q83 0 143 52zM888 233q68 40 102 127t38 232q-67 -53 -154 -53q-59 0 -100.5 12.5t-90.5 37.5q-48 22 -82 33t-81 11q-34 0 -64 -10t-61 -27q6 -147 40 -235t101 -128t175 -40q109 0 177 40z" />
    <glyph glyph-name="afii10148" unicode="&#x474;" horiz-adv-x="1450" 
d="M503.5 45.5q-55.5 45.5 -83.5 142.5l-340 1063q-3 12 -3 23q0 59 101 59h70q118 0 137 -82l274 -985q2 -8 6 -11t11 -3t11 3t5 11l236 914q17 75 71.5 114t155.5 39h174q30 0 47 -19.5t17 -68.5v-35q0 -86 -64 -86h-96q-22 0 -31 -9t-14 -28l-268 -897
q-28 -101 -83 -145.5t-155 -44.5h-31q-92 0 -147.5 45.5z" />
    <glyph glyph-name="uni0492" unicode="&#x492;" horiz-adv-x="1165" 
d="M253 20.5q-26 20.5 -26 55.5v506h-129q-59 0 -59 77v31q0 78 59 78h129v412q0 75 47 114t150 39h620q66 0 66 -88v-35q0 -86 -66 -86h-483q-24 0 -33.5 -8t-9.5 -24v-324h252q57 0 57 -78v-31q0 -77 -57 -77h-252v-506q0 -35 -27 -55.5t-94 -20.5h-53q-65 0 -91 20.5z
" />
    <glyph glyph-name="uni0496" unicode="&#x496;" horiz-adv-x="2075" 
d="M78 37q0 15 14 41l404 588l-400 587q-15 27 -15 44q0 38 79 38h88q66 0 107.5 -22.5t60.5 -59.5l332 -546q11 -24 11 -45q0 -20 -11 -44l-332 -540q-17 -35 -59 -56.5t-109 -21.5h-88q-82 0 -82 37zM813 76v1181q0 78 119 78h55q119 0 119 -78v-1181q0 -35 -26 -55.5
t-93 -20.5h-55q-119 0 -119 76zM1774 -238v228h-88l-3 10h-10q-66 0 -107.5 21.5t-60.5 56.5l-331 540q-11 24 -11 47t11 42l331 546q19 37 60.5 59.5t107.5 22.5h84q82 0 82 -39q0 -15 -14 -43l-404 -587l322 -463h223q67 0 62 -88l-15 -353q0 -33 -23.5 -54t-80.5 -21h-17
q-118 0 -118 75z" />
    <glyph glyph-name="uni049A" unicode="&#x49a;" horiz-adv-x="1409" 
d="M134 20.5q-25 20.5 -25 55.5v1179q0 37 25 57.5t91 20.5h56q67 0 92.5 -20.5t25.5 -57.5v-1179q0 -35 -26 -55.5t-92 -20.5h-56q-66 0 -91 20.5zM1133.5 -292.5q-25.5 20.5 -25.5 54.5v228h-88l-2 10h-19q-67 0 -109 21.5t-59 56.5l-362 540q-13 22 -13 45q0 24 13 44
l365 546q14 36 56 58t109 22h97q82 0 82 -38q0 -17 -15 -42l-428 -587l338 -463h225q69 0 64 -88l-16 -353q0 -75 -103 -75h-18q-66 0 -91.5 20.5z" />
    <glyph glyph-name="uni04A2" unicode="&#x4a2;" horiz-adv-x="1454" 
d="M1153 -238v228h-86l-2 10h-43q-67 0 -93 20.5t-26 55.5v510h-504v-510q0 -35 -26 -55.5t-92 -20.5h-56q-66 0 -91 20.5t-25 55.5v1179q0 37 25 57.5t91 20.5h56q67 0 92.5 -20.5t25.5 -57.5v-471h504v471q0 36 26 57t93 21h53q67 0 94 -21t27 -57v-1052h150q68 0 63 -88
l-16 -353q-4 -75 -105 -75h-18q-117 0 -117 75z" />
    <glyph glyph-name="uni04AE" unicode="&#x4ae;" horiz-adv-x="1290" 
d="M527.5 20.5q-25.5 20.5 -25.5 55.5v467l-422 710q-8 16 -8 28q0 24 25.5 38t76.5 14h94q64 0 92.5 -19.5t42.5 -56.5l259 -483l260 483q14 37 42.5 56.5t92.5 19.5h59q51 0 76.5 -14t25.5 -38q0 -12 -8 -28l-415 -704v-473q0 -35 -26 -55.5t-93 -20.5h-58
q-65 0 -90.5 20.5z" />
    <glyph glyph-name="uni04B0" unicode="&#x4b0;" horiz-adv-x="1290" 
d="M527.5 20.5q-25.5 20.5 -25.5 55.5v325h-213q-60 0 -60 78v41q0 78 60 78h180l-389 655q-8 16 -8 28q0 24 25.5 38t76.5 14h94q64 0 92.5 -19.5t42.5 -56.5l259 -483l260 483q14 37 42.5 56.5t92.5 19.5h59q51 0 76.5 -14t25.5 -38q0 -12 -8 -28l-387 -655h199
q57 0 57 -78v-41q0 -41 -15.5 -59.5t-41.5 -18.5h-227v-325q0 -35 -26 -55.5t-93 -20.5h-58q-65 0 -90.5 20.5z" />
    <glyph glyph-name="uni04B2" unicode="&#x4b2;" horiz-adv-x="1436" 
d="M1135 -238v238h-127q-65 0 -93 19.5t-43 56.5l-247 471l-238 -471q-14 -37 -43.5 -56.5t-93.5 -19.5h-66q-53 0 -78 13.5t-25 37.5q0 11 7 27l338 590l-338 585q-7 18 -7 27q0 25 24.5 39t76.5 14h107q63 0 91 -19.5t42 -56.5l240 -462l237 462q14 37 42.5 56.5
t92.5 19.5h68q52 0 77.5 -14.5t25.5 -38.5q0 -14 -7 -27l-340 -583l266 -459h203q30 0 47.5 -19t16.5 -67l-17 -363q0 -33 -24 -54t-82 -21h-17q-116 0 -116 75z" />
    <glyph glyph-name="uni04B6" unicode="&#x4b6;" horiz-adv-x="1434" 
d="M1133 -238v238h-111q-67 0 -93 20.5t-26 55.5v409q-103 -63 -268 -63h-123q-422 0 -422 377v467q0 29 25 48t82 19h63q60 0 85.5 -19t25.5 -48v-459q0 -93 44 -137.5t154 -44.5h121q114 0 163.5 46t49.5 136v448q0 36 26 57t93 21h63q111 0 111 -78v-1044h127
q32 0 49.5 -19t16.5 -67l-17 -363q0 -33 -24.5 -54t-81.5 -21h-17q-116 0 -116 75z" />
    <glyph glyph-name="uni04BA" unicode="&#x4ba;" horiz-adv-x="1300" 
d="M132.5 20.5q-23.5 20.5 -23.5 55.5v1179q0 37 23.5 57.5t84.5 20.5h66q65 0 90.5 -21t25.5 -57v-409q111 65 267 65h125q419 0 419 -379v-464q0 -32 -23 -50t-81 -18h-64q-61 0 -85.5 18.5t-24.5 49.5v456q0 63 -18 102.5t-62 60t-121 20.5h-119q-115 0 -164 -45.5
t-49 -137.5v-448q0 -35 -25.5 -55.5t-90.5 -20.5h-66q-61 0 -84.5 20.5z" />
    <glyph glyph-name="uni04C0" unicode="&#x4c0;" horiz-adv-x="506" 
d="M134 20.5q-25 20.5 -25 55.5v1179q0 37 25 57.5t91 20.5h58q65 0 90.5 -21t25.5 -57v-1179q0 -35 -25.5 -55.5t-90.5 -20.5h-58q-66 0 -91 20.5z" />
    <glyph glyph-name="uni04D8" unicode="&#x4d8;" horiz-adv-x="1364" 
d="M343.5 31q-126.5 51 -193 146.5t-66.5 228.5q0 144 61.5 229.5t186 124t325.5 43.5l306 8q-54 313 -394 313q-123 0 -250 -43l-69 -22q-12 -4 -23 -4q-17 0 -27.5 14t-19.5 47l-16 60q-3 21 -3 35q0 22 9 34.5t33 20.5l86 30q77 27 159.5 41.5t184.5 14.5
q204 0 348 -76.5t219.5 -225.5t75.5 -364v-39q0 -218 -75 -366.5t-216 -223.5t-338 -77q-177 0 -303.5 51zM888.5 308.5q83.5 107.5 84.5 328.5l-266 -8q-173 -7 -261 -54t-88 -161q0 -213 281 -213q166 0 249.5 107.5z" />
    <glyph glyph-name="uni04E2" unicode="&#x4e2;" horiz-adv-x="1346" 
d="M373 1563v26q0 74 55 74h516q26 0 40.5 -16.5t14.5 -57.5v-28q0 -41 -14.5 -57.5t-40.5 -16.5h-516q-55 0 -55 76zM167 51.5q-58 51.5 -58 149.5v1056q0 35 21.5 55.5t76.5 20.5h33q57 0 79.5 -20.5t22.5 -55.5v-1007q0 -8 2.5 -11t7.5 -3q16 0 23 14l348 899
q29 97 87.5 140.5t152.5 43.5h55q101 0 162 -51.5t61 -148.5v-1059q0 -74 -102 -74h-31q-102 0 -102 74v1009q0 17 -13 17t-18 -17l-352 -899q-29 -97 -86.5 -140.5t-149.5 -43.5h-61q-101 0 -159 51.5z" />
    <glyph glyph-name="uni04E8" unicode="&#x4e8;" horiz-adv-x="1425" 
d="M244 144q-156 164 -156 503v39q0 336 158 501t465 165q308 0 467 -165t159 -501v-39q0 -339 -157 -503t-469 -164q-311 0 -467 164zM1026 774q-7 132 -42 212.5t-102 118.5t-171 38q-102 0 -168.5 -38t-101.5 -118.5t-44 -212.5h629zM884.5 231q66.5 38 101 121t40.5 221
h-629q7 -137 41.5 -220.5t101 -121.5t171.5 -38q107 0 173.5 38z" />
    <glyph glyph-name="uni04EE" unicode="&#x4ee;" horiz-adv-x="1221" 
d="M322 1563v26q0 74 55 74h516q26 0 40.5 -16.5t14.5 -57.5v-28q0 -41 -14.5 -57.5t-40.5 -16.5h-516q-55 0 -55 76zM105 15q-19 17 -19 57v57q0 41 19 58.5t49 17.5h41q93 0 160.5 49t111.5 147l16 41l-395 822q-5 12 -5 22q0 21 25 34t80 13h74q67 0 98.5 -19t42.5 -50
l232 -582l221 582q11 31 41.5 50t97.5 19h49q55 0 79.5 -13t24.5 -34q0 -10 -5 -22l-391 -869q-58 -128 -126 -215t-161 -134.5t-217 -47.5h-94q-30 0 -49 17z" />
    <glyph glyph-name="afii10065" unicode="&#x430;" horiz-adv-x="1006" 
d="M176.5 49q-104.5 69 -104.5 207v20q0 134 95 201t294 78l213 12v25q0 79 -44.5 118.5t-137.5 39.5q-54 0 -123 -13t-125 -32l-47 -19q-18 -4 -25 -4q-18 0 -29 11t-18 38l-12 62q-4 15 -4 29q0 16 8 26t26 18l68 25q134 55 311 55q206 0 302 -82t96 -243v-342
q0 -157 -101 -228t-319 -71q-219 0 -323.5 69zM633.5 166q40.5 35 40.5 113v143l-154 -8q-101 -6 -147.5 -37t-46.5 -96v-19q0 -68 39 -99.5t135 -31.5q93 0 133.5 35z" />
    <glyph glyph-name="afii10066" unicode="&#x431;" horiz-adv-x="1075" 
d="M195.5 89q-111.5 109 -111.5 349v54q0 293 79 484.5t221.5 282.5t338.5 91h106q48 0 78 10q14 3 23 3q41 0 41 -46v-82q0 -50 -43 -66q-51 -16 -101 -14h-71q-137 2 -231 -60t-144 -196q74 39 197 39q413 0 413 -459v-41q0 -241 -112.5 -349.5t-343.5 -108.5
q-228 0 -339.5 109zM651.5 187.5q42.5 25.5 62 85t19.5 165.5v41q0 105 -19.5 165t-62 86t-114.5 26q-73 0 -115.5 -26.5t-62 -87t-19.5 -165.5v-39q0 -105 19 -165t61.5 -85.5t116.5 -25.5q72 0 114.5 25.5z" />
    <glyph glyph-name="afii10067" unicode="&#x432;" horiz-adv-x="1087" 
d="M143 37q-45 37 -45 108v637q0 71 45 108.5t142 37.5h377q167 0 244 -61t77 -181q0 -156 -160 -209q98 -21 145.5 -73.5t47.5 -139.5q0 -126 -94.5 -195t-276.5 -69h-360q-97 0 -142 37zM588 551q74 0 106.5 24t32.5 80q0 58 -31 82.5t-110 24.5h-189q-21 0 -31 -8
t-10 -25v-178h232zM584 166q61 0 95 12.5t48 37.5t14 67q0 56 -30 82t-103 26h-252v-192q0 -17 10 -25t31 -8h187z" />
    <glyph glyph-name="afii10068" unicode="&#x433;" horiz-adv-x="803" 
d="M120.5 18q-22.5 18 -22.5 50v714q0 71 45 108.5t142 37.5h407q25 0 40.5 -17t15.5 -57v-29q0 -73 -56 -73h-295q-21 0 -31 -7.5t-10 -23.5v-653q0 -32 -22.5 -50t-81.5 -18h-51q-58 0 -80.5 18z" />
    <glyph glyph-name="afii10100" unicode="&#x453;" horiz-adv-x="803" 
d="M330.5 1076q-13.5 11 -13.5 29q0 24 25 50l123 133q37 45 92 45h90q31 0 48.5 -12.5t17.5 -32.5q0 -25 -27 -49l-121 -109q-40 -35 -71 -50t-68 -15h-59q-23 0 -36.5 11zM120.5 18q-22.5 18 -22.5 50v714q0 71 45 108.5t142 37.5h407q25 0 40.5 -17t15.5 -57v-29
q0 -73 -56 -73h-295q-21 0 -31 -7.5t-10 -23.5v-653q0 -32 -22.5 -50t-81.5 -18h-51q-58 0 -80.5 18z" />
    <glyph glyph-name="afii10098" unicode="&#x491;" horiz-adv-x="836" 
d="M120.5 18q-22.5 18 -22.5 50v714q0 71 45 108.5t142 37.5h258v246q0 71 108 71h15q94 0 98 -71l14 -343q3 -42 -14 -60.5t-45 -18.5h-322q-21 0 -31 -7.5t-10 -23.5v-653q0 -32 -22.5 -50t-81.5 -18h-51q-58 0 -80.5 18z" />
    <glyph glyph-name="afii10069" unicode="&#x434;" horiz-adv-x="1419" 
d="M84.5 -301q-21.5 18 -23.5 51l-14 346q-1 43 14.5 60.5t44.5 17.5h54q76 0 113.5 40.5t45.5 129.5l31 438q6 72 50 109t139 37h448q97 0 142 -37.5t45 -108.5v-608h133q29 0 44.5 -17.5t14.5 -60.5l-16 -346q0 -33 -21.5 -51t-75.5 -18h-14q-61 0 -85 18t-24 51v250h-847
v-250q0 -33 -24 -51t-85 -18h-14q-54 0 -75.5 18zM903 174v547q0 16 -9.5 23.5t-31.5 7.5h-207q-22 0 -31.5 -7t-9.5 -24l-30 -354q-9 -122 -60 -193h379z" />
    <glyph glyph-name="afii10070" unicode="&#x435;" horiz-adv-x="1004" 
d="M200 94q-128 114 -128 352v35q0 153 56 257t158.5 156t241.5 52q127 0 218 -36t138.5 -103t47.5 -158q0 -99 -43.5 -157.5t-132 -85.5t-230.5 -31l-200 -6q21 -99 94.5 -145t179.5 -46q43 0 93.5 9t94.5 22l43 16q11 4 22 4q15 0 24 -11t14 -36l18 -59q5 -18 5 -28
q0 -17 -8 -27t-25 -17l-62 -26q-55 -22 -125 -33.5t-145 -11.5q-221 0 -349 114zM475 510q84 2 131 10t75 34t28 79q0 63 -41.5 99t-132.5 36q-109 0 -164 -63t-56 -201z" />
    <glyph glyph-name="afii10071" unicode="&#x451;" horiz-adv-x="1004" 
d="M274.5 1106q-36.5 35 -36.5 94q0 57 37 92t94 35q55 0 91 -35.5t36 -91.5q0 -59 -35.5 -94t-91.5 -35q-58 0 -94.5 35zM603 1106q-36 35 -36 94q0 57 36.5 92t94.5 35q56 0 91.5 -35t35.5 -92q0 -59 -35.5 -94t-91.5 -35q-59 0 -95 35zM200 94q-128 114 -128 352v35
q0 153 56 257t158.5 156t241.5 52q127 0 218 -36t138.5 -103t47.5 -158q0 -99 -43.5 -157.5t-132 -85.5t-230.5 -31l-200 -6q21 -99 94.5 -145t179.5 -46q43 0 93.5 9t94.5 22l43 16q11 4 22 4q15 0 24 -11t14 -36l18 -59q5 -18 5 -28q0 -17 -8 -27t-25 -17l-62 -26
q-55 -22 -125 -33.5t-145 -11.5q-221 0 -349 114zM475 510q84 2 131 10t75 34t28 79q0 63 -41.5 99t-132.5 36q-109 0 -164 -63t-56 -201z" />
    <glyph glyph-name="afii10072" unicode="&#x436;" horiz-adv-x="1595" 
d="M53 33q0 15 15 35l317 401l-317 389q-15 20 -15 36q0 15 17 24.5t55 9.5h84q111 0 149 -70l254 -354q11 -18 11 -40q0 -20 -11 -38l-252 -358q-37 -68 -149 -68h-86q-72 0 -72 33zM690.5 18.5q-22.5 18.5 -22.5 49.5v792q0 68 102 68h55q103 0 103 -68v-792
q0 -31 -23 -49.5t-80 -18.5h-55q-57 0 -79.5 18.5zM1235 68l-252 358q-11 20 -11 40t11 38l254 354q17 31 52.5 50.5t94.5 19.5h86q72 0 72 -35q0 -14 -14 -35l-320 -389l320 -401q14 -21 14 -35q0 -33 -72 -33h-88q-110 0 -147 68z" />
    <glyph glyph-name="afii10073" unicode="&#x437;" horiz-adv-x="977" 
d="M176 35l-67 26q-36 11 -36 45q0 12 3 25l16 57q7 25 17 35.5t25 10.5q14 0 26 -5l49 -18q58 -22 125 -35.5t127 -13.5q91 0 128.5 29.5t37.5 91.5q0 53 -29.5 80.5t-95.5 27.5h-207q-51 0 -51 68v28q0 70 51 70h186q67 0 100 26.5t33 80.5q0 38 -13.5 60.5t-46.5 33
t-91 10.5q-60 0 -126 -14t-124 -37l-49 -17q-17 -5 -26 -5q-15 0 -24.5 10.5t-17.5 35.5l-14 54q-4 13 -4 27q0 16 8.5 26.5t28.5 17.5l65 25q153 55 312 55q190 0 283 -64.5t93 -189.5q0 -74 -40 -131t-117 -84q94 -23 138 -76.5t44 -140.5q0 -133 -103 -206.5t-301 -73.5
q-163 0 -313 55z" />
    <glyph glyph-name="afii10074" unicode="&#x438;" horiz-adv-x="1200" 
d="M154 51.5q-56 51.5 -56 149.5v651q0 76 101 76h32q103 0 103 -76v-602q0 -14 12 -14q15 0 21 14l229 493q37 98 93.5 141.5t148.5 43.5h47q101 0 159 -51.5t58 -149.5v-653q0 -74 -101 -74h-32q-103 0 -103 74v604q0 16 -14 16q-13 0 -18 -16l-230 -494
q-38 -98 -94.5 -141t-147.5 -43h-53q-99 0 -155 51.5z" />
    <glyph glyph-name="afii10075" unicode="&#x439;" horiz-adv-x="1200" 
d="M419.5 1084q-73.5 33 -110.5 90t-37 129q0 47 17 71.5t45 24.5q21 0 33 -13.5t29 -44.5q19 -37 38.5 -61.5t59 -42.5t104.5 -18t104.5 18t59 42.5t38.5 61.5q17 31 29 44.5t33 13.5q26 0 44 -25t18 -71q0 -72 -37 -129t-110.5 -90t-178.5 -33t-178.5 33zM154 51.5
q-56 51.5 -56 149.5v651q0 76 101 76h32q103 0 103 -76v-602q0 -14 12 -14q15 0 21 14l229 493q37 98 93.5 141.5t148.5 43.5h47q101 0 159 -51.5t58 -149.5v-653q0 -74 -101 -74h-32q-103 0 -103 74v604q0 16 -14 16q-13 0 -18 -16l-230 -494q-38 -98 -94.5 -141
t-147.5 -43h-53q-99 0 -155 51.5z" />
    <glyph glyph-name="afii10076" unicode="&#x43a;" horiz-adv-x="1024" 
d="M120.5 18q-22.5 18 -22.5 50v792q0 68 103 68h51q104 0 104 -68v-792q0 -32 -23 -50t-81 -18h-51q-58 0 -80.5 18zM716.5 18.5q-36.5 18.5 -54.5 49.5l-248 358q-14 20 -14 39t14 39l250 354q18 31 55 50.5t94 19.5h84q38 0 56 -9.5t18 -24.5q0 -16 -15 -36l-317 -389
l317 -401q15 -20 15 -35q0 -33 -74 -33h-86q-58 0 -94.5 18.5z" />
    <glyph glyph-name="afii10109" unicode="&#x45c;" horiz-adv-x="1024" 
d="M404.5 1076q-13.5 11 -13.5 28q0 25 25 51l123 133q20 23 42 34t50 11h90q31 0 49 -12.5t18 -32.5q0 -24 -28 -49l-121 -109q-40 -35 -71 -50t-68 -15h-60q-22 0 -35.5 11zM120.5 18q-22.5 18 -22.5 50v792q0 68 103 68h51q104 0 104 -68v-792q0 -32 -23 -50t-81 -18h-51
q-58 0 -80.5 18zM716.5 18.5q-36.5 18.5 -54.5 49.5l-248 358q-14 20 -14 39t14 39l250 354q18 31 55 50.5t94 19.5h84q38 0 56 -9.5t18 -24.5q0 -16 -15 -36l-317 -389l317 -401q15 -20 15 -35q0 -33 -74 -33h-86q-58 0 -94.5 18.5z" />
    <glyph glyph-name="afii10077" unicode="&#x43b;" horiz-adv-x="1223" 
d="M57 74v39q0 71 56 71h14q64 0 102 39t45 131l31 428q5 71 49 108.5t140 37.5h442q98 0 143 -37t45 -109v-714q0 -32 -22 -50t-80 -18h-53q-105 0 -105 68v653q0 16 -9.5 23.5t-31.5 7.5h-223q-22 0 -30.5 -7t-10.5 -24l-33 -383q-11 -159 -95 -248.5t-226 -89.5h-92
q-56 0 -56 74z" />
    <glyph glyph-name="afii10078" unicode="&#x43c;" horiz-adv-x="1380" 
d="M68 70l41 671q3 91 57.5 139t146.5 48h35q94 0 151.5 -40.5t71.5 -133.5l117 -570l121 574q15 86 73.5 128t151.5 42h35q94 0 147 -47.5t54 -139.5l43 -671q4 -70 -101 -70h-45q-96 0 -96 70l-41 624q0 13 -10 13q-19 0 -21 -13l-131 -549q-28 -145 -174 -145h-20
q-145 0 -174 145l-133 549q-2 13 -19 13q-10 0 -10 -13l-41 -624q-2 -33 -22 -51.5t-74 -18.5h-41q-96 0 -92 70z" />
    <glyph glyph-name="afii10079" unicode="&#x43d;" horiz-adv-x="1100" 
d="M120.5 18q-22.5 18 -22.5 50v792q0 68 103 68h51q59 0 81.5 -18.5t22.5 -49.5v-299h385v299q0 68 103 68h53q104 0 104 -68v-792q0 -68 -104 -68h-53q-57 0 -80 18.5t-23 49.5v319h-385v-319q0 -32 -22.5 -50t-81.5 -18h-51q-58 0 -80.5 18z" />
    <glyph glyph-name="afii10080" unicode="&#x43e;" horiz-adv-x="1075" 
d="M189 91.5q-117 111.5 -117 350.5v41q0 240 117 351.5t346 111.5q233 0 351 -109.5t118 -353.5v-41q0 -242 -118 -352t-351 -110q-229 0 -346 111.5zM654.5 186q43.5 26 65 87t21.5 169v41q0 109 -21.5 170.5t-65 87t-115.5 25.5q-74 0 -118 -25.5t-64.5 -87t-20.5 -170.5
v-39q0 -108 20.5 -170t64.5 -88t118 -26q72 0 115.5 26z" />
    <glyph glyph-name="afii10081" unicode="&#x43f;" horiz-adv-x="1100" 
d="M120.5 18q-22.5 18 -22.5 50v714q0 71 45 108.5t142 37.5h528q98 0 143 -37t45 -109v-714q0 -32 -23 -50t-81 -18h-53q-57 0 -80 18.5t-23 49.5v653q0 16 -9.5 23.5t-31.5 7.5h-303q-21 0 -31 -7.5t-10 -23.5v-653q0 -32 -22.5 -50t-81.5 -18h-51q-58 0 -80.5 18z" />
    <glyph glyph-name="afii10082" unicode="&#x440;" horiz-adv-x="1073" 
d="M92 -287v770q0 241 112.5 352t340.5 111q230 0 343 -109t113 -354v-41q0 -238 -105 -350t-308 -112q-143 0 -238 65v-332q0 -30 -21.5 -47.5t-78.5 -17.5h-57q-101 0 -101 65zM665 186q43 26 63 87.5t20 168.5v41q0 109 -20 170.5t-63 87t-116 25.5q-75 0 -117.5 -26
t-62 -87t-19.5 -170v-39q0 -108 20 -170t63 -88t116 -26t116 26z" />
    <glyph glyph-name="afii10083" unicode="&#x441;" horiz-adv-x="934" 
d="M188 88.5q-116 108.5 -116 355.5v37q0 248 116 356.5t326 108.5q148 0 260 -47l55 -20q20 -7 28.5 -18.5t8.5 -30.5q0 -17 -4 -33l-14 -58q-9 -55 -43 -55q-5 0 -19 4l-45 17q-83 26 -168 26q-115 0 -173 -56.5t-58 -193.5v-37q0 -136 58 -191.5t173 -55.5q94 0 168 26
l45 17q9 3 18 3q18 0 28.5 -13.5t15.5 -41.5l14 -59q4 -16 4 -31q0 -18 -8.5 -30t-28.5 -19l-55 -22q-120 -47 -260 -47q-210 0 -326 108.5z" />
    <glyph glyph-name="afii10084" unicode="&#x442;" horiz-adv-x="915" 
d="M350.5 18q-22.5 18 -22.5 50v684h-238q-55 0 -55 75v27q0 40 15.5 57t39.5 17h735q25 0 40.5 -17t15.5 -57v-29q0 -73 -56 -73h-237v-684q0 -31 -23.5 -49.5t-81.5 -18.5h-51q-59 0 -81.5 18z" />
    <glyph glyph-name="afii10085" unicode="&#x443;" horiz-adv-x="1008" 
d="M61 -281v29q0 76 54 76h41q79 0 136 46t91 138l10 31l-325 821q-5 12 -5 22q0 20 22 33t69 13h71q102 0 121 -68l186 -559l175 559q7 30 35 49t85 19h39q47 0 69 -13t22 -33q0 -10 -5 -22l-321 -860q-65 -176 -168.5 -264t-261.5 -88h-86q-54 0 -54 71z" />
    <glyph glyph-name="afii10110" unicode="&#x45e;" horiz-adv-x="1008" 
d="M351.5 1084q-73.5 33 -110 90t-36.5 129q0 47 17.5 71.5t43.5 24.5q21 0 33 -13.5t29 -44.5q19 -37 38.5 -61.5t59 -42.5t104.5 -18t105 18t59.5 42.5t38.5 60.5q16 31 29 45t35 14q26 0 42.5 -24.5t16.5 -71.5q0 -73 -36.5 -130t-109.5 -89.5t-180 -32.5
q-105 0 -178.5 33zM61 -281v29q0 76 54 76h41q79 0 136 46t91 138l10 31l-325 821q-5 12 -5 22q0 20 22 33t69 13h71q102 0 121 -68l186 -559l175 559q7 30 35 49t85 19h39q47 0 69 -13t22 -33q0 -10 -5 -22l-321 -860q-65 -176 -168.5 -264t-261.5 -88h-86q-54 0 -54 71z
" />
    <glyph glyph-name="afii10086" unicode="&#x444;" horiz-adv-x="1397" 
d="M569 -287v287h-24q-234 0 -353.5 101t-119.5 335v41q0 237 120 344t353 107h24v338q0 29 23 48t78 19h59q54 0 77 -19t23 -48v-338h23q236 0 354.5 -106.5t118.5 -344.5v-41q0 -159 -54 -255t-158 -138.5t-261 -42.5h-23v-287q0 -65 -100 -65h-59q-101 0 -101 65z
M569 168v590h-30q-74 0 -118.5 -25.5t-65.5 -86.5t-21 -169v-39q0 -108 21 -166t64.5 -81t119.5 -23h30zM858 168q75 0 119 23t65 81.5t21 165.5v39q0 108 -21 169t-65.5 86.5t-118.5 25.5h-29v-590h29z" />
    <glyph glyph-name="afii10087" unicode="&#x445;" horiz-adv-x="1022" 
d="M89 12.5q-23 12.5 -23 33.5q0 12 6 24l239 395l-237 393q-6 12 -6 22q0 21 23 34.5t69 13.5h88q56 0 81.5 -18t39.5 -50l149 -280l148 280q15 32 41 50t81 18h66q46 0 69.5 -13t23.5 -34q0 -12 -7 -23l-235 -389l241 -399q7 -11 7 -24q0 -21 -23 -33.5t-70 -12.5h-84
q-58 0 -84 17.5t-37 50.5l-153 280l-158 -280q-10 -32 -36.5 -50t-84.5 -18h-63q-48 0 -71 12.5z" />
    <glyph glyph-name="afii10089" unicode="&#x447;" horiz-adv-x="1049" 
d="M714.5 12.5q-22.5 18.5 -22.5 50.5v228q-85 -49 -223 -49q-193 0 -287 92t-94 274v252q0 68 100 68h62q98 0 98 -68v-246q0 -94 38 -137t130 -43t134 44t42 136v246q0 68 103 68h53q58 0 80 -18.5t22 -49.5v-797q0 -33 -22 -51t-82 -18h-51q-58 0 -80.5 18.5z" />
    <glyph glyph-name="afii10088" unicode="&#x446;" horiz-adv-x="1237" 
d="M991 -301q-22 18 -22 51v250h-684q-97 0 -142 36t-45 105v719q0 68 103 68h51q59 0 81.5 -18.5t22.5 -49.5v-655q0 -31 41 -31h344v686q0 68 103 68h53q104 0 104 -68v-686h136q62 0 59 -78l-16 -346q0 -33 -21.5 -51t-75.5 -18h-14q-56 0 -78 18z" />
    <glyph glyph-name="afii10090" unicode="&#x448;" horiz-adv-x="1657" 
d="M143 37q-45 37 -45 108v715q0 68 103 68h51q59 0 81.5 -18.5t22.5 -49.5v-655q0 -31 41 -31h308v686q0 31 22 49.5t80 18.5h53q57 0 81 -19t24 -49v-686h292q41 0 41 31v655q0 68 105 68h53q103 0 103 -68v-715q0 -71 -45 -108t-142 -37h-1087q-97 0 -142 37z" />
    <glyph glyph-name="afii10091" unicode="&#x449;" horiz-adv-x="1780" 
d="M1527.5 -300.5q-24.5 18.5 -24.5 50.5v250h-1218q-97 0 -142 37t-45 108v715q0 68 103 68h51q59 0 81.5 -18.5t22.5 -49.5v-655q0 -31 41 -31h297v686q0 68 103 68h51q59 0 81.5 -18.5t22.5 -49.5v-686h336v686q0 68 103 68h53q104 0 104 -68v-686h133q61 0 58 -78
l-15 -346q-2 -33 -23 -51t-75 -18h-14q-60 0 -84.5 18.5z" />
    <glyph glyph-name="afii10193" unicode="&#x45f;" horiz-adv-x="1100" 
d="M451 -252l-11 252h-155q-97 0 -142 37t-45 108v715q0 68 103 68h51q59 0 81.5 -18.5t22.5 -49.5v-655q0 -31 41 -31h303q41 0 41 31v655q0 68 103 68h53q104 0 104 -68v-715q0 -71 -45 -108t-143 -37h-147l-9 -252q0 -67 -94 -67h-18q-94 0 -94 67z" />
    <glyph glyph-name="afii10097" unicode="&#x44f;" horiz-adv-x="1090" 
d="M62 39q0 12 6 27l116 229q29 55 80 92q-93 25 -139.5 86.5t-46.5 165.5q0 150 91 220.5t273 70.5h363q188 0 188 -146v-716q0 -32 -23 -50t-81 -18h-49q-58 0 -81.5 18.5t-23.5 49.5v299h-178q-49 -4 -75 -25t-50 -68l-92 -208q-12 -31 -42 -48.5t-89 -17.5h-68
q-79 0 -79 39zM735 526v205q0 16 -9.5 23.5t-31.5 7.5h-190q-87 0 -121.5 -29t-34.5 -92q0 -55 37 -85t111 -30h239z" />
    <glyph glyph-name="afii10094" unicode="&#x44c;" horiz-adv-x="1081" 
d="M143 37q-45 37 -45 108v715q0 68 103 68h51q59 0 81.5 -18.5t22.5 -49.5v-299h295q177 0 266 -64t89 -206q0 -151 -89.5 -221t-267.5 -70h-364q-97 0 -142 37zM588 166q87 0 121 29.5t34 93.5q0 110 -147 110h-240v-200q0 -33 41 -33h191z" />
    <glyph glyph-name="afii10092" unicode="&#x44a;" horiz-adv-x="1288" 
d="M343.5 37q-44.5 37 -44.5 108v607h-182q-54 0 -54 69v33q0 74 54 74h338q104 0 104 -68v-293h295q179 0 267.5 -65.5t88.5 -210.5q0 -151 -89.5 -221t-270.5 -70h-365q-97 0 -141.5 37zM797 166q85 0 118 29.5t33 93.5q0 110 -147 110h-242v-200q0 -17 9.5 -25t31.5 -8
h197z" />
    <glyph glyph-name="afii10093" unicode="&#x44b;" horiz-adv-x="1536" 
d="M143 37q-45 37 -45 108v715q0 68 103 68h51q59 0 81.5 -18.5t22.5 -49.5v-299h295q177 0 266 -64t89 -206q0 -151 -89.5 -221t-267.5 -70h-364q-97 0 -142 37zM1202.5 18.5q-22.5 18.5 -22.5 49.5v792q0 68 102 68h53q103 0 103 -68v-792q0 -32 -22.5 -50t-80.5 -18h-53
q-57 0 -79.5 18.5zM588 166q87 0 121 29.5t34 93.5q0 110 -147 110h-240v-200q0 -33 41 -33h191z" />
    <glyph glyph-name="afii10106" unicode="&#x459;" horiz-adv-x="1843" 
d="M57 74v26q0 74 56 74h14q133 0 147 170l31 438q6 72 49.5 109t139.5 37h436q97 0 141.5 -37.5t44.5 -108.5v-219h291q180 0 269 -64.5t89 -207.5q0 -151 -90 -221t-270 -70h-361q-98 0 -143 37t-45 108v572q0 17 -10 25t-31 8h-205q-22 0 -31.5 -8t-9.5 -25l-30 -379
q-13 -161 -98.5 -249.5t-235.5 -88.5h-92q-56 0 -56 74zM1348 166q88 0 121.5 29t33.5 94q0 110 -147 110h-240v-200q0 -17 9.5 -25t31.5 -8h191z" />
    <glyph glyph-name="afii10107" unicode="&#x45a;" horiz-adv-x="1718" 
d="M120.5 18q-22.5 18 -22.5 50v792q0 68 103 68h51q59 0 81.5 -18.5t22.5 -49.5v-289h383v289q0 68 105 68h51q104 0 104 -68v-297h285q181 0 269.5 -64t88.5 -208q0 -151 -89 -221t-271 -70h-352q-99 0 -145 37t-46 108v248h-383v-325q0 -32 -22.5 -50t-81.5 -18h-51
q-58 0 -80.5 18zM1225 166q87 0 121 29.5t34 93.5q0 110 -147 110h-234v-200q0 -33 41 -33h185z" />
    <glyph glyph-name="afii10102" unicode="&#x455;" horiz-adv-x="940" 
d="M172 35l-66 26q-20 6 -28 16.5t-8 27.5q0 6 2 24l16 55q7 25 16.5 36t25.5 11q11 0 28 -6l47 -18q58 -20 125 -33.5t125 -13.5q147 0 147 96q0 43 -31 63.5t-98 38.5l-129 37q-75 20 -128.5 49t-86.5 81.5t-33 133.5q0 86 42.5 150.5t127 100.5t207.5 36q161 0 275 -45
l59 -20q19 -6 27 -17t8 -29q0 -6 -2 -24l-15 -57q-7 -25 -16 -34.5t-25 -9.5q-10 0 -24 3l-45 16q-45 15 -100 25t-107 10q-80 0 -114 -24.5t-34 -71.5q0 -34 16.5 -54t41.5 -30.5t71 -22.5l125 -37q119 -28 186.5 -85.5t67.5 -172.5q0 -135 -98 -210.5t-285 -75.5
q-160 0 -313 55z" />
    <glyph glyph-name="afii10101" unicode="&#x454;" horiz-adv-x="934" 
d="M188 88.5q-116 108.5 -116 355.5v37q0 248 116 356.5t326 108.5q148 0 260 -47l55 -20q20 -7 29 -18.5t9 -30.5q0 -11 -5 -33l-12 -41q-6 -29 -15.5 -42t-24.5 -13q-5 0 -19 4l-46 14q-91 31 -172 31q-105 0 -166 -48t-71 -157h350q53 0 53 -68v-26q0 -39 -14 -52.5
t-39 -13.5h-350q9 -110 69.5 -157.5t167.5 -47.5q88 0 172 27l46 14q12 4 18 4q15 0 25 -13.5t16 -41.5l12 -41q4 -16 4 -31q0 -18 -8.5 -30t-28.5 -19l-55 -22q-120 -47 -260 -47q-210 0 -326 108.5z" />
    <glyph glyph-name="afii10095" unicode="&#x44d;" horiz-adv-x="934" 
d="M160 27l-56 22q-20 8 -28.5 20t-8.5 32q0 12 3 28l14 41q6 28 16 41.5t26 13.5q5 0 19 -4l45 -14q83 -27 170 -27q107 0 167.5 47.5t70.5 157.5h-348q-27 0 -41 13.5t-14 52.5v26q0 68 55 68h348q-12 109 -73 157t-165 48q-80 0 -170 -31l-45 -14q-14 -4 -20 -4
q-16 0 -25.5 13t-15.5 42l-14 41q-4 22 -4 30q0 20 9 32t29 20l56 20q115 47 262 47q209 0 324.5 -108.5t115.5 -356.5v-37q0 -247 -115.5 -355.5t-324.5 -108.5q-139 0 -262 47z" />
    <glyph glyph-name="afii10103" unicode="&#x456;" horiz-adv-x="455" 
d="M126.5 1115q-38.5 38 -38.5 102q0 61 38.5 99t100.5 38t101 -38t39 -99q0 -64 -39 -102t-101 -38t-100.5 38zM120.5 18q-22.5 18 -22.5 50v792q0 68 103 68h51q59 0 81.5 -18.5t22.5 -49.5v-792q0 -32 -22.5 -50t-81.5 -18h-51q-58 0 -80.5 18z" />
    <glyph glyph-name="afii10104" unicode="&#x457;" horiz-adv-x="455" 
d="M-16.5 1106q-36.5 35 -36.5 94q0 57 37 92t94 35t92 -35t35 -92q0 -59 -34.5 -94t-92.5 -35t-94.5 35zM313 1106q-37 35 -37 94q0 56 37 91.5t95 35.5q55 0 91 -35.5t36 -91.5q0 -59 -35.5 -94t-91.5 -35q-58 0 -95 35zM120.5 18q-22.5 18 -22.5 50v792q0 68 103 68h51
q59 0 81.5 -18.5t22.5 -49.5v-792q0 -32 -22.5 -50t-81.5 -18h-51q-58 0 -80.5 18z" />
    <glyph glyph-name="afii10105" unicode="&#x458;" horiz-adv-x="467" 
d="M127 1115q-39 38 -39 102q0 61 39.5 99t101.5 38t101 -38t39 -99q0 -64 -39 -102t-101 -38q-63 0 -102 38zM-65 -341q-41 32 -41 87v18q0 50 67 50q69 0 103 37.5t34 117.5v891q0 68 103 68h51q59 0 81.5 -18.5t22.5 -49.5v-899q0 -108 -38 -183t-106 -113t-157 -38
q-79 0 -120 32z" />
    </font>
</defs>
</svg>
