<svg width="149" height="117" viewBox="0 0 149 117" fill="none" xmlns="http://www.w3.org/2000/svg">
<g clip-path="url(#clip0)">
<path d="M93.2086 0L10.1867 6.46173C4.56122 6.46173 0 11.023 0 16.6561L6.46173 57.3346C6.46173 62.9601 11.023 67.5213 16.6485 67.5213L20.5635 67.7646C20.5635 67.7646 22.8897 76.5373 18.3285 81.0986C18.3285 81.0986 31.9134 77.8145 34.1104 68.6008L86.7393 71.8393C92.3648 71.8393 96.926 67.2781 96.926 61.6525L103.388 10.2019C103.395 4.56122 98.8341 0 93.2086 0Z" fill="#A1D600"/>
<path d="M83.1816 27.1013C83.1816 28.2568 82.2465 29.1919 81.091 29.1919H22.3044C21.1489 29.1919 20.2139 28.2568 20.2139 27.1013C20.2139 25.9458 21.1489 25.0107 22.3044 25.0107H81.091C82.2465 25.0107 83.1816 25.9458 83.1816 27.1013Z" fill="white"/>
<path d="M83.1816 35.9197C83.1816 37.0752 82.2465 38.0102 81.091 38.0102H22.3044C21.1489 38.0102 20.2139 37.0752 20.2139 35.9197C20.2139 34.7642 21.1489 33.8291 22.3044 33.8291H81.091C82.2465 33.8291 83.1816 34.7642 83.1816 35.9197Z" fill="white"/>
<path d="M83.1816 44.7305C83.1816 45.886 82.2465 46.821 81.091 46.821H22.3044C21.1489 46.821 20.2139 45.886 20.2139 44.7305C20.2139 43.5749 21.1489 42.6399 22.3044 42.6399H81.091C82.2465 42.6399 83.1816 43.5825 83.1816 44.7305Z" fill="white"/>
</g>
<g clip-path="url(#clip1)">
<path d="M138.821 31.9287L55.799 38.3904C50.1735 38.3904 45.6123 42.9517 45.6123 48.5848L52.074 89.2633C52.074 94.8888 56.6353 99.45 62.2608 99.45L66.1758 99.6933C66.1758 99.6933 66.1758 111.37 72.2194 116.311C72.2194 116.311 69.9388 104.528 79.7227 100.53L132.352 103.768C137.977 103.768 142.538 99.2068 142.538 93.5813L149 42.1306C149.008 36.4899 144.446 31.9287 138.821 31.9287Z" fill="#4DAFE0"/>
<path d="M128.794 59.03C128.794 60.1855 127.859 61.1206 126.703 61.1206H67.9167C66.7612 61.1206 65.8262 60.1855 65.8262 59.03C65.8262 57.8745 66.7612 56.9395 67.9167 56.9395H126.703C127.859 56.9395 128.794 57.8745 128.794 59.03Z" fill="white"/>
<path d="M128.794 67.8484C128.794 69.0039 127.859 69.9389 126.703 69.9389H67.9167C66.7612 69.9389 65.8262 69.0039 65.8262 67.8484C65.8262 66.6929 66.7612 65.7578 67.9167 65.7578H126.703C127.859 65.7578 128.794 66.6929 128.794 67.8484Z" fill="white"/>
<path d="M128.794 76.6592C128.794 77.8147 127.859 78.7497 126.703 78.7497H67.9167C66.7612 78.7497 65.8262 77.8147 65.8262 76.6592C65.8262 75.5037 66.7612 74.5686 67.9167 74.5686H126.703C127.859 74.5686 128.794 75.5113 128.794 76.6592Z" fill="white"/>
</g>
<defs>
<clipPath id="clip0">
<rect width="103.395" height="81.0986" fill="white"/>
</clipPath>
<clipPath id="clip1">
<rect width="103.388" height="84.3826" fill="white" transform="translate(45.6123 31.9287)"/>
</clipPath>
</defs>
</svg>
